<svg width="26" height="26" viewBox="0 0 26 26" fill="none" xmlns="http://www.w3.org/2000/svg">
<path fill-rule="evenodd" clip-rule="evenodd" d="M0.928581 15.7852C1.44116 15.7852 1.85716 16.2012 1.85716 16.7137V21.3566C1.85716 22.8953 3.10425 24.1424 4.6429 24.1424H21.3574C22.896 24.1424 24.1431 22.8953 24.1431 21.3566V16.7137C24.1431 16.2012 24.5591 15.7852 25.0717 15.7852C25.5843 15.7852 26.0003 16.2012 26.0003 16.7137V21.3566C26.0003 23.9205 23.9212 25.9995 21.3574 25.9995H4.6429C2.07909 25.9995 0 23.9205 0 21.3566V16.7137C0 16.2012 0.416004 15.7852 0.928581 15.7852Z" fill="#181818"/>
<path fill-rule="evenodd" clip-rule="evenodd" d="M13.6567 20.1567C13.2946 20.5198 12.7059 20.5198 12.3438 20.1567L6.77231 14.5852C6.40923 14.223 6.40923 13.6344 6.77231 13.2722C7.13445 12.9092 7.72312 12.9092 8.08526 13.2722L12.0717 17.2586V0.928581C12.0717 0.416004 12.4877 0 13.0003 0C13.5128 0 13.9289 0.416004 13.9289 0.928581V17.2586L17.9153 13.2722C18.2774 12.9092 18.8661 12.9092 19.2282 13.2722C19.5913 13.6344 19.5913 14.223 19.2282 14.5852L13.6567 20.1567Z" fill="#181818"/>
</svg>
