<svg width="27" height="54" viewBox="0 0 27 54" fill="none" xmlns="http://www.w3.org/2000/svg">
<g filter="url(#filter0_bd_4_10219)">
<mask id="path-1-inside-1_4_10219" fill="white">
<path fill-rule="evenodd" clip-rule="evenodd" d="M8.88692 5.75391C7.21236 5.75391 5.81689 7.15471 5.81689 8.82798V24.2682C5.81689 25.9485 7.21236 27.3074 8.88692 27.3074C10.5615 27.3074 11.9221 25.9485 11.9221 24.2682V8.82798C11.9221 7.15471 10.5615 5.75391 8.88692 5.75391ZM5.8511 35.3443C5.8511 37.0211 7.21169 38.4184 8.92114 38.4184C10.5957 38.4184 11.9563 37.0211 11.9563 35.3443C11.9563 33.6675 10.5957 32.3051 8.88625 32.3051C7.21169 32.3051 5.8511 33.6675 5.8511 35.3443Z"/>
</mask>
<path fill-rule="evenodd" clip-rule="evenodd" d="M8.88692 5.75391C7.21236 5.75391 5.81689 7.15471 5.81689 8.82798V24.2682C5.81689 25.9485 7.21236 27.3074 8.88692 27.3074C10.5615 27.3074 11.9221 25.9485 11.9221 24.2682V8.82798C11.9221 7.15471 10.5615 5.75391 8.88692 5.75391ZM5.8511 35.3443C5.8511 37.0211 7.21169 38.4184 8.92114 38.4184C10.5957 38.4184 11.9563 37.0211 11.9563 35.3443C11.9563 33.6675 10.5957 32.3051 8.88625 32.3051C7.21169 32.3051 5.8511 33.6675 5.8511 35.3443Z" fill="url(#paint0_linear_4_10219)"/>
<path d="M6.21689 8.82798C6.21689 7.37483 7.43407 6.15391 8.88692 6.15391V5.35391C6.99066 5.35391 5.41689 6.93458 5.41689 8.82798H6.21689ZM6.21689 24.2682V8.82798H5.41689V24.2682H6.21689ZM8.88692 26.9074C7.42751 26.9074 6.21689 25.7219 6.21689 24.2682H5.41689C5.41689 26.1751 6.99721 27.7074 8.88692 27.7074V26.9074ZM11.5221 24.2682C11.5221 25.7278 10.3404 26.9074 8.88692 26.9074V27.7074C10.7826 27.7074 12.3221 26.1692 12.3221 24.2682H11.5221ZM11.5221 8.82798V24.2682H12.3221V8.82798H11.5221ZM8.88692 6.15391C10.3339 6.15391 11.5221 7.36886 11.5221 8.82798H12.3221C12.3221 6.94055 10.7891 5.35391 8.88692 5.35391V6.15391ZM8.92114 38.0184C7.43605 38.0184 6.2511 36.8036 6.2511 35.3443H5.4511C5.4511 37.2385 6.98733 38.8184 8.92114 38.8184V38.0184ZM11.5563 35.3443C11.5563 36.8066 10.3684 38.0184 8.92114 38.0184V38.8184C10.823 38.8184 12.3563 37.2355 12.3563 35.3443H11.5563ZM8.88625 32.7051C10.3773 32.7051 11.5563 33.8909 11.5563 35.3443H12.3563C12.3563 33.4441 10.8141 31.9051 8.88625 31.9051V32.7051ZM6.2511 35.3443C6.2511 33.8879 7.4331 32.7051 8.88625 32.7051V31.9051C6.99028 31.9051 5.4511 33.4471 5.4511 35.3443H6.2511Z" fill="url(#paint1_linear_4_10219)" mask="url(#path-1-inside-1_4_10219)"/>
</g>
<defs>
<filter id="filter0_bd_4_10219" x="-9.18311" y="-9.24609" width="36.1394" height="62.6641" filterUnits="userSpaceOnUse" color-interpolation-filters="sRGB">
<feFlood flood-opacity="0" result="BackgroundImageFix"/>
<feGaussianBlur in="BackgroundImageFix" stdDeviation="7.5"/>
<feComposite in2="SourceAlpha" operator="in" result="effect1_backgroundBlur_4_10219"/>
<feColorMatrix in="SourceAlpha" type="matrix" values="0 0 0 0 0 0 0 0 0 0 0 0 0 0 0 0 0 0 127 0" result="hardAlpha"/>
<feOffset dx="5" dy="5"/>
<feGaussianBlur stdDeviation="5"/>
<feColorMatrix type="matrix" values="0 0 0 0 0.25098 0 0 0 0 0.588235 0 0 0 0 0.996078 0 0 0 1 0"/>
<feBlend mode="normal" in2="effect1_backgroundBlur_4_10219" result="effect2_dropShadow_4_10219"/>
<feBlend mode="normal" in="SourceGraphic" in2="effect2_dropShadow_4_10219" result="shape"/>
</filter>
<linearGradient id="paint0_linear_4_10219" x1="8.88728" y1="7.59642" x2="3.23711" y2="7.15088" gradientUnits="userSpaceOnUse">
<stop stop-color="white" stop-opacity="0.75"/>
<stop offset="1" stop-color="white" stop-opacity="0.2"/>
</linearGradient>
<linearGradient id="paint1_linear_4_10219" x1="6.79419" y1="9.55936" x2="16.2077" y2="11.7507" gradientUnits="userSpaceOnUse">
<stop stop-color="white" stop-opacity="0.25"/>
<stop offset="1" stop-color="white" stop-opacity="0"/>
</linearGradient>
</defs>
</svg>
