<svg width="22" height="22" viewBox="0 0 22 22" fill="none" xmlns="http://www.w3.org/2000/svg">
<g clip-path="url(#clip0_1927_4726)">
<path fill-rule="evenodd" clip-rule="evenodd" d="M0.935764 0H7.49089C8.00353 0 8.42665 0.422899 8.42665 0.935801V7.58078C8.38189 8.04866 8.00353 8.47156 7.49089 8.47156H0.935764C0.423123 8.47156 0 8.04866 0 7.53579V0.935801C0 0.422899 0.423123 0 0.935764 0ZM1.82677 6.64498H6.55512V1.82658H1.82677V6.64498Z" fill="#022B94"/>
<path d="M21.0595 2.76219H12.3088C11.7961 2.76219 11.373 2.33929 11.373 1.82642C11.373 1.31352 11.7961 0.890625 12.3088 0.890625H21.0595C21.5721 0.890625 21.9952 1.31352 21.9952 1.82642C21.9952 2.33929 21.5721 2.76219 21.0595 2.76219Z" fill="#022B94"/>
<path d="M21.0636 5.66406H12.3088C11.7961 5.66406 11.373 6.08696 11.373 6.59986C11.373 7.11272 11.7961 7.53562 12.3088 7.53562H21.0595C21.5721 7.53562 21.9952 7.11272 21.9952 6.59986C21.9994 6.08696 21.5769 5.66406 21.0636 5.66406Z" fill="#022B94"/>
<path fill-rule="evenodd" clip-rule="evenodd" d="M0.935764 13.5273H7.49089C8.00353 13.5273 8.42665 13.9457 8.42665 14.4631V21.1081C8.38189 21.576 8.00353 21.9989 7.49089 21.9989H0.935764C0.423123 21.9989 0 21.576 0 21.0631V14.4631C0 13.9502 0.423123 13.5273 0.935764 13.5273ZM1.82677 20.1723H6.55512V15.3539H1.82677V20.1723Z" fill="#022B94"/>
<path d="M21.0636 14.4141H12.3088C11.7961 14.4141 11.373 14.837 11.373 15.3499C11.373 15.8628 11.7961 16.2857 12.3088 16.2857H21.0595C21.5721 16.2857 21.9952 15.8628 21.9952 15.3499C21.9994 14.837 21.5769 14.4141 21.0636 14.4141Z" fill="#022B94"/>
<path d="M12.3088 19.1914H21.0636C21.5769 19.1914 21.9994 19.6098 21.9952 20.1272C21.9952 20.6401 21.5721 21.063 21.0595 21.063H12.3088C11.7961 21.063 11.373 20.6401 11.373 20.1272C11.373 19.6143 11.7961 19.1914 12.3088 19.1914Z" fill="#022B94"/>
</g>
<defs>
<clipPath id="clip0_1927_4726">
<rect width="22" height="22" fill="white"/>
</clipPath>
</defs>
</svg>
