<svg width="22" height="22" viewBox="0 0 22 22" fill="none" xmlns="http://www.w3.org/2000/svg">
<path d="M17.0592 6.12297C16.6834 6.12297 16.3717 5.8113 16.3717 5.43547V4.0513C16.3717 3.5013 15.9226 3.04297 15.3634 3.04297H3.51089C2.96089 3.04297 2.50255 3.49214 2.50255 4.0513V5.43547C2.50255 5.8113 2.19089 6.12297 1.81505 6.12297C1.43922 6.12297 1.13672 5.8113 1.13672 5.43547V4.0513C1.13672 2.74047 2.20922 1.66797 3.52005 1.66797H15.3634C16.6742 1.66797 17.7467 2.7313 17.7467 4.0513V5.43547C17.7467 5.8113 17.4351 6.12297 17.0592 6.12297Z" fill="#022B94"/>
<path d="M9.44141 17.2788C9.06557 17.2788 8.75391 16.9671 8.75391 16.5913V3.04297C8.75391 2.66714 9.06557 2.35547 9.44141 2.35547C9.81724 2.35547 10.1289 2.66714 10.1289 3.04297V16.5913C10.1289 16.9763 9.81724 17.2788 9.44141 17.2788Z" fill="#022B94"/>
<path d="M11.4392 17.2773H6.32422C5.94839 17.2773 5.63672 16.9657 5.63672 16.5898C5.63672 16.214 5.94839 15.9023 6.32422 15.9023H11.4392C11.8151 15.9023 12.1267 16.214 12.1267 16.5898C12.1267 16.9657 11.8151 17.2773 11.4392 17.2773Z" fill="#022B94"/>
<path d="M20.1749 12.0996C19.7991 12.0996 19.4874 11.7879 19.4874 11.4121V10.6787C19.4874 10.3946 19.2491 10.1562 18.9649 10.1562H12.5391C12.1632 10.1562 11.8516 9.84458 11.8516 9.46875C11.8516 9.09292 12.1632 8.78125 12.5391 8.78125H18.9649C20.0099 8.78125 20.8624 9.63375 20.8624 10.6787V11.4121C20.8624 11.7971 20.5599 12.0996 20.1749 12.0996Z" fill="#022B94"/>
<path d="M14.7402 20.3323C14.3644 20.3323 14.0527 20.0207 14.0527 19.6448V9.96484C14.0527 9.58901 14.3644 9.27734 14.7402 9.27734C15.1161 9.27734 15.4277 9.58901 15.4277 9.96484V19.6448C15.4277 20.0207 15.1161 20.3323 14.7402 20.3323Z" fill="#022B94"/>
<path d="M16.7026 20.332H12.7793C12.4035 20.332 12.0918 20.0204 12.0918 19.6445C12.0918 19.2687 12.4035 18.957 12.7793 18.957H16.7026C17.0785 18.957 17.3901 19.2687 17.3901 19.6445C17.3901 20.0204 17.0785 20.332 16.7026 20.332Z" fill="#022B94"/>
</svg>
