<svg width="22" height="22" viewBox="0 0 22 22" fill="none" xmlns="http://www.w3.org/2000/svg">
<g clip-path="url(#clip0_1927_7837)">
<path fill-rule="evenodd" clip-rule="evenodd" d="M11.4863 9.36345C11.2121 9.64213 10.6098 9.75 10.1783 9.3185L6.29933 5.43948C5.92626 5.06642 5.92626 4.50457 6.29933 4.1315L10.1783 0.25248C10.5199 -0.0891246 11.0953 -0.0936194 11.4863 0.297428L15.3653 4.17644C15.7384 4.54951 15.7384 5.11136 15.3653 5.48443L11.4863 9.36345ZM13.4056 4.83269L10.8346 2.21221L8.26356 4.83269L10.8346 7.40371L13.4056 4.83269Z" fill="#022B94"/>
<path fill-rule="evenodd" clip-rule="evenodd" d="M10.1823 12.6431C10.5239 12.3015 11.0992 12.297 11.4903 12.688L15.3693 16.567C15.7424 16.9401 15.7424 17.502 15.3693 17.875L11.4903 21.754C11.2161 22.0327 10.6138 22.1406 10.1823 21.7091L6.30324 17.8301C5.93017 17.457 5.93017 16.8952 6.30324 16.5221L10.1823 12.6431ZM8.26298 17.2278L10.834 19.7988L13.4051 17.2278L10.834 14.6073L8.26298 17.2278Z" fill="#022B94"/>
<path fill-rule="evenodd" clip-rule="evenodd" d="M21.4198 10.3469L17.5408 6.46339C17.1677 6.09033 16.6059 6.09033 16.2328 6.46339L12.3538 10.3424C11.9223 10.7739 12.0301 11.3762 12.3088 11.6504L16.1878 15.5294C16.5609 15.9025 17.1228 15.9025 17.4958 15.5294L21.3748 11.6504C21.7659 11.2684 21.7614 10.6885 21.4198 10.3469ZM16.8396 13.5742L14.2686 11.0032L16.8396 8.43212L19.4601 11.0032L16.8396 13.5742Z" fill="#022B94"/>
<path fill-rule="evenodd" clip-rule="evenodd" d="M5.47631 6.46339L9.35533 10.3469C9.69694 10.6885 9.70143 11.2684 9.31038 11.6504L5.43137 15.5294C5.0583 15.9025 4.49645 15.9025 4.12338 15.5294L0.244362 11.6504C-0.034316 11.3762 -0.142191 10.7739 0.28931 10.3424L4.16833 6.46339C4.54139 6.09033 5.10325 6.09033 5.47631 6.46339ZM2.2041 11.0032L4.77512 13.5742L7.3956 11.0032L4.77512 8.43212L2.2041 11.0032Z" fill="#022B94"/>
</g>
<defs>
<clipPath id="clip0_1927_7837">
<rect width="22" height="22" fill="white"/>
</clipPath>
</defs>
</svg>
