<svg width="22" height="22" viewBox="0 0 22 22" fill="none" xmlns="http://www.w3.org/2000/svg">
<path d="M21.9984 3.66638C21.9984 1.32527 17.1388 0 10.9992 0C4.85958 0 0 1.32527 0 3.66638C0 4.21836 0.270425 4.71384 0.763799 5.14882L8.24939 14.9749V21.0817C8.24939 21.8371 9.1117 22.2682 9.71593 21.815L13.3823 19.0652C13.6131 18.8921 13.7489 18.6205 13.7489 18.3319V14.9749L21.2345 5.14882C21.728 4.71384 21.9984 4.2184 21.9984 3.66638ZM10.9992 1.83321C15.9967 1.83321 20.1652 2.97004 20.1652 3.66642C20.1652 3.68198 20.1624 3.69779 20.1582 3.71377C20.0925 3.74552 20.0273 3.78625 19.9637 3.83712C19.424 4.26906 18.3618 4.6554 16.968 4.94675C15.4129 5.25503 13.4117 5.48275 11.2421 5.49869C11.2374 5.49873 11.2327 5.49877 11.228 5.49882C11.1519 5.49933 11.0757 5.49963 10.9992 5.49963C10.9227 5.49963 10.8465 5.49933 10.7704 5.49882C10.7657 5.49877 10.7611 5.49873 10.7563 5.49869C8.58675 5.48275 6.5855 5.25503 5.03045 4.94675C3.63665 4.6554 2.5745 4.26906 2.03476 3.83712C1.97113 3.78621 1.90599 3.74548 1.84021 3.71377C1.83609 3.69783 1.8333 3.68198 1.8333 3.66642C1.83321 2.96999 6.00173 1.83321 10.9992 1.83321ZM11.9158 17.8737L10.0826 19.2486V15.5822H11.9158V17.8737ZM12.3784 13.749H9.61999L4.2172 6.65687C6.01642 7.08528 8.2725 7.31721 10.7473 7.33194C10.8311 7.3325 10.915 7.3328 10.9992 7.3328C11.0834 7.3328 11.1673 7.3325 11.2511 7.33194C13.7259 7.31721 15.982 7.08532 17.7812 6.65687L12.3784 13.749Z" fill="#022B94"/>
</svg>
