<svg width="22" height="22" viewBox="0 0 22 22" fill="none" xmlns="http://www.w3.org/2000/svg">
<path fill-rule="evenodd" clip-rule="evenodd" d="M22 7.22203C22 6.98809 21.901 6.76156 21.7201 6.58184L18.1927 3.07686V1C18.1927 0.447715 17.652 0 16.985 0H5.01497C4.34799 0 3.8073 0.447716 3.8073 1V3.07686L0.279913 6.58184C0.0990485 6.76156 0 6.98809 0 7.22203V21C0 21.5523 0.540693 22 1.20767 22H20.7923C21.4593 22 22 21.5523 22 21V7.22203ZM12.2849 8.0445V8.8638C9.54289 9.05723 8.00816 10.0024 6.56591 10.8907C5.29847 11.6713 4.13864 12.3834 2.1005 12.5656V8.0445H12.2849ZM6.73825 11.0826C5.45862 11.8707 4.24049 12.6208 2.1005 12.806C2.00615 12.8142 1.91001 12.8213 1.81199 12.8272C4.13338 12.687 5.40215 11.9055 6.73825 11.0826ZM17.1424 4.75017L18.7074 6.3052H15.5775L17.1424 4.75017ZM16.0922 1.7393V2.52208H5.9078V1.7393H16.0922ZM14.9001 4.26138H5.34948L3.29259 6.3052H12.8432L14.9001 4.26138ZM2.1005 20.2607V14.3132C4.84249 14.1197 6.37723 13.1745 7.81948 12.2863C9.08692 11.5057 10.2467 10.7936 12.2849 10.6114V20.2607H2.1005ZM14.3854 20.2607V8.0445H19.8995V20.2607H14.3854Z" fill="#022B94"/>
</svg>
