<svg width="512" height="228" viewBox="0 0 512 228" fill="none" xmlns="http://www.w3.org/2000/svg">
<path d="M118.048 226.013C113.458 226.013 109.911 224.758 107.407 222.248C104.903 219.738 103.651 216.077 103.651 211.266V177.694H16.6477C12.0576 177.694 8.30201 176.648 5.38102 174.556C2.66868 172.464 1.3125 169.222 1.3125 164.829C1.3125 162.319 1.93843 159.705 3.19028 156.985C4.44214 154.266 6.63288 150.606 9.76251 146.004L102.713 10.145C105.008 7.00743 107.407 4.60193 109.911 2.92853C112.623 1.25515 115.648 0.418457 118.987 0.418457C122.742 0.418457 125.872 1.6735 128.375 4.18358C131.088 6.48452 132.444 10.1451 132.444 15.1653V152.907H153.725C158.316 152.907 161.758 153.952 164.053 156.044C166.348 158.136 167.496 161.169 167.496 165.143C167.496 169.327 166.348 172.464 164.053 174.556C161.758 176.648 158.316 177.694 153.725 177.694H132.444V211.266C132.444 216.077 131.192 219.738 128.688 222.248C126.185 224.758 122.638 226.013 118.048 226.013ZM103.651 152.907V36.8148H111.475L26.9755 160.751V152.907H103.651Z" fill="#011A59"/>
<path d="M255.758 225.943C230.245 225.943 210.747 216.319 197.264 197.07C183.989 177.614 177.352 149.775 177.352 113.554C177.352 88.9231 180.359 68.3288 186.375 51.7705C192.39 35.2121 201.206 22.6899 212.821 14.2038C224.437 5.71768 238.75 1.47461 255.758 1.47461C281.479 1.47461 300.977 10.9956 314.253 30.0377C327.528 48.8727 334.165 76.6079 334.165 113.243C334.165 137.46 331.158 157.951 325.142 174.716C319.127 191.481 310.311 204.21 298.696 212.903C287.08 221.596 272.767 225.943 255.758 225.943ZM255.758 199.243C271.73 199.243 283.45 192.309 290.917 178.441C298.592 164.367 302.429 142.634 302.429 113.243C302.429 83.6451 298.592 62.1195 290.917 48.6658C283.45 35.0052 271.73 28.1749 255.758 28.1749C239.994 28.1749 228.274 35.0052 220.6 48.6658C212.925 62.1195 209.088 83.6451 209.088 113.243C209.088 142.634 212.925 164.367 220.6 178.441C228.274 192.309 239.994 199.243 255.758 199.243Z" fill="#011A59"/>
<path d="M461.048 226.013C456.458 226.013 452.911 224.758 450.407 222.248C447.903 219.738 446.651 216.077 446.651 211.266V177.694H359.648C355.058 177.694 351.302 176.648 348.381 174.556C345.669 172.464 344.312 169.222 344.312 164.829C344.312 162.319 344.938 159.705 346.19 156.985C347.442 154.266 349.633 150.606 352.763 146.004L445.713 10.145C448.008 7.00743 450.407 4.60193 452.911 2.92853C455.623 1.25515 458.648 0.418457 461.987 0.418457C465.742 0.418457 468.872 1.6735 471.375 4.18358C474.088 6.48452 475.444 10.1451 475.444 15.1653V152.907H496.725C501.316 152.907 504.758 153.952 507.053 156.044C509.348 158.136 510.496 161.169 510.496 165.143C510.496 169.327 509.348 172.464 507.053 174.556C504.758 176.648 501.316 177.694 496.725 177.694H475.444V211.266C475.444 216.077 474.192 219.738 471.688 222.248C469.185 224.758 465.638 226.013 461.048 226.013ZM446.651 152.907V36.8148H454.475L369.975 160.751V152.907H446.651Z" fill="#011A59"/>
</svg>
