<svg width="22" height="22" viewBox="0 0 22 22" fill="none" xmlns="http://www.w3.org/2000/svg">
<path d="M9.30995 3.38026H5.92969C5.45502 3.38026 5.07031 3.76497 5.07031 4.23964V7.6199C5.07031 8.09441 5.45502 8.47928 5.92969 8.47928H9.30995C9.78462 8.47928 10.1693 8.09441 10.1693 7.6199V4.23964C10.1693 3.76497 9.78462 3.38026 9.30995 3.38026ZM8.45058 6.76036H6.78906V5.09885H8.45058V6.76036ZM16.0703 3.38026H12.69C12.2154 3.38026 11.8307 3.76497 11.8307 4.23964V7.6199C11.8307 8.09441 12.2154 8.47928 12.69 8.47928H16.0703C16.545 8.47928 16.9297 8.09441 16.9297 7.6199V4.23964C16.9297 3.76497 16.545 3.38026 16.0703 3.38026ZM15.2109 6.76036H13.5494V5.09885H15.2109V6.76036ZM9.30995 10.1406H5.92969C5.45502 10.1406 5.07031 10.5253 5.07031 11V14.3803C5.07031 14.8549 5.45502 15.2396 5.92969 15.2396H9.30995C9.78462 15.2396 10.1693 14.8549 10.1693 14.3803V11C10.1693 10.5253 9.78462 10.1406 9.30995 10.1406ZM8.45058 13.5209H6.78906V11.8594H8.45058V13.5209ZM16.0703 10.1406H12.69C12.2154 10.1406 11.8307 10.5253 11.8307 11V14.3803C11.8307 14.8549 12.2154 15.2396 12.69 15.2396H16.0703C16.545 15.2396 16.9297 14.8549 16.9297 14.3803V11C16.9297 10.5253 16.545 10.1406 16.0703 10.1406ZM15.2109 13.5209H13.5494V11.8594H15.2109V13.5209ZM21.1406 20.2812H20.31V0.859375C20.31 0.384705 19.9252 0 19.4506 0H2.54942C2.07475 0 1.69005 0.384705 1.69005 0.859375V20.2812H0.859375C0.384705 20.2812 0 20.666 0 21.1406C0 21.6153 0.384705 22 0.859375 22H21.1406C21.6153 22 22 21.6153 22 21.1406C22 20.666 21.6153 20.2812 21.1406 20.2812ZM3.4088 20.2812V1.71875H18.5912V20.2812H3.4088Z" fill="#022B94"/>
</svg>
