<svg width="22" height="22" viewBox="0 0 22 22" fill="none" xmlns="http://www.w3.org/2000/svg">
<g clip-path="url(#clip0_1927_21289)">
<path fill-rule="evenodd" clip-rule="evenodd" d="M9.63021 11.8363C9.63021 13.2865 8.44976 14.4673 6.99957 14.4673C5.54937 14.4673 4.35938 13.2865 4.35938 11.8363C4.35938 10.3861 5.54041 9.20524 6.99061 9.20524C7.18814 9.20524 7.38092 9.22769 7.56532 9.2681L8.78635 7.69667C8.51243 7.28361 8.35546 6.78524 8.35546 6.25544C8.35546 4.80973 9.53592 3.62891 10.9861 3.62891H10.9908C12.4452 3.62891 13.6263 4.80524 13.6263 6.25544C13.6263 6.78524 13.4693 7.28361 13.1954 7.69667L14.4164 9.2681C14.6008 9.22769 14.7936 9.20524 14.9911 9.20524C16.4413 9.20524 17.6224 10.3861 17.6224 11.8363C17.6224 13.2865 16.4413 14.4673 14.9911 14.4673C13.5409 14.4673 12.3599 13.2865 12.3599 11.8363C12.3599 11.2526 12.5532 10.7139 12.8767 10.2783L11.7183 8.78769C11.4892 8.85504 11.251 8.89095 10.9998 8.89095H10.995C10.7438 8.89095 10.5015 8.85504 10.2723 8.78769L9.11399 10.2783C9.43745 10.7139 9.63021 11.2526 9.63021 11.8363ZM15.795 11.8363C15.795 11.4008 15.4399 11.0416 15.0001 11.0416C14.5602 11.0416 14.2057 11.3963 14.2057 11.8363C14.2057 12.2763 14.5602 12.631 15.0001 12.631C15.4357 12.631 15.795 12.2718 15.795 11.8363ZM11.7899 6.25993C11.7899 5.82442 11.4355 5.46973 10.9998 5.46524C10.5641 5.46524 10.2097 5.82442 10.2097 6.25993C10.2097 6.69544 10.5641 7.05014 10.9998 7.05463C11.4355 7.05463 11.7899 6.69544 11.7899 6.25993ZM7.79389 11.8363C7.79389 11.4008 7.4394 11.0416 6.99957 11.0416C6.55914 11.0416 6.20465 11.3963 6.20465 11.8363C6.20465 12.2763 6.56391 12.631 6.99957 12.631C7.43463 12.631 7.79389 12.2718 7.79389 11.8363Z" fill="#022B94"/>
<path fill-rule="evenodd" clip-rule="evenodd" d="M21.0839 0H0.91607C0.4088 0 0 0.408571 0 0.915916V17.178C0 17.6853 0.4088 18.0939 0.91607 18.0939H21.0839C21.5912 18.0939 22 17.6853 22 17.178V0.915916C22 0.408571 21.5912 0 21.0839 0ZM20.1637 16.262H1.83154V1.83184H20.1637V16.262Z" fill="#022B94"/>
<path d="M22 21.0839C22 20.5765 21.5912 20.168 21.0839 20.168H0.91607C0.4088 20.168 0 20.5765 0 21.0839C0 21.5912 0.4088 21.9998 0.91607 21.9998H21.0839C21.5912 21.9998 22 21.5912 22 21.0839Z" fill="#022B94"/>
</g>
<defs>
<clipPath id="clip0_1927_21289">
<rect width="22" height="22" fill="white"/>
</clipPath>
</defs>
</svg>
