<svg width="22" height="22" viewBox="0 0 22 22" fill="none" xmlns="http://www.w3.org/2000/svg">
<path d="M21.9945 12.9358C21.9945 11.618 20.6907 10.5431 19.0802 10.5431H11.6738V5.55972C12.616 5.32135 13.3008 4.60173 13.3008 3.75618C13.3008 2.71723 12.2709 1.86719 11 1.86719C9.73456 1.86719 8.6992 2.71274 8.6992 3.75618C8.6992 4.60623 9.38396 5.32584 10.3262 5.55972V10.5431H2.91434C1.30926 10.5431 0 11.6135 0 12.9358V15.9627C0 17.2805 1.30378 18.3554 2.91434 18.3554H7.44472L5.16036 21.1394C4.95219 21.3913 5.03436 21.7331 5.34114 21.904C5.45618 21.967 5.58765 21.9985 5.71365 21.9985C5.92729 21.9985 6.14094 21.913 6.27241 21.7556L9.06624 18.3554H12.9338L15.7276 21.7556C15.8591 21.913 16.0672 21.9985 16.2864 21.9985C16.4178 21.9985 16.5438 21.967 16.6589 21.904C16.9656 21.7331 17.0478 21.3913 16.8396 21.1394L14.5553 18.3554H19.0857C20.6907 18.3554 22 17.285 22 15.9627V12.9358H21.9945ZM10.0413 3.75168C10.0413 3.31991 10.4686 2.9646 11 2.9646C11.5259 2.9646 11.9587 3.31542 11.9587 3.75168C11.9587 4.18795 11.5314 4.53876 11 4.53876C10.4741 4.53876 10.0413 4.18795 10.0413 3.75168ZM20.6524 15.9627C20.6524 16.6733 19.9457 17.2535 19.0802 17.2535H13.2898H8.71016H2.91434C2.0488 17.2535 1.34213 16.6733 1.34213 15.9627V12.9358C1.34213 12.2252 2.0488 11.645 2.91434 11.645H19.0857C19.9512 11.645 20.6579 12.2252 20.6579 12.9358V15.9627H20.6524Z" fill="#022B94"/>
<path d="M17.0743 13.8984H10.8457C10.4732 13.8984 10.1719 14.1458 10.1719 14.4516C10.1719 14.7575 10.4732 15.0048 10.8457 15.0048H17.0743C17.4468 15.0048 17.7481 14.7575 17.7481 14.4516C17.7481 14.1458 17.4468 13.8984 17.0743 13.8984Z" fill="#022B94"/>
<path d="M5.76245 15.176C6.25258 15.176 6.6499 14.8498 6.6499 14.4474C6.6499 14.045 6.25258 13.7188 5.76245 13.7188C5.27232 13.7188 4.875 14.045 4.875 14.4474C4.875 14.8498 5.27232 15.176 5.76245 15.176Z" fill="#022B94"/>
<path d="M18.3466 7.40528C18.4671 7.47275 18.5985 7.50873 18.7355 7.50873C18.9437 7.50873 19.1518 7.42777 19.2833 7.27485C20.1708 6.2449 20.6419 5.02605 20.6419 3.75323C20.6419 2.48041 20.1708 1.26156 19.2833 0.231607C19.0697 -0.0157613 18.6478 -0.0742302 18.3466 0.101176C18.0453 0.276583 17.974 0.622898 18.1877 0.870266C18.9163 1.71132 19.2997 2.70979 19.2997 3.75323C19.2997 4.79667 18.9163 5.79514 18.1877 6.63619C17.974 6.88356 18.0453 7.22988 18.3466 7.40528Z" fill="#022B94"/>
<path d="M15.2231 5.45567C15.3436 5.52313 15.4751 5.55912 15.612 5.55912C15.8202 5.55912 16.0284 5.47816 16.1598 5.32524C16.5597 4.86648 16.7679 4.32228 16.7679 3.75108C16.7679 3.17988 16.5597 2.63567 16.1598 2.17692C15.9462 1.92955 15.5244 1.87108 15.2231 2.04649C14.9218 2.2219 14.8506 2.56821 15.0642 2.81558C15.2998 3.08993 15.4258 3.41376 15.4258 3.75108C15.4258 4.0884 15.2998 4.41223 15.0642 4.68658C14.8506 4.93845 14.9163 5.28026 15.2231 5.45567Z" fill="#022B94"/>
<path d="M3.65469 0.105083C3.3534 -0.0703239 2.93159 -0.0118551 2.71794 0.235513C1.83049 1.26546 1.35938 2.47982 1.35938 3.75264C1.35938 5.02546 1.83049 6.24431 2.71794 7.27426C2.84942 7.42718 3.05758 7.50813 3.26575 7.50813C3.4027 7.50813 3.53418 7.47665 3.65469 7.40469C3.95599 7.22928 4.0272 6.88297 3.81356 6.6356C3.08497 5.79455 2.70151 4.79608 2.70151 3.75264C2.70151 2.70919 3.08497 1.71073 3.81356 0.869675C4.0272 0.622307 3.95599 0.280489 3.65469 0.105083Z" fill="#022B94"/>
<path d="M6.77724 2.0543C6.47595 1.87889 6.05414 1.93736 5.84049 2.18473C5.44059 2.64349 5.23242 3.1877 5.23242 3.75889C5.23242 4.33009 5.44059 4.8698 5.84049 5.33305C5.97196 5.48597 6.18013 5.56693 6.3883 5.56693C6.52525 5.56693 6.65672 5.53544 6.77724 5.46348C7.07854 5.28808 7.14975 4.94176 6.93611 4.69439C6.70055 4.42004 6.57455 4.09621 6.57455 3.75889C6.57455 3.42157 6.70055 3.09774 6.93611 2.82339C7.14975 2.57153 7.08402 2.22971 6.77724 2.0543Z" fill="#022B94"/>
</svg>
