<svg width="22" height="22" viewBox="0 0 22 22" fill="none" xmlns="http://www.w3.org/2000/svg">
<g clip-path="url(#clip0_1927_21343)">
<path d="M20.625 3.78125H13.75C13.1814 3.78125 12.7188 4.24394 12.7188 4.8125V5.84375H8.59375L11.3438 2.17697V0.34375H2.40625V2.17697L5.15625 5.84375H1.375C0.806437 5.84375 0.34375 6.30644 0.34375 6.875V16.5C0.34375 16.9476 0.632156 17.3257 1.03125 17.468V19.3817C0.819844 19.6233 0.6875 19.9358 0.6875 20.2812C0.6875 21.0396 1.30419 21.6562 2.0625 21.6562C2.82081 21.6562 3.4375 21.0396 3.4375 20.2812C3.4375 19.9358 3.30516 19.6233 3.09375 19.3813V17.5312H9.28125V19.3813C9.06984 19.623 8.9375 19.9354 8.9375 20.2812C8.9375 21.0396 9.55419 21.6562 10.3125 21.6562C11.0708 21.6562 11.6875 21.0396 11.6875 20.2812C11.6875 19.9358 11.5552 19.6233 11.3438 19.3813V17.5312H18.9062V19.3813C18.6948 19.623 18.5625 19.9354 18.5625 20.2812C18.5625 21.0396 19.1792 21.6562 19.9375 21.6562C20.6958 21.6562 21.3125 21.0396 21.3125 20.2812C21.3125 19.9358 21.1802 19.6233 20.9688 19.3813V17.468C21.3678 17.3257 21.6562 16.9476 21.6562 16.5V4.8125C21.6562 4.24394 21.1936 3.78125 20.625 3.78125ZM13.75 4.46875H20.625C20.8144 4.46875 20.9688 4.62309 20.9688 4.8125V5.15625H13.4062V4.8125C13.4062 4.62309 13.5606 4.46875 13.75 4.46875ZM12.7188 9.96875H11.1729C10.7632 8.74362 9.64528 7.79178 8.25 7.40678V6.53125H12.7188V9.96875ZM3.78125 16.8438V14.0938H9.96875V16.8438H3.78125ZM1.375 16.8438C1.18559 16.8438 1.03125 16.6898 1.03125 16.5V12.0312H3.78125V13.4062H3.09375V16.8438H1.375ZM7.5625 6.53125V7.26653C7.33734 7.23663 7.10841 7.21875 6.875 7.21875C6.64194 7.21875 6.41266 7.23663 6.1875 7.26653V6.53125H7.5625ZM6.875 7.90625C7.10909 7.90625 7.33872 7.92481 7.5625 7.95884V9.96875H6.1875V7.95884C6.41128 7.92481 6.64091 7.90625 6.875 7.90625ZM8.25 9.96875V8.12144C9.25856 8.44559 10.0671 9.11522 10.4369 9.96875H8.25ZM5.84375 13.4062V12.0312H7.90625V13.4062H5.84375ZM5.15625 10.6562V11.3438H4.46875V10.6562H5.15625ZM5.15625 12.0312V13.4062H4.46875V12.0312H5.15625ZM5.84375 11.3438V10.6562H7.90625V11.3438H5.84375ZM5.5 9.96875H3.31306C3.68294 9.11556 4.49178 8.44594 5.5 8.12178V9.96875ZM3.78125 10.6562V11.3438H1.03125V10.6562H3.78125ZM8.59375 13.4062V12.0312H9.28125V13.4062H8.59375ZM8.59375 11.3438V10.6562H9.28125V11.3438H8.59375ZM9.96875 10.6562H12.7188V11.3438H9.96875V10.6562ZM3.09375 1.94803V1.03125H10.6562V1.94803L7.73438 5.84375H6.01562L3.09375 1.94803ZM1.375 6.53125H5.5V7.40678C4.10506 7.79178 2.98684 8.74362 2.57709 9.96875H1.03125V6.875C1.03125 6.68559 1.18559 6.53125 1.375 6.53125ZM2.0625 20.9688C1.68334 20.9688 1.375 20.6604 1.375 20.2812C1.375 19.9021 1.68334 19.5938 2.0625 19.5938C2.44166 19.5938 2.75 19.9021 2.75 20.2812C2.75 20.6604 2.44166 20.9688 2.0625 20.9688ZM2.40625 18.9551C2.29556 18.9262 2.18178 18.9062 2.0625 18.9062C1.94322 18.9062 1.82944 18.9262 1.71875 18.9551V17.5312H2.40625V18.9551ZM10.3125 20.9688C9.93334 20.9688 9.625 20.6604 9.625 20.2812C9.625 19.9021 9.93334 19.5938 10.3125 19.5938C10.6917 19.5938 11 19.9021 11 20.2812C11 20.6604 10.6917 20.9688 10.3125 20.9688ZM10.6562 18.9551C10.5456 18.9262 10.4318 18.9062 10.3125 18.9062C10.1932 18.9062 10.0794 18.9262 9.96875 18.9551V17.5312H10.6562V18.9551ZM10.6562 16.8438V13.4062H9.96875V12.0312H12.7188V16.8438H10.6562ZM20.2812 17.5312V18.9551C20.1706 18.9262 20.0568 18.9062 19.9375 18.9062C19.8182 18.9062 19.7044 18.9262 19.5938 18.9551V17.5312H20.2812ZM19.9375 20.9688C19.5583 20.9688 19.25 20.6604 19.25 20.2812C19.25 19.9021 19.5583 19.5938 19.9375 19.5938C20.3167 19.5938 20.625 19.9021 20.625 20.2812C20.625 20.6604 20.3167 20.9688 19.9375 20.9688ZM20.625 16.8438H13.4062V5.84375H20.9688V16.5C20.9688 16.6898 20.8144 16.8438 20.625 16.8438Z" fill="#022B94"/>
<path d="M14.0938 11.3438H20.2812V6.53125H14.0938V11.3438ZM14.7812 10.6562V8.59375H15.6001L16.4574 10.3084L17.3714 8.9375H19.5938V10.6562H14.7812ZM19.5938 7.21875V8.25H17.0036L16.5426 8.94162L16.0249 7.90625H14.7812V7.21875H19.5938Z" fill="#022B94"/>
<path d="M16.5 12.0312C15.9314 12.0312 15.4688 12.4939 15.4688 13.0625C15.4688 13.6311 15.9314 14.0938 16.5 14.0938C17.0686 14.0938 17.5312 13.6311 17.5312 13.0625C17.5312 12.4939 17.0686 12.0312 16.5 12.0312ZM16.5 13.4062C16.3106 13.4062 16.1562 13.2522 16.1562 13.0625C16.1562 12.8727 16.3106 12.7188 16.5 12.7188C16.6894 12.7188 16.8438 12.8727 16.8438 13.0625C16.8438 13.2522 16.6894 13.4062 16.5 13.4062Z" fill="#022B94"/>
<path d="M19.25 12.0312C18.6814 12.0312 18.2188 12.4939 18.2188 13.0625C18.2188 13.6311 18.6814 14.0938 19.25 14.0938C19.8186 14.0938 20.2812 13.6311 20.2812 13.0625C20.2812 12.4939 19.8186 12.0312 19.25 12.0312ZM19.25 13.4062C19.0606 13.4062 18.9062 13.2522 18.9062 13.0625C18.9062 12.8727 19.0606 12.7188 19.25 12.7188C19.4394 12.7188 19.5938 12.8727 19.5938 13.0625C19.5938 13.2522 19.4394 13.4062 19.25 13.4062Z" fill="#022B94"/>
</g>
<defs>
<clipPath id="clip0_1927_21343">
<rect width="22" height="22" fill="white"/>
</clipPath>
</defs>
</svg>
