<svg width="22" height="22" viewBox="0 0 22 22" fill="none" xmlns="http://www.w3.org/2000/svg">
<g clip-path="url(#clip0_1927_21476)">
<path fill-rule="evenodd" clip-rule="evenodd" d="M5.80469 5.19469C5.80469 8.05918 8.13515 10.3894 10.9991 10.3894C13.8637 10.3894 16.1941 8.05918 16.1941 5.19469C16.1941 2.3302 13.8637 0 10.9991 0C8.13515 0 5.80469 2.3302 5.80469 5.19469ZM7.63624 5.19469C7.63624 3.34041 9.14492 1.83184 10.9991 1.83184C12.8539 1.83184 14.362 3.34041 14.362 5.19469C14.362 7.04898 12.8539 8.55755 10.9991 8.55755C9.14492 8.55755 7.63624 7.04898 7.63624 5.19469Z" fill="#022B94"/>
<path fill-rule="evenodd" clip-rule="evenodd" d="M0 21.0855C0 21.5928 0.4088 22.0014 0.91607 22.0014H21.0839C21.5912 22.0014 22 21.5928 22 21.0855C22 18.0908 20.8327 15.2847 18.7177 13.1834C17.3528 11.8275 15.4312 11.0508 13.4379 11.0508H8.56212C6.57302 11.0508 4.64719 11.8275 3.28233 13.1834C1.16732 15.2847 0 18.0908 0 21.0855ZM17.425 14.4855C18.9737 16.021 19.9166 18.0145 20.1231 20.1696H1.8769C2.08339 18.0145 3.02631 16.021 4.57498 14.4855C5.59907 13.4708 7.04926 12.8871 8.56212 12.8871H13.4379C14.9466 12.8871 16.4009 13.4708 17.425 14.4855Z" fill="#022B94"/>
</g>
<defs>
<clipPath id="clip0_1927_21476">
<rect width="22" height="22" fill="white"/>
</clipPath>
</defs>
</svg>
