<svg width="2150" height="2150" viewBox="0 0 2150 2150" fill="none" xmlns="http://www.w3.org/2000/svg">
<path d="M621.946 779.234L742.183 987.489L533.927 1107.73L413.691 899.47L621.946 779.234Z" fill="url(#paint0_angular_11_167)"/>
<path d="M1362.73 626.16L1482.97 834.416L1274.71 954.652L1154.47 746.397L1362.73 626.16Z" fill="url(#paint1_angular_11_167)"/>
<path d="M1036.28 538.689L1156.52 746.945L948.264 867.181L828.027 658.926L1036.28 538.689Z" fill="url(#paint2_angular_11_167)"/>
<path d="M709.838 451.219L830.074 659.474L621.819 779.71L511.582 588.775C506.06 579.209 509.337 566.978 518.903 561.455L709.838 451.219Z" fill="url(#paint3_angular_11_167)"/>
<path d="M899.476 341.731C909.042 336.208 921.274 339.486 926.796 349.052L1037.03 539.987L828.777 660.223L708.541 451.968L899.476 341.731Z" fill="url(#paint4_angular_11_167)"/>
<path d="M1243.66 417.632L1363.9 625.888L1155.64 746.124L1035.41 537.869L1243.66 417.632Z" fill="url(#paint5_angular_11_167)"/>
<path d="M1553.94 517.093C1563.5 511.57 1575.73 514.848 1581.26 524.414L1691.49 715.348L1483.24 835.585L1363 627.329L1553.94 517.093Z" fill="url(#paint6_angular_11_167)"/>
<path d="M741.434 986.192L861.67 1194.45L653.415 1314.68L533.178 1106.43L741.434 986.192Z" fill="url(#paint7_angular_11_167)"/>
<path d="M860.921 1193.15L981.157 1401.41L772.902 1521.64L652.665 1313.39L860.921 1193.15Z" fill="url(#paint8_angular_11_167)"/>
<path d="M772.989 1516.5L892.413 1723.35L684.157 1843.58L564.733 1636.74L772.989 1516.5Z" fill="url(#paint9_angular_11_167)"/>
<path d="M1187.79 1279.05L1307.21 1485.9L1098.96 1606.14L979.532 1399.29L1187.79 1279.05Z" fill="url(#paint10_angular_11_167)"/>
<path d="M1603.26 1043L1722.68 1249.85L1514.42 1370.08L1395 1163.24L1603.26 1043Z" fill="url(#paint11_angular_11_167)"/>
<path d="M1098.29 1601.98L1217.71 1808.83L1009.45 1929.07L890.03 1722.22L1098.29 1601.98Z" fill="url(#paint12_angular_11_167)"/>
<path d="M891.327 1721.47L1010.75 1928.32L819.816 2038.55C810.25 2044.08 798.019 2040.8 792.496 2031.23L683.072 1841.7L891.327 1721.47Z" fill="url(#paint13_angular_11_167)"/>
<path d="M1305.24 1482.49L1414.67 1672.02C1420.19 1681.59 1416.91 1693.82 1407.35 1699.34L1216.41 1809.58L1096.99 1602.73L1305.24 1482.49Z" fill="url(#paint14_angular_11_167)"/>
<path d="M948.392 866.705L1068.63 1074.96L860.373 1195.2L740.136 986.941L948.392 866.705Z" fill="url(#paint15_angular_11_167)"/>
<path d="M1690.74 714.052L1800.98 904.987C1806.5 914.553 1803.22 926.784 1793.66 932.307L1602.72 1042.54L1482.49 834.288L1690.74 714.052Z" fill="url(#paint16_angular_11_167)"/>
<path d="M1067.88 1073.66L1188.12 1281.92L979.86 1402.15L859.624 1193.9L1067.88 1073.66Z" fill="url(#paint17_angular_11_167)"/>
<path d="M534.475 1105.68L654.711 1313.93L463.777 1424.17C454.211 1429.69 441.979 1426.42 436.456 1416.85L336.22 1243.24C330.697 1233.67 333.974 1221.44 343.54 1215.92L534.475 1105.68Z" fill="url(#paint18_angular_11_167)"/>
<path d="M1274.84 954.176L1395.07 1162.43L1186.82 1282.67L1066.58 1074.41L1274.84 954.176Z" fill="url(#paint19_angular_11_167)"/>
<path d="M1723.91 1249.45L1844.15 1457.7L1653.21 1567.94C1643.64 1573.46 1631.41 1570.18 1625.89 1560.62L1515.65 1369.68L1723.91 1249.45Z" fill="url(#paint20_angular_11_167)"/>
<path d="M95.6753 828.899C90.1524 819.333 93.4299 807.101 102.996 801.578L276.61 701.342C286.176 695.819 298.408 699.097 303.931 708.663L414.167 899.597L223.232 1009.83C213.666 1015.36 201.434 1012.08 195.912 1002.51L95.6753 828.899Z" fill="url(#paint21_angular_11_167)"/>
<path d="M1724 1249.24L1932.26 1129L2052.49 1337.26L1844.24 1457.49L1724 1249.24Z" fill="url(#paint22_angular_11_167)"/>
<path d="M1313.81 101.187C1323.38 95.6637 1335.61 98.9412 1341.13 108.507L1441.37 282.121C1446.89 291.687 1443.61 303.919 1434.05 309.442L1243.11 419.678L1132.88 228.743C1127.35 219.177 1130.63 206.946 1140.2 201.423L1313.81 101.187Z" fill="url(#paint23_angular_11_167)"/>
<defs>
<radialGradient id="paint0_angular_11_167" cx="0" cy="0" r="1" gradientUnits="userSpaceOnUse" gradientTransform="translate(577.937 943.48) rotate(148.364) scale(94.2196 94.2201)">
<stop offset="0.0095008" stop-color="#003570"/>
<stop offset="1" stop-color="#254569" stop-opacity="0"/>
</radialGradient>
<radialGradient id="paint1_angular_11_167" cx="0" cy="0" r="1" gradientUnits="userSpaceOnUse" gradientTransform="translate(1318.72 790.406) rotate(148.364) scale(94.2196 94.2201)">
<stop offset="0.0095008" stop-color="#003570"/>
<stop offset="1" stop-color="#254569" stop-opacity="0"/>
</radialGradient>
<radialGradient id="paint2_angular_11_167" cx="0" cy="0" r="1" gradientUnits="userSpaceOnUse" gradientTransform="translate(992.273 702.935) rotate(148.364) scale(94.2196 94.2201)">
<stop offset="0.0095008" stop-color="#003570"/>
<stop offset="1" stop-color="#254569" stop-opacity="0"/>
</radialGradient>
<radialGradient id="paint3_angular_11_167" cx="0" cy="0" r="1" gradientUnits="userSpaceOnUse" gradientTransform="translate(665.828 615.464) rotate(148.364) scale(94.2196 94.2201)">
<stop offset="0.0095008" stop-color="#003570"/>
<stop offset="1" stop-color="#254569" stop-opacity="0"/>
</radialGradient>
<radialGradient id="paint4_angular_11_167" cx="0" cy="0" r="1" gradientUnits="userSpaceOnUse" gradientTransform="translate(872.787 495.977) rotate(148.364) scale(94.2196 94.2201)">
<stop offset="0.0095008" stop-color="#003570"/>
<stop offset="1" stop-color="#254569" stop-opacity="0"/>
</radialGradient>
<radialGradient id="paint5_angular_11_167" cx="0" cy="0" r="1" gradientUnits="userSpaceOnUse" gradientTransform="translate(1199.65 581.878) rotate(148.364) scale(94.2196 94.2201)">
<stop offset="0.0095008" stop-color="#003570"/>
<stop offset="1" stop-color="#254569" stop-opacity="0"/>
</radialGradient>
<radialGradient id="paint6_angular_11_167" cx="0" cy="0" r="1" gradientUnits="userSpaceOnUse" gradientTransform="translate(1527.25 671.339) rotate(148.364) scale(94.2196 94.2201)">
<stop offset="0.0095008" stop-color="#003570"/>
<stop offset="1" stop-color="#254569" stop-opacity="0"/>
</radialGradient>
<radialGradient id="paint7_angular_11_167" cx="0" cy="0" r="1" gradientUnits="userSpaceOnUse" gradientTransform="translate(697.424 1150.44) rotate(148.364) scale(94.2196 94.2201)">
<stop offset="0.0095008" stop-color="#003570"/>
<stop offset="1" stop-color="#254569" stop-opacity="0"/>
</radialGradient>
<radialGradient id="paint8_angular_11_167" cx="0" cy="0" r="1" gradientUnits="userSpaceOnUse" gradientTransform="translate(816.911 1357.4) rotate(148.364) scale(94.2196 94.2201)">
<stop offset="0.0095008" stop-color="#003570"/>
<stop offset="1" stop-color="#254569" stop-opacity="0"/>
</radialGradient>
<radialGradient id="paint9_angular_11_167" cx="0" cy="0" r="1" gradientUnits="userSpaceOnUse" gradientTransform="translate(728.573 1680.04) rotate(148.376) scale(94.2191 93.584)">
<stop offset="0.0095008" stop-color="#003570"/>
<stop offset="1" stop-color="#254569" stop-opacity="0"/>
</radialGradient>
<radialGradient id="paint10_angular_11_167" cx="0" cy="0" r="1" gradientUnits="userSpaceOnUse" gradientTransform="translate(1143.37 1442.59) rotate(148.376) scale(94.2191 93.584)">
<stop offset="0.0095008" stop-color="#003570"/>
<stop offset="1" stop-color="#254569" stop-opacity="0"/>
</radialGradient>
<radialGradient id="paint11_angular_11_167" cx="0" cy="0" r="1" gradientUnits="userSpaceOnUse" gradientTransform="translate(1558.84 1206.54) rotate(148.376) scale(94.2191 93.584)">
<stop offset="0.0095008" stop-color="#003570"/>
<stop offset="1" stop-color="#254569" stop-opacity="0"/>
</radialGradient>
<radialGradient id="paint12_angular_11_167" cx="0" cy="0" r="1" gradientUnits="userSpaceOnUse" gradientTransform="translate(1053.87 1765.52) rotate(148.376) scale(94.2191 93.584)">
<stop offset="0.0095008" stop-color="#003570"/>
<stop offset="1" stop-color="#254569" stop-opacity="0"/>
</radialGradient>
<radialGradient id="paint13_angular_11_167" cx="0" cy="0" r="1" gradientUnits="userSpaceOnUse" gradientTransform="translate(846.911 1885.01) rotate(148.376) scale(94.2191 93.584)">
<stop offset="0.0095008" stop-color="#003570"/>
<stop offset="1" stop-color="#254569" stop-opacity="0"/>
</radialGradient>
<radialGradient id="paint14_angular_11_167" cx="0" cy="0" r="1" gradientUnits="userSpaceOnUse" gradientTransform="translate(1260.83 1646.04) rotate(148.376) scale(94.2191 93.584)">
<stop offset="0.0095008" stop-color="#003570"/>
<stop offset="1" stop-color="#254569" stop-opacity="0"/>
</radialGradient>
<radialGradient id="paint15_angular_11_167" cx="0" cy="0" r="1" gradientUnits="userSpaceOnUse" gradientTransform="translate(904.382 1030.95) rotate(148.364) scale(94.2196 94.2201)">
<stop offset="0.0095008" stop-color="#003570"/>
<stop offset="1" stop-color="#254569" stop-opacity="0"/>
</radialGradient>
<radialGradient id="paint16_angular_11_167" cx="0" cy="0" r="1" gradientUnits="userSpaceOnUse" gradientTransform="translate(1646.73 878.298) rotate(148.364) scale(94.2196 94.2201)">
<stop offset="0.0095008" stop-color="#003570"/>
<stop offset="1" stop-color="#254569" stop-opacity="0"/>
</radialGradient>
<radialGradient id="paint17_angular_11_167" cx="0" cy="0" r="1" gradientUnits="userSpaceOnUse" gradientTransform="translate(1023.87 1237.91) rotate(148.364) scale(94.2196 94.2201)">
<stop offset="0.0095008" stop-color="#003570"/>
<stop offset="1" stop-color="#254569" stop-opacity="0"/>
</radialGradient>
<radialGradient id="paint18_angular_11_167" cx="0" cy="0" r="1" gradientUnits="userSpaceOnUse" gradientTransform="translate(490.466 1269.93) rotate(148.364) scale(94.2196 94.2201)">
<stop offset="0.0095008" stop-color="#003570"/>
<stop offset="1" stop-color="#254569" stop-opacity="0"/>
</radialGradient>
<radialGradient id="paint19_angular_11_167" cx="0" cy="0" r="1" gradientUnits="userSpaceOnUse" gradientTransform="translate(1230.83 1118.42) rotate(148.364) scale(94.2196 94.2201)">
<stop offset="0.0095008" stop-color="#003570"/>
<stop offset="1" stop-color="#254569" stop-opacity="0"/>
</radialGradient>
<radialGradient id="paint20_angular_11_167" cx="0" cy="0" r="1" gradientUnits="userSpaceOnUse" gradientTransform="translate(1679.9 1413.69) rotate(148.364) scale(94.2196 94.2201)">
<stop offset="0.0095008" stop-color="#003570"/>
<stop offset="1" stop-color="#254569" stop-opacity="0"/>
</radialGradient>
<radialGradient id="paint21_angular_11_167" cx="0" cy="0" r="1" gradientUnits="userSpaceOnUse" gradientTransform="translate(249.921 855.588) rotate(58.3645) scale(94.2196 94.2201)">
<stop offset="0.0095008" stop-color="#003570"/>
<stop offset="1" stop-color="#254569" stop-opacity="0"/>
</radialGradient>
<radialGradient id="paint22_angular_11_167" cx="0" cy="0" r="1" gradientUnits="userSpaceOnUse" gradientTransform="translate(1888.25 1293.25) rotate(58.3645) scale(94.2196 94.2201)">
<stop offset="0.0095008" stop-color="#003570"/>
<stop offset="1" stop-color="#254569" stop-opacity="0"/>
</radialGradient>
<radialGradient id="paint23_angular_11_167" cx="0" cy="0" r="1" gradientUnits="userSpaceOnUse" gradientTransform="translate(1287.12 255.432) rotate(148.364) scale(94.2196 94.2201)">
<stop offset="0.0095008" stop-color="#003570"/>
<stop offset="1" stop-color="#254569" stop-opacity="0"/>
</radialGradient>
</defs>
</svg>
