<svg width="16" height="17" viewBox="0 0 16 17" fill="none" xmlns="http://www.w3.org/2000/svg">
<circle cx="8" cy="8.80078" r="7" fill="#F3F3F3"/>
<path d="M7.99992 15.9661C4.04659 15.9661 0.833252 12.7528 0.833252 8.79948C0.833252 4.84615 4.04659 1.63281 7.99992 1.63281C11.9533 1.63281 15.1666 4.84615 15.1666 8.79948C15.1666 12.7528 11.9533 15.9661 7.99992 15.9661ZM7.99992 2.63281C4.59992 2.63281 1.83325 5.39948 1.83325 8.79948C1.83325 12.1995 4.59992 14.9661 7.99992 14.9661C11.3999 14.9661 14.1666 12.1995 14.1666 8.79948C14.1666 5.39948 11.3999 2.63281 7.99992 2.63281Z" fill="#292D32"/>
<path d="M6.11332 11.1857C5.98666 11.1857 5.85999 11.1391 5.75999 11.0391C5.56666 10.8457 5.56666 10.5257 5.75999 10.3324L9.53332 6.55906C9.72666 6.36573 10.0467 6.36573 10.24 6.55906C10.4333 6.7524 10.4333 7.0724 10.24 7.26573L6.46666 11.0391C6.37332 11.1391 6.23999 11.1857 6.11332 11.1857Z" fill="#292D32"/>
<path d="M9.88666 11.1857C9.75999 11.1857 9.63332 11.1391 9.53332 11.0391L5.75999 7.26573C5.56666 7.0724 5.56666 6.7524 5.75999 6.55906C5.95332 6.36573 6.27332 6.36573 6.46666 6.55906L10.24 10.3324C10.4333 10.5257 10.4333 10.8457 10.24 11.0391C10.14 11.1391 10.0133 11.1857 9.88666 11.1857Z" fill="#292D32"/>
</svg>
