<svg width="41" height="41" viewBox="0 0 41 41" fill="none" xmlns="http://www.w3.org/2000/svg">
<circle cx="20.5" cy="20.5" r="20.5" fill="#323232"/>
<path d="M16.1492 26.0038C15.8571 26.0038 15.565 25.8962 15.3344 25.6656C14.8885 25.2198 14.8885 24.4818 15.3344 24.036L24.036 15.3344C24.4818 14.8885 25.2198 14.8885 25.6656 15.3344C26.1115 15.7802 26.1115 16.5182 25.6656 16.964L16.964 25.6656C16.7488 25.8962 16.4413 26.0038 16.1492 26.0038Z" fill="#FAFAFA"/>
<path d="M24.8508 26.0038C24.5587 26.0038 24.2666 25.8962 24.036 25.6656L15.3344 16.964C14.8885 16.5182 14.8885 15.7802 15.3344 15.3344C15.7802 14.8885 16.5182 14.8885 16.964 15.3344L25.6656 24.036C26.1115 24.4818 26.1115 25.2198 25.6656 25.6656C25.435 25.8962 25.1429 26.0038 24.8508 26.0038Z" fill="#FAFAFA"/>
</svg>
