<svg width="42" height="42" viewBox="0 0 42 42" fill="none" xmlns="http://www.w3.org/2000/svg">
<path d="M28 29.3125H14C13.2825 29.3125 12.6875 28.7175 12.6875 28V14C12.6875 13.2825 13.2825 12.6875 14 12.6875H28C28.7175 12.6875 29.3125 13.2825 29.3125 14V28C29.3125 28.7175 28.7175 29.3125 28 29.3125ZM15.3125 26.6875H26.6875V15.3125H15.3125V26.6875Z" fill="#022B94"/>
<path d="M8.75 39.8125C5.1275 39.8125 2.1875 36.8725 2.1875 33.25C2.1875 29.6275 5.1275 26.6875 8.75 26.6875H14C14.7175 26.6875 15.3125 27.2825 15.3125 28V33.25C15.3125 36.8725 12.3725 39.8125 8.75 39.8125ZM8.75 29.3125C6.58 29.3125 4.8125 31.08 4.8125 33.25C4.8125 35.42 6.58 37.1875 8.75 37.1875C10.92 37.1875 12.6875 35.42 12.6875 33.25V29.3125H8.75Z" fill="#022B94"/>
<path d="M14 15.3125H8.75C5.1275 15.3125 2.1875 12.3725 2.1875 8.75C2.1875 5.1275 5.1275 2.1875 8.75 2.1875C12.3725 2.1875 15.3125 5.1275 15.3125 8.75V14C15.3125 14.7175 14.7175 15.3125 14 15.3125ZM8.75 4.8125C6.58 4.8125 4.8125 6.58 4.8125 8.75C4.8125 10.92 6.58 12.6875 8.75 12.6875H12.6875V8.75C12.6875 6.58 10.92 4.8125 8.75 4.8125Z" fill="#022B94"/>
<path d="M33.25 15.3125H28C27.2825 15.3125 26.6875 14.7175 26.6875 14V8.75C26.6875 5.1275 29.6275 2.1875 33.25 2.1875C36.8725 2.1875 39.8125 5.1275 39.8125 8.75C39.8125 12.3725 36.8725 15.3125 33.25 15.3125ZM29.3125 12.6875H33.25C35.42 12.6875 37.1875 10.92 37.1875 8.75C37.1875 6.58 35.42 4.8125 33.25 4.8125C31.08 4.8125 29.3125 6.58 29.3125 8.75V12.6875Z" fill="#022B94"/>
<path d="M33.25 39.8125C29.6275 39.8125 26.6875 36.8725 26.6875 33.25V28C26.6875 27.2825 27.2825 26.6875 28 26.6875H33.25C36.8725 26.6875 39.8125 29.6275 39.8125 33.25C39.8125 36.8725 36.8725 39.8125 33.25 39.8125ZM29.3125 29.3125V33.25C29.3125 35.42 31.08 37.1875 33.25 37.1875C35.42 37.1875 37.1875 35.42 37.1875 33.25C37.1875 31.08 35.42 29.3125 33.25 29.3125H29.3125Z" fill="#022B94"/>
</svg>
