<svg width="42" height="42" viewBox="0 0 42 42" fill="none" xmlns="http://www.w3.org/2000/svg">
<path d="M26.2503 39.8125C25.7778 39.8125 25.3403 39.55 25.1128 39.1475C24.8853 38.745 24.8853 38.2375 25.1303 37.835L26.9678 34.7725C27.3353 34.1425 28.1403 33.95 28.7703 34.3175C29.4003 34.685 29.5928 35.49 29.2253 36.12L28.7528 36.9075C33.5828 35.77 37.2053 31.43 37.2053 26.25C37.2053 25.5325 37.8003 24.9375 38.5178 24.9375C39.2353 24.9375 39.8303 25.5325 39.8303 26.25C39.8128 33.7225 33.7228 39.8125 26.2503 39.8125Z" fill="#022B94"/>
<path d="M3.5 17.0625C2.7825 17.0625 2.1875 16.4675 2.1875 15.75C2.1875 8.2775 8.2775 2.1875 15.75 2.1875C16.2225 2.1875 16.66 2.45001 16.8875 2.85251C17.115 3.25501 17.115 3.76251 16.87 4.16501L15.0325 7.22751C14.665 7.85751 13.86 8.05003 13.23 7.68253C12.6 7.31503 12.4075 6.50997 12.775 5.87997L13.2475 5.09245C8.41751 6.22995 4.79501 10.57 4.79501 15.75C4.81251 16.4675 4.2175 17.0625 3.5 17.0625Z" fill="#022B94"/>
<path d="M30.9397 13.1246C30.7122 13.1246 30.4847 13.0721 30.2747 12.9496L23.3272 8.92455C22.6972 8.55705 22.4872 7.75211 22.8547 7.12211C23.2222 6.49211 24.0272 6.28207 24.6397 6.64957L30.9397 10.2896L37.1872 6.66709C37.8172 6.29959 38.6222 6.52713 38.9722 7.13963C39.3397 7.76963 39.1122 8.57457 38.4997 8.94207L31.5872 12.9321C31.3947 13.0546 31.1672 13.1246 30.9397 13.1246Z" fill="#022B94"/>
<path d="M30.9404 20.2455C30.2229 20.2455 29.6279 19.6505 29.6279 18.933V11.793C29.6279 11.0755 30.2229 10.4805 30.9404 10.4805C31.6579 10.4805 32.2529 11.0755 32.2529 11.793V18.933C32.2529 19.668 31.6579 20.2455 30.9404 20.2455Z" fill="#022B94"/>
<path d="M30.9399 20.564C30.1349 20.564 29.3124 20.3891 28.6649 20.0216L24.4649 17.694C23.0999 16.9415 22.0674 15.1741 22.0674 13.6166V9.17153C22.0674 7.59653 23.0999 5.84659 24.4824 5.07659L28.6824 2.74906C29.9774 2.03156 31.9199 2.03156 33.2324 2.74906L37.4324 5.07659C38.7974 5.82909 39.8299 7.59652 39.8299 9.15402V13.5991C39.8299 15.1741 38.7974 16.924 37.4324 17.6765L33.2324 20.004C32.5499 20.389 31.7449 20.564 30.9399 20.564ZM29.9424 5.02404L25.7424 7.35157C25.2174 7.64907 24.6924 8.5415 24.6924 9.1365V13.5816C24.6924 14.1941 25.2174 15.0866 25.7424 15.3666L29.9424 17.7115C30.4499 17.9915 31.4299 17.9915 31.9374 17.7115L36.1374 15.384C36.6624 15.0865 37.1874 14.1941 37.1874 13.5991V9.15402C37.1874 8.54151 36.6624 7.64909 36.1374 7.36909L31.9374 5.04156C31.4299 4.74406 30.4324 4.74404 29.9424 5.02404Z" fill="#022B94"/>
<path d="M11.0598 32.3746C10.8323 32.3746 10.6048 32.3221 10.3948 32.1996L3.44728 28.1746C2.81728 27.8071 2.60728 27.0021 2.97478 26.3721C3.34228 25.7421 4.14728 25.5321 4.75978 25.8996L11.0598 29.5396L17.3073 25.9171C17.9373 25.5496 18.7423 25.7771 19.0923 26.3896C19.4598 27.0196 19.2323 27.8246 18.6198 28.1921L11.7073 32.1821C11.5148 32.3046 11.2873 32.3746 11.0598 32.3746Z" fill="#022B94"/>
<path d="M11.0596 39.4955C10.3421 39.4955 9.74707 38.9005 9.74707 38.183V31.043C9.74707 30.3255 10.3421 29.7305 11.0596 29.7305C11.7771 29.7305 12.3721 30.3255 12.3721 31.043V38.183C12.3721 38.918 11.7946 39.4955 11.0596 39.4955Z" fill="#022B94"/>
<path d="M11.06 39.8122C10.255 39.8122 9.43251 39.6372 8.78501 39.2697L4.58499 36.9421C3.21999 36.1896 2.1875 34.4222 2.1875 32.8647V28.4196C2.1875 26.8446 3.21999 25.0946 4.58499 24.3421L8.78501 22.0147C10.08 21.2972 12.04 21.2972 13.335 22.0147L17.535 24.3421C18.9 25.0946 19.9325 26.8621 19.9325 28.4196V32.8647C19.9325 34.4397 18.9 36.1896 17.5175 36.9596L13.3175 39.2872C12.6875 39.6372 11.8825 39.8122 11.06 39.8122ZM10.0625 24.2721L5.86251 26.5997C5.33751 26.8972 4.8125 27.7896 4.8125 28.3846V32.8297C4.8125 33.4422 5.33751 34.3347 5.86251 34.6147L10.0625 36.9421C10.57 37.2221 11.55 37.2221 12.0575 36.9421L16.2575 34.6147C16.7825 34.3172 17.3075 33.4247 17.3075 32.8297V28.3846C17.3075 27.7721 16.7825 26.8797 16.2575 26.5997L12.0575 24.2546C11.5675 23.9921 10.57 23.9921 10.0625 24.2721Z" fill="#022B94"/>
</svg>
