<svg width="42" height="42" viewBox="0 0 42 42" fill="none" xmlns="http://www.w3.org/2000/svg">
<path d="M35 25.8125C32.34 25.8125 30.1875 23.66 30.1875 21C30.1875 18.34 32.34 16.1875 35 16.1875C37.66 16.1875 39.8125 18.34 39.8125 21C39.8125 23.66 37.66 25.8125 35 25.8125ZM35 18.8125C33.7925 18.8125 32.8125 19.7925 32.8125 21C32.8125 22.2075 33.7925 23.1875 35 23.1875C36.2075 23.1875 37.1875 22.2075 37.1875 21C37.1875 19.7925 36.2075 18.8125 35 18.8125Z" fill="#022B94"/>
<path d="M35 11.8125C32.34 11.8125 30.1875 9.66 30.1875 7C30.1875 4.34 32.34 2.1875 35 2.1875C37.66 2.1875 39.8125 4.34 39.8125 7C39.8125 9.66 37.66 11.8125 35 11.8125ZM35 4.8125C33.7925 4.8125 32.8125 5.7925 32.8125 7C32.8125 8.2075 33.7925 9.1875 35 9.1875C36.2075 9.1875 37.1875 8.2075 37.1875 7C37.1875 5.7925 36.2075 4.8125 35 4.8125Z" fill="#022B94"/>
<path d="M35 39.8125C32.34 39.8125 30.1875 37.66 30.1875 35C30.1875 32.34 32.34 30.1875 35 30.1875C37.66 30.1875 39.8125 32.34 39.8125 35C39.8125 37.66 37.66 39.8125 35 39.8125ZM35 32.8125C33.7925 32.8125 32.8125 33.7925 32.8125 35C32.8125 36.2075 33.7925 37.1875 35 37.1875C36.2075 37.1875 37.1875 36.2075 37.1875 35C37.1875 33.7925 36.2075 32.8125 35 32.8125Z" fill="#022B94"/>
<path d="M7 25.8125C4.34 25.8125 2.1875 23.66 2.1875 21C2.1875 18.34 4.34 16.1875 7 16.1875C9.66 16.1875 11.8125 18.34 11.8125 21C11.8125 23.66 9.66 25.8125 7 25.8125ZM7 18.8125C5.7925 18.8125 4.8125 19.7925 4.8125 21C4.8125 22.2075 5.7925 23.1875 7 23.1875C8.2075 23.1875 9.1875 22.2075 9.1875 21C9.1875 19.7925 8.2075 18.8125 7 18.8125Z" fill="#022B94"/>
<path d="M31.5 22.3125H10.5C9.7825 22.3125 9.1875 21.7175 9.1875 21C9.1875 20.2825 9.7825 19.6875 10.5 19.6875H31.5C32.2175 19.6875 32.8125 20.2825 32.8125 21C32.8125 21.7175 32.2175 22.3125 31.5 22.3125Z" fill="#022B94"/>
<path d="M31.5 36.3125H24.5C20.265 36.3125 17.9375 33.985 17.9375 29.75V12.25C17.9375 8.015 20.265 5.6875 24.5 5.6875H31.5C32.2175 5.6875 32.8125 6.2825 32.8125 7C32.8125 7.7175 32.2175 8.3125 31.5 8.3125H24.5C21.735 8.3125 20.5625 9.485 20.5625 12.25V29.75C20.5625 32.515 21.735 33.6875 24.5 33.6875H31.5C32.2175 33.6875 32.8125 34.2825 32.8125 35C32.8125 35.7175 32.2175 36.3125 31.5 36.3125Z" fill="#022B94"/>
</svg>
