<svg width="26" height="26" viewBox="0 0 26 26" fill="none" xmlns="http://www.w3.org/2000/svg">
<path d="M9.93418 16.878C9.72835 16.878 9.52251 16.8021 9.36001 16.6396C9.04585 16.3255 9.04585 15.8055 9.36001 15.4913L15.4917 9.35965C15.8058 9.04548 16.3258 9.04548 16.64 9.35965C16.9542 9.67382 16.9542 10.1938 16.64 10.508L10.5083 16.6396C10.3567 16.8021 10.14 16.878 9.93418 16.878Z" fill="#292D32"/>
<path d="M16.0658 16.878C15.86 16.878 15.6542 16.8021 15.4917 16.6396L9.36001 10.508C9.04585 10.1938 9.04585 9.67382 9.36001 9.35965C9.67418 9.04548 10.1942 9.04548 10.5083 9.35965L16.64 15.4913C16.9542 15.8055 16.9542 16.3255 16.64 16.6396C16.4775 16.8021 16.2717 16.878 16.0658 16.878Z" fill="#292D32"/>
<path d="M16.25 24.6462H9.74999C3.86749 24.6462 1.35416 22.1328 1.35416 16.2503V9.75033C1.35416 3.86783 3.86749 1.35449 9.74999 1.35449H16.25C22.1325 1.35449 24.6458 3.86783 24.6458 9.75033V16.2503C24.6458 22.1328 22.1325 24.6462 16.25 24.6462ZM9.74999 2.97949C4.75582 2.97949 2.97916 4.75616 2.97916 9.75033V16.2503C2.97916 21.2445 4.75582 23.0212 9.74999 23.0212H16.25C21.2442 23.0212 23.0208 21.2445 23.0208 16.2503V9.75033C23.0208 4.75616 21.2442 2.97949 16.25 2.97949H9.74999Z" fill="#292D32"/>
</svg>
