<svg width="28" height="28" viewBox="0 0 28 28" fill="none" xmlns="http://www.w3.org/2000/svg">
<path d="M10.5 20.707C10.3833 20.707 10.2783 20.6837 10.1617 20.637C9.835 20.5087 9.625 20.182 9.625 19.832V12.832C9.625 12.3537 10.0217 11.957 10.5 11.957C10.9783 11.957 11.375 12.3537 11.375 12.832V17.7204L12.215 16.8804C12.5533 16.542 13.1133 16.542 13.4517 16.8804C13.79 17.2187 13.79 17.7787 13.4517 18.117L11.1183 20.4504C10.955 20.6137 10.7217 20.707 10.5 20.707Z" fill="#FAFAFA"/>
<path d="M10.4999 20.7093C10.2782 20.7093 10.0565 20.6277 9.88152 20.4527L7.54818 18.1193C7.20985 17.781 7.20985 17.221 7.54818 16.8827C7.88652 16.5443 8.44652 16.5443 8.78485 16.8827L11.1182 19.216C11.4565 19.5543 11.4565 20.1143 11.1182 20.4527C10.9432 20.6277 10.7215 20.7093 10.4999 20.7093Z" fill="#FAFAFA"/>
<path d="M17.4999 26.5404H10.4999C4.16492 26.5404 1.45825 23.8337 1.45825 17.4987V10.4987C1.45825 4.1637 4.16492 1.45703 10.4999 1.45703H16.3333C16.8116 1.45703 17.2083 1.8537 17.2083 2.33203C17.2083 2.81036 16.8116 3.20703 16.3333 3.20703H10.4999C5.12159 3.20703 3.20825 5.12036 3.20825 10.4987V17.4987C3.20825 22.877 5.12159 24.7904 10.4999 24.7904H17.4999C22.8783 24.7904 24.7916 22.877 24.7916 17.4987V11.6654C24.7916 11.187 25.1883 10.7904 25.6666 10.7904C26.1449 10.7904 26.5416 11.187 26.5416 11.6654V17.4987C26.5416 23.8337 23.8349 26.5404 17.4999 26.5404Z" fill="#FAFAFA"/>
<path d="M25.6666 12.5425H20.9999C17.0099 12.5425 15.4583 10.9909 15.4583 7.00088V2.33422C15.4583 1.98422 15.6683 1.65755 15.9949 1.52922C16.3216 1.38922 16.6949 1.47088 16.9516 1.71588L26.2849 11.0492C26.5299 11.2942 26.6116 11.6792 26.4716 12.0059C26.3316 12.3325 26.0166 12.5425 25.6666 12.5425ZM17.2083 4.44588V7.00088C17.2083 10.0109 17.9899 10.7925 20.9999 10.7925H23.5549L17.2083 4.44588Z" fill="#FAFAFA"/>
</svg>
