<svg width="26" height="26" viewBox="0 0 26 26" fill="none" xmlns="http://www.w3.org/2000/svg">
<path d="M16.25 24.6462H9.74999C3.86749 24.6462 1.35416 22.1328 1.35416 16.2503V9.75033C1.35416 3.86783 3.86749 1.35449 9.74999 1.35449H11.9167C12.3608 1.35449 12.7292 1.72283 12.7292 2.16699C12.7292 2.61116 12.3608 2.97949 11.9167 2.97949H9.74999C4.75582 2.97949 2.97916 4.75616 2.97916 9.75033V16.2503C2.97916 21.2445 4.75582 23.0212 9.74999 23.0212H16.25C21.2442 23.0212 23.0208 21.2445 23.0208 16.2503V14.0837C23.0208 13.6395 23.3892 13.2712 23.8333 13.2712C24.2775 13.2712 24.6458 13.6395 24.6458 14.0837V16.2503C24.6458 22.1328 22.1325 24.6462 16.25 24.6462Z" fill="#181818"/>
<path d="M9.20832 19.1646C8.54748 19.1646 7.94082 18.9263 7.49665 18.4929C6.96582 17.9621 6.73832 17.1929 6.85748 16.3804L7.32332 13.1196C7.40998 12.4913 7.82165 11.6788 8.26582 11.2346L16.8025 2.69793C18.9583 0.542096 21.1467 0.542096 23.3025 2.69793C24.4833 3.87876 25.0142 5.08126 24.9058 6.28376C24.8083 7.25876 24.2883 8.2121 23.3025 9.1871L14.7658 17.7238C14.3217 18.1679 13.5092 18.5796 12.8808 18.6663L9.61998 19.1321C9.47915 19.1646 9.33832 19.1646 9.20832 19.1646ZM17.9508 3.84626L9.41415 12.3829C9.20832 12.5888 8.96998 13.0654 8.92665 13.3471L8.46082 16.6079C8.41748 16.9221 8.48248 17.1821 8.64498 17.3446C8.80748 17.5071 9.06748 17.5721 9.38165 17.5288L12.6425 17.0629C12.9242 17.0196 13.4117 16.7813 13.6067 16.5754L22.1433 8.03876C22.8475 7.3346 23.2158 6.70626 23.27 6.12126C23.335 5.4171 22.9667 4.6696 22.1433 3.83543C20.41 2.1021 19.2183 2.5896 17.9508 3.84626Z" fill="#181818"/>
<path d="M21.5042 10.6488C21.4283 10.6488 21.3525 10.638 21.2875 10.6163C18.4383 9.81464 16.1742 7.55048 15.3725 4.70131C15.2533 4.26798 15.5025 3.82381 15.9358 3.69381C16.3692 3.57464 16.8133 3.82381 16.9325 4.25714C17.5825 6.56464 19.4133 8.39548 21.7208 9.04548C22.1542 9.16464 22.4033 9.61964 22.2842 10.053C22.1867 10.4213 21.8617 10.6488 21.5042 10.6488Z" fill="#181818"/>
</svg>
