<svg width="32" height="32" viewBox="0 0 32 32" fill="none" xmlns="http://www.w3.org/2000/svg">
<path d="M26.36 15.0001H20.9733C18.2933 15.0001 17 13.6934 17 11.0267V5.64008C17 2.96008 18.3067 1.66675 20.9733 1.66675H26.36C29.04 1.66675 30.3333 2.97341 30.3333 5.64008V11.0267C30.3333 13.6934 29.0267 15.0001 26.36 15.0001ZM20.9733 3.66675C19.4 3.66675 19 4.06675 19 5.64008V11.0267C19 12.6001 19.4 13.0001 20.9733 13.0001H26.36C27.9333 13.0001 28.3333 12.6001 28.3333 11.0267V5.64008C28.3333 4.06675 27.9333 3.66675 26.36 3.66675H20.9733V3.66675Z" fill="#022B94"/>
<path d="M11.0265 15.0001H5.63984C2.95984 15.0001 1.6665 13.8134 1.6665 11.3601V5.30675C1.6665 2.85341 2.97317 1.66675 5.63984 1.66675H11.0265C13.7065 1.66675 14.9998 2.85341 14.9998 5.30675V11.3467C14.9998 13.8134 13.6932 15.0001 11.0265 15.0001ZM5.63984 3.66675C3.85317 3.66675 3.6665 4.17341 3.6665 5.30675V11.3467C3.6665 12.4934 3.85317 12.9867 5.63984 12.9867H11.0265C12.8132 12.9867 12.9998 12.4801 12.9998 11.3467V5.30675C12.9998 4.16008 12.8132 3.66675 11.0265 3.66675H5.63984Z" fill="#022B94"/>
<path d="M11.0265 30.3333H5.63984C2.95984 30.3333 1.6665 29.0267 1.6665 26.36V20.9733C1.6665 18.2933 2.97317 17 5.63984 17H11.0265C13.7065 17 14.9998 18.3067 14.9998 20.9733V26.36C14.9998 29.0267 13.6932 30.3333 11.0265 30.3333ZM5.63984 19C4.0665 19 3.6665 19.4 3.6665 20.9733V26.36C3.6665 27.9333 4.0665 28.3333 5.63984 28.3333H11.0265C12.5998 28.3333 12.9998 27.9333 12.9998 26.36V20.9733C12.9998 19.4 12.5998 19 11.0265 19H5.63984Z" fill="#022B94"/>
<path d="M28 21.6667H20C19.4533 21.6667 19 21.2134 19 20.6667C19 20.1201 19.4533 19.6667 20 19.6667H28C28.5467 19.6667 29 20.1201 29 20.6667C29 21.2134 28.5467 21.6667 28 21.6667Z" fill="#022B94"/>
<path d="M28 27H20C19.4533 27 19 26.5467 19 26C19 25.4533 19.4533 25 20 25H28C28.5467 25 29 25.4533 29 26C29 26.5467 28.5467 27 28 27Z" fill="#022B94"/>
</svg>
