<svg width="32" height="32" viewBox="0 0 32 32" fill="none" xmlns="http://www.w3.org/2000/svg">
<path d="M26.36 15.0003H20.9733C18.2933 15.0003 17 13.6937 17 11.027V5.64033C17 2.96033 18.3067 1.66699 20.9733 1.66699H26.36C29.04 1.66699 30.3333 2.97366 30.3333 5.64033V11.027C30.3333 13.6937 29.0267 15.0003 26.36 15.0003ZM20.9733 3.66699C19.4 3.66699 19 4.06699 19 5.64033V11.027C19 12.6003 19.4 13.0003 20.9733 13.0003H26.36C27.9333 13.0003 28.3333 12.6003 28.3333 11.027V5.64033C28.3333 4.06699 27.9333 3.66699 26.36 3.66699H20.9733Z" fill="#022B94"/>
<path d="M11.027 15.0003H5.64033C2.96033 15.0003 1.66699 13.8137 1.66699 11.3603V5.30699C1.66699 2.85366 2.97366 1.66699 5.64033 1.66699H11.027C13.707 1.66699 15.0003 2.85366 15.0003 5.30699V11.347C15.0003 13.8137 13.6937 15.0003 11.027 15.0003ZM5.64033 3.66699C3.85366 3.66699 3.66699 4.17366 3.66699 5.30699V11.347C3.66699 12.4937 3.85366 12.987 5.64033 12.987H11.027C12.8137 12.987 13.0003 12.4803 13.0003 11.347V5.30699C13.0003 4.16033 12.8137 3.66699 11.027 3.66699H5.64033Z" fill="#022B94"/>
<path d="M11.027 30.3333H5.64033C2.96033 30.3333 1.66699 29.0267 1.66699 26.36V20.9733C1.66699 18.2933 2.97366 17 5.64033 17H11.027C13.707 17 15.0003 18.3067 15.0003 20.9733V26.36C15.0003 29.0267 13.6937 30.3333 11.027 30.3333ZM5.64033 19C4.06699 19 3.66699 19.4 3.66699 20.9733V26.36C3.66699 27.9333 4.06699 28.3333 5.64033 28.3333H11.027C12.6003 28.3333 13.0003 27.9333 13.0003 26.36V20.9733C13.0003 19.4 12.6003 19 11.027 19H5.64033Z" fill="#022B94"/>
<path d="M28 21.667H20C19.4533 21.667 19 21.2137 19 20.667C19 20.1203 19.4533 19.667 20 19.667H28C28.5467 19.667 29 20.1203 29 20.667C29 21.2137 28.5467 21.667 28 21.667Z" fill="#022B94"/>
<path d="M28 27H20C19.4533 27 19 26.5467 19 26C19 25.4533 19.4533 25 20 25H28C28.5467 25 29 25.4533 29 26C29 26.5467 28.5467 27 28 27Z" fill="#022B94"/>
</svg>
