<svg width="33" height="33" viewBox="0 0 33 33" fill="none" xmlns="http://www.w3.org/2000/svg">
<path d="M12.7267 21.2733C12.4733 21.2733 12.22 21.18 12.02 20.98C11.6333 20.5933 11.6333 19.9533 12.02 19.5666L19.5667 12.02C19.9533 11.6333 20.5933 11.6333 20.98 12.02C21.3667 12.4066 21.3667 13.0466 20.98 13.4333L13.4333 20.98C13.2467 21.18 12.98 21.2733 12.7267 21.2733Z" fill="#F3F3F3"/>
<path d="M20.2733 21.2733C20.02 21.2733 19.7667 21.18 19.5667 20.98L12.02 13.4333C11.6333 13.0466 11.6333 12.4066 12.02 12.02C12.4067 11.6333 13.0467 11.6333 13.4333 12.02L20.98 19.5666C21.3667 19.9533 21.3667 20.5933 20.98 20.98C20.78 21.18 20.5267 21.2733 20.2733 21.2733Z" fill="#F3F3F3"/>
<path d="M20.5 30.8332H12.5C5.26 30.8332 2.16666 27.7398 2.16666 20.4998V12.4998C2.16666 5.25984 5.26 2.1665 12.5 2.1665H20.5C27.74 2.1665 30.8333 5.25984 30.8333 12.4998V20.4998C30.8333 27.7398 27.74 30.8332 20.5 30.8332ZM12.5 4.1665C6.35333 4.1665 4.16666 6.35317 4.16666 12.4998V20.4998C4.16666 26.6465 6.35333 28.8332 12.5 28.8332H20.5C26.6467 28.8332 28.8333 26.6465 28.8333 20.4998V12.4998C28.8333 6.35317 26.6467 4.1665 20.5 4.1665H12.5Z" fill="#F3F3F3"/>
</svg>
