<svg width="25" height="24" viewBox="0 0 25 24" fill="none" xmlns="http://www.w3.org/2000/svg">
<path d="M12.5 16.3299C10.11 16.3299 8.17001 14.3899 8.17001 11.9999C8.17001 9.60992 10.11 7.66992 12.5 7.66992C14.89 7.66992 16.83 9.60992 16.83 11.9999C16.83 14.3899 14.89 16.3299 12.5 16.3299ZM12.5 9.16992C10.94 9.16992 9.67001 10.4399 9.67001 11.9999C9.67001 13.5599 10.94 14.8299 12.5 14.8299C14.06 14.8299 15.33 13.5599 15.33 11.9999C15.33 10.4399 14.06 9.16992 12.5 9.16992Z" fill="#022B94"/>
<path d="M12.5 21.02C8.73999 21.02 5.18999 18.82 2.74999 15C1.68999 13.35 1.68999 10.66 2.74999 8.99998C5.19999 5.17998 8.74999 2.97998 12.5 2.97998C16.25 2.97998 19.8 5.17998 22.24 8.99998C23.3 10.65 23.3 13.34 22.24 15C19.8 18.82 16.25 21.02 12.5 21.02ZM12.5 4.47998C9.26999 4.47998 6.17999 6.41998 4.01999 9.80998C3.26999 10.98 3.26999 13.02 4.01999 14.19C6.17999 17.58 9.26999 19.52 12.5 19.52C15.73 19.52 18.82 17.58 20.98 14.19C21.73 13.02 21.73 10.98 20.98 9.80998C18.82 6.41998 15.73 4.47998 12.5 4.47998Z" fill="#022B94"/>
</svg>
