<svg width="1946" height="1946" viewBox="0 0 1946 1946" fill="none" xmlns="http://www.w3.org/2000/svg">
<g clip-path="url(#clip0_1059_2369)">
<rect width="1946" height="1946" rx="16" fill="white"/>
<path fill-rule="evenodd" clip-rule="evenodd" d="M768.356 280.974C787.063 246.269 775.961 201.892 743.558 181.855L683.258 144.567C650.854 124.53 609.421 136.421 590.713 171.126L555.898 235.711C537.19 270.416 548.292 314.793 580.695 334.83L699.667 408.398L630.979 535.822C612.27 570.527 570.837 582.418 538.434 562.381L478.133 525.093C445.73 505.056 404.296 516.947 385.588 551.652L248.212 806.499C229.504 841.205 240.606 885.581 273.009 905.619L391.981 979.187L289.419 1169.45L170.447 1095.88C138.044 1075.85 96.6103 1087.74 77.9024 1122.44L43.0878 1187.03C24.3798 1221.73 35.4819 1266.11 67.885 1286.15L128.185 1323.44C160.589 1343.47 202.022 1331.57 220.731 1296.87L289.419 1169.45L408.39 1243.02C440.793 1263.05 451.896 1307.43 433.188 1342.14L398.373 1406.72C379.665 1441.43 390.768 1485.8 423.171 1505.84L483.471 1543.13C515.875 1563.16 557.308 1551.28 576.016 1516.57L610.83 1451.98C629.539 1417.28 670.972 1405.39 703.375 1425.43L822.347 1498.99L753.658 1626.41C734.951 1661.13 746.053 1705.5 778.456 1725.54L1016.4 1872.67C1048.8 1892.71 1090.23 1880.82 1108.94 1846.12L1348.88 1401C1367.59 1366.3 1356.49 1321.92 1324.08 1301.88L1086.14 1154.75C1053.74 1134.71 1042.63 1090.33 1061.35 1055.63L1130.03 928.206L1426.65 1111.62C1459.05 1131.66 1500.48 1119.77 1519.19 1085.07L1656.57 830.216C1675.28 795.511 1664.18 751.134 1631.78 731.096L1571.47 693.808C1539.07 673.772 1497.63 685.662 1478.93 720.368L1444.11 784.952C1425.4 819.657 1383.97 831.548 1351.57 811.512L1232.6 737.943L1301.28 610.519C1319.99 575.814 1308.89 531.437 1276.48 511.4L1038.54 364.263C1006.14 344.227 964.707 356.117 946.001 390.823L911.184 455.407C892.475 490.113 851.042 502.003 818.638 481.967L699.667 408.398L768.356 280.974ZM952.392 818.358L1130.03 928.206L1232.6 737.943L1113.62 664.375C1081.22 644.338 1039.78 656.229 1021.08 690.934L952.392 818.358ZM672.186 898.772L791.157 972.34C823.561 992.378 864.994 980.487 883.702 945.782L952.392 818.358L833.419 744.789C801.016 724.753 759.582 736.643 740.874 771.349L672.186 898.772ZM672.186 898.772L553.214 825.204C520.811 805.167 479.377 817.058 460.67 851.763L391.981 979.187L510.952 1052.75C543.356 1072.79 584.789 1060.9 603.497 1026.2L672.186 898.772ZM822.347 1498.99L941.32 1572.56C973.722 1592.6 1015.16 1580.71 1033.86 1546L1068.68 1481.42C1087.38 1446.72 1076.29 1402.34 1043.88 1382.3L983.579 1345.02C951.177 1324.97 909.743 1336.87 891.035 1371.57L822.347 1498.99Z" fill="#BEE3FA"/>
<path fill-rule="evenodd" clip-rule="evenodd" d="M1145.99 249.601C1172.45 221.265 1172.45 175.322 1145.99 146.986L1096.76 94.2525C1070.3 65.9159 1027.4 65.9158 1000.95 94.2525L951.717 146.986C925.255 175.322 925.255 221.265 951.717 249.601L1048.85 353.642L951.717 457.684C925.255 486.021 882.361 486.021 855.904 457.684L806.668 404.95C780.211 376.613 737.316 376.613 710.859 404.95L516.579 613.033C490.122 641.369 490.122 687.312 516.579 715.649L613.719 819.69L468.675 975.038L371.535 870.997C345.077 842.661 302.182 842.661 275.725 870.997L226.49 923.73C200.033 952.067 200.033 998.01 226.49 1026.35L275.725 1079.08C302.182 1107.41 345.077 1107.41 371.535 1079.08L468.675 975.038L565.815 1079.08C592.271 1107.41 592.271 1153.36 565.815 1181.69L516.579 1234.43C490.122 1262.77 490.122 1308.71 516.579 1337.05L565.815 1389.78C592.271 1418.11 635.167 1418.11 661.624 1389.78L710.859 1337.05C737.316 1308.71 780.211 1308.71 806.668 1337.05L903.804 1441.08L806.668 1545.12C780.211 1573.46 780.211 1619.4 806.668 1647.75L1000.95 1855.82C1027.4 1884.16 1070.3 1884.16 1096.76 1855.82L1436.08 1492.39C1462.54 1464.06 1462.54 1418.11 1436.08 1389.78L1241.81 1181.69C1215.34 1153.36 1215.34 1107.41 1241.81 1079.08L1338.94 975.038L1581.13 1234.43C1607.58 1262.77 1650.48 1262.77 1676.94 1234.43L1871.22 1026.35C1897.67 998.01 1897.67 952.067 1871.22 923.73L1821.98 870.997C1795.52 842.661 1752.63 842.661 1726.17 870.997L1676.94 923.73C1650.48 952.067 1607.58 952.067 1581.13 923.73L1483.98 819.69L1581.13 715.649C1607.58 687.312 1607.58 641.369 1581.13 613.033L1386.85 404.95C1360.39 376.613 1317.49 376.613 1291.04 404.95L1241.81 457.684C1215.34 486.021 1172.45 486.021 1145.99 457.684L1048.85 353.642L1145.99 249.601ZM1193.89 819.69L1338.94 975.038L1483.98 819.69L1386.85 715.649C1360.39 687.312 1317.49 687.312 1291.04 715.649L1193.89 819.69ZM903.804 819.69L1000.95 923.73C1027.4 952.067 1070.3 952.067 1096.76 923.73L1193.89 819.69L1096.76 715.649C1070.3 687.312 1027.4 687.312 1000.95 715.649L903.804 819.69ZM903.804 819.69L806.668 715.649C780.211 687.312 737.316 687.312 710.859 715.649L613.719 819.69L710.859 923.73C737.316 952.067 780.211 952.067 806.668 923.73L903.804 819.69ZM903.804 1441.08L1000.95 1545.12C1027.4 1573.46 1070.3 1573.46 1096.76 1545.12L1145.99 1492.39C1172.45 1464.06 1172.45 1418.11 1145.99 1389.78L1096.76 1337.05C1070.3 1308.71 1027.4 1308.71 1000.95 1337.05L903.804 1441.08Z" fill="url(#paint0_linear_1059_2369)"/>
<mask id="path-4-outside-1_1059_2369" maskUnits="userSpaceOnUse" x="1215.28" y="1238.16" width="684.711" height="707.33" fill="black">
<rect fill="white" x="1215.28" y="1238.16" width="684.711" height="707.33"/>
<path d="M1478.06 1876.69C1475.21 1879.77 1471.73 1881.63 1467.62 1882.28C1463.52 1882.92 1459.37 1882.25 1455.16 1880.26L1235.96 1772.75C1228.73 1769.22 1224.36 1765 1222.86 1760.11C1221.34 1754.88 1222.65 1750.04 1226.78 1745.6C1229.48 1742.69 1232.79 1740.83 1236.72 1740.03C1240.49 1739.06 1244.55 1739.65 1248.92 1741.8L1447.06 1842.18L1441.82 1847.82L1325.48 1662.43C1323.55 1659.37 1322.84 1655.84 1323.35 1651.86C1323.86 1647.88 1325.55 1644.35 1328.4 1641.27C1330.94 1638.54 1334.1 1636.69 1337.86 1635.72C1341.61 1634.43 1345.25 1634.79 1348.79 1636.8L1542.79 1739.06L1538.03 1744.19L1422.19 1552.6C1417.97 1545.49 1419.11 1538.43 1425.62 1531.42C1430.06 1526.63 1434.8 1525.3 1439.83 1527.42C1444.69 1529.39 1448.97 1533.36 1452.66 1539.33L1575.88 1749.72C1578.02 1753.93 1579 1758.19 1578.83 1762.49C1578.65 1766.46 1577.13 1769.98 1574.27 1773.06C1571.25 1776.31 1567.61 1778.18 1563.33 1778.67C1559.22 1778.99 1555.23 1778.31 1551.37 1776.64L1353.49 1669.81L1359.2 1663.66L1479.67 1853.35C1481.81 1857.56 1482.8 1861.82 1482.62 1866.12C1482.44 1870.09 1480.92 1873.61 1478.06 1876.69ZM1674.16 1665.46C1670.67 1669.23 1666.53 1671.28 1661.76 1671.62C1656.97 1671.63 1652.7 1669.89 1648.93 1666.4L1534.79 1560.43C1530.86 1556.78 1528.81 1552.65 1528.64 1548.03C1528.62 1543.24 1530.36 1538.97 1533.86 1535.21C1537.51 1531.27 1541.64 1529.22 1546.26 1529.05C1550.87 1528.88 1555.15 1530.62 1559.08 1534.27L1673.22 1640.24C1676.99 1643.73 1679.04 1647.87 1679.38 1652.64C1679.55 1657.26 1677.81 1661.53 1674.16 1665.46ZM1511.03 1514.01C1506.74 1518.63 1501.38 1521.14 1494.96 1521.54C1488.52 1521.62 1483 1519.51 1478.38 1515.22C1473.76 1510.94 1471.34 1505.66 1471.11 1499.4C1470.86 1492.8 1472.88 1487.2 1477.17 1482.58C1481.45 1477.96 1486.82 1475.62 1493.25 1475.54C1499.68 1475.14 1505.2 1477.08 1509.81 1481.37C1514.43 1485.65 1516.86 1491.09 1517.11 1497.69C1517.34 1503.95 1515.31 1509.4 1511.03 1514.01ZM1703.05 1531.46L1670.85 1531.17L1673.67 1387.18C1673.66 1382.39 1675.17 1378.53 1678.2 1375.62C1681.38 1372.52 1685.29 1371.06 1689.92 1371.22C1694.71 1371.2 1698.56 1372.71 1701.48 1375.74C1704.4 1378.77 1705.87 1382.68 1705.88 1387.47L1703.05 1531.46ZM1743.16 1591.14C1739.67 1594.9 1735.7 1596.95 1731.25 1597.28C1726.8 1597.28 1722.69 1595.53 1718.92 1592.04L1543.73 1429.4C1539.97 1425.9 1538.01 1422.01 1537.85 1417.73C1537.68 1413.11 1539.34 1408.92 1542.83 1405.16C1546.33 1401.4 1550.3 1399.52 1554.76 1399.52C1559.21 1399.19 1563.31 1400.77 1567.07 1404.26L1742.26 1566.9C1746.02 1570.4 1747.99 1574.45 1748.16 1579.07C1748.32 1583.36 1746.65 1587.38 1743.16 1591.14ZM1826.89 1498.38C1826.58 1503.18 1824.66 1507.13 1821.14 1510.23C1817.95 1513.32 1813.96 1514.71 1809.16 1514.39L1696.44 1506.69L1696.18 1473.02L1811.37 1480.63C1816.17 1480.95 1820.04 1482.78 1822.97 1486.14C1825.89 1489.17 1827.2 1493.25 1826.89 1498.38ZM1881.6 1442.03C1878.1 1445.79 1873.97 1447.84 1869.2 1448.19C1864.41 1448.2 1860.13 1446.46 1856.37 1442.97L1742.23 1337C1738.29 1333.34 1736.24 1329.21 1736.07 1324.59C1736.06 1319.81 1737.8 1315.53 1741.29 1311.77C1744.94 1307.84 1749.08 1305.78 1753.69 1305.61C1758.31 1305.44 1762.58 1307.18 1766.52 1310.83L1880.66 1416.8C1884.42 1420.29 1886.47 1424.43 1886.82 1429.2C1886.99 1433.82 1885.25 1438.1 1881.6 1442.03ZM1718.46 1290.58C1714.18 1295.19 1708.82 1297.7 1702.4 1298.11C1695.96 1298.18 1690.43 1296.07 1685.82 1291.79C1681.2 1287.5 1678.77 1282.23 1678.54 1275.96C1678.3 1269.37 1680.32 1263.76 1684.6 1259.14C1688.89 1254.53 1694.25 1252.18 1700.69 1252.11C1707.11 1251.7 1712.63 1253.64 1717.25 1257.93C1721.87 1262.22 1724.3 1267.66 1724.54 1274.25C1724.78 1280.52 1722.75 1285.96 1718.46 1290.58Z"/>
</mask>
<path d="M1478.06 1876.69C1475.21 1879.77 1471.73 1881.63 1467.62 1882.28C1463.52 1882.92 1459.37 1882.25 1455.16 1880.26L1235.96 1772.75C1228.73 1769.22 1224.36 1765 1222.86 1760.11C1221.34 1754.88 1222.65 1750.04 1226.78 1745.6C1229.48 1742.69 1232.79 1740.83 1236.72 1740.03C1240.49 1739.06 1244.55 1739.65 1248.92 1741.8L1447.06 1842.18L1441.82 1847.82L1325.48 1662.43C1323.55 1659.37 1322.84 1655.84 1323.35 1651.86C1323.86 1647.88 1325.55 1644.35 1328.4 1641.27C1330.94 1638.54 1334.1 1636.69 1337.86 1635.72C1341.61 1634.43 1345.25 1634.79 1348.79 1636.8L1542.79 1739.06L1538.03 1744.19L1422.19 1552.6C1417.97 1545.49 1419.11 1538.43 1425.62 1531.42C1430.06 1526.63 1434.8 1525.3 1439.83 1527.42C1444.69 1529.39 1448.97 1533.36 1452.66 1539.33L1575.88 1749.72C1578.02 1753.93 1579 1758.19 1578.83 1762.49C1578.65 1766.46 1577.13 1769.98 1574.27 1773.06C1571.25 1776.31 1567.61 1778.18 1563.33 1778.67C1559.22 1778.99 1555.23 1778.31 1551.37 1776.64L1353.49 1669.81L1359.2 1663.66L1479.67 1853.35C1481.81 1857.56 1482.8 1861.82 1482.62 1866.12C1482.44 1870.09 1480.92 1873.61 1478.06 1876.69ZM1674.16 1665.46C1670.67 1669.23 1666.53 1671.28 1661.76 1671.62C1656.97 1671.63 1652.7 1669.89 1648.93 1666.4L1534.79 1560.43C1530.86 1556.78 1528.81 1552.65 1528.64 1548.03C1528.62 1543.24 1530.36 1538.97 1533.86 1535.21C1537.51 1531.27 1541.64 1529.22 1546.26 1529.05C1550.87 1528.88 1555.15 1530.62 1559.08 1534.27L1673.22 1640.24C1676.99 1643.73 1679.04 1647.87 1679.38 1652.64C1679.55 1657.26 1677.81 1661.53 1674.16 1665.46ZM1511.03 1514.01C1506.74 1518.63 1501.38 1521.14 1494.96 1521.54C1488.52 1521.62 1483 1519.51 1478.38 1515.22C1473.76 1510.94 1471.34 1505.66 1471.11 1499.4C1470.86 1492.8 1472.88 1487.2 1477.17 1482.58C1481.45 1477.96 1486.82 1475.62 1493.25 1475.54C1499.68 1475.14 1505.2 1477.08 1509.81 1481.37C1514.43 1485.65 1516.86 1491.09 1517.11 1497.69C1517.34 1503.95 1515.31 1509.4 1511.03 1514.01ZM1703.05 1531.46L1670.85 1531.17L1673.67 1387.18C1673.66 1382.39 1675.17 1378.53 1678.2 1375.62C1681.38 1372.52 1685.29 1371.06 1689.92 1371.22C1694.71 1371.2 1698.56 1372.71 1701.48 1375.74C1704.4 1378.77 1705.87 1382.68 1705.88 1387.47L1703.05 1531.46ZM1743.16 1591.14C1739.67 1594.9 1735.7 1596.95 1731.25 1597.28C1726.8 1597.28 1722.69 1595.53 1718.92 1592.04L1543.73 1429.4C1539.97 1425.9 1538.01 1422.01 1537.85 1417.73C1537.68 1413.11 1539.34 1408.92 1542.83 1405.16C1546.33 1401.4 1550.3 1399.52 1554.76 1399.52C1559.21 1399.19 1563.31 1400.77 1567.07 1404.26L1742.26 1566.9C1746.02 1570.4 1747.99 1574.45 1748.16 1579.07C1748.32 1583.36 1746.65 1587.38 1743.16 1591.14ZM1826.89 1498.38C1826.58 1503.18 1824.66 1507.13 1821.14 1510.23C1817.95 1513.32 1813.96 1514.71 1809.16 1514.39L1696.44 1506.69L1696.18 1473.02L1811.37 1480.63C1816.17 1480.95 1820.04 1482.78 1822.97 1486.14C1825.89 1489.17 1827.2 1493.25 1826.89 1498.38ZM1881.6 1442.03C1878.1 1445.79 1873.97 1447.84 1869.2 1448.19C1864.41 1448.2 1860.13 1446.46 1856.37 1442.97L1742.23 1337C1738.29 1333.34 1736.24 1329.21 1736.07 1324.59C1736.06 1319.81 1737.8 1315.53 1741.29 1311.77C1744.94 1307.84 1749.08 1305.78 1753.69 1305.61C1758.31 1305.44 1762.58 1307.18 1766.52 1310.83L1880.66 1416.8C1884.42 1420.29 1886.47 1424.43 1886.82 1429.2C1886.99 1433.82 1885.25 1438.1 1881.6 1442.03ZM1718.46 1290.58C1714.18 1295.19 1708.82 1297.7 1702.4 1298.11C1695.96 1298.18 1690.43 1296.07 1685.82 1291.79C1681.2 1287.5 1678.77 1282.23 1678.54 1275.96C1678.3 1269.37 1680.32 1263.76 1684.6 1259.14C1688.89 1254.53 1694.25 1252.18 1700.69 1252.11C1707.11 1251.7 1712.63 1253.64 1717.25 1257.93C1721.87 1262.22 1724.3 1267.66 1724.54 1274.25C1724.78 1280.52 1722.75 1285.96 1718.46 1290.58Z" fill="#222222"/>
<path d="M1455.16 1880.26L1455.12 1880.35L1455.12 1880.35L1455.16 1880.26ZM1235.96 1772.75L1236 1772.66L1236 1772.66L1235.96 1772.75ZM1222.86 1760.11L1222.76 1760.13L1222.76 1760.14L1222.86 1760.11ZM1236.72 1740.03L1236.74 1740.12L1236.75 1740.12L1236.72 1740.03ZM1248.92 1741.8L1248.97 1741.71L1248.97 1741.71L1248.92 1741.8ZM1447.06 1842.18L1447.14 1842.24L1447.23 1842.15L1447.11 1842.09L1447.06 1842.18ZM1441.82 1847.82L1441.74 1847.87L1441.81 1847.98L1441.9 1847.89L1441.82 1847.82ZM1325.48 1662.43L1325.56 1662.38L1325.56 1662.38L1325.48 1662.43ZM1337.86 1635.72L1337.88 1635.82L1337.89 1635.82L1337.86 1635.72ZM1348.79 1636.8L1348.74 1636.89L1348.75 1636.89L1348.79 1636.8ZM1542.79 1739.06L1542.87 1739.13L1542.96 1739.03L1542.84 1738.97L1542.79 1739.06ZM1538.03 1744.19L1537.94 1744.24L1538.01 1744.36L1538.1 1744.26L1538.03 1744.19ZM1422.19 1552.6L1422.11 1552.65L1422.11 1552.65L1422.19 1552.6ZM1439.83 1527.42L1439.79 1527.52L1439.8 1527.52L1439.83 1527.42ZM1452.66 1539.33L1452.74 1539.28L1452.74 1539.28L1452.66 1539.33ZM1575.88 1749.72L1575.97 1749.68L1575.97 1749.67L1575.88 1749.72ZM1578.83 1762.49L1578.93 1762.49L1578.93 1762.49L1578.83 1762.49ZM1563.33 1778.67L1563.34 1778.77L1563.34 1778.77L1563.33 1778.67ZM1551.37 1776.64L1551.32 1776.72L1551.33 1776.73L1551.37 1776.64ZM1353.49 1669.81L1353.41 1669.75L1353.33 1669.84L1353.44 1669.9L1353.49 1669.81ZM1359.2 1663.66L1359.29 1663.6L1359.22 1663.49L1359.13 1663.59L1359.2 1663.66ZM1479.67 1853.35L1479.76 1853.3L1479.76 1853.29L1479.67 1853.35ZM1482.62 1866.12L1482.72 1866.12L1482.72 1866.12L1482.62 1866.12ZM1477.99 1876.62C1475.15 1879.68 1471.69 1881.53 1467.61 1882.18L1467.64 1882.37C1471.76 1881.72 1475.26 1879.85 1478.14 1876.76L1477.99 1876.62ZM1467.61 1882.18C1463.53 1882.82 1459.39 1882.15 1455.21 1880.17L1455.12 1880.35C1459.34 1882.35 1463.51 1883.03 1467.64 1882.37L1467.61 1882.18ZM1455.21 1880.17L1236 1772.66L1235.91 1772.84L1455.12 1880.35L1455.21 1880.17ZM1236 1772.66C1228.78 1769.13 1224.44 1764.94 1222.95 1760.08L1222.76 1760.14C1224.28 1765.07 1228.67 1769.3 1235.91 1772.84L1236 1772.66ZM1222.95 1760.08C1221.45 1754.89 1222.74 1750.09 1226.85 1745.66L1226.7 1745.53C1222.55 1750 1221.24 1754.87 1222.76 1760.13L1222.95 1760.08ZM1226.85 1745.66C1229.53 1742.77 1232.83 1740.93 1236.74 1740.12L1236.7 1739.93C1232.75 1740.74 1229.42 1742.61 1226.7 1745.53L1226.85 1745.66ZM1236.75 1740.12C1240.48 1739.17 1244.52 1739.75 1248.88 1741.89L1248.97 1741.71C1244.58 1739.56 1240.49 1738.96 1236.7 1739.93L1236.75 1740.12ZM1248.88 1741.89L1447.02 1842.27L1447.11 1842.09L1248.97 1741.71L1248.88 1741.89ZM1446.99 1842.11L1441.75 1847.75L1441.9 1847.89L1447.14 1842.24L1446.99 1842.11ZM1441.91 1847.77L1325.56 1662.38L1325.39 1662.49L1441.74 1847.87L1441.91 1847.77ZM1325.56 1662.38C1323.64 1659.34 1322.94 1655.84 1323.45 1651.88L1323.25 1651.85C1322.74 1655.85 1323.45 1659.4 1325.39 1662.49L1325.56 1662.38ZM1323.45 1651.88C1323.96 1647.92 1325.63 1644.41 1328.48 1641.34L1328.33 1641.21C1325.46 1644.3 1323.77 1647.85 1323.25 1651.85L1323.45 1651.88ZM1328.48 1641.34C1331 1638.62 1334.14 1636.78 1337.88 1635.82L1337.83 1635.62C1334.05 1636.59 1330.89 1638.45 1328.33 1641.21L1328.48 1641.34ZM1337.89 1635.82C1341.61 1634.53 1345.23 1634.89 1348.74 1636.89L1348.84 1636.71C1345.28 1634.69 1341.6 1634.32 1337.82 1635.63L1337.89 1635.82ZM1348.75 1636.89L1542.75 1739.15L1542.84 1738.97L1348.84 1636.71L1348.75 1636.89ZM1542.72 1738.99L1537.96 1744.12L1538.1 1744.26L1542.87 1739.13L1542.72 1738.99ZM1538.12 1744.14L1422.28 1552.54L1422.11 1552.65L1537.94 1744.24L1538.12 1744.14ZM1422.28 1552.55C1420.18 1549.01 1419.41 1545.49 1419.98 1541.99C1420.55 1538.48 1422.45 1534.98 1425.69 1531.49L1425.54 1531.35C1422.28 1534.87 1420.36 1538.4 1419.78 1541.96C1419.21 1545.51 1419.98 1549.08 1422.11 1552.65L1422.28 1552.55ZM1425.69 1531.49C1427.9 1529.1 1430.19 1527.58 1432.53 1526.92C1434.88 1526.27 1437.3 1526.46 1439.79 1527.52L1439.87 1527.33C1437.34 1526.26 1434.87 1526.06 1432.48 1526.73C1430.09 1527.4 1427.78 1528.95 1425.54 1531.35L1425.69 1531.49ZM1439.8 1527.52C1444.63 1529.47 1448.89 1533.42 1452.57 1539.38L1452.74 1539.28C1449.05 1533.29 1444.76 1529.31 1439.87 1527.33L1439.8 1527.52ZM1452.57 1539.38L1575.79 1749.77L1575.97 1749.67L1452.74 1539.28L1452.57 1539.38ZM1575.79 1749.77C1577.92 1753.97 1578.9 1758.21 1578.73 1762.49L1578.93 1762.49C1579.1 1758.18 1578.11 1753.9 1575.97 1749.68L1575.79 1749.77ZM1578.73 1762.49C1578.55 1766.43 1577.04 1769.93 1574.2 1772.99L1574.34 1773.13C1577.22 1770.03 1578.75 1766.49 1578.93 1762.49L1578.73 1762.49ZM1574.2 1772.99C1571.2 1776.23 1567.57 1778.08 1563.32 1778.57L1563.34 1778.77C1567.64 1778.28 1571.31 1776.39 1574.34 1773.13L1574.2 1772.99ZM1563.33 1778.57C1559.23 1778.88 1555.26 1778.21 1551.41 1776.54L1551.33 1776.73C1555.2 1778.41 1559.21 1779.09 1563.34 1778.77L1563.33 1778.57ZM1551.42 1776.55L1353.53 1669.73L1353.44 1669.9L1551.32 1776.72L1551.42 1776.55ZM1353.56 1669.88L1359.28 1663.73L1359.13 1663.59L1353.41 1669.75L1353.56 1669.88ZM1359.12 1663.71L1479.59 1853.4L1479.76 1853.29L1359.29 1663.6L1359.12 1663.71ZM1479.58 1853.39C1481.72 1857.59 1482.69 1861.83 1482.52 1866.11L1482.72 1866.12C1482.9 1861.8 1481.91 1857.53 1479.76 1853.3L1479.58 1853.39ZM1482.52 1866.11C1482.34 1870.06 1480.83 1873.56 1477.99 1876.62L1478.14 1876.76C1481.01 1873.66 1482.54 1870.12 1482.72 1866.12L1482.52 1866.11ZM1661.76 1671.62L1661.76 1671.72L1661.77 1671.72L1661.76 1671.62ZM1528.64 1548.03L1528.54 1548.03L1528.54 1548.03L1528.64 1548.03ZM1679.38 1652.64L1679.48 1652.64L1679.48 1652.63L1679.38 1652.64ZM1494.96 1521.54L1494.96 1521.64L1494.97 1521.64L1494.96 1521.54ZM1471.11 1499.4L1471.01 1499.4L1471.01 1499.4L1471.11 1499.4ZM1493.25 1475.54L1493.25 1475.64L1493.26 1475.64L1493.25 1475.54ZM1517.11 1497.69L1517.21 1497.69L1517.21 1497.69L1517.11 1497.69ZM1674.09 1665.4C1670.61 1669.14 1666.5 1671.18 1661.75 1671.52L1661.77 1671.72C1666.57 1671.38 1670.73 1669.31 1674.23 1665.53L1674.09 1665.4ZM1661.76 1671.52C1657 1671.53 1652.75 1669.81 1649 1666.33L1648.87 1666.47C1652.65 1669.98 1656.94 1671.73 1661.76 1671.72L1661.76 1671.52ZM1649 1666.33L1534.86 1560.36L1534.72 1560.51L1648.87 1666.47L1649 1666.33ZM1534.86 1560.36C1530.94 1556.72 1528.91 1552.61 1528.74 1548.03L1528.54 1548.03C1528.71 1552.68 1530.77 1556.84 1534.72 1560.51L1534.86 1560.36ZM1528.74 1548.03C1528.72 1543.27 1530.45 1539.02 1533.93 1535.27L1533.78 1535.14C1530.27 1538.92 1528.52 1543.22 1528.54 1548.03L1528.74 1548.03ZM1533.93 1535.27C1537.56 1531.36 1541.67 1529.32 1546.26 1529.15L1546.25 1528.95C1541.61 1529.12 1537.45 1531.19 1533.78 1535.14L1533.93 1535.27ZM1546.26 1529.15C1550.85 1528.98 1555.1 1530.71 1559.01 1534.34L1559.15 1534.2C1555.2 1530.53 1550.9 1528.78 1546.25 1528.95L1546.26 1529.15ZM1559.01 1534.34L1673.16 1640.31L1673.29 1640.17L1559.15 1534.2L1559.01 1534.34ZM1673.16 1640.31C1676.9 1643.79 1678.94 1647.9 1679.28 1652.65L1679.48 1652.63C1679.14 1647.83 1677.07 1643.67 1673.29 1640.17L1673.16 1640.31ZM1679.28 1652.64C1679.45 1657.23 1677.72 1661.48 1674.09 1665.4L1674.23 1665.53C1677.9 1661.58 1679.65 1657.28 1679.48 1652.64L1679.28 1652.64ZM1510.95 1513.94C1506.68 1518.54 1501.35 1521.04 1494.95 1521.44L1494.97 1521.64C1501.42 1521.24 1506.8 1518.72 1511.1 1514.08L1510.95 1513.94ZM1494.96 1521.44C1488.55 1521.52 1483.05 1519.42 1478.45 1515.15L1478.31 1515.3C1482.95 1519.6 1488.5 1521.72 1494.96 1521.64L1494.96 1521.44ZM1478.45 1515.15C1473.85 1510.88 1471.44 1505.63 1471.21 1499.39L1471.01 1499.4C1471.24 1505.69 1473.68 1510.99 1478.31 1515.3L1478.45 1515.15ZM1471.21 1499.39C1470.96 1492.82 1472.97 1487.24 1477.24 1482.65L1477.1 1482.51C1472.79 1487.15 1470.76 1492.78 1471.01 1499.4L1471.21 1499.39ZM1477.24 1482.65C1481.51 1478.05 1486.84 1475.72 1493.25 1475.64L1493.25 1475.44C1486.79 1475.52 1481.4 1477.87 1477.1 1482.51L1477.24 1482.65ZM1493.26 1475.64C1499.66 1475.24 1505.15 1477.17 1509.75 1481.44L1509.88 1481.29C1505.24 1476.99 1499.7 1475.04 1493.25 1475.44L1493.26 1475.64ZM1509.75 1481.44C1514.34 1485.71 1516.76 1491.12 1517.01 1497.69L1517.21 1497.69C1516.96 1491.06 1514.52 1485.6 1509.88 1481.29L1509.75 1481.44ZM1517.01 1497.69C1517.24 1503.93 1515.22 1509.35 1510.95 1513.94L1511.1 1514.08C1515.4 1509.44 1517.44 1503.98 1517.21 1497.69L1517.01 1497.69ZM1703.05 1531.46L1703.05 1531.56L1703.15 1531.56L1703.15 1531.46L1703.05 1531.46ZM1670.85 1531.17L1670.75 1531.17L1670.75 1531.27L1670.85 1531.27L1670.85 1531.17ZM1673.67 1387.18L1673.77 1387.18L1673.77 1387.18L1673.67 1387.18ZM1678.2 1375.62L1678.27 1375.69L1678.27 1375.69L1678.2 1375.62ZM1689.92 1371.22L1689.92 1371.32L1689.92 1371.32L1689.92 1371.22ZM1701.48 1375.74L1701.41 1375.81L1701.41 1375.81L1701.48 1375.74ZM1705.88 1387.47L1705.98 1387.47L1705.98 1387.47L1705.88 1387.47ZM1731.25 1597.28L1731.25 1597.38L1731.26 1597.38L1731.25 1597.28ZM1537.85 1417.73L1537.75 1417.73L1537.75 1417.73L1537.85 1417.73ZM1554.76 1399.52L1554.76 1399.62L1554.77 1399.62L1554.76 1399.52ZM1748.16 1579.07L1748.06 1579.07L1748.06 1579.07L1748.16 1579.07ZM1826.89 1498.38L1826.99 1498.39L1826.99 1498.39L1826.89 1498.38ZM1821.14 1510.23L1821.08 1510.16L1821.07 1510.16L1821.14 1510.23ZM1809.16 1514.39L1809.15 1514.49L1809.15 1514.49L1809.16 1514.39ZM1696.44 1506.69L1696.34 1506.69L1696.34 1506.79L1696.43 1506.79L1696.44 1506.69ZM1696.18 1473.02L1696.18 1472.92L1696.08 1472.91L1696.08 1473.02L1696.18 1473.02ZM1811.37 1480.63L1811.37 1480.73L1811.37 1480.73L1811.37 1480.63ZM1822.97 1486.14L1822.9 1486.21L1822.9 1486.21L1822.97 1486.14ZM1703.05 1531.36L1670.85 1531.07L1670.85 1531.27L1703.05 1531.56L1703.05 1531.36ZM1670.95 1531.17L1673.77 1387.18L1673.57 1387.17L1670.75 1531.17L1670.95 1531.17ZM1673.77 1387.18C1673.76 1382.41 1675.26 1378.58 1678.27 1375.69L1678.13 1375.54C1675.08 1378.48 1673.56 1382.36 1673.57 1387.18L1673.77 1387.18ZM1678.27 1375.69C1681.43 1372.62 1685.31 1371.16 1689.92 1371.32L1689.92 1371.12C1685.27 1370.96 1681.34 1372.43 1678.13 1375.54L1678.27 1375.69ZM1689.92 1371.32C1694.69 1371.3 1698.51 1372.8 1701.41 1375.81L1701.55 1375.67C1698.61 1372.62 1694.73 1371.1 1689.92 1371.12L1689.92 1371.32ZM1701.41 1375.81C1704.31 1378.82 1705.77 1382.7 1705.78 1387.47L1705.98 1387.47C1705.97 1382.66 1704.49 1378.72 1701.55 1375.67L1701.41 1375.81ZM1705.78 1387.46L1702.95 1531.46L1703.15 1531.46L1705.98 1387.47L1705.78 1387.46ZM1743.09 1591.07C1739.61 1594.82 1735.66 1596.85 1731.25 1597.18L1731.26 1597.38C1735.74 1597.05 1739.73 1594.99 1743.24 1591.21L1743.09 1591.07ZM1731.25 1597.18C1726.83 1597.18 1722.74 1595.45 1718.99 1591.97L1718.86 1592.12C1722.63 1595.62 1726.77 1597.38 1731.25 1597.38L1731.25 1597.18ZM1718.99 1591.97L1543.8 1429.32L1543.67 1429.47L1718.86 1592.12L1718.99 1591.97ZM1543.8 1429.32C1540.06 1425.85 1538.11 1421.98 1537.95 1417.72L1537.75 1417.73C1537.91 1422.05 1539.89 1425.96 1543.67 1429.47L1543.8 1429.32ZM1537.95 1417.72C1537.78 1413.14 1539.43 1408.97 1542.91 1405.23L1542.76 1405.09C1539.25 1408.87 1537.58 1413.09 1537.75 1417.73L1537.95 1417.72ZM1542.91 1405.23C1546.38 1401.48 1550.33 1399.62 1554.76 1399.62L1554.76 1399.42C1550.27 1399.42 1546.27 1401.31 1542.76 1405.09L1542.91 1405.23ZM1554.77 1399.62C1559.18 1399.29 1563.26 1400.86 1567 1404.33L1567.14 1404.19C1563.36 1400.68 1559.23 1399.08 1554.75 1399.42L1554.77 1399.62ZM1567 1404.33L1742.19 1566.98L1742.33 1566.83L1567.14 1404.19L1567 1404.33ZM1742.19 1566.98C1745.94 1570.45 1747.89 1574.49 1748.06 1579.07L1748.26 1579.06C1748.09 1574.42 1746.11 1570.34 1742.33 1566.83L1742.19 1566.98ZM1748.06 1579.07C1748.22 1583.33 1746.57 1587.33 1743.09 1591.07L1743.24 1591.21C1746.74 1587.43 1748.42 1583.38 1748.26 1579.06L1748.06 1579.07ZM1826.79 1498.37C1826.48 1503.15 1824.57 1507.07 1821.08 1510.16L1821.21 1510.31C1824.75 1507.19 1826.67 1503.21 1826.99 1498.39L1826.79 1498.37ZM1821.07 1510.16C1817.91 1513.23 1813.94 1514.61 1809.17 1514.29L1809.15 1514.49C1813.98 1514.81 1818 1513.42 1821.21 1510.31L1821.07 1510.16ZM1809.17 1514.29L1696.44 1506.59L1696.43 1506.79L1809.15 1514.49L1809.17 1514.29ZM1696.54 1506.69L1696.28 1473.02L1696.08 1473.02L1696.34 1506.69L1696.54 1506.69ZM1696.17 1473.12L1811.37 1480.73L1811.38 1480.53L1696.18 1472.92L1696.17 1473.12ZM1811.37 1480.73C1816.14 1481.05 1819.98 1482.87 1822.9 1486.21L1823.05 1486.08C1820.1 1482.7 1816.2 1480.85 1811.38 1480.53L1811.37 1480.73ZM1822.9 1486.21C1825.79 1489.22 1827.1 1493.27 1826.79 1498.37L1826.99 1498.39C1827.3 1493.24 1825.99 1489.13 1823.04 1486.07L1822.9 1486.21ZM1869.2 1448.19L1869.2 1448.29L1869.2 1448.28L1869.2 1448.19ZM1736.07 1324.59L1735.97 1324.59L1735.97 1324.6L1736.07 1324.59ZM1886.82 1429.2L1886.92 1429.2L1886.92 1429.2L1886.82 1429.2ZM1702.4 1298.11L1702.4 1298.21L1702.4 1298.21L1702.4 1298.11ZM1678.54 1275.96L1678.44 1275.96L1678.44 1275.96L1678.54 1275.96ZM1700.69 1252.11L1700.69 1252.21L1700.69 1252.21L1700.69 1252.11ZM1724.54 1274.25L1724.64 1274.25L1724.64 1274.25L1724.54 1274.25ZM1881.52 1441.96C1878.05 1445.71 1873.94 1447.75 1869.19 1448.09L1869.2 1448.28C1874 1447.94 1878.16 1445.88 1881.67 1442.1L1881.52 1441.96ZM1869.19 1448.09C1864.43 1448.1 1860.18 1446.37 1856.44 1442.89L1856.3 1443.04C1860.08 1446.55 1864.38 1448.3 1869.2 1448.29L1869.19 1448.09ZM1856.44 1442.89L1742.3 1336.92L1742.16 1337.07L1856.3 1443.04L1856.44 1442.89ZM1742.3 1336.92C1738.38 1333.29 1736.34 1329.18 1736.17 1324.59L1735.97 1324.6C1736.14 1329.25 1738.21 1333.4 1742.16 1337.07L1742.3 1336.92ZM1736.17 1324.59C1736.16 1319.83 1737.89 1315.58 1741.36 1311.84L1741.22 1311.7C1737.71 1315.48 1735.96 1319.78 1735.97 1324.59L1736.17 1324.59ZM1741.36 1311.84C1745 1307.92 1749.11 1305.88 1753.7 1305.71L1753.69 1305.51C1749.04 1305.69 1744.88 1307.75 1741.22 1311.7L1741.36 1311.84ZM1753.7 1305.71C1758.28 1305.54 1762.53 1307.27 1766.45 1310.91L1766.59 1310.76C1762.64 1307.09 1758.34 1305.34 1753.69 1305.51L1753.7 1305.71ZM1766.45 1310.91L1880.59 1416.88L1880.73 1416.73L1766.59 1310.76L1766.45 1310.91ZM1880.59 1416.88C1884.34 1420.35 1886.38 1424.46 1886.72 1429.21L1886.92 1429.2C1886.57 1424.39 1884.51 1420.24 1880.73 1416.73L1880.59 1416.88ZM1886.72 1429.21C1886.89 1433.79 1885.16 1438.04 1881.52 1441.96L1881.67 1442.1C1885.34 1438.15 1887.09 1433.85 1886.92 1429.2L1886.72 1429.21ZM1718.39 1290.51C1714.12 1295.11 1708.79 1297.61 1702.39 1298.01L1702.4 1298.21C1708.85 1297.8 1714.23 1295.28 1718.54 1290.64L1718.39 1290.51ZM1702.4 1298.01C1695.98 1298.08 1690.48 1295.98 1685.88 1291.72L1685.75 1291.86C1690.38 1296.17 1695.94 1298.28 1702.4 1298.21L1702.4 1298.01ZM1685.88 1291.72C1681.29 1287.45 1678.87 1282.2 1678.64 1275.96L1678.44 1275.96C1678.68 1282.26 1681.11 1287.56 1685.75 1291.86L1685.88 1291.72ZM1678.64 1275.96C1678.4 1269.39 1680.41 1263.81 1684.68 1259.21L1684.53 1259.07C1680.23 1263.71 1678.2 1269.34 1678.44 1275.96L1678.64 1275.96ZM1684.68 1259.21C1688.95 1254.61 1694.28 1252.28 1700.69 1252.21L1700.69 1252.01C1694.22 1252.08 1688.84 1254.44 1684.53 1259.07L1684.68 1259.21ZM1700.69 1252.21C1707.09 1251.8 1712.59 1253.74 1717.18 1258L1717.32 1257.86C1712.68 1253.55 1707.13 1251.6 1700.68 1252.01L1700.69 1252.21ZM1717.18 1258C1721.78 1262.27 1724.2 1267.69 1724.44 1274.26L1724.64 1274.25C1724.4 1267.63 1721.96 1262.16 1717.32 1257.86L1717.18 1258ZM1724.44 1274.26C1724.67 1280.49 1722.66 1285.91 1718.39 1290.51L1718.54 1290.64C1722.84 1286.01 1724.88 1280.54 1724.64 1274.25L1724.44 1274.26Z" fill="#072B57" mask="url(#path-4-outside-1_1059_2369)"/>
</g>
<defs>
<linearGradient id="paint0_linear_1059_2369" x1="1043.95" y1="1804.35" x2="1043.95" y2="21.4717" gradientUnits="userSpaceOnUse">
<stop stop-color="#73428E"/>
<stop offset="0.551466" stop-color="#5981CE"/>
<stop offset="1" stop-color="#6AC3FF"/>
</linearGradient>
<clipPath id="clip0_1059_2369">
<rect width="1946" height="1946" rx="16" fill="white"/>
</clipPath>
</defs>
</svg>
