<svg width="1686" height="1805" viewBox="0 0 1686 1805" fill="none" xmlns="http://www.w3.org/2000/svg">
<path fill-rule="evenodd" clip-rule="evenodd" d="M939.99 176.601C966.452 148.265 966.452 102.322 939.99 73.9856L890.757 21.2525C864.304 -7.08415 821.402 -7.08416 794.949 21.2525L745.717 73.9856C719.255 102.322 719.255 148.265 745.717 176.601L842.853 280.642L745.717 384.684C719.255 413.021 676.361 413.021 649.904 384.684L600.668 331.95C574.211 303.613 531.316 303.613 504.859 331.95L310.579 540.033C284.122 568.369 284.122 614.312 310.579 642.649L407.719 746.69L262.675 902.038L165.535 797.997C139.077 769.661 96.1819 769.661 69.7253 797.997L20.4901 850.73C-5.96739 879.067 -5.96739 925.01 20.4901 953.349L69.7253 1006.08C96.1819 1034.41 139.077 1034.41 165.535 1006.08L262.675 902.038L359.815 1006.08C386.271 1034.41 386.271 1080.36 359.815 1108.69L310.579 1161.43C284.122 1189.77 284.122 1235.71 310.579 1264.05L359.815 1316.78C386.271 1345.11 429.167 1345.11 455.624 1316.78L504.859 1264.05C531.316 1235.71 574.211 1235.71 600.668 1264.05L697.804 1368.08L600.668 1472.12C574.211 1500.46 574.211 1546.4 600.668 1574.75L794.949 1782.82C821.402 1811.16 864.304 1811.16 890.757 1782.82L1230.08 1419.39C1256.54 1391.06 1256.54 1345.11 1230.08 1316.78L1035.81 1108.69C1009.34 1080.36 1009.34 1034.41 1035.81 1006.08L1132.94 902.038L1375.13 1161.43C1401.58 1189.77 1444.48 1189.77 1470.94 1161.43L1665.22 953.349C1691.67 925.01 1691.67 879.067 1665.22 850.73L1615.98 797.997C1589.52 769.661 1546.63 769.661 1520.17 797.997L1470.94 850.73C1444.48 879.067 1401.58 879.067 1375.13 850.73L1277.98 746.69L1375.13 642.649C1401.58 614.312 1401.58 568.369 1375.13 540.033L1180.85 331.95C1154.39 303.613 1111.49 303.613 1085.04 331.95L1035.81 384.684C1009.34 413.021 966.452 413.021 939.99 384.684L842.853 280.642L939.99 176.601ZM987.894 746.69L1132.94 902.038L1277.98 746.69L1180.85 642.649C1154.39 614.312 1111.49 614.312 1085.04 642.649L987.894 746.69ZM697.804 746.69L794.949 850.73C821.402 879.067 864.304 879.067 890.757 850.73L987.894 746.69L890.757 642.649C864.304 614.312 821.402 614.312 794.949 642.649L697.804 746.69ZM697.804 746.69L600.668 642.649C574.211 614.312 531.316 614.312 504.859 642.649L407.719 746.69L504.859 850.73C531.316 879.067 574.211 879.067 600.668 850.73L697.804 746.69ZM697.804 1368.08L794.949 1472.12C821.402 1500.46 864.304 1500.46 890.757 1472.12L939.99 1419.39C966.452 1391.06 966.452 1345.11 939.99 1316.78L890.757 1264.05C864.304 1235.71 821.402 1235.71 794.949 1264.05L697.804 1368.08Z" fill="url(#paint0_linear_871_194)"/>
<defs>
<linearGradient id="paint0_linear_871_194" x1="837.955" y1="1731.35" x2="837.955" y2="-51.5283" gradientUnits="userSpaceOnUse">
<stop stop-color="#975CB8"/>
<stop offset="0.551466" stop-color="#5981CE"/>
<stop offset="1" stop-color="#3498DB"/>
</linearGradient>
</defs>
</svg>
