<svg width="2000" height="2000" viewBox="0 0 2000 2000" fill="none" xmlns="http://www.w3.org/2000/svg">
<rect width="2000" height="2000" rx="16" fill="#BEE3FA"/>
<path fill-rule="evenodd" clip-rule="evenodd" d="M782.356 302.974C801.063 268.269 789.961 223.892 757.558 203.855L697.258 166.567C664.854 146.53 623.421 158.421 604.713 193.126L569.898 257.711C551.19 292.416 562.292 336.793 594.695 356.83L713.667 430.398L644.979 557.822C626.27 592.527 584.837 604.418 552.434 584.381L492.133 547.093C459.73 527.056 418.296 538.947 399.588 573.652L262.212 828.499C243.504 863.205 254.606 907.581 287.009 927.619L405.981 1001.19L303.419 1191.45L184.447 1117.88C152.044 1097.85 110.61 1109.74 91.9024 1144.44L57.0878 1209.03C38.3798 1243.73 49.4819 1288.11 81.885 1308.15L142.185 1345.44C174.589 1365.47 216.022 1353.57 234.731 1318.87L303.419 1191.45L422.39 1265.02C454.793 1285.05 465.896 1329.43 447.188 1364.14L412.373 1428.72C393.665 1463.43 404.768 1507.8 437.171 1527.84L497.471 1565.13C529.875 1585.16 571.308 1573.28 590.016 1538.57L624.83 1473.98C643.539 1439.28 684.972 1427.39 717.375 1447.43L836.347 1520.99L767.658 1648.41C748.951 1683.13 760.053 1727.5 792.456 1747.54L1030.4 1894.67C1062.8 1914.71 1104.23 1902.82 1122.94 1868.12L1362.89 1423C1381.59 1388.3 1370.49 1343.92 1338.08 1323.88L1100.14 1176.75C1067.74 1156.71 1056.63 1112.33 1075.35 1077.63L1144.03 950.206L1440.65 1133.62C1473.05 1153.66 1514.48 1141.77 1533.19 1107.07L1670.57 852.216C1689.28 817.511 1678.18 773.134 1645.78 753.096L1585.47 715.808C1553.07 695.772 1511.63 707.662 1492.93 742.368L1458.11 806.952C1439.4 841.657 1397.97 853.548 1365.57 833.512L1246.6 759.943L1315.29 632.519C1333.99 597.814 1322.89 553.437 1290.48 533.4L1052.54 386.263C1020.14 366.227 978.707 378.117 960.001 412.823L925.184 477.407C906.475 512.113 865.042 524.003 832.638 503.967L713.667 430.398L782.356 302.974ZM966.392 840.358L1144.03 950.206L1246.6 759.943L1127.62 686.375C1095.22 666.338 1053.78 678.229 1035.08 712.934L966.392 840.358ZM686.186 920.772L805.157 994.34C837.561 1014.38 878.994 1002.49 897.702 967.782L966.392 840.358L847.419 766.789C815.016 746.753 773.582 758.643 754.874 793.349L686.186 920.772ZM686.186 920.772L567.214 847.204C534.811 827.167 493.377 839.058 474.67 873.763L405.981 1001.19L524.952 1074.75C557.356 1094.79 598.789 1082.9 617.497 1048.2L686.186 920.772ZM836.347 1520.99L955.32 1594.56C987.722 1614.6 1029.16 1602.71 1047.86 1568L1082.68 1503.42C1101.38 1468.72 1090.29 1424.34 1057.88 1404.3L997.579 1367.02C965.177 1346.97 923.743 1358.87 905.035 1393.57L836.347 1520.99Z" fill="white"/>
<path fill-rule="evenodd" clip-rule="evenodd" d="M1159.99 271.601C1186.45 243.265 1186.45 197.322 1159.99 168.986L1110.76 116.252C1084.3 87.9159 1041.4 87.9158 1014.95 116.252L965.717 168.986C939.255 197.322 939.255 243.265 965.717 271.601L1062.85 375.642L965.717 479.684C939.255 508.021 896.361 508.021 869.904 479.684L820.668 426.95C794.211 398.613 751.316 398.613 724.859 426.95L530.579 635.033C504.122 663.369 504.122 709.312 530.579 737.649L627.719 841.69L482.675 997.038L385.535 892.997C359.077 864.661 316.182 864.661 289.725 892.997L240.49 945.73C214.033 974.067 214.033 1020.01 240.49 1048.35L289.725 1101.08C316.182 1129.41 359.077 1129.41 385.535 1101.08L482.675 997.038L579.815 1101.08C606.271 1129.41 606.271 1175.36 579.815 1203.69L530.579 1256.43C504.122 1284.77 504.122 1330.71 530.579 1359.05L579.815 1411.78C606.271 1440.11 649.167 1440.11 675.624 1411.78L724.859 1359.05C751.316 1330.71 794.211 1330.71 820.668 1359.05L917.804 1463.08L820.668 1567.12C794.211 1595.46 794.211 1641.4 820.668 1669.75L1014.95 1877.82C1041.4 1906.16 1084.3 1906.16 1110.76 1877.82L1450.08 1514.39C1476.54 1486.06 1476.54 1440.11 1450.08 1411.78L1255.81 1203.69C1229.34 1175.36 1229.34 1129.41 1255.81 1101.08L1352.94 997.038L1595.13 1256.43C1621.58 1284.77 1664.48 1284.77 1690.94 1256.43L1885.22 1048.35C1911.67 1020.01 1911.67 974.067 1885.22 945.73L1835.98 892.997C1809.52 864.661 1766.63 864.661 1740.17 892.997L1690.94 945.73C1664.48 974.067 1621.58 974.067 1595.13 945.73L1497.98 841.69L1595.13 737.649C1621.58 709.312 1621.58 663.369 1595.13 635.033L1400.85 426.95C1374.39 398.613 1331.49 398.613 1305.04 426.95L1255.81 479.684C1229.34 508.021 1186.45 508.021 1159.99 479.684L1062.85 375.642L1159.99 271.601ZM1207.89 841.69L1352.94 997.038L1497.98 841.69L1400.85 737.649C1374.39 709.312 1331.49 709.312 1305.04 737.649L1207.89 841.69ZM917.804 841.69L1014.95 945.73C1041.4 974.067 1084.3 974.067 1110.76 945.73L1207.89 841.69L1110.76 737.649C1084.3 709.312 1041.4 709.312 1014.95 737.649L917.804 841.69ZM917.804 841.69L820.668 737.649C794.211 709.312 751.316 709.312 724.859 737.649L627.719 841.69L724.859 945.73C751.316 974.067 794.211 974.067 820.668 945.73L917.804 841.69ZM917.804 1463.08L1014.95 1567.12C1041.4 1595.46 1084.3 1595.46 1110.76 1567.12L1159.99 1514.39C1186.45 1486.06 1186.45 1440.11 1159.99 1411.78L1110.76 1359.05C1084.3 1330.71 1041.4 1330.71 1014.95 1359.05L917.804 1463.08Z" fill="url(#paint0_linear_871_190)"/>
<mask id="path-4-outside-1_871_190" maskUnits="userSpaceOnUse" x="1300.35" y="1245.47" width="586.678" height="606.096" fill="black">
<rect fill="white" x="1300.35" y="1245.47" width="586.678" height="606.096"/>
<path d="M1525.5 1793.18C1523.05 1795.82 1520.07 1797.42 1516.55 1797.97C1513.03 1798.53 1509.48 1797.95 1505.87 1796.25L1317.98 1704.09C1311.78 1701.07 1308.04 1697.46 1306.75 1693.26C1305.46 1688.78 1306.57 1684.63 1310.11 1680.82C1312.43 1678.33 1315.27 1676.74 1318.64 1676.05C1321.86 1675.22 1325.35 1675.73 1329.1 1677.57L1498.93 1763.6L1494.44 1768.44L1394.71 1609.54C1393.06 1606.91 1392.45 1603.89 1392.89 1600.48C1393.33 1597.07 1394.77 1594.04 1397.22 1591.4C1399.4 1589.06 1402.1 1587.47 1405.32 1586.64C1408.54 1585.53 1411.66 1585.84 1414.7 1587.57L1580.98 1675.22L1576.9 1679.62L1477.61 1515.39C1473.99 1509.3 1474.97 1503.25 1480.55 1497.24C1484.36 1493.14 1488.42 1491.99 1492.73 1493.82C1496.9 1495.5 1500.56 1498.9 1503.73 1504.02L1609.34 1684.36C1611.18 1687.97 1612.02 1691.62 1611.87 1695.3C1611.72 1698.7 1610.41 1701.72 1607.96 1704.36C1605.38 1707.15 1602.25 1708.75 1598.59 1709.17C1595.06 1709.44 1591.64 1708.86 1588.34 1707.43L1418.72 1615.86L1423.62 1610.59L1526.88 1773.18C1528.71 1776.79 1529.56 1780.44 1529.41 1784.12C1529.25 1787.53 1527.95 1790.55 1525.5 1793.18ZM1693.59 1612.14C1690.59 1615.36 1687.05 1617.12 1682.95 1617.41C1678.85 1617.42 1675.19 1615.93 1671.96 1612.94L1574.13 1522.11C1570.75 1518.98 1569 1515.44 1568.85 1511.48C1568.84 1507.38 1570.33 1503.71 1573.32 1500.49C1576.45 1497.12 1580 1495.36 1583.95 1495.21C1587.91 1495.06 1591.57 1496.55 1594.95 1499.68L1692.78 1590.51C1696.01 1593.51 1697.77 1597.05 1698.06 1601.14C1698.21 1605.1 1696.71 1608.77 1693.59 1612.14ZM1553.76 1482.32C1550.08 1486.28 1545.49 1488.43 1539.98 1488.78C1534.47 1488.84 1529.73 1487.03 1525.77 1483.36C1521.82 1479.69 1519.74 1475.16 1519.54 1469.79C1519.33 1464.14 1521.06 1459.33 1524.73 1455.38C1528.41 1451.42 1533 1449.41 1538.52 1449.35C1544.03 1449 1548.76 1450.66 1552.72 1454.34C1556.67 1458.01 1558.76 1462.68 1558.97 1468.33C1559.17 1473.7 1557.43 1478.36 1553.76 1482.32ZM1718.35 1497.28L1690.75 1497.03L1693.17 1373.6C1693.16 1369.5 1694.45 1366.2 1697.04 1363.69C1699.78 1361.05 1703.13 1359.79 1707.09 1359.92C1711.2 1359.91 1714.5 1361.21 1717 1363.8C1719.51 1366.4 1720.76 1369.75 1720.77 1373.85L1718.35 1497.28ZM1752.73 1548.43C1749.74 1551.66 1746.33 1553.41 1742.52 1553.69C1738.7 1553.69 1735.18 1552.2 1731.95 1549.2L1581.79 1409.79C1578.57 1406.8 1576.89 1403.47 1576.75 1399.79C1576.6 1395.83 1578.03 1392.24 1581.02 1389.02C1584.01 1385.79 1587.42 1384.18 1591.24 1384.18C1595.05 1383.9 1598.57 1385.25 1601.79 1388.25L1751.96 1527.66C1755.18 1530.65 1756.87 1534.13 1757.01 1538.08C1757.15 1541.76 1755.72 1545.21 1752.73 1548.43ZM1824.5 1468.92C1824.23 1473.04 1822.58 1476.42 1819.57 1479.08C1816.84 1481.73 1813.41 1482.92 1809.3 1482.65L1712.68 1476.05L1712.46 1447.18L1811.2 1453.71C1815.31 1453.98 1818.62 1455.55 1821.14 1458.43C1823.64 1461.03 1824.76 1464.52 1824.5 1468.92ZM1871.39 1420.62C1868.39 1423.84 1864.85 1425.6 1860.76 1425.9C1856.65 1425.91 1852.99 1424.42 1849.76 1421.42L1751.93 1330.59C1748.56 1327.46 1746.8 1323.92 1746.65 1319.96C1746.64 1315.86 1748.13 1312.19 1751.13 1308.97C1754.26 1305.6 1757.8 1303.84 1761.76 1303.69C1765.71 1303.55 1769.38 1305.04 1772.75 1308.17L1870.58 1399C1873.81 1401.99 1875.57 1405.53 1875.86 1409.63C1876.01 1413.58 1874.52 1417.25 1871.39 1420.62ZM1731.56 1290.8C1727.88 1294.76 1723.29 1296.91 1717.79 1297.26C1712.27 1297.32 1707.53 1295.52 1703.58 1291.84C1699.62 1288.17 1697.54 1283.65 1697.34 1278.28C1697.13 1272.62 1698.86 1267.82 1702.54 1263.86C1706.21 1259.9 1710.81 1257.89 1716.32 1257.83C1721.83 1257.48 1726.56 1259.15 1730.52 1262.82C1734.48 1266.5 1736.56 1271.16 1736.77 1276.81C1736.97 1282.18 1735.23 1286.85 1731.56 1290.8Z"/>
</mask>
<path d="M1525.5 1793.18C1523.05 1795.82 1520.07 1797.42 1516.55 1797.97C1513.03 1798.53 1509.48 1797.95 1505.87 1796.25L1317.98 1704.09C1311.78 1701.07 1308.04 1697.46 1306.75 1693.26C1305.46 1688.78 1306.57 1684.63 1310.11 1680.82C1312.43 1678.33 1315.27 1676.74 1318.64 1676.05C1321.86 1675.22 1325.35 1675.73 1329.1 1677.57L1498.93 1763.6L1494.44 1768.44L1394.71 1609.54C1393.06 1606.91 1392.45 1603.89 1392.89 1600.48C1393.33 1597.07 1394.77 1594.04 1397.22 1591.4C1399.4 1589.06 1402.1 1587.47 1405.32 1586.64C1408.54 1585.53 1411.66 1585.84 1414.7 1587.57L1580.98 1675.22L1576.9 1679.62L1477.61 1515.39C1473.99 1509.3 1474.97 1503.25 1480.55 1497.24C1484.36 1493.14 1488.42 1491.99 1492.73 1493.82C1496.9 1495.5 1500.56 1498.9 1503.73 1504.02L1609.34 1684.36C1611.18 1687.97 1612.02 1691.62 1611.87 1695.3C1611.72 1698.7 1610.41 1701.72 1607.96 1704.36C1605.38 1707.15 1602.25 1708.75 1598.59 1709.17C1595.06 1709.44 1591.64 1708.86 1588.34 1707.43L1418.72 1615.86L1423.62 1610.59L1526.88 1773.18C1528.71 1776.79 1529.56 1780.44 1529.41 1784.12C1529.25 1787.53 1527.95 1790.55 1525.5 1793.18ZM1693.59 1612.14C1690.59 1615.36 1687.05 1617.12 1682.95 1617.41C1678.85 1617.42 1675.19 1615.93 1671.96 1612.94L1574.13 1522.11C1570.75 1518.98 1569 1515.44 1568.85 1511.48C1568.84 1507.38 1570.33 1503.71 1573.32 1500.49C1576.45 1497.12 1580 1495.36 1583.95 1495.21C1587.91 1495.06 1591.57 1496.55 1594.95 1499.68L1692.78 1590.51C1696.01 1593.51 1697.77 1597.05 1698.06 1601.14C1698.21 1605.1 1696.71 1608.77 1693.59 1612.14ZM1553.76 1482.32C1550.08 1486.28 1545.49 1488.43 1539.98 1488.78C1534.47 1488.84 1529.73 1487.03 1525.77 1483.36C1521.82 1479.69 1519.74 1475.16 1519.54 1469.79C1519.33 1464.14 1521.06 1459.33 1524.73 1455.38C1528.41 1451.42 1533 1449.41 1538.52 1449.35C1544.03 1449 1548.76 1450.66 1552.72 1454.34C1556.67 1458.01 1558.76 1462.68 1558.97 1468.33C1559.17 1473.7 1557.43 1478.36 1553.76 1482.32ZM1718.35 1497.28L1690.75 1497.03L1693.17 1373.6C1693.16 1369.5 1694.45 1366.2 1697.04 1363.69C1699.78 1361.05 1703.13 1359.79 1707.09 1359.92C1711.2 1359.91 1714.5 1361.21 1717 1363.8C1719.51 1366.4 1720.76 1369.75 1720.77 1373.85L1718.35 1497.28ZM1752.73 1548.43C1749.74 1551.66 1746.33 1553.41 1742.52 1553.69C1738.7 1553.69 1735.18 1552.2 1731.95 1549.2L1581.79 1409.79C1578.57 1406.8 1576.89 1403.47 1576.75 1399.79C1576.6 1395.83 1578.03 1392.24 1581.02 1389.02C1584.01 1385.79 1587.42 1384.18 1591.24 1384.18C1595.05 1383.9 1598.57 1385.25 1601.79 1388.25L1751.96 1527.66C1755.18 1530.65 1756.87 1534.13 1757.01 1538.08C1757.15 1541.76 1755.72 1545.21 1752.73 1548.43ZM1824.5 1468.92C1824.23 1473.04 1822.58 1476.42 1819.57 1479.08C1816.84 1481.73 1813.41 1482.92 1809.3 1482.65L1712.68 1476.05L1712.46 1447.18L1811.2 1453.71C1815.31 1453.98 1818.62 1455.55 1821.14 1458.43C1823.64 1461.03 1824.76 1464.52 1824.5 1468.92ZM1871.39 1420.62C1868.39 1423.84 1864.85 1425.6 1860.76 1425.9C1856.65 1425.91 1852.99 1424.42 1849.76 1421.42L1751.93 1330.59C1748.56 1327.46 1746.8 1323.92 1746.65 1319.96C1746.64 1315.86 1748.13 1312.19 1751.13 1308.97C1754.26 1305.6 1757.8 1303.84 1761.76 1303.69C1765.71 1303.55 1769.38 1305.04 1772.75 1308.17L1870.58 1399C1873.81 1401.99 1875.57 1405.53 1875.86 1409.63C1876.01 1413.58 1874.52 1417.25 1871.39 1420.62ZM1731.56 1290.8C1727.88 1294.76 1723.29 1296.91 1717.79 1297.26C1712.27 1297.32 1707.53 1295.52 1703.58 1291.84C1699.62 1288.17 1697.54 1283.65 1697.34 1278.28C1697.13 1272.62 1698.86 1267.82 1702.54 1263.86C1706.21 1259.9 1710.81 1257.89 1716.32 1257.83C1721.83 1257.48 1726.56 1259.15 1730.52 1262.82C1734.48 1266.5 1736.56 1271.16 1736.77 1276.81C1736.97 1282.18 1735.23 1286.85 1731.56 1290.8Z" fill="#222222"/>
<path d="M1505.87 1796.25L1505.83 1796.34L1505.83 1796.34L1505.87 1796.25ZM1317.98 1704.09L1318.03 1704L1318.03 1704L1317.98 1704.09ZM1306.75 1693.26L1306.66 1693.29L1306.66 1693.29L1306.75 1693.26ZM1318.64 1676.05L1318.66 1676.14L1318.66 1676.14L1318.64 1676.05ZM1329.1 1677.57L1329.14 1677.48L1329.14 1677.48L1329.1 1677.57ZM1498.93 1763.6L1499 1763.67L1499.09 1763.57L1498.98 1763.51L1498.93 1763.6ZM1494.44 1768.44L1494.36 1768.49L1494.42 1768.6L1494.51 1768.51L1494.44 1768.44ZM1394.71 1609.54L1394.8 1609.49L1394.8 1609.48L1394.71 1609.54ZM1405.32 1586.64L1405.35 1586.74L1405.36 1586.74L1405.32 1586.64ZM1414.7 1587.57L1414.65 1587.66L1414.65 1587.66L1414.7 1587.57ZM1580.98 1675.22L1581.06 1675.29L1581.15 1675.19L1581.03 1675.13L1580.98 1675.22ZM1576.9 1679.62L1576.82 1679.67L1576.88 1679.78L1576.98 1679.69L1576.9 1679.62ZM1477.61 1515.39L1477.53 1515.44L1477.53 1515.44L1477.61 1515.39ZM1492.73 1493.82L1492.69 1493.91L1492.7 1493.91L1492.73 1493.82ZM1503.73 1504.02L1503.81 1503.97L1503.81 1503.97L1503.73 1504.02ZM1609.34 1684.36L1609.43 1684.31L1609.43 1684.31L1609.34 1684.36ZM1611.87 1695.3L1611.97 1695.31L1611.97 1695.31L1611.87 1695.3ZM1598.59 1709.17L1598.6 1709.27L1598.6 1709.27L1598.59 1709.17ZM1588.34 1707.43L1588.29 1707.51L1588.3 1707.52L1588.34 1707.43ZM1418.72 1615.86L1418.65 1615.8L1418.56 1615.89L1418.67 1615.95L1418.72 1615.86ZM1423.62 1610.59L1423.71 1610.53L1423.64 1610.42L1423.55 1610.52L1423.62 1610.59ZM1526.88 1773.18L1526.97 1773.13L1526.97 1773.13L1526.88 1773.18ZM1529.41 1784.12L1529.51 1784.13L1529.51 1784.13L1529.41 1784.12ZM1525.43 1793.12C1522.99 1795.74 1520.03 1797.32 1516.54 1797.88L1516.57 1798.07C1520.11 1797.51 1523.11 1795.91 1525.58 1793.25L1525.43 1793.12ZM1516.54 1797.88C1513.04 1798.43 1509.5 1797.86 1505.92 1796.16L1505.83 1796.34C1509.45 1798.05 1513.03 1798.63 1516.57 1798.07L1516.54 1797.88ZM1505.92 1796.16L1318.03 1704L1317.94 1704.18L1505.83 1796.34L1505.92 1796.16ZM1318.03 1704C1311.84 1700.98 1308.13 1697.39 1306.85 1693.23L1306.66 1693.29C1307.96 1697.52 1311.73 1701.15 1317.94 1704.18L1318.03 1704ZM1306.85 1693.23C1305.56 1688.79 1306.67 1684.68 1310.19 1680.89L1310.04 1680.75C1306.48 1684.59 1305.35 1688.77 1306.66 1693.29L1306.85 1693.23ZM1310.19 1680.89C1312.48 1678.41 1315.31 1676.83 1318.66 1676.14L1318.62 1675.95C1315.23 1676.64 1312.37 1678.25 1310.04 1680.75L1310.19 1680.89ZM1318.66 1676.14C1321.86 1675.32 1325.32 1675.82 1329.05 1677.66L1329.14 1677.48C1325.38 1675.63 1321.87 1675.12 1318.61 1675.95L1318.66 1676.14ZM1329.05 1677.66L1498.89 1763.69L1498.98 1763.51L1329.14 1677.48L1329.05 1677.66ZM1498.86 1763.54L1494.37 1768.37L1494.51 1768.51L1499 1763.67L1498.86 1763.54ZM1494.52 1768.39L1394.8 1609.49L1394.63 1609.59L1494.36 1768.49L1494.52 1768.39ZM1394.8 1609.48C1393.16 1606.88 1392.55 1603.88 1392.99 1600.49L1392.79 1600.47C1392.35 1603.9 1392.96 1606.94 1394.63 1609.59L1394.8 1609.48ZM1392.99 1600.49C1393.43 1597.1 1394.86 1594.09 1397.3 1591.47L1397.15 1591.33C1394.69 1593.99 1393.23 1597.03 1392.79 1600.47L1392.99 1600.49ZM1397.3 1591.47C1399.46 1589.14 1402.14 1587.56 1405.35 1586.74L1405.3 1586.55C1402.06 1587.38 1399.34 1588.97 1397.15 1591.33L1397.3 1591.47ZM1405.36 1586.74C1408.54 1585.64 1411.64 1585.94 1414.65 1587.66L1414.75 1587.48C1411.69 1585.74 1408.53 1585.43 1405.29 1586.55L1405.36 1586.74ZM1414.65 1587.66L1580.94 1675.31L1581.03 1675.13L1414.75 1587.48L1414.65 1587.66ZM1580.91 1675.15L1576.83 1679.55L1576.98 1679.69L1581.06 1675.29L1580.91 1675.15ZM1576.99 1679.57L1477.7 1515.34L1477.53 1515.44L1576.82 1679.67L1576.99 1679.57ZM1477.7 1515.34C1475.9 1512.31 1475.24 1509.3 1475.73 1506.3C1476.21 1503.3 1477.84 1500.3 1480.62 1497.31L1480.47 1497.17C1477.68 1500.19 1476.02 1503.22 1475.53 1506.27C1475.04 1509.32 1475.71 1512.38 1477.53 1515.44L1477.7 1515.34ZM1480.62 1497.31C1482.52 1495.26 1484.47 1493.97 1486.48 1493.4C1488.49 1492.84 1490.56 1493 1492.69 1493.91L1492.77 1493.72C1490.6 1492.8 1488.48 1492.63 1486.42 1493.21C1484.37 1493.79 1482.39 1495.11 1480.47 1497.17L1480.62 1497.31ZM1492.7 1493.91C1496.84 1495.58 1500.49 1498.97 1503.64 1504.07L1503.81 1503.97C1500.64 1498.84 1496.96 1495.42 1492.77 1493.72L1492.7 1493.91ZM1503.64 1504.07L1609.26 1684.41L1609.43 1684.31L1503.81 1503.97L1503.64 1504.07ZM1609.25 1684.4C1611.08 1688 1611.92 1691.63 1611.77 1695.3L1611.97 1695.31C1612.12 1691.6 1611.27 1687.94 1609.43 1684.31L1609.25 1684.4ZM1611.77 1695.3C1611.62 1698.67 1610.33 1701.67 1607.89 1704.29L1608.04 1704.43C1610.5 1701.78 1611.82 1698.73 1611.97 1695.31L1611.77 1695.3ZM1607.89 1704.29C1605.32 1707.06 1602.22 1708.65 1598.58 1709.07L1598.6 1709.27C1602.29 1708.85 1605.44 1707.23 1608.04 1704.43L1607.89 1704.29ZM1598.58 1709.07C1595.07 1709.34 1591.67 1708.76 1588.38 1707.33L1588.3 1707.52C1591.62 1708.96 1595.05 1709.54 1598.6 1709.27L1598.58 1709.07ZM1588.38 1707.34L1418.77 1615.78L1418.67 1615.95L1588.29 1707.51L1588.38 1707.34ZM1418.8 1615.93L1423.69 1610.66L1423.55 1610.52L1418.65 1615.8L1418.8 1615.93ZM1423.54 1610.64L1526.8 1773.23L1526.97 1773.13L1423.71 1610.53L1423.54 1610.64ZM1526.79 1773.22C1528.62 1776.82 1529.46 1780.45 1529.31 1784.12L1529.51 1784.13C1529.66 1780.42 1528.81 1776.76 1526.97 1773.13L1526.79 1773.22ZM1529.31 1784.12C1529.16 1787.5 1527.86 1790.49 1525.43 1793.12L1525.58 1793.25C1528.04 1790.6 1529.35 1787.56 1529.51 1784.13L1529.31 1784.12ZM1682.95 1617.41L1682.96 1617.51L1682.96 1617.51L1682.95 1617.41ZM1568.85 1511.48L1568.75 1511.48L1568.75 1511.48L1568.85 1511.48ZM1698.06 1601.14L1698.16 1601.14L1698.16 1601.14L1698.06 1601.14ZM1539.98 1488.78L1539.99 1488.88L1539.99 1488.88L1539.98 1488.78ZM1519.54 1469.79L1519.44 1469.8L1519.54 1469.79ZM1538.52 1449.35L1538.52 1449.45L1538.53 1449.45L1538.52 1449.35ZM1558.97 1468.33L1559.07 1468.32L1558.97 1468.33ZM1693.51 1612.07C1690.53 1615.28 1687.01 1617.02 1682.95 1617.31L1682.96 1617.51C1687.08 1617.22 1690.65 1615.45 1693.66 1612.2L1693.51 1612.07ZM1682.95 1617.31C1678.88 1617.32 1675.24 1615.84 1672.03 1612.87L1671.89 1613.01C1675.14 1616.02 1678.82 1617.52 1682.96 1617.51L1682.95 1617.31ZM1672.03 1612.87L1574.19 1522.04L1574.06 1522.18L1671.89 1613.01L1672.03 1612.87ZM1574.19 1522.04C1570.84 1518.92 1569.09 1515.4 1568.95 1511.47L1568.75 1511.48C1568.9 1515.47 1570.67 1519.04 1574.06 1522.18L1574.19 1522.04ZM1568.95 1511.48C1568.94 1507.4 1570.42 1503.76 1573.4 1500.55L1573.25 1500.42C1570.24 1503.66 1568.74 1507.35 1568.75 1511.48L1568.95 1511.48ZM1573.4 1500.55C1576.51 1497.2 1580.03 1495.45 1583.96 1495.31L1583.95 1495.11C1579.96 1495.26 1576.39 1497.03 1573.25 1500.42L1573.4 1500.55ZM1583.96 1495.31C1587.88 1495.16 1591.52 1496.64 1594.88 1499.76L1595.01 1499.61C1591.63 1496.47 1587.94 1494.96 1583.95 1495.11L1583.96 1495.31ZM1594.88 1499.76L1692.71 1590.59L1692.85 1590.44L1595.01 1499.61L1594.88 1499.76ZM1692.71 1590.59C1695.92 1593.57 1697.67 1597.09 1697.96 1601.15L1698.16 1601.14C1697.86 1597.02 1696.09 1593.45 1692.85 1590.44L1692.71 1590.59ZM1697.96 1601.15C1698.11 1605.07 1696.63 1608.71 1693.51 1612.07L1693.66 1612.2C1696.8 1608.82 1698.31 1605.13 1698.16 1601.14L1697.96 1601.15ZM1553.68 1482.25C1550.03 1486.19 1545.46 1488.33 1539.98 1488.68L1539.99 1488.88C1545.52 1488.53 1550.14 1486.36 1553.83 1482.39L1553.68 1482.25ZM1539.98 1488.68C1534.49 1488.74 1529.78 1486.94 1525.84 1483.29L1525.71 1483.43C1529.68 1487.12 1534.44 1488.94 1539.99 1488.88L1539.98 1488.68ZM1525.84 1483.29C1521.9 1479.63 1519.84 1475.13 1519.64 1469.79L1519.44 1469.8C1519.64 1475.19 1521.73 1479.74 1525.71 1483.43L1525.84 1483.29ZM1519.64 1469.79C1519.43 1464.16 1521.15 1459.38 1524.81 1455.45L1524.66 1455.31C1520.97 1459.29 1519.23 1464.12 1519.44 1469.8L1519.64 1469.79ZM1524.81 1455.45C1528.46 1451.51 1533.03 1449.51 1538.52 1449.45L1538.52 1449.25C1532.98 1449.31 1528.35 1451.33 1524.66 1455.31L1524.81 1455.45ZM1538.53 1449.45C1544.01 1449.1 1548.71 1450.76 1552.65 1454.41L1552.78 1454.26C1548.81 1450.57 1544.05 1448.9 1538.51 1449.25L1538.53 1449.45ZM1552.65 1454.41C1556.59 1458.07 1558.66 1462.7 1558.87 1468.33L1559.07 1468.32C1558.86 1462.65 1556.76 1457.96 1552.78 1454.26L1552.65 1454.41ZM1558.87 1468.33C1559.07 1473.68 1557.34 1478.31 1553.68 1482.25L1553.83 1482.39C1557.52 1478.41 1559.27 1473.72 1559.07 1468.32L1558.87 1468.33ZM1718.35 1497.28L1718.35 1497.38L1718.45 1497.38L1718.45 1497.28L1718.35 1497.28ZM1690.75 1497.03L1690.65 1497.02L1690.64 1497.13L1690.74 1497.13L1690.75 1497.03ZM1693.17 1373.6L1693.27 1373.6L1693.27 1373.6L1693.17 1373.6ZM1697.04 1363.69L1697.11 1363.77L1697.11 1363.77L1697.04 1363.69ZM1707.09 1359.92L1707.09 1360.02L1707.09 1360.02L1707.09 1359.92ZM1717 1363.8L1716.93 1363.87L1717 1363.8ZM1720.77 1373.85L1720.87 1373.85L1720.87 1373.85L1720.77 1373.85ZM1742.52 1553.69L1742.52 1553.79L1742.53 1553.79L1742.52 1553.69ZM1576.75 1399.79L1576.65 1399.79L1576.75 1399.79ZM1591.24 1384.18L1591.24 1384.28L1591.25 1384.28L1591.24 1384.18ZM1757.01 1538.08L1756.91 1538.09L1757.01 1538.08ZM1824.5 1468.92L1824.6 1468.93L1824.6 1468.93L1824.5 1468.92ZM1819.57 1479.08L1819.5 1479.01L1819.5 1479.01L1819.57 1479.08ZM1809.3 1482.65L1809.29 1482.75L1809.29 1482.75L1809.3 1482.65ZM1712.68 1476.05L1712.58 1476.05L1712.58 1476.14L1712.67 1476.15L1712.68 1476.05ZM1712.46 1447.18L1712.46 1447.08L1712.36 1447.08L1712.36 1447.18L1712.46 1447.18ZM1811.2 1453.71L1811.19 1453.81L1811.2 1453.71ZM1821.14 1458.43L1821.06 1458.5L1821.06 1458.5L1821.14 1458.43ZM1718.35 1497.18L1690.75 1496.93L1690.74 1497.13L1718.35 1497.38L1718.35 1497.18ZM1690.85 1497.03L1693.27 1373.6L1693.07 1373.6L1690.65 1497.02L1690.85 1497.03ZM1693.27 1373.6C1693.26 1369.52 1694.54 1366.25 1697.11 1363.77L1696.98 1363.62C1694.36 1366.15 1693.06 1369.48 1693.07 1373.6L1693.27 1373.6ZM1697.11 1363.77C1699.83 1361.14 1703.15 1359.89 1707.09 1360.02L1707.1 1359.82C1703.1 1359.69 1699.73 1360.95 1696.98 1363.62L1697.11 1363.77ZM1707.09 1360.02C1711.17 1360.01 1714.45 1361.3 1716.93 1363.87L1717.07 1363.73C1714.55 1361.11 1711.22 1359.81 1707.09 1359.82L1707.09 1360.02ZM1716.93 1363.87C1719.41 1366.45 1720.66 1369.77 1720.67 1373.85L1720.87 1373.85C1720.86 1369.73 1719.6 1366.35 1717.07 1363.73L1716.93 1363.87ZM1720.67 1373.85L1718.25 1497.27L1718.45 1497.28L1720.87 1373.85L1720.67 1373.85ZM1752.66 1548.36C1749.68 1551.57 1746.3 1553.31 1742.52 1553.59L1742.53 1553.79C1746.37 1553.51 1749.79 1551.74 1752.8 1548.5L1752.66 1548.36ZM1742.52 1553.59C1738.73 1553.59 1735.23 1552.11 1732.02 1549.13L1731.89 1549.28C1735.13 1552.28 1738.67 1553.79 1742.52 1553.79L1742.52 1553.59ZM1732.02 1549.13L1581.86 1409.72L1581.72 1409.87L1731.89 1549.28L1732.02 1549.13ZM1581.86 1409.72C1578.65 1406.74 1576.98 1403.43 1576.85 1399.79L1576.65 1399.79C1576.79 1403.5 1578.48 1406.86 1581.72 1409.87L1581.86 1409.72ZM1576.85 1399.79C1576.7 1395.86 1578.12 1392.29 1581.09 1389.09L1580.95 1388.95C1577.94 1392.19 1576.5 1395.81 1576.65 1399.79L1576.85 1399.79ZM1581.09 1389.09C1584.07 1385.88 1587.45 1384.28 1591.24 1384.28L1591.24 1384.08C1587.39 1384.08 1583.96 1385.71 1580.95 1388.95L1581.09 1389.09ZM1591.25 1384.28C1595.03 1384 1598.52 1385.34 1601.73 1388.32L1601.86 1388.17C1598.62 1385.16 1595.08 1383.8 1591.23 1384.08L1591.25 1384.28ZM1601.73 1388.32L1751.89 1527.73L1752.03 1527.58L1601.86 1388.17L1601.73 1388.32ZM1751.89 1527.73C1755.1 1530.71 1756.77 1534.16 1756.91 1538.09L1757.11 1538.08C1756.97 1534.09 1755.27 1530.59 1752.03 1527.58L1751.89 1527.73ZM1756.91 1538.09C1757.05 1541.73 1755.63 1545.15 1752.66 1548.36L1752.8 1548.5C1755.81 1545.26 1757.25 1541.78 1757.11 1538.08L1756.91 1538.09ZM1824.4 1468.91C1824.13 1473 1822.5 1476.37 1819.5 1479.01L1819.63 1479.16C1822.67 1476.48 1824.32 1473.07 1824.6 1468.93L1824.4 1468.91ZM1819.5 1479.01C1816.79 1481.64 1813.39 1482.82 1809.31 1482.55L1809.29 1482.75C1813.43 1483.02 1816.88 1481.82 1819.64 1479.15L1819.5 1479.01ZM1809.31 1482.55L1712.69 1475.95L1712.67 1476.15L1809.29 1482.75L1809.31 1482.55ZM1712.78 1476.04L1712.56 1447.18L1712.36 1447.18L1712.58 1476.05L1712.78 1476.04ZM1712.45 1447.28L1811.19 1453.81L1811.2 1453.61L1712.46 1447.08L1712.45 1447.28ZM1811.19 1453.81C1815.28 1454.08 1818.57 1455.64 1821.06 1458.5L1821.21 1458.37C1818.68 1455.47 1815.34 1453.88 1811.2 1453.61L1811.19 1453.81ZM1821.06 1458.5C1823.54 1461.07 1824.66 1464.54 1824.4 1468.92L1824.6 1468.93C1824.86 1464.51 1823.73 1460.98 1821.21 1458.36L1821.06 1458.5ZM1860.76 1425.9L1860.76 1426L1860.76 1426L1860.76 1425.9ZM1746.65 1319.96L1746.55 1319.96L1746.55 1319.97L1746.65 1319.96ZM1875.86 1409.63L1875.96 1409.62L1875.96 1409.62L1875.86 1409.63ZM1717.79 1297.26L1717.79 1297.36L1717.79 1297.36L1717.79 1297.26ZM1697.34 1278.28L1697.24 1278.28L1697.34 1278.28ZM1716.32 1257.83L1716.32 1257.93L1716.33 1257.93L1716.32 1257.83ZM1736.77 1276.81L1736.87 1276.81L1736.77 1276.81ZM1871.31 1420.55C1868.34 1423.76 1864.82 1425.51 1860.75 1425.8L1860.76 1426C1864.88 1425.7 1868.45 1423.93 1871.46 1420.69L1871.31 1420.55ZM1860.76 1425.8C1856.68 1425.81 1853.04 1424.33 1849.83 1421.35L1849.7 1421.5C1852.94 1424.51 1856.63 1426.01 1860.76 1426L1860.76 1425.8ZM1849.83 1421.35L1752 1330.52L1751.86 1330.67L1849.7 1421.5L1849.83 1421.35ZM1752 1330.52C1748.64 1327.4 1746.9 1323.88 1746.75 1319.96L1746.55 1319.97C1746.7 1323.95 1748.47 1327.52 1751.86 1330.67L1752 1330.52ZM1746.75 1319.96C1746.74 1315.89 1748.22 1312.25 1751.2 1309.04L1751.05 1308.9C1748.04 1312.14 1746.54 1315.83 1746.55 1319.96L1746.75 1319.96ZM1751.2 1309.04C1754.31 1305.68 1757.83 1303.94 1761.76 1303.79L1761.75 1303.59C1757.76 1303.74 1754.2 1305.51 1751.05 1308.9L1751.2 1309.04ZM1761.76 1303.79C1765.69 1303.65 1769.32 1305.13 1772.68 1308.24L1772.82 1308.09C1769.43 1304.95 1765.74 1303.44 1761.75 1303.59L1761.76 1303.79ZM1772.68 1308.24L1870.52 1399.07L1870.65 1398.92L1772.82 1308.09L1772.68 1308.24ZM1870.52 1399.07C1873.72 1402.05 1875.47 1405.57 1875.76 1409.63L1875.96 1409.62C1875.67 1405.5 1873.89 1401.93 1870.65 1398.92L1870.52 1399.07ZM1875.76 1409.63C1875.91 1413.56 1874.43 1417.2 1871.31 1420.55L1871.46 1420.69C1874.61 1417.3 1876.11 1413.61 1875.96 1409.62L1875.76 1409.63ZM1731.48 1290.74C1727.83 1294.67 1723.26 1296.81 1717.78 1297.16L1717.79 1297.36C1723.32 1297.01 1727.94 1294.85 1731.63 1290.87L1731.48 1290.74ZM1717.79 1297.16C1712.29 1297.22 1707.58 1295.43 1703.64 1291.77L1703.51 1291.92C1707.48 1295.61 1712.25 1297.42 1717.79 1297.36L1717.79 1297.16ZM1703.64 1291.77C1699.71 1288.11 1697.64 1283.62 1697.44 1278.27L1697.24 1278.28C1697.44 1283.68 1699.53 1288.22 1703.51 1291.92L1703.64 1291.77ZM1697.44 1278.27C1697.23 1272.64 1698.95 1267.87 1702.61 1263.93L1702.46 1263.79C1698.77 1267.77 1697.03 1272.6 1697.24 1278.28L1697.44 1278.27ZM1702.61 1263.93C1706.26 1259.99 1710.83 1257.99 1716.32 1257.93L1716.32 1257.73C1710.78 1257.79 1706.16 1259.81 1702.46 1263.79L1702.61 1263.93ZM1716.33 1257.93C1721.81 1257.58 1726.51 1259.24 1730.45 1262.89L1730.59 1262.75C1726.61 1259.05 1721.85 1257.38 1716.32 1257.73L1716.33 1257.93ZM1730.45 1262.89C1734.39 1266.55 1736.46 1271.19 1736.67 1276.82L1736.87 1276.81C1736.66 1271.13 1734.56 1266.44 1730.59 1262.75L1730.45 1262.89ZM1736.67 1276.82C1736.87 1282.16 1735.14 1286.8 1731.48 1290.74L1731.63 1290.87C1735.32 1286.89 1737.07 1282.2 1736.87 1276.81L1736.67 1276.82Z" fill="#072B57" mask="url(#path-4-outside-1_871_190)"/>
<defs>
<linearGradient id="paint0_linear_871_190" x1="1057.95" y1="1826.35" x2="1057.95" y2="43.4717" gradientUnits="userSpaceOnUse">
<stop stop-color="#975CB8"/>
<stop offset="0.551466" stop-color="#5981CE"/>
<stop offset="1" stop-color="#3498DB"/>
</linearGradient>
</defs>
</svg>
