<svg width="44" height="44" viewBox="0 0 44 44" fill="none" xmlns="http://www.w3.org/2000/svg">
<circle cx="22" cy="22" r="21" fill="#FAFAFA" stroke="#022B94"/>
<path d="M22 31.25H17C13.35 31.25 11.25 29.15 11.25 25.5V18.5C11.25 14.85 13.35 12.75 17 12.75H27C30.65 12.75 32.75 14.85 32.75 18.5V21.5C32.75 21.91 32.41 22.25 32 22.25C31.59 22.25 31.25 21.91 31.25 21.5V18.5C31.25 15.64 29.86 14.25 27 14.25H17C14.14 14.25 12.75 15.64 12.75 18.5V25.5C12.75 28.36 14.14 29.75 17 29.75H22C22.41 29.75 22.75 30.09 22.75 30.5C22.75 30.91 22.41 31.25 22 31.25Z" fill="#022B94"/>
<path d="M21.9998 22.87C21.1598 22.87 20.3098 22.61 19.6598 22.08L16.5298 19.58C16.2098 19.32 16.1498 18.85 16.4098 18.53C16.6698 18.21 17.1398 18.16 17.4598 18.41L20.5898 20.91C21.3498 21.52 22.6398 21.52 23.3998 20.91L26.5298 18.41C26.8498 18.15 27.3198 18.2 27.5798 18.53C27.8398 18.85 27.7898 19.33 27.4598 19.58L24.3298 22.08C23.6898 22.61 22.8398 22.87 21.9998 22.87Z" fill="#022B94"/>
<path d="M25.8201 31.7801C25.4401 31.7801 25.0801 31.6401 24.8201 31.3801C24.5101 31.0701 24.3701 30.6201 24.4401 30.1501L24.6301 28.8001C24.6801 28.4501 24.8901 28.0301 25.1401 27.7801L28.68 24.2401C29.16 23.7601 29.6301 23.5101 30.1401 23.4601C30.7601 23.4001 31.38 23.6601 31.96 24.2401C32.54 24.8201 32.8 25.4301 32.74 26.0601C32.69 26.5601 32.43 27.0401 31.96 27.5201L28.4201 31.0601C28.1701 31.3101 27.75 31.5201 27.4 31.5701L26.05 31.7601C25.97 31.7701 25.9001 31.7801 25.8201 31.7801ZM30.31 24.9501C30.3 24.9501 30.29 24.9501 30.28 24.9501C30.14 24.9601 29.95 25.0901 29.74 25.3001L26.2001 28.8401C26.1701 28.8701 26.12 28.9701 26.12 29.0101L25.9401 30.2601L27.1901 30.0801C27.2301 30.0701 27.33 30.0201 27.36 29.9901L30.9 26.4501C31.11 26.2301 31.24 26.0501 31.2501 25.9101C31.2701 25.7101 31.07 25.4701 30.9 25.3001C30.74 25.1401 30.51 24.9501 30.31 24.9501Z" fill="#022B94"/>
<path d="M30.9201 28.2499C30.8501 28.2499 30.7801 28.2399 30.7201 28.2199C29.4001 27.8499 28.3501 26.7999 27.9801 25.4799C27.8701 25.0799 28.1001 24.6699 28.5001 24.5499C28.9001 24.4399 29.3101 24.6699 29.4201 25.0699C29.6501 25.8899 30.3001 26.5399 31.1201 26.7699C31.5201 26.8799 31.7501 27.2999 31.6401 27.6999C31.5501 28.0299 31.2501 28.2499 30.9201 28.2499Z" fill="#022B94"/>
</svg>
