<svg width="36" height="36" viewBox="0 0 36 36" fill="none" xmlns="http://www.w3.org/2000/svg">
<circle cx="18" cy="18" r="18" fill="#1B409F"/>
<path d="M17.9999 26.4791H13.4166C10.0708 26.4791 8.14575 24.5541 8.14575 21.2083V14.7916C8.14575 11.4458 10.0708 9.52075 13.4166 9.52075H22.5833C25.9291 9.52075 27.8541 11.4458 27.8541 14.7916V17.5416C27.8541 17.9174 27.5424 18.2291 27.1666 18.2291C26.7908 18.2291 26.4791 17.9174 26.4791 17.5416V14.7916C26.4791 12.1699 25.2049 10.8958 22.5833 10.8958H13.4166C10.7949 10.8958 9.52075 12.1699 9.52075 14.7916V21.2083C9.52075 23.8299 10.7949 25.1041 13.4166 25.1041H17.9999C18.3758 25.1041 18.6874 25.4158 18.6874 25.7916C18.6874 26.1674 18.3758 26.4791 17.9999 26.4791Z" fill="#FAFAFA"/>
<path d="M17.9999 18.7975C17.2299 18.7975 16.4507 18.5591 15.8549 18.0733L12.9857 15.7816C12.6924 15.5433 12.6374 15.1125 12.8757 14.8191C13.114 14.5258 13.5449 14.48 13.8382 14.7091L16.7074 17.0008C17.404 17.56 18.5865 17.56 19.2832 17.0008L22.1524 14.7091C22.4457 14.4708 22.8765 14.5166 23.1149 14.8191C23.3532 15.1125 23.3074 15.5525 23.0049 15.7816L20.1357 18.0733C19.549 18.5591 18.7699 18.7975 17.9999 18.7975Z" fill="#FAFAFA"/>
<path d="M21.5017 26.965C21.1533 26.965 20.8233 26.8366 20.585 26.5983C20.3008 26.3141 20.1725 25.9016 20.2367 25.4708L20.4108 24.2333C20.4567 23.9125 20.6492 23.5275 20.8784 23.2983L24.1233 20.0533C24.5633 19.6133 24.9942 19.3841 25.4617 19.3383C26.03 19.2833 26.5983 19.5216 27.13 20.0533C27.6617 20.585 27.9 21.1441 27.845 21.7216C27.7992 22.18 27.5608 22.62 27.13 23.06L23.885 26.305C23.6559 26.5341 23.2708 26.7266 22.95 26.7725L21.7125 26.9467C21.6392 26.9558 21.575 26.965 21.5017 26.965ZM25.6175 20.7042C25.6083 20.7042 25.5992 20.7042 25.59 20.7042C25.4617 20.7133 25.2875 20.8325 25.095 21.025L21.85 24.27C21.8225 24.2975 21.7767 24.3892 21.7767 24.4258L21.6117 25.5717L22.7575 25.4066C22.7942 25.3975 22.8858 25.3516 22.9133 25.3241L26.1583 22.0792C26.3508 21.8775 26.47 21.7125 26.4792 21.5841C26.4975 21.4008 26.3142 21.1808 26.1583 21.025C26.0117 20.8783 25.8008 20.7042 25.6175 20.7042Z" fill="#FAFAFA"/>
<path d="M26.1767 23.7291C26.1126 23.7291 26.0484 23.7199 25.9934 23.7016C24.7834 23.3624 23.8209 22.3999 23.4817 21.1899C23.3809 20.8233 23.5917 20.4474 23.9584 20.3374C24.325 20.2366 24.7009 20.4474 24.8017 20.8141C25.0125 21.5658 25.6084 22.1616 26.36 22.3724C26.7267 22.4733 26.9376 22.8583 26.8367 23.2249C26.7542 23.5274 26.4792 23.7291 26.1767 23.7291Z" fill="#FAFAFA"/>
</svg>
