<svg width="42" height="43" viewBox="0 0 42 43" fill="none" xmlns="http://www.w3.org/2000/svg">
<circle cx="21" cy="21.5" r="21" fill="#022B94"/>
<path d="M21 30.75H16C12.35 30.75 10.25 28.65 10.25 25V18C10.25 14.35 12.35 12.25 16 12.25H26C29.65 12.25 31.75 14.35 31.75 18V21C31.75 21.41 31.41 21.75 31 21.75C30.59 21.75 30.25 21.41 30.25 21V18C30.25 15.14 28.86 13.75 26 13.75H16C13.14 13.75 11.75 15.14 11.75 18V25C11.75 27.86 13.14 29.25 16 29.25H21C21.41 29.25 21.75 29.59 21.75 30C21.75 30.41 21.41 30.75 21 30.75Z" fill="#FAFAFA"/>
<path d="M20.9998 22.37C20.1598 22.37 19.3098 22.11 18.6598 21.58L15.5298 19.08C15.2098 18.82 15.1498 18.35 15.4098 18.03C15.6698 17.71 16.1398 17.66 16.4598 17.91L19.5898 20.41C20.3498 21.02 21.6398 21.02 22.3998 20.41L25.5298 17.91C25.8498 17.65 26.3198 17.7 26.5798 18.03C26.8398 18.35 26.7898 18.83 26.4598 19.08L23.3298 21.58C22.6898 22.11 21.8398 22.37 20.9998 22.37Z" fill="#FAFAFA"/>
<path d="M24.8201 31.28C24.4401 31.28 24.0801 31.14 23.8201 30.88C23.5101 30.57 23.3701 30.12 23.4401 29.65L23.6301 28.3C23.6801 27.95 23.8901 27.53 24.1401 27.28L27.68 23.74C28.16 23.26 28.6301 23.01 29.1401 22.96C29.7601 22.9 30.38 23.16 30.96 23.74C31.54 24.32 31.8 24.93 31.74 25.56C31.69 26.06 31.43 26.54 30.96 27.02L27.4201 30.56C27.1701 30.81 26.75 31.02 26.4 31.07L25.05 31.26C24.97 31.27 24.9001 31.28 24.8201 31.28ZM29.31 24.45C29.3 24.45 29.29 24.45 29.28 24.45C29.14 24.46 28.95 24.59 28.74 24.8L25.2001 28.34C25.1701 28.37 25.12 28.47 25.12 28.51L24.9401 29.76L26.1901 29.58C26.2301 29.57 26.33 29.52 26.36 29.49L29.9 25.95C30.11 25.73 30.24 25.55 30.2501 25.41C30.2701 25.21 30.07 24.97 29.9 24.8C29.74 24.64 29.51 24.45 29.31 24.45Z" fill="#FAFAFA"/>
<path d="M29.9201 27.7499C29.8501 27.7499 29.7801 27.7399 29.7201 27.7199C28.4001 27.3499 27.3501 26.2999 26.9801 24.9799C26.8701 24.5799 27.1001 24.1699 27.5001 24.0499C27.9001 23.9399 28.3101 24.1699 28.4201 24.5699C28.6501 25.3899 29.3001 26.0399 30.1201 26.2699C30.5201 26.3799 30.7501 26.7999 30.6401 27.1999C30.5501 27.5299 30.2501 27.7499 29.9201 27.7499Z" fill="#FAFAFA"/>
</svg>
