<svg width="1920" height="120" viewBox="0 0 1920 120" fill="none" xmlns="http://www.w3.org/2000/svg">
<path d="M374.208 14.4826C374.186 15.7988 372.024 43.6807 371.914 43.7684C371.848 43.8342 370.943 44.1633 369.862 44.5362C368.803 44.8872 367.281 45.5234 366.487 45.9402L365.075 46.686L360.354 43.571L355.633 40.4779L352.655 43.4394L349.699 46.4009L352.721 50.9637C354.376 53.4865 355.744 55.6582 355.744 55.7679C355.766 55.8995 355.347 56.8648 354.839 57.9177C354.332 58.9707 353.736 60.4405 353.538 61.1644C353.317 61.8883 352.986 62.5245 352.81 62.5684C352.633 62.6342 350.118 63.1387 347.25 63.7091L342 64.7621V68.952V73.12L347.361 74.195C350.295 74.7872 352.81 75.3137 352.92 75.3576C353.052 75.4015 353.317 76.0157 353.538 76.7396C353.736 77.4636 354.332 78.9333 354.839 79.9863C355.347 81.0393 355.766 82.0045 355.744 82.1142C355.744 82.2458 354.376 84.3956 352.721 86.9184L349.699 91.5032L352.655 94.4647L355.633 97.4262L360.354 94.3331L365.053 91.24L366.818 92.1174C367.789 92.5781 369.333 93.2143 370.237 93.4995L371.87 94.0259L372.995 99.4663L374.098 104.929L378.355 104.994C380.672 105.016 382.591 104.972 382.591 104.885C382.591 104.292 384.797 94.2014 384.952 94.0698C385.04 93.9821 385.834 93.675 386.672 93.4117C387.533 93.1265 388.989 92.5342 389.937 92.0516L391.636 91.218L396.291 94.3111L400.967 97.4042L403.901 94.4866C405.534 92.8633 406.813 91.4374 406.769 91.3058C406.725 91.1741 405.335 89.0463 403.703 86.5674L400.747 82.0922L401.585 80.447C402.048 79.5476 402.688 78.0559 402.997 77.1345C403.681 75.1382 402.953 75.4673 409.902 74.0853L414.579 73.1639V68.952V64.7401L409.35 63.6872C406.46 63.1168 403.99 62.5903 403.835 62.5464C403.681 62.4806 403.306 61.669 402.997 60.7476C401.828 57.2596 399.798 53.9472 397.107 51.1612L395.585 49.6036L394.945 40.9605C394.592 36.2002 394.239 31.7031 394.173 30.9353L394.018 29.5752H390.952H387.886V30.1675C387.863 31.4618 386.827 44.2949 386.738 44.3827C386.672 44.4485 386.165 44.3388 385.613 44.1413C384.885 43.9 384.576 43.6807 384.576 43.3955C384.576 42.7374 382.613 16.3911 382.481 15.1407L382.348 14H378.267H374.208V14.4826ZM384.201 49.1868C390.29 50.9857 394.923 55.0879 397.416 60.8792L398.011 62.2613H378.378H358.744L358.876 61.7567C359.273 60.4186 360.906 57.5668 362.163 55.9873C365.075 52.3677 369.112 49.8888 373.767 48.8578C376.569 48.2436 381.532 48.3971 384.201 49.1868ZM406.549 65.5299C409.483 66.8461 409.549 70.8386 406.637 72.2864L405.666 72.791H378.267H350.89L349.92 72.2864C348.53 71.5406 347.912 70.4218 348 68.7327C348.089 67.1093 348.64 66.2318 349.986 65.5737L350.934 65.1131H378.289C404.431 65.1131 405.688 65.135 406.549 65.5299ZM397.658 76.4545C394.989 82.86 390.158 87.1377 383.738 88.8269C381.532 89.4192 377.23 89.6166 374.914 89.2437C369.906 88.454 365.296 85.7996 362.185 81.9387C360.95 80.4031 359.251 77.4416 358.876 76.1254L358.744 75.6428H378.378H398.011L397.658 76.4545Z" fill="#022B94"/>
<path d="M354.486 65.9906C352.06 66.7364 351.618 70.1805 353.78 71.5845C354.508 72.0671 356.052 72.0671 356.935 71.6064C357.751 71.2115 358.545 69.8515 358.545 68.9082C358.545 66.9996 356.361 65.4421 354.486 65.9906ZM356.008 68.952C356.008 69.5005 355.92 69.6101 355.479 69.6101C354.773 69.6101 354.398 68.9959 354.795 68.5133C354.949 68.3159 355.302 68.1842 355.545 68.2281C355.898 68.272 356.008 68.4475 356.008 68.952Z" fill="#022B94"/>
<path d="M362.163 66.0125C360.619 66.4512 359.582 68.3159 360.067 69.7856C360.839 72.0671 363.619 72.7471 365.251 71.058C366.84 69.4127 366.068 66.6048 363.862 65.9905C362.957 65.7492 363.068 65.7492 362.163 66.0125ZM363.729 68.623C363.906 69.2153 363.465 69.7637 362.869 69.6759C362.406 69.6101 362.163 69.0617 362.384 68.4913C362.56 68.0087 363.575 68.0965 363.729 68.623Z" fill="#022B94"/>
<path d="M369.73 66.1002C368.605 66.495 368.075 66.9996 367.789 67.9868C367.436 69.0836 367.723 70.3121 368.451 71.0579C370.392 72.9884 373.767 71.6722 373.767 68.9959C373.767 66.846 371.76 65.3982 369.73 66.1002ZM371.362 68.5352C371.738 68.9959 371.362 69.6101 370.679 69.6101C369.995 69.6101 369.62 68.9959 369.995 68.5352C370.171 68.3377 370.458 68.1842 370.679 68.1842C370.899 68.1842 371.186 68.3377 371.362 68.5352Z" fill="#022B94"/>
<path d="M377.385 66.0124C376.988 66.1221 376.37 66.5608 375.973 67.0215C375.311 67.7674 375.267 67.899 375.355 69.1055C375.421 70.1366 375.576 70.5095 376.083 71.036C377.76 72.7909 380.584 72.067 381.29 69.6978C381.973 67.5041 379.679 65.3324 377.385 66.0124ZM378.951 68.952C378.951 69.5004 378.863 69.6101 378.422 69.6101C377.716 69.6101 377.341 68.9958 377.738 68.5132C377.892 68.3158 378.245 68.1842 378.488 68.228C378.841 68.2719 378.951 68.4474 378.951 68.952Z" fill="#022B94"/>
<path d="M385.216 65.9905C384.157 66.2976 383.496 66.8899 383.121 67.8771C381.907 71.0579 386.033 73.4929 388.305 70.9044C388.9 70.2463 388.989 69.9611 388.989 68.952C388.989 67.9429 388.9 67.6577 388.305 66.9996C387.93 66.5608 387.268 66.1221 386.827 65.9905C385.922 65.7492 385.989 65.7492 385.216 65.9905ZM386.584 68.5352C386.959 68.9958 386.584 69.6101 385.878 69.6101C385.349 69.6101 385.084 69.1055 385.327 68.4913C385.481 68.0745 386.209 68.0964 386.584 68.5352Z" fill="#022B94"/>
<path d="M392.959 65.9467C391.614 66.1661 390.533 67.5262 390.533 68.996C390.533 71.2335 393.048 72.6814 395.121 71.6064C396.026 71.1458 396.511 70.378 396.643 69.2153C396.842 67.2191 395.011 65.5738 392.959 65.9467ZM394.305 68.5353C394.68 68.996 394.305 69.6102 393.621 69.6102C392.937 69.6102 392.562 68.996 392.937 68.5353C393.114 68.3378 393.401 68.1843 393.621 68.1843C393.842 68.1843 394.129 68.3378 394.305 68.5353Z" fill="#022B94"/>
<path d="M400.328 66.0125C399.93 66.1221 399.313 66.5609 398.938 66.9777C398.342 67.6577 398.254 67.9429 398.254 68.952C398.254 69.9611 398.342 70.2463 398.938 70.9263C400.504 72.7032 403.195 72.2426 404.122 70.0269C404.541 69.0617 404.519 68.7107 403.99 67.6358C403.328 66.2757 401.784 65.5737 400.328 66.0125ZM401.894 68.952C401.894 69.4566 401.784 69.6321 401.431 69.6759C400.835 69.7637 400.394 69.2153 400.57 68.623C400.681 68.272 400.879 68.1842 401.298 68.2281C401.806 68.272 401.894 68.4036 401.894 68.952Z" fill="#022B94"/>
<path d="M417.446 64.2355V73.2296H419.321H421.197V65.9904V58.7512H423.072H424.947V65.9904V73.2296H426.822H428.697V64.2355V55.2413H423.072H417.446V64.2355Z" fill="#022B94"/>
<path d="M469.95 64.2355V73.2296H471.825H473.7V70.1584V67.0873H474.539C477.054 67.0873 479.282 65.5736 479.899 63.4457C480.627 60.9669 480.054 58.2906 478.488 56.733C477.318 55.5484 476.105 55.2413 472.774 55.2413H469.95V64.2355ZM475.884 59.3216C476.237 59.7823 476.348 60.221 476.348 61.252C476.348 62.9631 475.884 63.5774 474.583 63.5774H473.7V61.1643V58.7512H474.561C475.245 58.7512 475.531 58.8829 475.884 59.3216Z" fill="#022B94"/>
<path d="M435.69 59.6289C435.337 59.7386 434.918 59.936 434.72 60.0896C434.455 60.3309 434.345 60.3089 434.19 60.0018C434.014 59.7166 433.661 59.6289 432.448 59.6289H430.903V68.8424V78.0559H432.668H434.433V75.3138V72.5717L435.161 73.0104C436.088 73.5808 436.97 73.5588 438.183 72.9446C438.999 72.5497 439.308 72.2207 439.838 71.1458C440.478 69.8515 440.5 69.7637 440.5 66.4293C440.5 63.0949 440.478 63.0072 439.838 61.7129C439.132 60.3089 438.426 59.7605 437.08 59.5631C436.661 59.4973 436.021 59.5411 435.69 59.6289ZM436.507 63.2485C437.146 63.9066 437.257 68.3378 436.639 69.4786C436.352 70.0489 435.492 70.2683 434.896 69.9392C434.455 69.7199 434.433 69.5224 434.433 66.5829C434.433 64.4331 434.521 63.3582 434.698 63.1827C435.073 62.8097 436.11 62.8536 436.507 63.2485Z" fill="#022B94"/>
<path d="M446.345 59.6069C444.514 59.9798 443.058 61.5154 442.573 63.6652C442.441 64.3233 442.352 65.815 442.419 67.219C442.485 69.2811 442.595 69.7637 443.102 70.7508C444.095 72.6594 445.992 73.6465 448.066 73.3613C451.154 72.9445 452.699 70.2902 452.478 65.7712C452.302 62.2393 450.956 60.1553 448.507 59.6508C447.912 59.5191 447.36 59.4314 447.272 59.4314C447.184 59.4533 446.764 59.5191 446.345 59.6069ZM448.419 63.5555C449.191 65.0472 449.015 68.9301 448.132 69.8076C447.581 70.356 446.72 70.1366 446.345 69.3469C445.992 68.5572 445.794 66.1222 446.014 64.784C446.279 62.8974 447.713 62.1735 448.419 63.5555Z" fill="#022B94"/>
<path d="M484.686 60.0674C483.672 60.2429 482.921 60.7255 482.216 61.6688C481.201 62.985 480.914 64.1257 480.892 66.8898C480.87 69.2809 480.914 69.4784 481.532 70.7068C482.061 71.7379 482.414 72.0888 483.385 72.6373C484.775 73.427 487.025 73.6464 488.812 73.1857L489.915 72.9005L489.87 72.023C489.76 70.1803 489.826 70.2242 487.62 70.3339C485.657 70.4216 485.635 70.4216 484.951 69.7635C484.554 69.3687 484.289 68.8641 484.289 68.5351V67.9647H487.378H490.466V66.3633C490.466 63.5334 489.54 61.4494 487.929 60.5939C486.892 60.0455 485.811 59.87 484.686 60.0674ZM486.473 63.5115C486.738 63.7309 487.003 64.2793 487.091 64.718C487.201 65.5297 487.201 65.5516 486.583 65.5516C486.231 65.5516 485.569 65.4858 485.105 65.3981C484.289 65.2665 484.245 65.2445 484.377 64.5864C484.51 63.8844 485.216 63.1386 485.723 63.1386C485.878 63.1386 486.208 63.3141 486.473 63.5115Z" fill="#022B94"/>
<path d="M512.989 60.1112C511.622 60.4184 510.232 61.8443 509.725 63.5115C509.261 65.069 509.217 68.2937 509.636 69.7416C510.011 71.0358 510.982 72.2204 512.151 72.8347C513.298 73.427 515.747 73.5805 517.269 73.1857C518.35 72.9005 518.372 72.8785 518.35 72.1107C518.306 70.2461 518.284 70.2242 516.078 70.3339C514.115 70.4216 514.092 70.4216 513.409 69.7635C513.012 69.3686 512.747 68.8641 512.747 68.535V67.9647H515.857H518.99L518.858 65.8148C518.813 64.6522 518.593 63.336 518.416 62.9192C517.424 60.6597 515.394 59.6067 512.989 60.1112ZM515.063 63.687C515.416 64.016 515.615 64.4548 515.615 64.9154V65.6174L514.247 65.4639C513.497 65.398 512.857 65.2884 512.791 65.2225C512.592 65.0471 512.989 63.9941 513.409 63.5773C513.982 63.0069 514.423 63.0289 515.063 63.687Z" fill="#022B94"/>
<path d="M548.595 60.0017C547.404 60.1992 547.095 60.3527 546.301 61.0547C545.838 61.4715 545.22 62.349 544.933 62.9852C544.47 63.9943 544.404 64.4549 544.404 66.868C544.404 69.4346 544.448 69.6759 544.999 70.7508C546.213 73.0323 548.728 73.9098 552.059 73.2078C552.698 73.0761 553.294 72.9007 553.382 72.8129C553.449 72.7471 553.426 72.1329 553.294 71.4528L553.096 70.2243L551.463 70.334C550.581 70.3779 549.588 70.3779 549.279 70.2902C548.485 70.0927 547.823 69.303 547.823 68.5791V67.9648H550.912H554V66.5828C554 63.9065 553.029 61.4934 551.595 60.6598C550.867 60.243 549.279 59.892 548.595 60.0017ZM549.809 63.3581C550.338 63.6433 550.823 65.0692 550.515 65.3763C550.36 65.5298 549.809 65.5518 549.059 65.464C547.933 65.3105 547.823 65.2447 547.823 64.762C547.823 64.2136 548.706 63.1387 549.147 63.1387C549.279 63.1387 549.588 63.2265 549.809 63.3581Z" fill="#022B94"/>
<path d="M454.332 66.0343C454.177 69.3249 454.067 72.2864 454.067 72.6154V73.2296H455.81H457.552L457.685 72.5496C457.751 72.1767 457.817 70.9921 457.817 69.9391C457.817 68.9081 457.883 67.9648 457.972 67.877C458.06 67.7893 458.457 68.93 458.81 70.4217L459.494 73.12L460.839 73.1858L462.163 73.2516L462.891 70.5095C463.288 68.9958 463.707 67.8112 463.796 67.877C463.906 67.9428 463.994 68.8642 463.994 69.9172C463.994 70.9921 464.06 72.1767 464.126 72.5496L464.281 73.2296H466.046H467.81L467.678 69.9391C467.59 68.1183 467.458 65.1569 467.369 63.358L467.237 60.0675H464.987H462.759L461.898 63.6213C461.435 65.5956 460.994 67.2847 460.928 67.4164C460.861 67.526 460.398 65.9466 459.913 63.9065L459.008 60.1772L456.802 60.1114L454.596 60.0456L454.332 66.0343Z" fill="#022B94"/>
<path d="M492.672 66.6485V73.2296H499.952H507.232V66.6485V60.0675H505.467H503.702V65.0033V69.9391H502.709H501.717V65.0033V60.0675H499.952H498.187V65.0033V69.9391H497.305H496.422V65.0033V60.0675H494.547H492.672V66.6485Z" fill="#022B94"/>
<path d="M521.02 60.3527C520.954 60.5062 520.932 63.4238 520.954 66.8679L521.02 73.12L522.851 73.1858L524.66 73.2516V70.8166V68.4035H525.763H526.866V70.8166V73.2296H528.741H530.616V66.6486V60.0675H528.741H526.866V62.5902V65.113H525.763H524.66V62.5902V60.0675H522.895C521.66 60.0675 521.086 60.1552 521.02 60.3527Z" fill="#022B94"/>
<path d="M532.822 66.6485V73.2296H534.565H536.308L537.345 70.4217C537.918 68.8861 538.47 67.4821 538.58 67.3066C538.69 67.1092 538.779 68.2061 538.779 70.0926V73.2296H540.543H542.308V66.6485V60.0675H540.565H538.823L537.896 62.6341C536.374 66.8021 536.374 66.8021 536.352 63.1825V60.0675H534.587H532.822V66.6485Z" fill="#022B94"/>
<mask id="path-20-inside-1_788_32485" fill="white">
<path d="M1136 42H1212V77H1136V42Z"/>
</mask>
<path d="M1212 75H1136V79H1212V75Z" fill="#022B94" mask="url(#path-20-inside-1_788_32485)"/>
<path d="M1139.03 66.14C1138.74 66.14 1138.51 66.06 1138.35 65.9C1138.19 65.7267 1138.11 65.4867 1138.11 65.18V52.86C1138.11 52.5533 1138.19 52.32 1138.35 52.16C1138.53 51.9867 1138.77 51.9 1139.07 51.9H1146.35C1146.62 51.9 1146.82 51.9667 1146.95 52.1C1147.1 52.2333 1147.17 52.4267 1147.17 52.68C1147.17 52.9333 1147.1 53.1333 1146.95 53.28C1146.82 53.4133 1146.62 53.48 1146.35 53.48H1139.97V65.18C1139.97 65.4867 1139.89 65.7267 1139.73 65.9C1139.57 66.06 1139.34 66.14 1139.03 66.14ZM1153.62 66.14C1153.32 66.14 1153.1 66.06 1152.94 65.9C1152.78 65.74 1152.7 65.5067 1152.7 65.2V57.72H1148.98V58.92C1148.98 59.9333 1148.92 60.8333 1148.82 61.62C1148.71 62.3933 1148.54 63.0667 1148.32 63.64C1148.1 64.2133 1147.82 64.6933 1147.46 65.08C1147.11 65.4667 1146.68 65.78 1146.16 66.02C1145.96 66.1133 1145.77 66.14 1145.6 66.1C1145.42 66.0733 1145.28 66 1145.16 65.88C1145.05 65.76 1144.98 65.62 1144.94 65.46C1144.91 65.3 1144.93 65.14 1145 64.98C1145.06 64.82 1145.2 64.6867 1145.4 64.58C1145.77 64.3667 1146.08 64.1067 1146.32 63.8C1146.56 63.48 1146.74 63.0933 1146.88 62.64C1147.02 62.1867 1147.12 61.6533 1147.18 61.04C1147.24 60.4267 1147.28 59.7067 1147.28 58.88V57.3C1147.28 56.9667 1147.36 56.7133 1147.54 56.54C1147.72 56.3533 1147.98 56.26 1148.32 56.26H1153.5C1153.83 56.26 1154.08 56.3533 1154.26 56.54C1154.43 56.7133 1154.52 56.9667 1154.52 57.3V65.2C1154.52 65.5067 1154.44 65.74 1154.28 65.9C1154.12 66.06 1153.9 66.14 1153.62 66.14ZM1160.74 66.18C1160.07 66.18 1159.47 66.0467 1158.92 65.78C1158.39 65.5133 1157.97 65.1533 1157.66 64.7C1157.37 64.2467 1157.22 63.74 1157.22 63.18C1157.22 62.46 1157.4 61.8933 1157.76 61.48C1158.12 61.0667 1158.73 60.7733 1159.58 60.6C1160.43 60.4133 1161.58 60.32 1163.02 60.32H1163.96V61.48H1163.06C1162.03 61.48 1161.22 61.5267 1160.62 61.62C1160.03 61.7133 1159.62 61.88 1159.38 62.12C1159.14 62.3467 1159.02 62.6667 1159.02 63.08C1159.02 63.6 1159.2 64.0267 1159.56 64.36C1159.93 64.6933 1160.44 64.86 1161.08 64.86C1161.59 64.86 1162.03 64.74 1162.42 64.5C1162.81 64.2467 1163.11 63.9133 1163.34 63.5C1163.57 63.0733 1163.68 62.5867 1163.68 62.04V59.74C1163.68 58.9533 1163.52 58.3867 1163.2 58.04C1162.88 57.68 1162.34 57.5 1161.58 57.5C1161.14 57.5 1160.69 57.56 1160.22 57.68C1159.75 57.8 1159.27 57.9867 1158.76 58.24C1158.56 58.3333 1158.39 58.3667 1158.24 58.34C1158.09 58.3 1157.97 58.22 1157.88 58.1C1157.8 57.9667 1157.75 57.8267 1157.74 57.68C1157.74 57.52 1157.77 57.3667 1157.84 57.22C1157.92 57.0733 1158.05 56.9667 1158.24 56.9C1158.83 56.6067 1159.41 56.4 1159.98 56.28C1160.57 56.1467 1161.11 56.08 1161.62 56.08C1162.49 56.08 1163.2 56.22 1163.76 56.5C1164.32 56.7667 1164.74 57.1867 1165.02 57.76C1165.3 58.32 1165.44 59.04 1165.44 59.92V65.2C1165.44 65.5067 1165.37 65.74 1165.22 65.9C1165.07 66.06 1164.86 66.14 1164.58 66.14C1164.31 66.14 1164.1 66.06 1163.94 65.9C1163.79 65.74 1163.72 65.5067 1163.72 65.2V63.78H1163.9C1163.79 64.2733 1163.59 64.7 1163.3 65.06C1163.01 65.42 1162.64 65.7 1162.2 65.9C1161.77 66.0867 1161.29 66.18 1160.74 66.18ZM1169.46 66C1169.15 66 1168.92 65.92 1168.76 65.76C1168.6 65.6 1168.52 65.3667 1168.52 65.06V57.2C1168.52 56.8933 1168.6 56.66 1168.76 56.5C1168.92 56.34 1169.15 56.26 1169.46 56.26H1173.38C1174.17 56.26 1174.81 56.36 1175.3 56.56C1175.81 56.76 1176.18 57.0467 1176.42 57.42C1176.66 57.7933 1176.78 58.26 1176.78 58.82C1176.78 59.4333 1176.57 59.9533 1176.14 60.38C1175.71 60.8067 1175.15 61.06 1174.46 61.14V60.88C1175.29 60.9067 1175.93 61.1467 1176.4 61.6C1176.87 62.04 1177.1 62.6067 1177.1 63.3C1177.1 64.1267 1176.79 64.7867 1176.18 65.28C1175.57 65.76 1174.69 66 1173.54 66H1169.46ZM1170.24 64.8H1173.44C1174.08 64.8 1174.57 64.6667 1174.9 64.4C1175.25 64.12 1175.42 63.7267 1175.42 63.22C1175.42 62.7 1175.25 62.3067 1174.9 62.04C1174.57 61.7733 1174.08 61.64 1173.44 61.64H1170.24V64.8ZM1170.24 60.44H1173.28C1173.85 60.44 1174.29 60.3067 1174.6 60.04C1174.92 59.7733 1175.08 59.4067 1175.08 58.94C1175.08 58.46 1174.92 58.0933 1174.6 57.84C1174.29 57.5867 1173.85 57.46 1173.28 57.46H1170.24V60.44ZM1180.47 66.14C1180.18 66.14 1179.95 66.06 1179.79 65.9C1179.63 65.74 1179.55 65.5067 1179.55 65.2V57.04C1179.55 56.7333 1179.63 56.5067 1179.79 56.36C1179.95 56.2 1180.18 56.12 1180.47 56.12C1180.77 56.12 1180.99 56.2 1181.13 56.36C1181.29 56.5067 1181.37 56.7333 1181.37 57.04V60.26H1186.45V57.04C1186.45 56.7333 1186.53 56.5067 1186.67 56.36C1186.83 56.2 1187.06 56.12 1187.35 56.12C1187.65 56.12 1187.87 56.2 1188.03 56.36C1188.19 56.5067 1188.27 56.7333 1188.27 57.04V65.2C1188.27 65.5067 1188.19 65.74 1188.03 65.9C1187.87 66.06 1187.65 66.14 1187.35 66.14C1187.06 66.14 1186.83 66.06 1186.67 65.9C1186.53 65.74 1186.45 65.5067 1186.45 65.2V61.72H1181.37V65.2C1181.37 65.5067 1181.3 65.74 1181.15 65.9C1181.01 66.06 1180.78 66.14 1180.47 66.14ZM1194.49 66.18C1193.82 66.18 1193.22 66.0467 1192.67 65.78C1192.14 65.5133 1191.72 65.1533 1191.41 64.7C1191.12 64.2467 1190.97 63.74 1190.97 63.18C1190.97 62.46 1191.15 61.8933 1191.51 61.48C1191.87 61.0667 1192.48 60.7733 1193.33 60.6C1194.18 60.4133 1195.33 60.32 1196.77 60.32H1197.71V61.48H1196.81C1195.78 61.48 1194.97 61.5267 1194.37 61.62C1193.78 61.7133 1193.37 61.88 1193.13 62.12C1192.89 62.3467 1192.77 62.6667 1192.77 63.08C1192.77 63.6 1192.95 64.0267 1193.31 64.36C1193.68 64.6933 1194.19 64.86 1194.83 64.86C1195.34 64.86 1195.78 64.74 1196.17 64.5C1196.56 64.2467 1196.86 63.9133 1197.09 63.5C1197.32 63.0733 1197.43 62.5867 1197.43 62.04V59.74C1197.43 58.9533 1197.27 58.3867 1196.95 58.04C1196.63 57.68 1196.09 57.5 1195.33 57.5C1194.89 57.5 1194.44 57.56 1193.97 57.68C1193.5 57.8 1193.02 57.9867 1192.51 58.24C1192.31 58.3333 1192.14 58.3667 1191.99 58.34C1191.84 58.3 1191.72 58.22 1191.63 58.1C1191.55 57.9667 1191.5 57.8267 1191.49 57.68C1191.49 57.52 1191.52 57.3667 1191.59 57.22C1191.67 57.0733 1191.8 56.9667 1191.99 56.9C1192.58 56.6067 1193.16 56.4 1193.73 56.28C1194.32 56.1467 1194.86 56.08 1195.37 56.08C1196.24 56.08 1196.95 56.22 1197.51 56.5C1198.07 56.7667 1198.49 57.1867 1198.77 57.76C1199.05 58.32 1199.19 59.04 1199.19 59.92V65.2C1199.19 65.5067 1199.12 65.74 1198.97 65.9C1198.82 66.06 1198.61 66.14 1198.33 66.14C1198.06 66.14 1197.85 66.06 1197.69 65.9C1197.54 65.74 1197.47 65.5067 1197.47 65.2V63.78H1197.65C1197.54 64.2733 1197.34 64.7 1197.05 65.06C1196.76 65.42 1196.39 65.7 1195.95 65.9C1195.52 66.0867 1195.04 66.18 1194.49 66.18ZM1209.17 66.14C1208.9 66.14 1208.7 66.0667 1208.55 65.92C1208.4 65.76 1208.33 65.54 1208.33 65.26V62.36H1206.99C1206.5 62.36 1206.07 62.4867 1205.71 62.74C1205.35 62.9933 1205.06 63.3133 1204.85 63.7L1203.75 65.62C1203.62 65.8467 1203.46 65.9933 1203.27 66.06C1203.1 66.14 1202.92 66.1533 1202.73 66.1C1202.56 66.06 1202.4 65.9733 1202.27 65.84C1202.14 65.7067 1202.05 65.5467 1202.01 65.36C1201.98 65.1733 1202.04 64.98 1202.17 64.78L1203.03 63.28C1203.26 62.9067 1203.56 62.5867 1203.93 62.32C1204.3 62.0533 1204.69 61.92 1205.09 61.92H1205.37V62.1C1204.28 62.1 1203.42 61.8467 1202.81 61.34C1202.2 60.8333 1201.89 60.1267 1201.89 59.22C1201.89 58.62 1202.02 58.1 1202.29 57.66C1202.57 57.2067 1202.98 56.86 1203.51 56.62C1204.04 56.38 1204.71 56.26 1205.51 56.26H1209.09C1209.38 56.26 1209.61 56.34 1209.77 56.5C1209.94 56.66 1210.03 56.8933 1210.03 57.2V65.26C1210.03 65.54 1209.95 65.76 1209.79 65.92C1209.64 66.0667 1209.44 66.14 1209.17 66.14ZM1205.87 61.1H1208.33V57.52H1205.87C1205.11 57.52 1204.55 57.68 1204.19 58C1203.83 58.3067 1203.65 58.74 1203.65 59.3C1203.65 59.86 1203.83 60.3 1204.19 60.62C1204.55 60.94 1205.11 61.1 1205.87 61.1Z" fill="#022B94"/>
<path d="M1254.66 66.14C1254.36 66.14 1254.14 66.06 1253.98 65.9C1253.82 65.7267 1253.74 65.4867 1253.74 65.18V52.9C1253.74 52.58 1253.82 52.3333 1254 52.16C1254.17 51.9867 1254.42 51.9 1254.74 51.9H1264.5C1264.83 51.9 1265.08 51.9867 1265.26 52.16C1265.43 52.3333 1265.52 52.58 1265.52 52.9V65.18C1265.52 65.4867 1265.44 65.7267 1265.28 65.9C1265.12 66.06 1264.88 66.14 1264.58 66.14C1264.28 66.14 1264.06 66.06 1263.9 65.9C1263.74 65.7267 1263.66 65.4867 1263.66 65.18V53.48H1255.6V65.18C1255.6 65.4867 1255.52 65.7267 1255.36 65.9C1255.21 66.06 1254.98 66.14 1254.66 66.14ZM1269.65 69.74C1269.37 69.74 1269.15 69.66 1268.99 69.5C1268.83 69.34 1268.75 69.1133 1268.75 68.82V57.04C1268.75 56.7333 1268.83 56.5067 1268.99 56.36C1269.15 56.2 1269.37 56.12 1269.65 56.12C1269.95 56.12 1270.17 56.2 1270.31 56.36C1270.47 56.5067 1270.55 56.7333 1270.55 57.04V58.86L1270.33 58.5C1270.55 57.7667 1270.97 57.18 1271.59 56.74C1272.22 56.3 1272.97 56.08 1273.85 56.08C1274.72 56.08 1275.47 56.2867 1276.11 56.7C1276.75 57.1 1277.25 57.68 1277.61 58.44C1277.97 59.1867 1278.15 60.08 1278.15 61.12C1278.15 62.1467 1277.97 63.0467 1277.61 63.82C1277.27 64.58 1276.77 65.1667 1276.11 65.58C1275.47 65.98 1274.72 66.18 1273.85 66.18C1272.99 66.18 1272.24 65.96 1271.61 65.52C1270.99 65.08 1270.57 64.5 1270.35 63.78H1270.57V68.82C1270.57 69.1133 1270.49 69.34 1270.33 69.5C1270.17 69.66 1269.95 69.74 1269.65 69.74ZM1273.43 64.74C1274.01 64.74 1274.51 64.6 1274.93 64.32C1275.37 64.04 1275.71 63.6333 1275.95 63.1C1276.19 62.5667 1276.31 61.9067 1276.31 61.12C1276.31 59.9467 1276.05 59.0533 1275.53 58.44C1275.01 57.8267 1274.31 57.52 1273.43 57.52C1272.85 57.52 1272.33 57.66 1271.89 57.94C1271.47 58.2067 1271.13 58.6067 1270.89 59.14C1270.67 59.6733 1270.55 60.3333 1270.55 61.12C1270.55 62.2933 1270.81 63.1933 1271.33 63.82C1271.85 64.4333 1272.55 64.74 1273.43 64.74ZM1284.85 66.18C1283.89 66.18 1283.05 65.9733 1282.35 65.56C1281.64 65.1467 1281.09 64.56 1280.71 63.8C1280.32 63.04 1280.13 62.1467 1280.13 61.12C1280.13 60.3467 1280.23 59.6533 1280.45 59.04C1280.67 58.4133 1280.99 57.88 1281.41 57.44C1281.82 57 1282.31 56.6667 1282.89 56.44C1283.47 56.2 1284.13 56.08 1284.85 56.08C1285.81 56.08 1286.64 56.2867 1287.35 56.7C1288.05 57.1133 1288.6 57.7 1288.99 58.46C1289.37 59.2067 1289.57 60.0933 1289.57 61.12C1289.57 61.8933 1289.45 62.5933 1289.23 63.22C1289.01 63.8467 1288.7 64.38 1288.29 64.82C1287.87 65.26 1287.37 65.6 1286.79 65.84C1286.21 66.0667 1285.57 66.18 1284.85 66.18ZM1284.85 64.74C1285.43 64.74 1285.94 64.6 1286.37 64.32C1286.81 64.04 1287.14 63.6333 1287.37 63.1C1287.61 62.5667 1287.73 61.9067 1287.73 61.12C1287.73 59.9467 1287.47 59.0533 1286.95 58.44C1286.43 57.8267 1285.73 57.52 1284.85 57.52C1284.27 57.52 1283.77 57.66 1283.33 57.94C1282.9 58.2067 1282.57 58.6067 1282.33 59.14C1282.09 59.6733 1281.97 60.3333 1281.97 61.12C1281.97 62.2933 1282.23 63.1933 1282.75 63.82C1283.28 64.4333 1283.98 64.74 1284.85 64.74ZM1296.63 66.18C1295.58 66.18 1294.67 65.98 1293.91 65.58C1293.17 65.1667 1292.59 64.5867 1292.17 63.84C1291.76 63.08 1291.55 62.1867 1291.55 61.16C1291.55 60.1467 1291.75 59.26 1292.15 58.5C1292.57 57.74 1293.13 57.1467 1293.83 56.72C1294.55 56.2933 1295.37 56.08 1296.29 56.08C1296.95 56.08 1297.53 56.1933 1298.05 56.42C1298.59 56.6333 1299.04 56.9467 1299.41 57.36C1299.79 57.7733 1300.07 58.28 1300.25 58.88C1300.45 59.4667 1300.55 60.1333 1300.55 60.88C1300.55 61.0933 1300.49 61.26 1300.35 61.38C1300.23 61.4867 1300.05 61.54 1299.81 61.54H1292.97V60.38H1299.35L1299.01 60.66C1299.01 59.9667 1298.91 59.38 1298.69 58.9C1298.49 58.4067 1298.19 58.0333 1297.79 57.78C1297.41 57.5267 1296.92 57.4 1296.33 57.4C1295.69 57.4 1295.15 57.5533 1294.69 57.86C1294.24 58.1533 1293.89 58.5733 1293.65 59.12C1293.41 59.6533 1293.29 60.2733 1293.29 60.98V61.1C1293.29 62.3 1293.58 63.2067 1294.15 63.82C1294.73 64.4333 1295.55 64.74 1296.63 64.74C1297.06 64.74 1297.49 64.6867 1297.93 64.58C1298.39 64.4733 1298.82 64.28 1299.23 64C1299.43 63.88 1299.61 63.8267 1299.77 63.84C1299.95 63.84 1300.09 63.8933 1300.19 64C1300.3 64.0933 1300.37 64.2133 1300.39 64.36C1300.42 64.4933 1300.4 64.64 1300.33 64.8C1300.27 64.96 1300.14 65.1 1299.95 65.22C1299.51 65.5267 1298.99 65.7667 1298.37 65.94C1297.77 66.1 1297.19 66.18 1296.63 66.18ZM1303.95 66.14C1303.66 66.14 1303.43 66.06 1303.27 65.9C1303.11 65.74 1303.03 65.5067 1303.03 65.2V57.08C1303.03 56.7867 1303.11 56.56 1303.27 56.4C1303.43 56.24 1303.66 56.16 1303.95 56.16C1304.24 56.16 1304.46 56.24 1304.61 56.4C1304.77 56.56 1304.85 56.7867 1304.85 57.08V60.26H1306.57L1309.45 56.56C1309.58 56.3733 1309.74 56.26 1309.91 56.22C1310.08 56.1667 1310.25 56.1667 1310.41 56.22C1310.57 56.26 1310.7 56.3467 1310.81 56.48C1310.92 56.6133 1310.97 56.7667 1310.97 56.94C1310.97 57.1133 1310.9 57.2933 1310.75 57.48L1308.03 61.02L1307.57 60.46C1307.93 60.5 1308.25 60.5933 1308.53 60.74C1308.81 60.8867 1309.08 61.1067 1309.33 61.4C1309.58 61.6933 1309.86 62.0867 1310.15 62.58L1311.51 64.9C1311.63 65.1 1311.67 65.2867 1311.63 65.46C1311.6 65.6333 1311.52 65.78 1311.39 65.9C1311.27 66.0067 1311.12 66.0733 1310.95 66.1C1310.78 66.14 1310.6 66.12 1310.43 66.04C1310.26 65.9733 1310.11 65.84 1309.99 65.64L1308.47 63.08C1308.26 62.72 1308.05 62.44 1307.85 62.24C1307.65 62.04 1307.43 61.9 1307.19 61.82C1306.95 61.74 1306.66 61.7 1306.31 61.7H1304.85V65.2C1304.85 65.5067 1304.77 65.74 1304.61 65.9C1304.46 66.06 1304.24 66.14 1303.95 66.14ZM1316.67 66.14C1316.38 66.14 1316.15 66.06 1315.99 65.9C1315.83 65.74 1315.75 65.5067 1315.75 65.2V57.72H1312.91C1312.38 57.72 1312.11 57.4733 1312.11 56.98C1312.11 56.7533 1312.19 56.58 1312.33 56.46C1312.48 56.3267 1312.67 56.26 1312.91 56.26H1320.39C1320.94 56.26 1321.21 56.5 1321.21 56.98C1321.21 57.22 1321.14 57.4067 1320.99 57.54C1320.86 57.66 1320.66 57.72 1320.39 57.72H1317.57V65.2C1317.57 65.5067 1317.49 65.74 1317.33 65.9C1317.19 66.06 1316.97 66.14 1316.67 66.14ZM1323.66 66C1323.35 66 1323.12 65.92 1322.96 65.76C1322.8 65.6 1322.72 65.3667 1322.72 65.06V57.04C1322.72 56.7333 1322.8 56.5067 1322.96 56.36C1323.12 56.2 1323.34 56.12 1323.64 56.12C1323.93 56.12 1324.15 56.2 1324.3 56.36C1324.46 56.5067 1324.54 56.7333 1324.54 57.04V59.68H1327.4C1328.65 59.68 1329.6 59.9533 1330.24 60.5C1330.88 61.0333 1331.2 61.8067 1331.2 62.82C1331.2 63.46 1331.04 64.02 1330.74 64.5C1330.44 64.98 1330.01 65.3533 1329.44 65.62C1328.88 65.8733 1328.2 66 1327.4 66H1323.66ZM1324.54 64.74H1327.18C1327.91 64.74 1328.48 64.5867 1328.88 64.28C1329.28 63.96 1329.48 63.4733 1329.48 62.82C1329.48 62.18 1329.28 61.7067 1328.88 61.4C1328.48 61.0933 1327.91 60.94 1327.18 60.94H1324.54V64.74ZM1333.5 66.14C1333.2 66.14 1332.98 66.06 1332.82 65.9C1332.66 65.74 1332.58 65.5067 1332.58 65.2V57.04C1332.58 56.7333 1332.66 56.5067 1332.82 56.36C1332.98 56.2 1333.2 56.12 1333.5 56.12C1333.78 56.12 1334 56.2 1334.16 56.36C1334.32 56.5067 1334.4 56.7333 1334.4 57.04V65.2C1334.4 65.8267 1334.1 66.14 1333.5 66.14Z" fill="#181818"/>
<path d="M1380.01 66C1379.69 66 1379.44 65.9133 1379.27 65.74C1379.1 65.5667 1379.01 65.32 1379.01 65V52.9C1379.01 52.58 1379.1 52.3333 1379.27 52.16C1379.44 51.9867 1379.69 51.9 1380.01 51.9H1387.71C1387.96 51.9 1388.16 51.9667 1388.29 52.1C1388.42 52.22 1388.49 52.4 1388.49 52.64C1388.49 52.8933 1388.42 53.0867 1388.29 53.22C1388.16 53.3533 1387.96 53.42 1387.71 53.42H1380.81V58.04H1384.99C1386.48 58.04 1387.64 58.3733 1388.45 59.04C1389.28 59.7067 1389.69 60.6933 1389.69 62C1389.69 63.3067 1389.28 64.3 1388.45 64.98C1387.64 65.66 1386.48 66 1384.99 66H1380.01ZM1380.81 64.48H1384.79C1385.83 64.48 1386.6 64.28 1387.11 63.88C1387.62 63.4667 1387.87 62.8467 1387.87 62.02C1387.87 61.18 1387.62 60.56 1387.11 60.16C1386.6 59.76 1385.83 59.56 1384.79 59.56H1380.81V64.48ZM1395.23 66.18C1394.57 66.18 1393.96 66.0467 1393.41 65.78C1392.88 65.5133 1392.46 65.1533 1392.15 64.7C1391.86 64.2467 1391.71 63.74 1391.71 63.18C1391.71 62.46 1391.89 61.8933 1392.25 61.48C1392.61 61.0667 1393.22 60.7733 1394.07 60.6C1394.93 60.4133 1396.07 60.32 1397.51 60.32H1398.45V61.48H1397.55C1396.53 61.48 1395.71 61.5267 1395.11 61.62C1394.53 61.7133 1394.11 61.88 1393.87 62.12C1393.63 62.3467 1393.51 62.6667 1393.51 63.08C1393.51 63.6 1393.69 64.0267 1394.05 64.36C1394.43 64.6933 1394.93 64.86 1395.57 64.86C1396.08 64.86 1396.53 64.74 1396.91 64.5C1397.3 64.2467 1397.61 63.9133 1397.83 63.5C1398.06 63.0733 1398.17 62.5867 1398.17 62.04V59.74C1398.17 58.9533 1398.01 58.3867 1397.69 58.04C1397.37 57.68 1396.83 57.5 1396.07 57.5C1395.63 57.5 1395.18 57.56 1394.71 57.68C1394.25 57.8 1393.76 57.9867 1393.25 58.24C1393.05 58.3333 1392.88 58.3667 1392.73 58.34C1392.59 58.3 1392.47 58.22 1392.37 58.1C1392.29 57.9667 1392.25 57.8267 1392.23 57.68C1392.23 57.52 1392.27 57.3667 1392.33 57.22C1392.41 57.0733 1392.55 56.9667 1392.73 56.9C1393.32 56.6067 1393.9 56.4 1394.47 56.28C1395.06 56.1467 1395.61 56.08 1396.11 56.08C1396.98 56.08 1397.69 56.22 1398.25 56.5C1398.81 56.7667 1399.23 57.1867 1399.51 57.76C1399.79 58.32 1399.93 59.04 1399.93 59.92V65.2C1399.93 65.5067 1399.86 65.74 1399.71 65.9C1399.57 66.06 1399.35 66.14 1399.07 66.14C1398.81 66.14 1398.59 66.06 1398.43 65.9C1398.29 65.74 1398.21 65.5067 1398.21 65.2V63.78H1398.39C1398.29 64.2733 1398.09 64.7 1397.79 65.06C1397.5 65.42 1397.13 65.7 1396.69 65.9C1396.27 66.0867 1395.78 66.18 1395.23 66.18ZM1406.31 66.18C1405.63 66.18 1404.96 66.1067 1404.31 65.96C1403.66 65.8 1403.1 65.5733 1402.63 65.28C1402.44 65.1867 1402.31 65.0667 1402.23 64.92C1402.16 64.7733 1402.14 64.6267 1402.15 64.48C1402.16 64.3333 1402.22 64.2067 1402.31 64.1C1402.42 63.9933 1402.54 63.9333 1402.69 63.92C1402.85 63.8933 1403.04 63.9333 1403.25 64.04C1403.68 64.2933 1404.16 64.4867 1404.69 64.62C1405.22 64.74 1405.76 64.8 1406.29 64.8C1407.22 64.8 1407.89 64.6667 1408.29 64.4C1408.69 64.1333 1408.89 63.7467 1408.89 63.24C1408.89 62.7467 1408.72 62.3733 1408.39 62.12C1408.06 61.8667 1407.58 61.74 1406.97 61.74H1405.21C1404.98 61.74 1404.8 61.68 1404.65 61.56C1404.52 61.4267 1404.45 61.26 1404.45 61.06C1404.45 60.8467 1404.52 60.68 1404.65 60.56C1404.8 60.44 1404.98 60.38 1405.21 60.38H1406.75C1407.31 60.38 1407.75 60.26 1408.07 60.02C1408.4 59.7667 1408.57 59.42 1408.57 58.98C1408.57 58.5133 1408.39 58.1467 1408.03 57.88C1407.67 57.6 1407.08 57.46 1406.25 57.46C1405.73 57.46 1405.24 57.52 1404.77 57.64C1404.3 57.7467 1403.85 57.9133 1403.41 58.14C1403.16 58.2733 1402.94 58.3133 1402.75 58.26C1402.58 58.1933 1402.45 58.08 1402.37 57.92C1402.29 57.7467 1402.28 57.5733 1402.33 57.4C1402.4 57.2133 1402.54 57.0667 1402.75 56.96C1403.3 56.6533 1403.88 56.4333 1404.51 56.3C1405.14 56.1533 1405.8 56.08 1406.49 56.08C1407.74 56.08 1408.68 56.32 1409.31 56.8C1409.94 57.28 1410.25 57.9533 1410.25 58.82C1410.25 59.4333 1410.04 59.9533 1409.61 60.38C1409.2 60.8067 1408.64 61.06 1407.93 61.14V60.88C1408.74 60.9067 1409.39 61.14 1409.87 61.58C1410.36 62.0067 1410.61 62.58 1410.61 63.3C1410.61 64.1667 1410.24 64.8667 1409.51 65.4C1408.79 65.92 1407.72 66.18 1406.31 66.18ZM1416.15 66.18C1415.48 66.18 1414.88 66.0467 1414.33 65.78C1413.8 65.5133 1413.38 65.1533 1413.07 64.7C1412.78 64.2467 1412.63 63.74 1412.63 63.18C1412.63 62.46 1412.81 61.8933 1413.17 61.48C1413.53 61.0667 1414.14 60.7733 1414.99 60.6C1415.84 60.4133 1416.99 60.32 1418.43 60.32H1419.37V61.48H1418.47C1417.44 61.48 1416.63 61.5267 1416.03 61.62C1415.44 61.7133 1415.03 61.88 1414.79 62.12C1414.55 62.3467 1414.43 62.6667 1414.43 63.08C1414.43 63.6 1414.61 64.0267 1414.97 64.36C1415.34 64.6933 1415.85 64.86 1416.49 64.86C1417 64.86 1417.44 64.74 1417.83 64.5C1418.22 64.2467 1418.52 63.9133 1418.75 63.5C1418.98 63.0733 1419.09 62.5867 1419.09 62.04V59.74C1419.09 58.9533 1418.93 58.3867 1418.61 58.04C1418.29 57.68 1417.75 57.5 1416.99 57.5C1416.55 57.5 1416.1 57.56 1415.63 57.68C1415.16 57.8 1414.68 57.9867 1414.17 58.24C1413.97 58.3333 1413.8 58.3667 1413.65 58.34C1413.5 58.3 1413.38 58.22 1413.29 58.1C1413.21 57.9667 1413.16 57.8267 1413.15 57.68C1413.15 57.52 1413.18 57.3667 1413.25 57.22C1413.33 57.0733 1413.46 56.9667 1413.65 56.9C1414.24 56.6067 1414.82 56.4 1415.39 56.28C1415.98 56.1467 1416.52 56.08 1417.03 56.08C1417.9 56.08 1418.61 56.22 1419.17 56.5C1419.73 56.7667 1420.15 57.1867 1420.43 57.76C1420.71 58.32 1420.85 59.04 1420.85 59.92V65.2C1420.85 65.5067 1420.78 65.74 1420.63 65.9C1420.48 66.06 1420.27 66.14 1419.99 66.14C1419.72 66.14 1419.51 66.06 1419.35 65.9C1419.2 65.74 1419.13 65.5067 1419.13 65.2V63.78H1419.31C1419.2 64.2733 1419 64.7 1418.71 65.06C1418.42 65.42 1418.05 65.7 1417.61 65.9C1417.18 66.0867 1416.7 66.18 1416.15 66.18ZM1432.44 66.18C1431.76 66.18 1431.1 66.1067 1430.44 65.96C1429.79 65.8 1429.23 65.5733 1428.76 65.28C1428.58 65.1867 1428.44 65.0667 1428.36 64.92C1428.3 64.7733 1428.27 64.6267 1428.28 64.48C1428.3 64.3333 1428.35 64.2067 1428.44 64.1C1428.55 63.9933 1428.68 63.9333 1428.82 63.92C1428.98 63.8933 1429.17 63.9333 1429.38 64.04C1429.81 64.2933 1430.29 64.4867 1430.82 64.62C1431.36 64.74 1431.89 64.8 1432.42 64.8C1433.36 64.8 1434.02 64.6667 1434.42 64.4C1434.82 64.1333 1435.02 63.7467 1435.02 63.24C1435.02 62.7467 1434.86 62.3733 1434.52 62.12C1434.19 61.8667 1433.72 61.74 1433.1 61.74H1431.34C1431.12 61.74 1430.93 61.68 1430.78 61.56C1430.65 61.4267 1430.58 61.26 1430.58 61.06C1430.58 60.8467 1430.65 60.68 1430.78 60.56C1430.93 60.44 1431.12 60.38 1431.34 60.38H1432.88C1433.44 60.38 1433.88 60.26 1434.2 60.02C1434.54 59.7667 1434.7 59.42 1434.7 58.98C1434.7 58.5133 1434.52 58.1467 1434.16 57.88C1433.8 57.6 1433.21 57.46 1432.38 57.46C1431.86 57.46 1431.37 57.52 1430.9 57.64C1430.44 57.7467 1429.98 57.9133 1429.54 58.14C1429.29 58.2733 1429.07 58.3133 1428.88 58.26C1428.71 58.1933 1428.58 58.08 1428.5 57.92C1428.42 57.7467 1428.41 57.5733 1428.46 57.4C1428.53 57.2133 1428.67 57.0667 1428.88 56.96C1429.43 56.6533 1430.02 56.4333 1430.64 56.3C1431.27 56.1533 1431.93 56.08 1432.62 56.08C1433.88 56.08 1434.82 56.32 1435.44 56.8C1436.07 57.28 1436.38 57.9533 1436.38 58.82C1436.38 59.4333 1436.17 59.9533 1435.74 60.38C1435.33 60.8067 1434.77 61.06 1434.06 61.14V60.88C1434.88 60.9067 1435.52 61.14 1436 61.58C1436.5 62.0067 1436.74 62.58 1436.74 63.3C1436.74 64.1667 1436.38 64.8667 1435.64 65.4C1434.92 65.92 1433.86 66.18 1432.44 66.18ZM1440.1 66.14C1439.81 66.14 1439.58 66.06 1439.42 65.9C1439.26 65.74 1439.18 65.5067 1439.18 65.2V57.04C1439.18 56.7333 1439.26 56.5067 1439.42 56.36C1439.58 56.2 1439.81 56.12 1440.1 56.12C1440.4 56.12 1440.62 56.2 1440.76 56.36C1440.92 56.5067 1441 56.7333 1441 57.04V60.26H1446.08V57.04C1446.08 56.7333 1446.16 56.5067 1446.3 56.36C1446.46 56.2 1446.69 56.12 1446.98 56.12C1447.28 56.12 1447.5 56.2 1447.66 56.36C1447.82 56.5067 1447.9 56.7333 1447.9 57.04V65.2C1447.9 65.5067 1447.82 65.74 1447.66 65.9C1447.5 66.06 1447.28 66.14 1446.98 66.14C1446.69 66.14 1446.46 66.06 1446.3 65.9C1446.16 65.74 1446.08 65.5067 1446.08 65.2V61.72H1441V65.2C1441 65.5067 1440.93 65.74 1440.78 65.9C1440.64 66.06 1440.41 66.14 1440.1 66.14ZM1454.12 66.18C1453.45 66.18 1452.85 66.0467 1452.3 65.78C1451.77 65.5133 1451.35 65.1533 1451.04 64.7C1450.75 64.2467 1450.6 63.74 1450.6 63.18C1450.6 62.46 1450.78 61.8933 1451.14 61.48C1451.5 61.0667 1452.11 60.7733 1452.96 60.6C1453.81 60.4133 1454.96 60.32 1456.4 60.32H1457.34V61.48H1456.44C1455.41 61.48 1454.6 61.5267 1454 61.62C1453.41 61.7133 1453 61.88 1452.76 62.12C1452.52 62.3467 1452.4 62.6667 1452.4 63.08C1452.4 63.6 1452.58 64.0267 1452.94 64.36C1453.31 64.6933 1453.82 64.86 1454.46 64.86C1454.97 64.86 1455.41 64.74 1455.8 64.5C1456.19 64.2467 1456.49 63.9133 1456.72 63.5C1456.95 63.0733 1457.06 62.5867 1457.06 62.04V59.74C1457.06 58.9533 1456.9 58.3867 1456.58 58.04C1456.26 57.68 1455.72 57.5 1454.96 57.5C1454.52 57.5 1454.07 57.56 1453.6 57.68C1453.13 57.8 1452.65 57.9867 1452.14 58.24C1451.94 58.3333 1451.77 58.3667 1451.62 58.34C1451.47 58.3 1451.35 58.22 1451.26 58.1C1451.18 57.9667 1451.13 57.8267 1451.12 57.68C1451.12 57.52 1451.15 57.3667 1451.22 57.22C1451.3 57.0733 1451.43 56.9667 1451.62 56.9C1452.21 56.6067 1452.79 56.4 1453.36 56.28C1453.95 56.1467 1454.49 56.08 1455 56.08C1455.87 56.08 1456.58 56.22 1457.14 56.5C1457.7 56.7667 1458.12 57.1867 1458.4 57.76C1458.68 58.32 1458.82 59.04 1458.82 59.92V65.2C1458.82 65.5067 1458.75 65.74 1458.6 65.9C1458.45 66.06 1458.24 66.14 1457.96 66.14C1457.69 66.14 1457.48 66.06 1457.32 65.9C1457.17 65.74 1457.1 65.5067 1457.1 65.2V63.78H1457.28C1457.17 64.2733 1456.97 64.7 1456.68 65.06C1456.39 65.42 1456.02 65.7 1455.58 65.9C1455.15 66.0867 1454.67 66.18 1454.12 66.18ZM1462.82 66.14C1462.52 66.14 1462.3 66.06 1462.14 65.9C1461.98 65.74 1461.9 65.5067 1461.9 65.2V57.04C1461.9 56.7333 1461.98 56.5067 1462.14 56.36C1462.3 56.2 1462.52 56.12 1462.82 56.12C1463.11 56.12 1463.33 56.2 1463.48 56.36C1463.64 56.5067 1463.72 56.7333 1463.72 57.04V60.26H1468.8V57.04C1468.8 56.7333 1468.87 56.5067 1469.02 56.36C1469.18 56.2 1469.4 56.12 1469.7 56.12C1469.99 56.12 1470.22 56.2 1470.38 56.36C1470.54 56.5067 1470.62 56.7333 1470.62 57.04V65.2C1470.62 65.5067 1470.54 65.74 1470.38 65.9C1470.22 66.06 1469.99 66.14 1469.7 66.14C1469.4 66.14 1469.18 66.06 1469.02 65.9C1468.87 65.74 1468.8 65.5067 1468.8 65.2V61.72H1463.72V65.2C1463.72 65.5067 1463.64 65.74 1463.5 65.9C1463.35 66.06 1463.12 66.14 1462.82 66.14ZM1474.57 66.14C1474.4 66.14 1474.25 66.1067 1474.11 66.04C1473.99 65.9733 1473.9 65.8667 1473.83 65.72C1473.77 65.5733 1473.73 65.3867 1473.73 65.16V57C1473.73 56.72 1473.81 56.5067 1473.95 56.36C1474.1 56.2 1474.31 56.12 1474.57 56.12C1474.83 56.12 1475.03 56.2 1475.17 56.36C1475.32 56.5067 1475.39 56.72 1475.39 57V64.22H1474.87L1480.51 56.7C1480.62 56.5533 1480.75 56.42 1480.91 56.3C1481.07 56.18 1481.29 56.12 1481.55 56.12C1481.74 56.12 1481.89 56.1533 1482.01 56.22C1482.13 56.2867 1482.22 56.3933 1482.27 56.54C1482.34 56.6733 1482.37 56.8533 1482.37 57.08V65.26C1482.37 65.5267 1482.3 65.74 1482.15 65.9C1482.02 66.06 1481.83 66.14 1481.57 66.14C1481.29 66.14 1481.08 66.06 1480.93 65.9C1480.8 65.74 1480.73 65.5267 1480.73 65.26V58.02H1481.25L1475.61 65.56C1475.51 65.7067 1475.37 65.84 1475.21 65.96C1475.05 66.08 1474.84 66.14 1474.57 66.14ZM1486.33 66.14C1486.16 66.14 1486 66.1067 1485.87 66.04C1485.75 65.9733 1485.66 65.8667 1485.59 65.72C1485.52 65.5733 1485.49 65.3867 1485.49 65.16V57C1485.49 56.72 1485.56 56.5067 1485.71 56.36C1485.86 56.2 1486.06 56.12 1486.33 56.12C1486.58 56.12 1486.78 56.2 1486.93 56.36C1487.08 56.5067 1487.15 56.72 1487.15 57V64.22H1486.63L1492.27 56.7C1492.38 56.5533 1492.51 56.42 1492.67 56.3C1492.83 56.18 1493.04 56.12 1493.31 56.12C1493.5 56.12 1493.65 56.1533 1493.77 56.22C1493.89 56.2867 1493.98 56.3933 1494.03 56.54C1494.1 56.6733 1494.13 56.8533 1494.13 57.08V65.26C1494.13 65.5267 1494.06 65.74 1493.91 65.9C1493.78 66.06 1493.58 66.14 1493.33 66.14C1493.05 66.14 1492.84 66.06 1492.69 65.9C1492.56 65.74 1492.49 65.5267 1492.49 65.26V58.02H1493.01L1487.37 65.56C1487.26 65.7067 1487.13 65.84 1486.97 65.96C1486.81 66.08 1486.6 66.14 1486.33 66.14ZM1489.81 55.02C1489.08 55.02 1488.41 54.84 1487.81 54.48C1487.21 54.1067 1486.77 53.5533 1486.49 52.82C1486.41 52.62 1486.4 52.4533 1486.45 52.32C1486.52 52.1733 1486.63 52.0733 1486.79 52.02C1486.95 51.9667 1487.09 51.9733 1487.21 52.04C1487.34 52.1067 1487.46 52.24 1487.55 52.44C1487.78 52.92 1488.08 53.2867 1488.45 53.54C1488.84 53.78 1489.29 53.9 1489.81 53.9C1490.34 53.9 1490.8 53.78 1491.17 53.54C1491.54 53.2867 1491.84 52.92 1492.07 52.44C1492.18 52.24 1492.29 52.1067 1492.41 52.04C1492.53 51.9733 1492.67 51.9667 1492.83 52.02C1492.99 52.0733 1493.1 52.1733 1493.15 52.32C1493.22 52.4533 1493.2 52.62 1493.11 52.82C1492.79 53.5533 1492.34 54.1067 1491.77 54.48C1491.2 54.84 1490.54 55.02 1489.81 55.02Z" fill="#181818"/>
<circle cx="1557" cy="59.5" r="21" fill="#022B94"/>
<path d="M1557 68.75H1552C1548.35 68.75 1546.25 66.65 1546.25 63V56C1546.25 52.35 1548.35 50.25 1552 50.25H1562C1565.65 50.25 1567.75 52.35 1567.75 56V59C1567.75 59.41 1567.41 59.75 1567 59.75C1566.59 59.75 1566.25 59.41 1566.25 59V56C1566.25 53.14 1564.86 51.75 1562 51.75H1552C1549.14 51.75 1547.75 53.14 1547.75 56V63C1547.75 65.86 1549.14 67.25 1552 67.25H1557C1557.41 67.25 1557.75 67.59 1557.75 68C1557.75 68.41 1557.41 68.75 1557 68.75Z" fill="#FAFAFA"/>
<path d="M1557 60.37C1556.16 60.37 1555.31 60.11 1554.66 59.58L1551.53 57.08C1551.21 56.82 1551.15 56.35 1551.41 56.03C1551.67 55.71 1552.14 55.66 1552.46 55.91L1555.59 58.41C1556.35 59.02 1557.64 59.02 1558.4 58.41L1561.53 55.91C1561.85 55.65 1562.32 55.7 1562.58 56.03C1562.84 56.35 1562.79 56.83 1562.46 57.08L1559.33 59.58C1558.69 60.11 1557.84 60.37 1557 60.37Z" fill="#FAFAFA"/>
<path d="M1560.82 69.28C1560.44 69.28 1560.08 69.14 1559.82 68.88C1559.51 68.57 1559.37 68.12 1559.44 67.65L1559.63 66.3C1559.68 65.95 1559.89 65.53 1560.14 65.28L1563.68 61.74C1564.16 61.26 1564.63 61.01 1565.14 60.96C1565.76 60.9 1566.38 61.16 1566.96 61.74C1567.54 62.32 1567.8 62.93 1567.74 63.56C1567.69 64.06 1567.43 64.54 1566.96 65.02L1563.42 68.56C1563.17 68.81 1562.75 69.02 1562.4 69.07L1561.05 69.26C1560.97 69.27 1560.9 69.28 1560.82 69.28ZM1565.31 62.45C1565.3 62.45 1565.29 62.45 1565.28 62.45C1565.14 62.46 1564.95 62.59 1564.74 62.8L1561.2 66.34C1561.17 66.37 1561.12 66.47 1561.12 66.51L1560.94 67.76L1562.19 67.58C1562.23 67.57 1562.33 67.52 1562.36 67.49L1565.9 63.95C1566.11 63.73 1566.24 63.55 1566.25 63.41C1566.27 63.21 1566.07 62.97 1565.9 62.8C1565.74 62.64 1565.51 62.45 1565.31 62.45Z" fill="#FAFAFA"/>
<path d="M1565.92 65.7499C1565.85 65.7499 1565.78 65.7399 1565.72 65.7199C1564.4 65.3499 1563.35 64.2999 1562.98 62.9799C1562.87 62.5799 1563.1 62.1699 1563.5 62.0499C1563.9 61.9399 1564.31 62.1699 1564.42 62.5699C1564.65 63.3899 1565.3 64.0399 1566.12 64.2699C1566.52 64.3799 1566.75 64.7999 1566.64 65.1999C1566.55 65.5299 1566.25 65.7499 1565.92 65.7499Z" fill="#FAFAFA"/>
</svg>
