<svg width="315" height="88" viewBox="0 0 315 88" fill="none" xmlns="http://www.w3.org/2000/svg">
<g clip-path="url(#clip0_63_158)">
<path fill-rule="evenodd" clip-rule="evenodd" d="M37.7135 9.85348C38.6664 8.1697 38.1009 6.01663 36.4505 5.04453L33.3791 3.23542C31.7287 2.26328 29.6183 2.84019 28.6654 4.52397L26.8921 7.65745C25.9392 9.34123 26.5047 11.4943 28.1552 12.4664L34.2149 16.0357L30.7163 22.218C29.7634 23.9018 27.6531 24.4787 26.0026 23.5065L22.9312 21.6974C21.2808 20.7253 19.1704 21.3022 18.2175 22.986L11.2203 35.3504C10.2674 37.0342 10.8329 39.1873 12.4833 40.1594L18.5431 43.7287L13.3192 52.9597L7.25942 49.3905C5.609 48.4185 3.49859 48.9952 2.54571 50.6789L0.772451 53.8126C-0.180429 55.4964 0.385051 57.6494 2.03548 58.6215L5.10685 60.4307C6.75732 61.4028 8.86769 60.8256 9.82058 59.1418L13.3192 52.9597L19.3789 56.5289C21.0293 57.501 21.5948 59.654 20.642 61.3382L18.8687 64.4715C17.9158 66.1552 18.4813 68.3083 20.1317 69.2803L23.2031 71.0895C24.8536 72.0616 26.9639 71.4848 27.9168 69.8011L29.6901 66.6674C30.643 64.9837 32.7533 64.4069 34.4038 65.379L40.4635 68.9482L36.9649 75.1303C36.0121 76.8145 36.5776 78.9676 38.228 79.9396L50.3474 87.078C51.9978 88.0501 54.1082 87.4733 55.061 85.7896L67.2825 64.1939C68.2353 62.5102 67.67 60.3571 66.0191 59.3851L53.8999 52.2467C52.2495 51.2742 51.6837 49.1211 52.637 47.4374L56.1354 41.2553L71.2432 50.1541C72.8936 51.1262 75.004 50.5494 75.9568 48.8657L82.9542 36.5011C83.907 34.8173 83.3417 32.6643 81.6913 31.6921L78.6197 29.883C76.9693 28.9109 74.8589 29.4878 73.9061 31.1716L72.1327 34.305C71.1799 35.9888 69.0695 36.5657 67.4191 35.5936L61.3595 32.0243L64.858 25.842C65.8108 24.1583 65.2455 22.0052 63.5947 21.0331L51.4754 13.8944C49.825 12.9223 47.7146 13.4992 46.7618 15.183L44.9884 18.3165C44.0355 20.0003 41.9251 20.5772 40.2747 19.6051L34.2149 16.0357L37.7135 9.85348ZM47.0873 35.9258L56.1354 41.2553L61.3595 32.0243L55.2994 28.455C53.649 27.4829 51.5386 28.0597 50.5858 29.7436L47.0873 35.9258ZM32.8152 39.8272L38.8749 43.3966C40.5254 44.3687 42.6357 43.7918 43.5886 42.108L47.0873 35.9258L41.0275 32.3564C39.3771 31.3843 37.2667 31.9612 36.3138 33.645L32.8152 39.8272ZM32.8152 39.8272L26.7554 36.2579C25.105 35.2858 22.9946 35.8627 22.0417 37.5465L18.5431 43.7287L24.6028 47.2979C26.2533 48.27 28.3637 47.6933 29.3166 46.0095L32.8152 39.8272ZM40.4635 68.9482L46.5234 72.5174C48.1737 73.4899 50.2841 72.9127 51.237 71.229L53.0103 68.0957C53.9631 66.412 53.3978 64.2589 51.7474 63.2864L48.6758 61.4777C47.0254 60.5052 44.915 61.0823 43.9622 62.7661L40.4635 68.9482Z" fill="#DDF0FC"/>
<path fill-rule="evenodd" clip-rule="evenodd" d="M56.9479 8.56818C58.2957 7.19339 58.2957 4.96437 56.9479 3.58956L54.4403 1.03111C53.0929 -0.343702 50.9077 -0.343703 49.5604 1.03111L47.0527 3.58956C45.7049 4.96437 45.7049 7.19339 47.0527 8.56818L52.0003 13.6159L47.0527 18.6637C45.7049 20.0385 43.5201 20.0385 42.1725 18.6637L39.6648 16.1053C38.3172 14.7304 36.1324 14.7304 34.7848 16.1053L24.8892 26.2008C23.5417 27.5756 23.5417 29.8046 24.8892 31.1794L29.837 36.2272L22.4493 43.7642L17.5015 38.7165C16.1539 37.3417 13.969 37.3417 12.6215 38.7165L10.1137 41.2749C8.76613 42.6498 8.76613 44.8788 10.1137 46.2537L12.6215 48.812C13.969 50.1866 16.1539 50.1866 17.5015 48.812L22.4493 43.7642L27.397 48.812C28.7446 50.1866 28.7446 52.416 27.397 53.7906L24.8892 56.3493C23.5417 57.7239 23.5417 59.9528 24.8892 61.3279L27.397 63.8862C28.7446 65.2608 30.9294 65.2608 32.277 63.8862L34.7848 61.3279C36.1324 59.9528 38.3172 59.9528 39.6648 61.3279L44.6123 66.3755L39.6648 71.423C38.3172 72.7981 38.3172 75.027 39.6648 76.402L49.5604 86.4972C50.9077 87.8723 53.0929 87.8723 54.4403 86.4972L71.7234 68.8647C73.0713 67.4901 73.0713 65.2608 71.7234 63.8862L61.8283 53.7906C60.4804 52.416 60.4804 50.1866 61.8283 48.812L66.7759 43.7642L79.1114 56.3493C80.4588 57.7239 82.644 57.7239 83.9913 56.3493L93.887 46.2537C95.2344 44.8788 95.2344 42.6498 93.887 41.2749L91.3789 38.7165C90.0315 37.3417 87.8468 37.3417 86.499 38.7165L83.9913 41.2749C82.644 42.6498 80.4588 42.6498 79.1114 41.2749L74.1634 36.2272L79.1114 31.1794C80.4588 29.8046 80.4588 27.5756 79.1114 26.2008L69.2158 16.1053C67.8684 14.7304 65.6833 14.7304 64.3359 16.1053L61.8283 18.6637C60.4804 20.0385 58.2957 20.0385 56.9479 18.6637L52.0003 13.6159L56.9479 8.56818ZM59.3879 36.2272L66.7759 43.7642L74.1634 36.2272L69.2158 31.1794C67.8684 29.8046 65.6833 29.8046 64.3359 31.1794L59.3879 36.2272ZM44.6123 36.2272L49.5604 41.2749C50.9077 42.6498 53.0929 42.6498 54.4403 41.2749L59.3879 36.2272L54.4403 31.1794C53.0929 29.8046 50.9077 29.8046 49.5604 31.1794L44.6123 36.2272ZM44.6123 36.2272L39.6648 31.1794C38.3172 29.8046 36.1324 29.8046 34.7848 31.1794L29.837 36.2272L34.7848 41.2749C36.1324 42.6498 38.3172 42.6498 39.6648 41.2749L44.6123 36.2272ZM44.6123 66.3755L49.5604 71.423C50.9077 72.7981 53.0929 72.7981 54.4403 71.423L56.9479 68.8647C58.2957 67.4901 58.2957 65.2608 56.9479 63.8862L54.4403 61.3279C53.0929 59.9528 50.9077 59.9528 49.5604 61.3279L44.6123 66.3755Z" fill="#3498DB"/>
<path fill-rule="evenodd" clip-rule="evenodd" d="M56.9479 8.56818C58.2957 7.19339 58.2957 4.96437 56.9479 3.58956L54.4403 1.03111C53.0929 -0.343702 50.9077 -0.343703 49.5604 1.03111L47.0527 3.58956C45.7049 4.96437 45.7049 7.19339 47.0527 8.56818L52.0003 13.6159L47.0527 18.6637C45.7049 20.0385 43.5201 20.0385 42.1725 18.6637L39.6648 16.1053C38.3172 14.7304 36.1324 14.7304 34.7848 16.1053L24.8892 26.2008C23.5417 27.5756 23.5417 29.8046 24.8892 31.1794L29.837 36.2272L22.4493 43.7642L17.5015 38.7165C16.1539 37.3417 13.969 37.3417 12.6215 38.7165L10.1137 41.2749C8.76613 42.6498 8.76613 44.8788 10.1137 46.2537L12.6215 48.812C13.969 50.1866 16.1539 50.1866 17.5015 48.812L22.4493 43.7642L27.397 48.812C28.7446 50.1866 28.7446 52.416 27.397 53.7906L24.8892 56.3493C23.5417 57.7239 23.5417 59.9528 24.8892 61.3279L27.397 63.8862C28.7446 65.2608 30.9294 65.2608 32.277 63.8862L34.7848 61.3279C36.1324 59.9528 38.3172 59.9528 39.6648 61.3279L44.6123 66.3755L39.6648 71.423C38.3172 72.7981 38.3172 75.027 39.6648 76.402L49.5604 86.4972C50.9077 87.8723 53.0929 87.8723 54.4403 86.4972L71.7234 68.8647C73.0713 67.4901 73.0713 65.2608 71.7234 63.8862L61.8283 53.7906C60.4804 52.416 60.4804 50.1866 61.8283 48.812L66.7759 43.7642L79.1114 56.3493C80.4588 57.7239 82.644 57.7239 83.9913 56.3493L93.887 46.2537C95.2344 44.8788 95.2344 42.6498 93.887 41.2749L91.3789 38.7165C90.0315 37.3417 87.8468 37.3417 86.499 38.7165L83.9913 41.2749C82.644 42.6498 80.4588 42.6498 79.1114 41.2749L74.1634 36.2272L79.1114 31.1794C80.4588 29.8046 80.4588 27.5756 79.1114 26.2008L69.2158 16.1053C67.8684 14.7304 65.6833 14.7304 64.3359 16.1053L61.8283 18.6637C60.4804 20.0385 58.2957 20.0385 56.9479 18.6637L52.0003 13.6159L56.9479 8.56818ZM59.3879 36.2272L66.7759 43.7642L74.1634 36.2272L69.2158 31.1794C67.8684 29.8046 65.6833 29.8046 64.3359 31.1794L59.3879 36.2272ZM44.6123 36.2272L49.5604 41.2749C50.9077 42.6498 53.0929 42.6498 54.4403 41.2749L59.3879 36.2272L54.4403 31.1794C53.0929 29.8046 50.9077 29.8046 49.5604 31.1794L44.6123 36.2272ZM44.6123 36.2272L39.6648 31.1794C38.3172 29.8046 36.1324 29.8046 34.7848 31.1794L29.837 36.2272L34.7848 41.2749C36.1324 42.6498 38.3172 42.6498 39.6648 41.2749L44.6123 36.2272ZM44.6123 66.3755L49.5604 71.423C50.9077 72.7981 53.0929 72.7981 54.4403 71.423L56.9479 68.8647C58.2957 67.4901 58.2957 65.2608 56.9479 63.8862L54.4403 61.3279C53.0929 59.9528 50.9077 59.9528 49.5604 61.3279L44.6123 66.3755Z" fill="url(#paint0_linear_63_158)"/>
<path d="M205.069 52.1993C203.379 52.1993 201.755 51.9231 200.195 51.3707C198.658 50.8184 197.467 50.0891 196.622 49.1829L197.564 47.2939C198.387 48.1332 199.481 48.8183 200.845 49.3485C202.21 49.8571 203.618 50.1112 205.069 50.1112C207.105 50.1112 208.632 49.7353 209.65 48.9839C210.668 48.2109 211.177 47.2162 211.177 46.0009C211.177 45.073 210.895 44.3327 210.332 43.7803C209.791 43.2279 209.119 42.8081 208.318 42.5208C207.516 42.2115 206.401 41.88 204.971 41.5265C203.26 41.0845 201.896 40.6647 200.878 40.2669C199.86 39.8471 198.983 39.2173 198.247 38.3776C197.532 37.538 197.174 36.4 197.174 34.9637C197.174 33.7926 197.477 32.7319 198.084 31.7818C198.69 30.8095 199.622 30.0361 200.878 29.4616C202.134 28.8871 203.694 28.5999 205.556 28.5999C206.856 28.5999 208.123 28.7877 209.357 29.1633C210.614 29.5169 211.696 30.014 212.606 30.6548L211.794 32.6104C210.841 31.9696 209.823 31.4945 208.74 31.1852C207.657 30.8537 206.596 30.688 205.556 30.688C203.563 30.688 202.058 31.0857 201.04 31.8812C200.044 32.6546 199.546 33.66 199.546 34.8974C199.546 35.8255 199.816 36.5768 200.358 37.1513C200.921 37.7037 201.614 38.1346 202.437 38.4439C203.282 38.7312 204.408 39.0516 205.816 39.4052C207.484 39.825 208.827 40.2448 209.845 40.6647C210.884 41.0624 211.761 41.6811 212.476 42.5208C213.191 43.3384 213.548 44.4543 213.548 45.8683C213.548 47.0398 213.234 48.1111 212.606 49.0836C212 50.0336 211.058 50.7963 209.78 51.3707C208.502 51.9231 206.931 52.1993 205.069 52.1993Z" fill="#6C6C6C"/>
<path d="M224.447 54.0883L232.992 34.5659H230.718L224.285 49.3819L217.852 34.5659H215.448L223.083 51.9673L222.336 53.6573C221.859 54.7183 221.339 55.4697 220.776 55.9115C220.235 56.3533 219.574 56.5744 218.794 56.5744C217.581 56.5744 216.542 56.1321 215.675 55.2485L214.604 57.0054C215.123 57.5356 215.74 57.9332 216.455 58.1986C217.17 58.4635 217.939 58.5961 218.762 58.5961C220.04 58.5961 221.133 58.2536 222.043 57.5686C222.953 56.8835 223.754 55.7237 224.447 54.0883Z" fill="#6C6C6C"/>
<path d="M241.281 52.1658C239.894 52.1658 238.562 51.9673 237.285 51.5693C236.028 51.1496 235.043 50.6301 234.328 50.0114L235.368 48.1553C236.083 48.7298 236.982 49.205 238.064 49.5809C239.147 49.9343 240.273 50.1112 241.443 50.1112C243.003 50.1112 244.151 49.8679 244.887 49.3819C245.645 48.8737 246.024 48.1666 246.024 47.2604C246.024 46.6196 245.818 46.1227 245.407 45.7689C244.995 45.3935 244.475 45.1171 243.847 44.9404C243.219 44.7415 242.385 44.5537 241.346 44.3769C239.959 44.1117 238.844 43.8466 237.999 43.5814C237.154 43.2941 236.429 42.8191 235.823 42.1561C235.238 41.4933 234.945 40.5762 234.945 39.4051C234.945 37.9467 235.541 36.7535 236.732 35.8254C237.924 34.8974 239.58 34.4333 241.703 34.4333C242.808 34.4333 243.912 34.588 245.017 34.8974C246.122 35.1846 247.031 35.5713 247.746 36.0575L246.739 37.9467C245.331 36.9524 243.652 36.4552 241.703 36.4552C240.23 36.4552 239.115 36.7204 238.357 37.2507C237.62 37.781 237.252 38.4771 237.252 39.3388C237.252 40.0017 237.458 40.5321 237.869 40.9298C238.302 41.3275 238.833 41.6258 239.461 41.8247C240.089 42.0015 240.956 42.1893 242.06 42.3882C243.425 42.6533 244.519 42.9185 245.342 43.1837C246.165 43.4488 246.869 43.9018 247.454 44.5426C248.038 45.1836 248.331 46.0672 248.331 47.1941C248.331 48.719 247.703 49.9343 246.446 50.84C245.212 51.724 243.49 52.1658 241.281 52.1658Z" fill="#6C6C6C"/>
<path d="M260.62 51.8677C261.27 51.647 261.811 51.3375 262.244 50.9399L261.432 49.2494C261.107 49.5368 260.717 49.7575 260.262 49.9123C259.829 50.0671 259.374 50.1443 258.898 50.1443C257.945 50.1443 257.208 49.8794 256.689 49.3487C256.191 48.7963 255.941 48.0011 255.941 46.9623V36.5548H261.14V34.5661H255.941V30.7544H253.635V34.5661H250.581V36.5548H253.635V47.095C253.635 48.7078 254.068 49.9565 254.934 50.8401C255.8 51.7242 257.035 52.166 258.638 52.166C259.331 52.166 259.992 52.0667 260.62 51.8677Z" fill="#6C6C6C"/>
<path fill-rule="evenodd" clip-rule="evenodd" d="M281.37 44.0123H267.075C267.205 45.8244 267.888 47.2938 269.122 48.4207C270.356 49.5254 271.916 50.0778 273.8 50.0778C274.861 50.0778 275.836 49.89 276.724 49.5146C277.612 49.1165 278.381 48.5421 279.031 47.7907L280.331 49.3155C279.572 50.2434 278.619 50.9505 277.471 51.437C276.345 51.9231 275.1 52.1658 273.735 52.1658C271.981 52.1658 270.421 51.7904 269.057 51.039C267.714 50.2655 266.664 49.205 265.905 47.857C265.147 46.509 264.769 44.9845 264.769 43.2831C264.769 41.5817 265.126 40.057 265.84 38.7091C266.577 37.3612 267.573 36.3116 268.829 35.5603C270.107 34.809 271.537 34.4333 273.118 34.4333C274.699 34.4333 276.118 34.809 277.374 35.5603C278.63 36.3116 279.616 37.3612 280.331 38.7091C281.045 40.0349 281.402 41.5595 281.402 43.2831L281.37 44.0123ZM273.118 36.4552C271.472 36.4552 270.086 36.9965 268.959 38.0793C267.855 39.14 267.227 40.5321 267.075 42.2556H279.193C279.042 40.5321 278.403 39.14 277.277 38.0793C276.172 36.9965 274.786 36.4552 273.118 36.4552Z" fill="#6C6C6C"/>
<path d="M313.096 36.3226C311.883 35.0631 310.204 34.4333 308.06 34.4333C306.544 34.4333 305.19 34.7648 303.999 35.4277C302.829 36.0685 301.93 36.9634 301.302 38.1125C300.782 36.8971 299.992 35.9801 298.931 35.3614C297.891 34.7427 296.656 34.4333 295.227 34.4333C293.819 34.4333 292.574 34.7206 291.491 35.2951C290.407 35.8696 289.563 36.6872 288.957 37.7478V34.5659H286.747V52.0002H289.054V42.8522C289.054 40.8856 289.563 39.3499 290.581 38.245C291.62 37.1181 293.018 36.5546 294.772 36.5546C296.353 36.5546 297.566 37.0297 298.411 37.9799C299.277 38.93 299.71 40.3111 299.71 42.123V52.0002H302.017V42.8522C302.017 40.8856 302.526 39.3499 303.544 38.245C304.562 37.1181 305.959 36.5546 307.735 36.5546C309.294 36.5546 310.496 37.0297 311.341 37.9799C312.207 38.93 312.64 40.3111 312.64 42.123V52.0002H314.947V41.891C314.947 39.4382 314.33 37.5821 313.096 36.3226Z" fill="#6C6C6C"/>
<path d="M120.624 28.7986H127.057V52.0003H120.624V28.7986Z" fill="#44AEFB"/>
<path fill-rule="evenodd" clip-rule="evenodd" d="M142.679 28.7986C144.737 28.7986 146.524 29.1521 148.04 29.8592C149.556 30.5442 150.726 31.5386 151.548 32.8423C152.372 34.1239 152.783 35.6375 152.783 37.3832C152.783 39.1288 152.372 40.6424 151.548 41.9241C150.726 43.2057 149.556 44.2 148.04 44.9071C146.524 45.5921 144.737 45.9346 142.679 45.9346H138.716V52.0003H132.283V28.7986H142.679ZM142.289 40.764C143.611 40.764 144.607 40.4767 145.278 39.9022C145.95 39.3056 146.285 38.4659 146.285 37.3832C146.285 36.3004 145.95 35.4608 145.278 34.8641C144.607 34.2675 143.611 33.9692 142.289 33.9692H138.716V40.764H142.289Z" fill="#ABB3FF"/>
<path d="M177.037 39.7033L177.102 52.0003H183.015L182.95 28.7986H177.655L169.857 42.1892L161.865 28.7986H156.57V52.0003H162.515V40.0348L168.33 49.7132H171.189L177.037 39.7033Z" fill="#C58BFF"/>
</g>
<defs>
<linearGradient id="paint0_linear_63_158" x1="53.395" y1="85.3785" x2="44.1259" y2="27.0549" gradientUnits="userSpaceOnUse">
<stop stop-color="#9B59B6"/>
<stop offset="1" stop-color="#9B59B6" stop-opacity="0"/>
</linearGradient>
<clipPath id="clip0_63_158">
<rect width="314.947" height="88" fill="white"/>
</clipPath>
</defs>
</svg>
