<svg width="291" height="108" viewBox="0 0 291 108" fill="none" xmlns="http://www.w3.org/2000/svg">
<path fill-rule="evenodd" clip-rule="evenodd" d="M48.4502 9.00229C49.6845 6.86446 48.952 4.13079 46.8141 2.89654L42.8357 0.59958C40.6979 -0.634708 37.9643 0.0977735 36.7299 2.23561L34.433 6.21407C33.1987 8.3519 33.9312 11.0856 36.069 12.3198L43.9184 16.8517L39.3866 24.701C38.1522 26.8389 35.4186 27.5714 33.2808 26.3371L29.3024 24.0401C27.1645 22.8058 24.4309 23.5383 23.1966 25.6761L14.1329 41.3748C12.8986 43.5127 13.6311 46.2463 15.769 47.4806L23.6183 52.0125L16.8517 63.7327L9.0023 59.201C6.86447 57.9668 4.13081 58.6991 2.89652 60.8369L0.599579 64.8156C-0.634707 66.9534 0.0977717 69.6871 2.23561 70.9213L6.21403 73.2183C8.35191 74.4525 11.0855 73.7197 12.3198 71.5819L16.8517 63.7327L24.701 68.2644C26.8388 69.4986 27.5713 72.2322 26.337 74.3706L24.04 78.3488C22.8058 80.4865 23.5383 83.2202 25.6761 84.4544L29.6545 86.7515C31.7924 87.9856 34.526 87.2534 35.7603 85.1156L38.0572 81.1369C39.2916 78.9991 42.0252 78.2668 44.163 79.501L52.0123 84.0327L47.4805 91.8819C46.2463 94.0202 46.9788 96.7539 49.1166 97.9881L64.8151 107.051C66.9529 108.286 69.6866 107.553 70.9208 105.416L86.7515 77.9964C87.9857 75.8586 87.2534 73.1249 85.1151 71.8907L69.4167 62.8274C67.2789 61.5926 66.5461 58.859 67.7809 56.7212L72.3125 48.872L91.8819 60.1705C94.0197 61.4047 96.7534 60.6724 97.9875 58.5347L107.051 42.8358C108.286 40.698 107.553 37.9643 105.416 36.73L101.437 34.433C99.2991 33.1988 96.5654 33.9312 95.3312 36.0691L93.0342 40.0475C91.8 42.1854 89.0663 42.9179 86.9286 41.6836L79.0794 37.1518L83.611 29.3024C84.8452 27.1645 84.113 24.4309 81.9746 23.1966L66.2762 14.1329C64.1385 12.8987 61.4048 13.6311 60.1706 15.769L57.8735 19.7474C56.6392 21.8853 53.9056 22.6178 51.7677 21.3835L43.9184 16.8517L48.4502 9.00229ZM60.5923 42.1053L72.3125 48.872L79.0794 37.1518L71.2296 32.6199C69.0918 31.3857 66.3582 32.1181 65.124 34.256L60.5923 42.1053ZM42.1053 47.0589L49.9546 51.5907C52.0924 52.825 54.8261 52.0925 56.0604 49.9547L60.5923 42.1053L52.7428 37.5735C50.605 36.3392 47.8713 37.0717 46.637 39.2095L42.1053 47.0589ZM42.1053 47.0589L34.2559 42.5271C32.1181 41.2928 29.3844 42.0253 28.1502 44.1631L23.6183 52.0125L31.4676 56.5441C33.6055 57.7783 36.3391 57.0461 37.5734 54.9083L42.1053 47.0589ZM52.0123 84.0327L59.8618 88.5644C61.9995 89.7991 64.7332 89.0663 65.9674 86.9285L68.2645 82.9503C69.4986 80.8126 68.7664 78.0789 66.6286 76.8441L62.6499 74.5476C60.5121 73.3129 57.7784 74.0457 56.5442 76.1835L52.0123 84.0327Z" fill="#DDF0FC"/>
<path fill-rule="evenodd" clip-rule="evenodd" d="M72.4945 10.8527C74.1857 9.16186 74.1857 6.4204 72.4945 4.72952L69.348 1.58289C67.6574 -0.107986 64.9156 -0.107987 63.2249 1.58289L60.0785 4.72952C58.3873 6.4204 58.3873 9.16186 60.0785 10.8527L66.2865 17.0609L60.0785 23.2692C58.3873 24.9601 55.646 24.9601 53.9551 23.2692L50.8084 20.1225C49.1175 18.4316 46.3761 18.4316 44.6852 20.1225L32.2687 32.539C30.5779 34.2299 30.5779 36.9713 32.2687 38.6622L38.477 44.8704L29.2072 54.1402L22.999 47.932C21.3081 46.2411 18.5666 46.2411 16.8757 47.932L13.7291 51.0786C12.0382 52.7695 12.0382 55.511 13.7291 57.202L16.8757 60.3485C18.5666 62.0391 21.3081 62.0391 22.999 60.3485L29.2072 54.1402L35.4154 60.3485C37.1063 62.0391 37.1063 64.7809 35.4154 66.4716L32.2687 69.6186C30.5779 71.3092 30.5779 74.0505 32.2687 75.7417L35.4154 78.8881C37.1063 80.5787 39.8477 80.5787 41.5386 78.8881L44.6852 75.7417C46.3761 74.0505 49.1175 74.0505 50.8084 75.7417L57.0164 81.9497L50.8084 88.1577C49.1175 89.8489 49.1175 92.5902 50.8084 94.2813L63.2249 106.697C64.9156 108.389 67.6574 108.389 69.348 106.697L91.0342 85.0112C92.7254 83.3206 92.7254 80.5787 91.0342 78.8881L78.6182 66.4716C76.927 64.7809 76.927 62.0391 78.6182 60.3485L84.8262 54.1402L100.304 69.6186C101.995 71.3092 104.737 71.3092 106.427 69.6186L118.844 57.202C120.535 55.511 120.535 52.7695 118.844 51.0786L115.697 47.932C114.006 46.2411 111.265 46.2411 109.574 47.932L106.427 51.0786C104.737 52.7695 101.995 52.7695 100.304 51.0786L94.0957 44.8704L100.304 38.6622C101.995 36.9713 101.995 34.2299 100.304 32.539L87.8877 20.1225C86.1971 18.4316 83.4552 18.4316 81.7646 20.1225L78.6182 23.2692C76.927 24.9601 74.1857 24.9601 72.4945 23.2692L66.2865 17.0609L72.4945 10.8527ZM75.5561 44.8704L84.8262 54.1402L94.0957 44.8704L87.8877 38.6622C86.1971 36.9713 83.4552 36.9713 81.7646 38.6622L75.5561 44.8704ZM57.0164 44.8704L63.2249 51.0786C64.9156 52.7695 67.6574 52.7695 69.348 51.0786L75.5561 44.8704L69.348 38.6622C67.6574 36.9713 64.9156 36.9713 63.2249 38.6622L57.0164 44.8704ZM57.0164 44.8704L50.8084 38.6622C49.1175 36.9713 46.3761 36.9713 44.6852 38.6622L38.477 44.8704L44.6852 51.0786C46.3761 52.7695 49.1175 52.7695 50.8084 51.0786L57.0164 44.8704ZM57.0164 81.9497L63.2249 88.1577C64.9156 89.8489 67.6574 89.8489 69.348 88.1577L72.4945 85.0112C74.1857 83.3206 74.1857 80.5787 72.4945 78.8881L69.348 75.7417C67.6574 74.0505 64.9156 74.0505 63.2249 75.7417L57.0164 81.9497Z" fill="url(#paint0_linear_1241_2415)"/>
<path d="M220.576 68C220.144 68 219.76 67.868 219.424 67.604C219.088 67.34 218.848 66.98 218.704 66.524L211.468 42.476C211.228 41.684 211.24 41.06 211.504 40.604C211.792 40.124 212.248 39.884 212.872 39.884C213.28 39.884 213.652 40.004 213.988 40.244C214.324 40.46 214.564 40.808 214.708 41.288L221.008 63.248H220.216L226.048 41.504C226.144 41.144 226.36 40.844 226.696 40.604C227.032 40.364 227.416 40.244 227.848 40.244C228.232 40.244 228.592 40.352 228.928 40.568C229.288 40.76 229.516 41.06 229.612 41.468L235.48 63.248H234.76L241.096 41.108C241.336 40.292 241.948 39.884 242.932 39.884C243.604 39.884 244.036 40.148 244.228 40.676C244.42 41.18 244.42 41.78 244.228 42.476L236.992 66.488C236.824 66.944 236.572 67.316 236.236 67.604C235.924 67.868 235.552 68 235.12 68C234.664 68 234.268 67.856 233.932 67.568C233.62 67.28 233.392 66.932 233.248 66.524L227.452 44.132H228.316L222.448 66.488C222.28 66.944 222.028 67.316 221.692 67.604C221.38 67.868 221.008 68 220.576 68ZM250.221 68C249.693 68 249.249 67.832 248.889 67.496C248.553 67.136 248.385 66.692 248.385 66.164V50.144C248.385 49.592 248.553 49.148 248.889 48.812C249.249 48.476 249.693 48.308 250.221 48.308C250.773 48.308 251.217 48.476 251.553 48.812C251.889 49.148 252.057 49.592 252.057 50.144V66.164C252.057 66.692 251.889 67.136 251.553 67.496C251.217 67.832 250.773 68 250.221 68ZM250.221 45.104C249.573 45.104 249.009 44.876 248.529 44.42C248.073 43.94 247.845 43.376 247.845 42.728C247.845 42.08 248.073 41.528 248.529 41.072C249.009 40.592 249.573 40.352 250.221 40.352C250.869 40.352 251.421 40.592 251.877 41.072C252.357 41.528 252.597 42.08 252.597 42.728C252.597 43.376 252.357 43.94 251.877 44.42C251.421 44.876 250.869 45.104 250.221 45.104ZM262.344 60.8L260.112 58.352L271.164 48.488C271.524 48.152 271.92 47.996 272.352 48.02C272.808 48.044 273.192 48.236 273.504 48.596C273.84 48.956 273.996 49.352 273.972 49.784C273.948 50.216 273.756 50.6 273.396 50.936L262.344 60.8ZM260.652 68C260.124 68 259.692 67.844 259.356 67.532C259.044 67.196 258.888 66.764 258.888 66.236V41.648C258.888 41.12 259.044 40.7 259.356 40.388C259.692 40.052 260.124 39.884 260.652 39.884C261.18 39.884 261.6 40.052 261.912 40.388C262.248 40.7 262.416 41.12 262.416 41.648V66.236C262.416 66.764 262.248 67.196 261.912 67.532C261.6 67.844 261.18 68 260.652 68ZM273.504 67.82C273.12 68.132 272.688 68.264 272.208 68.216C271.752 68.192 271.368 67.988 271.056 67.604L263.748 58.568L266.268 56.192L273.756 65.408C274.068 65.792 274.2 66.212 274.152 66.668C274.128 67.1 273.912 67.484 273.504 67.82ZM281.581 68C281.053 68 280.609 67.832 280.249 67.496C279.913 67.136 279.745 66.692 279.745 66.164V50.144C279.745 49.592 279.913 49.148 280.249 48.812C280.609 48.476 281.053 48.308 281.581 48.308C282.133 48.308 282.577 48.476 282.913 48.812C283.249 49.148 283.417 49.592 283.417 50.144V66.164C283.417 66.692 283.249 67.136 282.913 67.496C282.577 67.832 282.133 68 281.581 68ZM281.581 45.104C280.933 45.104 280.369 44.876 279.889 44.42C279.433 43.94 279.205 43.376 279.205 42.728C279.205 42.08 279.433 41.528 279.889 41.072C280.369 40.592 280.933 40.352 281.581 40.352C282.229 40.352 282.781 40.592 283.237 41.072C283.717 41.528 283.957 42.08 283.957 42.728C283.957 43.376 283.717 43.94 283.237 44.42C282.781 44.876 282.229 45.104 281.581 45.104Z" fill="#232323"/>
<path d="M134.04 39.2H141.16V68H134.04V39.2Z" fill="#925FBA"/>
<path d="M151.083 60.64V54.92H157.643C158.976 54.92 160.043 54.6533 160.843 54.12C161.67 53.5867 162.256 52.88 162.603 52C162.976 51.12 163.163 50.1467 163.163 49.08C163.163 47.6933 162.763 46.6933 161.963 46.08C161.19 45.44 160.176 45.12 158.923 45.12H151.083V39.2H158.843C162.576 39.2 165.403 40.0533 167.323 41.76C169.243 43.4667 170.203 45.84 170.203 48.88C170.203 50.5067 169.936 52.04 169.403 53.48C168.896 54.92 168.123 56.1733 167.083 57.24C166.043 58.3067 164.75 59.1467 163.203 59.76C161.683 60.3467 159.91 60.64 157.883 60.64H151.083ZM147.243 68V39.2H154.363V68H147.243Z" fill="#667ACA"/>
<path d="M174.587 68V39.2H180.587L190.547 55.56L187.627 55.6L197.427 39.2H203.427V68H196.347V49.4L197.787 49.8L190.707 61.56H187.307L180.227 49.96L181.707 49.56V68H174.587Z" fill="#3995D9"/>
<defs>
<linearGradient id="paint0_linear_1241_2415" x1="66.2864" y1="0.314732" x2="66.2864" y2="107.966" gradientUnits="userSpaceOnUse">
<stop stop-color="#3796DA"/>
<stop offset="0.484375" stop-color="#627CCB"/>
<stop offset="1" stop-color="#975CB8"/>
</linearGradient>
</defs>
</svg>
