<svg width="95" height="76" viewBox="0 0 95 76" fill="none" xmlns="http://www.w3.org/2000/svg">
<path d="M63.3398 11C48.2482 11 36 23.2671 36 38.3758C36 53.49 48.2482 65.7516 63.3398 65.7516C78.4587 65.7516 90.6796 53.49 90.6796 38.3758C90.6796 23.2671 78.4587 11 63.3398 11Z" fill="#4096FE"/>
<g opacity="0.5" filter="url(#filter0_f_817_49031)">
<path d="M63.3397 25.5547C56.272 25.5547 50.5359 31.2997 50.5359 38.3754C50.5359 45.4537 56.272 51.1961 63.3397 51.1961C70.4203 51.1961 76.1436 45.4537 76.1436 38.3754C76.1436 31.2997 70.4203 25.5547 63.3397 25.5547Z" fill="#0062FF"/>
</g>
<g filter="url(#filter1_b_817_49031)">
<mask id="path-3-outside-1_817_49031" maskUnits="userSpaceOnUse" x="0" y="4.13477" width="72" height="72" fill="black">
<rect fill="white" y="4.13477" width="72" height="72"/>
<path d="M35.8867 5.13477C16.6293 5.13477 1 20.7881 1 40.0675C1 59.3538 16.6293 75.0001 35.8867 75.0001C55.1791 75.0001 70.7735 59.3538 70.7735 40.0675C70.7735 20.7881 55.1791 5.13477 35.8867 5.13477Z"/>
</mask>
<path d="M35.8867 5.13477C16.6293 5.13477 1 20.7881 1 40.0675C1 59.3538 16.6293 75.0001 35.8867 75.0001C55.1791 75.0001 70.7735 59.3538 70.7735 40.0675C70.7735 20.7881 55.1791 5.13477 35.8867 5.13477Z" fill="#3EA0FE" fill-opacity="0.35"/>
<path d="M35.8867 4.13477C35.3344 4.13477 34.8867 4.58248 34.8867 5.13477C34.8867 5.68705 35.3344 6.13477 35.8867 6.13477V4.13477ZM35.8867 4.13477C16.0757 4.13477 0 20.2371 0 40.0675H2C2 21.3391 17.1828 6.13477 35.8867 6.13477V4.13477ZM0 40.0675C0 59.9049 16.0758 76.0001 35.8867 76.0001V74.0001C17.1827 74.0001 2 58.8027 2 40.0675H0ZM35.8867 76.0001C55.7332 76.0001 71.7735 59.9042 71.7735 40.0675H69.7735C69.7735 58.8033 54.625 74.0001 35.8867 74.0001V76.0001ZM71.7735 40.0675C71.7735 20.2378 55.7333 4.13477 35.8867 4.13477V6.13477C54.6249 6.13477 69.7735 21.3384 69.7735 40.0675H71.7735Z" fill="url(#paint0_linear_817_49031)" mask="url(#path-3-outside-1_817_49031)"/>
</g>
<g filter="url(#filter2_bd_817_49031)">
<mask id="path-5-inside-2_817_49031" fill="white">
<path fill-rule="evenodd" clip-rule="evenodd" d="M35.8869 23.7539C34.2124 23.7539 32.8169 25.1547 32.8169 26.828V42.2682C32.8169 43.9485 34.2124 45.3074 35.8869 45.3074C37.5615 45.3074 38.9221 43.9485 38.9221 42.2682V26.828C38.9221 25.1547 37.5615 23.7539 35.8869 23.7539ZM32.8511 53.3443C32.8511 55.0211 34.2117 56.4184 35.9211 56.4184C37.5957 56.4184 38.9563 55.0211 38.9563 53.3443C38.9563 51.6675 37.5957 50.3051 35.8863 50.3051C34.2117 50.3051 32.8511 51.6675 32.8511 53.3443Z"/>
</mask>
<path fill-rule="evenodd" clip-rule="evenodd" d="M35.8869 23.7539C34.2124 23.7539 32.8169 25.1547 32.8169 26.828V42.2682C32.8169 43.9485 34.2124 45.3074 35.8869 45.3074C37.5615 45.3074 38.9221 43.9485 38.9221 42.2682V26.828C38.9221 25.1547 37.5615 23.7539 35.8869 23.7539ZM32.8511 53.3443C32.8511 55.0211 34.2117 56.4184 35.9211 56.4184C37.5957 56.4184 38.9563 55.0211 38.9563 53.3443C38.9563 51.6675 37.5957 50.3051 35.8863 50.3051C34.2117 50.3051 32.8511 51.6675 32.8511 53.3443Z" fill="url(#paint1_linear_817_49031)"/>
<path d="M33.2169 26.828C33.2169 25.3748 34.4341 24.1539 35.8869 24.1539V23.3539C33.9907 23.3539 32.4169 24.9346 32.4169 26.828H33.2169ZM33.2169 42.2682V26.828H32.4169V42.2682H33.2169ZM35.8869 44.9074C34.4275 44.9074 33.2169 43.7219 33.2169 42.2682H32.4169C32.4169 44.1751 33.9972 45.7074 35.8869 45.7074V44.9074ZM38.5221 42.2682C38.5221 43.7278 37.3404 44.9074 35.8869 44.9074V45.7074C37.7826 45.7074 39.3221 44.1692 39.3221 42.2682H38.5221ZM38.5221 26.828V42.2682H39.3221V26.828H38.5221ZM35.8869 24.1539C37.3339 24.1539 38.5221 25.3689 38.5221 26.828H39.3221C39.3221 24.9406 37.7891 23.3539 35.8869 23.3539V24.1539ZM35.9211 56.0184C34.436 56.0184 33.2511 54.8036 33.2511 53.3443H32.4511C32.4511 55.2385 33.9873 56.8184 35.9211 56.8184V56.0184ZM38.5563 53.3443C38.5563 54.8066 37.3684 56.0184 35.9211 56.0184V56.8184C37.823 56.8184 39.3563 55.2355 39.3563 53.3443H38.5563ZM35.8863 50.7051C37.3773 50.7051 38.5563 51.8909 38.5563 53.3443H39.3563C39.3563 51.4441 37.8141 49.9051 35.8863 49.9051V50.7051ZM33.2511 53.3443C33.2511 51.8879 34.4331 50.7051 35.8863 50.7051V49.9051C33.9903 49.9051 32.4511 51.4471 32.4511 53.3443H33.2511Z" fill="url(#paint2_linear_817_49031)" mask="url(#path-5-inside-2_817_49031)"/>
</g>
<defs>
<filter id="filter0_f_817_49031" x="32.5359" y="7.55469" width="61.6077" height="61.6406" filterUnits="userSpaceOnUse" color-interpolation-filters="sRGB">
<feFlood flood-opacity="0" result="BackgroundImageFix"/>
<feBlend mode="normal" in="SourceGraphic" in2="BackgroundImageFix" result="shape"/>
<feGaussianBlur stdDeviation="9" result="effect1_foregroundBlur_817_49031"/>
</filter>
<filter id="filter1_b_817_49031" x="-24" y="-19.8652" width="119.773" height="119.865" filterUnits="userSpaceOnUse" color-interpolation-filters="sRGB">
<feFlood flood-opacity="0" result="BackgroundImageFix"/>
<feGaussianBlur in="BackgroundImageFix" stdDeviation="12"/>
<feComposite in2="SourceAlpha" operator="in" result="effect1_backgroundBlur_817_49031"/>
<feBlend mode="normal" in="SourceGraphic" in2="effect1_backgroundBlur_817_49031" result="shape"/>
</filter>
<filter id="filter2_bd_817_49031" x="17.8169" y="8.75391" width="36.1394" height="62.6641" filterUnits="userSpaceOnUse" color-interpolation-filters="sRGB">
<feFlood flood-opacity="0" result="BackgroundImageFix"/>
<feGaussianBlur in="BackgroundImageFix" stdDeviation="7.5"/>
<feComposite in2="SourceAlpha" operator="in" result="effect1_backgroundBlur_817_49031"/>
<feColorMatrix in="SourceAlpha" type="matrix" values="0 0 0 0 0 0 0 0 0 0 0 0 0 0 0 0 0 0 127 0" result="hardAlpha"/>
<feOffset dx="5" dy="5"/>
<feGaussianBlur stdDeviation="5"/>
<feColorMatrix type="matrix" values="0 0 0 0 0.25098 0 0 0 0 0.588235 0 0 0 0 0.996078 0 0 0 1 0"/>
<feBlend mode="normal" in2="effect1_backgroundBlur_817_49031" result="effect2_dropShadow_817_49031"/>
<feBlend mode="normal" in="SourceGraphic" in2="effect2_dropShadow_817_49031" result="shape"/>
</filter>
<linearGradient id="paint0_linear_817_49031" x1="12.1068" y1="13.2742" x2="56.6858" y2="68.4137" gradientUnits="userSpaceOnUse">
<stop stop-color="white" stop-opacity="0.25"/>
<stop offset="1" stop-color="white" stop-opacity="0"/>
</linearGradient>
<linearGradient id="paint1_linear_817_49031" x1="35.8873" y1="25.5964" x2="30.2371" y2="25.1509" gradientUnits="userSpaceOnUse">
<stop stop-color="white" stop-opacity="0.75"/>
<stop offset="1" stop-color="white" stop-opacity="0.2"/>
</linearGradient>
<linearGradient id="paint2_linear_817_49031" x1="33.7942" y1="27.5594" x2="43.2077" y2="29.7507" gradientUnits="userSpaceOnUse">
<stop stop-color="white" stop-opacity="0.25"/>
<stop offset="1" stop-color="white" stop-opacity="0"/>
</linearGradient>
</defs>
</svg>
