<svg width="28" height="27" viewBox="0 0 28 27" fill="none" xmlns="http://www.w3.org/2000/svg">
<path fill-rule="evenodd" clip-rule="evenodd" d="M1 16.4023C1.552 16.4023 2 16.834 2 17.3658V22.1829C2 23.7793 3.343 25.0732 5 25.0732H23C24.657 25.0732 26 23.7793 26 22.1829V17.3658C26 16.834 26.448 16.4023 27 16.4023C27.552 16.4023 28 16.834 28 17.3658V22.1829C28 24.8429 25.761 27 23 27H5C2.239 27 0 24.8429 0 22.1829V17.3658C0 16.834 0.448 16.4023 1 16.4023Z" fill="black"/>
<path fill-rule="evenodd" clip-rule="evenodd" d="M14.7072 20.9374C14.3172 21.3141 13.6832 21.3141 13.2933 20.9374L7.29325 15.1569C6.90225 14.7811 6.90225 14.1704 7.29325 13.7947C7.68325 13.418 8.31719 13.418 8.70719 13.7947L13.0002 17.9306V0.987838C13.0002 0.456028 13.4482 0.0244141 14.0002 0.0244141C14.5522 0.0244141 15.0002 0.456028 15.0002 0.987838V17.9306L19.2933 13.7947C19.6833 13.418 20.3172 13.418 20.7072 13.7947C21.0982 14.1704 21.0982 14.7811 20.7072 15.1569L14.7072 20.9374Z" fill="black"/>
</svg>
