<svg width="28" height="28" viewBox="0 0 28 28" fill="none" xmlns="http://www.w3.org/2000/svg">
<path fill-rule="evenodd" clip-rule="evenodd" d="M15.3981 2.34146C15.0771 1.78541 15.2676 1.0745 15.8237 0.753429L16.8585 0.155813C17.4145 -0.165009 18.1255 0.0254561 18.4466 0.581516L19.044 1.61621C19.365 2.17227 19.1745 2.88342 18.6185 3.20425L16.5769 4.38315L17.7556 6.42484C18.0766 6.98065 18.7876 7.17137 19.3437 6.8503L20.3785 6.25293C20.9345 5.93186 21.6455 6.12232 21.9666 6.67838L24.324 10.7615C24.6451 11.3176 24.4545 12.0287 23.8985 12.3498L21.8569 13.5285L23.6169 16.5769L25.6585 15.3982C26.2146 15.0772 26.9256 15.2676 27.2466 15.8237L27.844 16.8586C28.1651 17.4144 27.9746 18.1256 27.4185 18.4467L26.3837 19.044C25.8277 19.3651 25.1167 19.1746 24.7956 18.6186L23.6169 16.5769L21.5753 17.7555C21.0193 18.0766 20.8287 18.7878 21.1498 19.3438L21.7472 20.3785C22.0682 20.9346 21.8777 21.6455 21.3217 21.9666L20.2869 22.5642C19.7308 22.885 19.0198 22.6945 18.6988 22.1387L18.1013 21.1038C17.7803 20.5477 17.0693 20.3572 16.5132 20.6781L14.4718 21.857L15.6504 23.8984C15.9714 24.4547 15.7808 25.1656 15.2248 25.4867L11.1416 27.844C10.5856 28.1651 9.87449 27.9746 9.55354 27.4186L5.43599 20.2868C5.11504 19.7307 5.30545 19.0198 5.8617 18.6987L9.94491 16.3414C10.5007 16.0203 10.6913 15.3092 10.3704 14.7531L9.19162 12.7117L4.10166 15.6503C3.54541 15.9714 2.83457 15.7809 2.51362 15.2248L0.155861 11.1417C-0.165083 10.5856 0.0255699 9.87449 0.581333 9.55342L1.6163 8.95605C2.17231 8.63498 2.8834 8.82545 3.20459 9.38151L3.80182 10.4164C4.12301 10.9725 4.83385 11.163 5.38986 10.8419L7.43158 9.66324L6.25282 7.62155C5.93188 7.0655 6.12228 6.35434 6.67854 6.03352L10.7615 3.67596C11.3178 3.35489 12.0286 3.54535 12.3495 4.10141L12.9473 5.13636C13.2682 5.69241 13.9793 5.88288 14.5353 5.56181L16.5769 4.38315L15.3981 2.34146ZM12.2401 10.9515L9.19162 12.7117L7.43158 9.66324L9.47331 8.48434C10.0293 8.16352 10.7402 8.35398 11.0613 8.91004L12.2401 10.9515ZM17.0485 12.24L15.0069 13.4186C14.4509 13.7397 13.7398 13.5492 13.4189 12.9932L12.2401 10.9515L14.2816 9.77282C14.8376 9.45175 15.5487 9.64222 15.8697 10.1983L17.0485 12.24ZM17.0485 12.24L19.0901 11.0613C19.6461 10.7402 20.3572 10.9307 20.6782 11.4868L21.8569 13.5285L19.8153 14.7071C19.2592 15.0282 18.5482 14.8377 18.2272 14.2817L17.0485 12.24ZM14.4718 21.857L12.43 23.0356C11.874 23.3567 11.1629 23.1662 10.842 22.6102L10.2445 21.5755C9.92357 21.0192 10.114 20.3083 10.67 19.9872L11.705 19.3898C12.261 19.0685 12.9718 19.2592 13.293 19.8153L14.4718 21.857Z" fill="#E3EBFF"/>
</svg>
