<svg width="320" height="88" viewBox="0 0 320 88" fill="none" xmlns="http://www.w3.org/2000/svg">
<path fill-rule="evenodd" clip-rule="evenodd" d="M65.3981 32.3415C65.0771 31.7854 65.2676 31.0745 65.8237 30.7534L66.8585 30.1558C67.4145 29.835 68.1255 30.0255 68.4466 30.5815L69.044 31.6162C69.365 32.1723 69.1745 32.8834 68.6185 33.2042L66.5769 34.3832L67.7556 36.4248C68.0766 36.9807 68.7876 37.1714 69.3437 36.8503L70.3785 36.2529C70.9345 35.9319 71.6455 36.1223 71.9666 36.6784L74.324 40.7615C74.6451 41.3176 74.4545 42.0287 73.8985 42.3498L71.8569 43.5285L73.6169 46.5769L75.6585 45.3982C76.2146 45.0772 76.9256 45.2676 77.2466 45.8237L77.844 46.8586C78.1651 47.4144 77.9746 48.1256 77.4185 48.4467L76.3837 49.044C75.8277 49.3651 75.1167 49.1746 74.7956 48.6186L73.6169 46.5769L71.5753 47.7555C71.0193 48.0766 70.8287 48.7878 71.1498 49.3438L71.7472 50.3785C72.0682 50.9346 71.8777 51.6455 71.3217 51.9666L70.2869 52.5642C69.7308 52.885 69.0198 52.6945 68.6988 52.1387L68.1013 51.1038C67.7803 50.5477 67.0693 50.3572 66.5132 50.6781L64.4718 51.857L65.6504 53.8984C65.9714 54.4547 65.7808 55.1656 65.2248 55.4867L61.1416 57.844C60.5856 58.1651 59.8745 57.9746 59.5535 57.4186L55.436 50.2868C55.115 49.7307 55.3054 49.0198 55.8617 48.6987L59.9449 46.3414C60.5007 46.0203 60.6913 45.3092 60.3704 44.7531L59.1916 42.7117L54.1017 45.6503C53.5454 45.9714 52.8346 45.7809 52.5136 45.2248L50.1559 41.1417C49.8349 40.5856 50.0256 39.8745 50.5813 39.5534L51.6163 38.956C52.1723 38.635 52.8834 38.8254 53.2046 39.3815L53.8018 40.4164C54.123 40.9725 54.8338 41.163 55.3899 40.8419L57.4316 39.6632L56.2528 37.6216C55.9319 37.0655 56.1223 36.3543 56.6785 36.0335L60.7615 33.676C61.3178 33.3549 62.0286 33.5454 62.3495 34.1014L62.9473 35.1364C63.2682 35.6924 63.9793 35.8829 64.5353 35.5618L66.5769 34.3832L65.3981 32.3415ZM62.2401 40.9515L59.1916 42.7117L57.4316 39.6632L59.4733 38.4843C60.0293 38.1635 60.7402 38.354 61.0613 38.91L62.2401 40.9515ZM67.0485 42.24L65.0069 43.4186C64.4509 43.7397 63.7398 43.5492 63.4189 42.9932L62.2401 40.9515L64.2816 39.7728C64.8376 39.4518 65.5487 39.6422 65.8697 40.1983L67.0485 42.24ZM67.0485 42.24L69.0901 41.0613C69.6461 40.7402 70.3572 40.9307 70.6782 41.4868L71.8569 43.5285L69.8153 44.7071C69.2592 45.0282 68.5482 44.8377 68.2272 44.2817L67.0485 42.24ZM64.4718 51.857L62.43 53.0356C61.874 53.3567 61.1629 53.1662 60.842 52.6102L60.2445 51.5755C59.9236 51.0192 60.114 50.3083 60.67 49.9872L61.705 49.3898C62.261 49.0685 62.9718 49.2592 63.293 49.8153L64.4718 51.857Z" fill="#E3EBFF"/>
<path d="M92.62 50.64C92.3267 50.64 92.1 50.56 91.94 50.4C91.78 50.2267 91.7 49.9867 91.7 49.68V37.22C91.7 36.9 91.78 36.66 91.94 36.5C92.1 36.34 92.3267 36.26 92.62 36.26C92.9267 36.26 93.16 36.34 93.32 36.5C93.48 36.66 93.56 36.9 93.56 37.22V49.68C93.56 49.9867 93.48 50.2267 93.32 50.4C93.1733 50.56 92.94 50.64 92.62 50.64ZM97.8544 50.64C97.561 50.64 97.3344 50.56 97.1744 50.4C97.0144 50.2267 96.9344 49.9867 96.9344 49.68V37.34C96.9344 37.0333 97.0144 36.8 97.1744 36.64C97.3477 36.48 97.581 36.4 97.8744 36.4H102.634C104.154 36.4 105.321 36.7733 106.134 37.52C106.961 38.2667 107.374 39.3133 107.374 40.66C107.374 42.02 106.961 43.0733 106.134 43.82C105.321 44.5667 104.154 44.94 102.634 44.94H98.7944V49.68C98.7944 49.9867 98.7144 50.2267 98.5544 50.4C98.4077 50.56 98.1744 50.64 97.8544 50.64ZM98.7944 43.44H102.394C103.434 43.44 104.214 43.2067 104.734 42.74C105.268 42.26 105.534 41.5667 105.534 40.66C105.534 39.7533 105.268 39.0733 104.734 38.62C104.214 38.1533 103.434 37.92 102.394 37.92H98.7944V43.44ZM110.549 50.64C110.282 50.64 110.075 50.56 109.929 50.4C109.782 50.24 109.709 50.0267 109.709 49.76V37.14C109.709 36.86 109.782 36.6467 109.929 36.5C110.089 36.34 110.302 36.26 110.569 36.26C110.809 36.26 110.995 36.3067 111.129 36.4C111.275 36.4933 111.409 36.6533 111.529 36.88L116.889 46.94H116.269L121.629 36.88C121.749 36.6533 121.875 36.4933 122.009 36.4C122.142 36.3067 122.329 36.26 122.569 36.26C122.835 36.26 123.042 36.34 123.189 36.5C123.335 36.6467 123.409 36.86 123.409 37.14V49.76C123.409 50.0267 123.335 50.24 123.189 50.4C123.055 50.56 122.849 50.64 122.569 50.64C122.289 50.64 122.075 50.56 121.929 50.4C121.795 50.24 121.729 50.0267 121.729 49.76V38.98H122.169L117.369 47.96C117.262 48.1333 117.149 48.2667 117.029 48.36C116.922 48.44 116.769 48.48 116.569 48.48C116.382 48.48 116.222 48.4333 116.089 48.34C115.969 48.2467 115.862 48.12 115.769 47.96L110.909 38.96H111.389V49.76C111.389 50.0267 111.315 50.24 111.169 50.4C111.035 50.56 110.829 50.64 110.549 50.64ZM136.672 50.64C136.405 50.64 136.192 50.5733 136.032 50.44C135.872 50.3067 135.738 50.0933 135.632 49.8L131.272 37.36C131.152 37.0533 131.165 36.7933 131.312 36.58C131.472 36.3667 131.732 36.26 132.092 36.26C132.345 36.26 132.545 36.32 132.692 36.44C132.838 36.56 132.958 36.76 133.052 37.04L137.072 48.84H136.352L140.472 37.08C140.578 36.8 140.705 36.5933 140.852 36.46C140.998 36.3267 141.192 36.26 141.432 36.26C141.685 36.26 141.878 36.3267 142.012 36.46C142.158 36.5933 142.278 36.8067 142.372 37.1L146.412 48.84H145.772L149.832 37.04C149.925 36.7733 150.045 36.58 150.192 36.46C150.338 36.3267 150.545 36.26 150.812 36.26C151.118 36.26 151.345 36.3667 151.492 36.58C151.638 36.7933 151.658 37.0533 151.552 37.36L147.152 49.82C147.058 50.1 146.932 50.3067 146.772 50.44C146.612 50.5733 146.398 50.64 146.132 50.64C145.852 50.64 145.632 50.5733 145.472 50.44C145.312 50.3067 145.178 50.0933 145.072 49.8L141.172 38.6H141.612L137.692 49.82C137.585 50.1 137.452 50.3067 137.292 50.44C137.145 50.5733 136.938 50.64 136.672 50.64ZM155.368 50.6C155.088 50.6 154.868 50.5133 154.708 50.34C154.548 50.1667 154.468 49.9267 154.468 49.62V41.64C154.468 41.32 154.548 41.08 154.708 40.92C154.868 40.7467 155.088 40.66 155.368 40.66C155.661 40.66 155.888 40.7467 156.048 40.92C156.208 41.08 156.288 41.32 156.288 41.64V49.62C156.288 49.9267 156.208 50.1667 156.048 50.34C155.901 50.5133 155.674 50.6 155.368 50.6ZM155.368 38.5C155.008 38.5 154.721 38.4067 154.508 38.22C154.308 38.02 154.208 37.76 154.208 37.44C154.208 37.0933 154.308 36.8333 154.508 36.66C154.721 36.4733 155.008 36.38 155.368 36.38C155.754 36.38 156.041 36.4733 156.228 36.66C156.428 36.8333 156.528 37.0933 156.528 37.44C156.528 37.76 156.428 38.02 156.228 38.22C156.041 38.4067 155.754 38.5 155.368 38.5ZM160.114 50.64C159.834 50.64 159.614 50.56 159.454 50.4C159.294 50.24 159.214 50.0067 159.214 49.7V37.18C159.214 36.8733 159.294 36.6467 159.454 36.5C159.614 36.34 159.834 36.26 160.114 36.26C160.407 36.26 160.634 36.34 160.794 36.5C160.954 36.6467 161.034 36.8733 161.034 37.18V45.06H161.074L164.994 41.24C165.194 41.04 165.374 40.8867 165.534 40.78C165.694 40.6733 165.901 40.62 166.154 40.62C166.407 40.62 166.601 40.6867 166.734 40.82C166.867 40.94 166.934 41.1 166.934 41.3C166.934 41.4867 166.841 41.6733 166.654 41.86L162.494 45.9V45L167.034 49.38C167.221 49.5667 167.307 49.76 167.294 49.96C167.294 50.16 167.221 50.3267 167.074 50.46C166.941 50.58 166.761 50.64 166.534 50.64C166.267 50.64 166.047 50.5867 165.874 50.48C165.714 50.3733 165.527 50.2067 165.314 49.98L161.074 45.98H161.034V49.7C161.034 50.3267 160.727 50.64 160.114 50.64ZM170.27 50.6C169.99 50.6 169.77 50.5133 169.61 50.34C169.45 50.1667 169.37 49.9267 169.37 49.62V41.64C169.37 41.32 169.45 41.08 169.61 40.92C169.77 40.7467 169.99 40.66 170.27 40.66C170.563 40.66 170.79 40.7467 170.95 40.92C171.11 41.08 171.19 41.32 171.19 41.64V49.62C171.19 49.9267 171.11 50.1667 170.95 50.34C170.803 50.5133 170.577 50.6 170.27 50.6ZM170.27 38.5C169.91 38.5 169.623 38.4067 169.41 38.22C169.21 38.02 169.11 37.76 169.11 37.44C169.11 37.0933 169.21 36.8333 169.41 36.66C169.623 36.4733 169.91 36.38 170.27 36.38C170.657 36.38 170.943 36.4733 171.13 36.66C171.33 36.8333 171.43 37.0933 171.43 37.44C171.43 37.76 171.33 38.02 171.13 38.22C170.943 38.4067 170.657 38.5 170.27 38.5Z" fill="#FAFAFA"/>
</svg>
