<svg width="262" height="114" viewBox="0 0 262 114" fill="none" xmlns="http://www.w3.org/2000/svg">
<path fill-rule="evenodd" clip-rule="evenodd" d="M51.3076 9.53324C52.6147 7.26931 51.839 4.37441 49.5751 3.06737L45.3621 0.634942C43.0981 -0.672142 40.2033 0.103541 38.8962 2.36746L36.4637 6.58057C35.1566 8.84445 35.9323 11.7394 38.1963 13.0464L46.5086 17.8455L41.7094 26.1578C40.4023 28.4217 37.5075 29.1975 35.2436 27.8904L31.0305 25.4579C28.7666 24.1508 25.8717 24.9265 24.5646 27.1904L14.9664 43.815C13.6593 46.0789 14.435 48.9738 16.699 50.2809L25.0113 55.08L17.8455 67.4916L9.53324 62.6928C7.26931 61.3853 4.37443 62.161 3.06735 64.425L0.63494 68.6385C-0.672139 70.9019 0.103537 73.7971 2.36746 75.104L6.58051 77.5365C8.84451 78.8434 11.7393 78.0677 13.0464 75.8036L17.8455 67.4916L26.1577 72.2903C28.4216 73.5973 29.1973 76.4925 27.8903 78.7565L25.4578 82.9694C24.1508 85.2334 24.9265 88.128 27.1904 89.4355L31.4034 91.8679C33.6674 93.1749 36.5622 92.3991 37.8693 90.1357L40.3017 85.9223C41.6088 83.6582 44.5037 82.8825 46.7676 84.1894L55.0798 88.9888L50.2808 97.3008C48.9737 99.5655 49.7494 102.46 52.0133 103.767L68.6379 113.365C70.9013 114.672 73.7965 113.896 75.1035 111.633L91.8679 82.5964C93.1749 80.3323 92.3992 77.4377 90.1351 76.1308L73.5104 66.5327C71.2469 65.2251 70.4706 62.3305 71.7782 60.0665L76.5775 51.7543L97.3008 63.7189C99.5649 65.0259 102.46 64.2507 103.766 61.9867L113.365 45.3621C114.672 43.0982 113.896 40.2033 111.633 38.8962L107.419 36.4638C105.155 35.1567 102.261 35.9324 100.953 38.1964L98.5209 42.4094C97.214 44.6733 94.3194 45.449 92.0553 44.1419L83.7433 39.3429L88.542 31.0305C89.849 28.7667 89.0739 25.8717 86.8092 24.5647L70.1851 14.9664C67.9211 13.6594 65.0265 14.435 63.7195 16.699L61.2865 20.9121C59.9796 23.1761 57.0848 23.9517 54.8208 22.6447L46.5086 17.8455L51.3076 9.53324ZM64.1657 44.5886L76.5775 51.7543L83.7433 39.3429L75.4306 34.5437C73.1666 33.2367 70.272 34.0123 68.965 36.2763L64.1657 44.5886ZM44.5885 49.8343L52.9007 54.6333C55.1647 55.9405 58.0595 55.1648 59.3666 52.9008L64.1657 44.5886L55.8535 39.7894C53.5895 38.4824 50.6946 39.258 49.3875 41.522L44.5885 49.8343ZM44.5885 49.8343L36.2762 45.0352C34.0123 43.7281 31.1174 44.5038 29.8103 46.7677L25.0113 55.08L33.3235 59.8791C35.5874 61.186 38.4823 60.4103 39.7894 58.1466L44.5885 49.8343ZM55.0798 88.9888L63.3924 93.7876C65.6558 95.0951 68.551 94.3194 69.8579 92.0553L72.2903 87.8425C73.5973 85.5784 72.8222 82.6838 70.5581 81.3763L66.3447 78.9445C64.0806 77.6364 61.186 78.4127 59.8791 80.6767L55.0798 88.9888Z" fill="#E3EBFF"/>
<path fill-rule="evenodd" clip-rule="evenodd" d="M77.5741 11.1595C79.3653 9.36889 79.3653 6.46577 77.5741 4.67517L74.2423 1.34295C72.4517 -0.447649 69.5482 -0.44765 67.7582 1.34295L64.4258 4.67517C62.6353 6.46577 62.6353 9.36889 64.4258 11.1595L71.0003 17.7338L64.4258 24.3082C62.6353 26.0989 59.732 26.0989 57.9413 24.3082L54.6091 20.976C52.8185 19.1854 49.9154 19.1854 48.1248 20.976L34.976 34.1248C33.1855 35.9154 33.1855 38.8185 34.976 40.6091L41.5504 47.1835L31.7339 57L25.1595 50.4256C23.3689 48.6351 20.4658 48.6351 18.6752 50.4256L15.343 53.7578C13.5523 55.5485 13.5523 58.4516 15.343 60.2425L18.6752 63.5743C20.4658 65.3648 23.3689 65.3648 25.1595 63.5743L31.7339 57L38.3083 63.5743C40.0988 65.3648 40.0988 68.2684 38.3083 70.0583L34.976 73.3914C33.1855 75.1813 33.1855 78.0843 34.976 79.8754L38.3083 83.2072C40.0988 84.9978 43.002 84.9978 44.7926 83.2072L48.1248 79.8754C49.9154 78.0843 52.8185 78.0843 54.6091 79.8754L61.1832 86.4498L54.6091 93.0237C52.8185 94.8148 52.8185 97.7178 54.6091 99.5083L67.7582 112.657C69.5482 114.448 72.4517 114.448 74.2423 112.657L97.2071 89.6919C98.9982 87.9013 98.9982 84.9978 97.2071 83.2072L84.0593 70.0583C82.2682 68.2684 82.2682 65.3648 84.0593 63.5743L90.6332 57L107.024 73.3914C108.815 75.1813 111.718 75.1813 113.508 73.3914L126.657 60.2425C128.448 58.4516 128.448 55.5485 126.657 53.7578L123.325 50.4256C121.534 48.6351 118.631 48.6351 116.841 50.4256L113.508 53.7578C111.718 55.5485 108.815 55.5485 107.024 53.7578L100.45 47.1835L107.024 40.6091C108.815 38.8185 108.815 35.9154 107.024 34.1248L93.8752 20.976C92.0853 19.1854 89.1811 19.1854 87.3912 20.976L84.0593 24.3082C82.2682 26.0989 79.3653 26.0989 77.5741 24.3082L71.0003 17.7338L77.5741 11.1595ZM80.8161 47.1835L90.6332 57L100.45 47.1835L93.8752 40.6091C92.0853 38.8185 89.1811 38.8185 87.3912 40.6091L80.8161 47.1835ZM61.1832 47.1835L67.7582 53.7578C69.5482 55.5485 72.4517 55.5485 74.2423 53.7578L80.8161 47.1835L74.2423 40.6091C72.4517 38.8185 69.5482 38.8185 67.7582 40.6091L61.1832 47.1835ZM61.1832 47.1835L54.6091 40.6091C52.8185 38.8185 49.9154 38.8185 48.1248 40.6091L41.5504 47.1835L48.1248 53.7578C49.9154 55.5485 52.8185 55.5485 54.6091 53.7578L61.1832 47.1835ZM61.1832 86.4498L67.7582 93.0237C69.5482 94.8148 72.4517 94.8148 74.2423 93.0237L77.5741 89.6919C79.3653 87.9013 79.3653 84.9978 77.5741 83.2072L74.2423 79.8754C72.4517 78.0843 69.5482 78.0843 67.7582 79.8754L61.1832 86.4498Z" fill="url(#paint0_linear_1736_17418)"/>
<path d="M204.795 66.8477C204.577 66.8477 204.378 66.7692 204.2 66.6115C204.041 66.4537 203.932 66.2765 203.872 66.0799L197.709 45.111C197.61 44.7566 197.64 44.4515 197.799 44.1955C197.958 43.9198 198.206 43.782 198.543 43.782C198.742 43.782 198.91 43.8312 199.049 43.9297C199.208 44.0084 199.327 44.1856 199.406 44.4613L205.152 64.1897H204.438L209.916 45.2291C209.956 45.0717 210.055 44.9437 210.214 44.8452C210.392 44.7271 210.571 44.668 210.75 44.668C210.949 44.668 211.127 44.7271 211.286 44.8452C211.445 44.9437 211.554 45.0815 211.613 45.2587L217.091 64.1897H216.377L222.123 44.3727C222.222 43.9789 222.51 43.782 222.986 43.782C223.324 43.782 223.562 43.91 223.701 44.1659C223.86 44.4219 223.89 44.7369 223.79 45.111L217.657 66.0799C217.578 66.3356 217.449 66.5329 217.27 66.6705C217.112 66.7887 216.933 66.8477 216.734 66.8477C216.496 66.8477 216.298 66.7786 216.139 66.641C215.98 66.4833 215.871 66.2966 215.811 66.0799L210.392 47.0602H211.107L205.748 66.0799C205.669 66.3161 205.54 66.5034 205.361 66.641C205.203 66.7786 205.014 66.8477 204.795 66.8477ZM228.925 66.8477C228.668 66.8477 228.449 66.7692 228.27 66.6115C228.111 66.4343 228.032 66.2175 228.032 65.9617V51.5789C228.032 51.3033 228.111 51.0867 228.27 50.9291C228.449 50.7717 228.668 50.6929 228.925 50.6929C229.203 50.6929 229.421 50.7717 229.58 50.9291C229.739 51.0867 229.819 51.3033 229.819 51.5789V65.9617C229.819 66.2175 229.739 66.4343 229.58 66.6115C229.421 66.7692 229.203 66.8477 228.925 66.8477ZM228.896 47.2965C228.519 47.2965 228.191 47.1685 227.913 46.9125C227.655 46.6369 227.526 46.3022 227.526 45.9084C227.526 45.4556 227.665 45.1209 227.943 44.9043C228.241 44.668 228.568 44.5499 228.925 44.5499C229.263 44.5499 229.57 44.668 229.848 44.9043C230.146 45.1209 230.295 45.4556 230.295 45.9084C230.295 46.3022 230.156 46.6369 229.878 46.9125C229.62 47.1685 229.293 47.2965 228.896 47.2965ZM236.972 61.7975L235.901 60.6161L246.797 50.7815C246.996 50.624 247.184 50.5452 247.363 50.5452C247.561 50.5452 247.75 50.6437 247.929 50.8405C248.107 51.0375 248.197 51.2343 248.197 51.4312C248.197 51.6281 248.097 51.8053 247.899 51.9628L236.972 61.7975ZM236.675 66.8477C236.416 66.8477 236.198 66.7692 236.02 66.6115C235.861 66.4343 235.781 66.2175 235.781 65.9617V44.668C235.781 44.3924 235.861 44.1758 236.02 44.0183C236.198 43.8608 236.416 43.782 236.675 43.782C236.952 43.782 237.171 43.8608 237.33 44.0183C237.488 44.1758 237.568 44.3924 237.568 44.668V65.9617C237.568 66.2175 237.488 66.4343 237.33 66.6115C237.171 66.7692 236.952 66.8477 236.675 66.8477ZM247.959 66.7001C247.76 66.8773 247.551 66.9464 247.333 66.9068C247.134 66.8873 246.956 66.7786 246.797 66.5819L239.741 58.0172L241.021 56.9835L248.078 65.5482C248.236 65.7449 248.306 65.9422 248.286 66.1389C248.286 66.3356 248.176 66.5229 247.959 66.7001ZM254.366 66.8477C254.108 66.8477 253.89 66.7692 253.711 66.6115C253.552 66.4343 253.473 66.2175 253.473 65.9617V51.5789C253.473 51.3033 253.552 51.0867 253.711 50.9291C253.89 50.7717 254.108 50.6929 254.366 50.6929C254.644 50.6929 254.862 50.7717 255.021 50.9291C255.18 51.0867 255.259 51.3033 255.259 51.5789V65.9617C255.259 66.2175 255.18 66.4343 255.021 66.6115C254.862 66.7692 254.644 66.8477 254.366 66.8477ZM254.336 47.2965C253.959 47.2965 253.631 47.1685 253.354 46.9125C253.096 46.6369 252.967 46.3022 252.967 45.9084C252.967 45.4556 253.106 45.1209 253.384 44.9043C253.681 44.668 254.009 44.5499 254.366 44.5499C254.703 44.5499 255.011 44.668 255.289 44.9043C255.587 45.1209 255.736 45.4556 255.736 45.9084C255.736 46.3022 255.596 46.6369 255.319 46.9125C255.061 47.1685 254.733 47.2965 254.336 47.2965Z" fill="#F3F3F3"/>
<path d="M139.91 46.1741H145.21V67.4383H139.91V46.1741ZM152.596 62.0041V57.7808H157.478C158.471 57.7808 159.265 57.5839 159.86 57.1901C160.475 56.7964 160.912 56.2746 161.17 55.6248C161.448 54.9751 161.587 54.2565 161.587 53.4689C161.587 52.4451 161.289 51.7067 160.694 51.2539C160.118 50.7813 159.364 50.5451 158.431 50.5451H152.596V46.1741H158.372C161.151 46.1741 163.254 46.8041 164.683 48.0642C166.113 49.3244 166.827 51.0767 166.827 53.3212C166.827 54.5223 166.629 55.6544 166.232 56.7176C165.855 57.7808 165.279 58.7062 164.505 59.4937C163.731 60.2811 162.768 60.9013 161.617 61.3543C160.485 61.7873 159.165 62.0041 157.657 62.0041H152.596ZM149.738 67.4383V46.1741H155.037V67.4383H149.738ZM170.09 67.4383V46.1741H174.556L181.969 58.2533L179.796 58.2829L187.09 46.1741H191.556V67.4383H186.287V53.7052L187.358 54.0005L182.089 62.6833H179.558L174.288 54.1186L175.39 53.8233V67.4383H170.09Z" fill="#E3EBFF"/>
<defs>
<linearGradient id="paint0_linear_1736_17418" x1="71.0003" y1="7.43581e-08" x2="71.0003" y2="114" gradientUnits="userSpaceOnUse">
<stop stop-color="#3796DA"/>
<stop offset="0.484375" stop-color="#627CCB"/>
<stop offset="1" stop-color="#975CB8"/>
</linearGradient>
</defs>
</svg>
