<svg width="212" height="91" viewBox="0 0 212 91" fill="none" xmlns="http://www.w3.org/2000/svg">
<path d="M32.2081 0.482609C32.1861 1.79883 30.0241 29.6807 29.9138 29.7684C29.8477 29.8342 28.9432 30.1633 27.8622 30.5362C26.8033 30.8872 25.2812 31.5234 24.487 31.9402L23.0751 32.686L18.3542 29.571L13.6333 26.4779L10.6552 29.4394L7.69906 32.4009L10.7213 36.9637C12.3759 39.4865 13.7436 41.6582 13.7436 41.7679C13.7657 41.8995 13.3465 42.8648 12.8391 43.9177C12.3317 44.9707 11.7361 46.4405 11.5376 47.1644C11.317 47.8883 10.9861 48.5245 10.8096 48.5684C10.6331 48.6342 8.11821 49.1387 5.25036 49.7091L0 50.7621V54.952V59.12L5.36067 60.195C8.29469 60.7872 10.8096 61.3137 10.9199 61.3576C11.0522 61.4015 11.317 62.0157 11.5376 62.7396C11.7361 63.4636 12.3317 64.9333 12.8391 65.9863C13.3465 67.0393 13.7657 68.0045 13.7436 68.1142C13.7436 68.2458 12.3759 70.3956 10.7213 72.9184L7.69906 77.5032L10.6552 80.4647L13.6333 83.4262L18.3542 80.3331L23.0531 77.24L24.8179 78.1174C25.7886 78.5781 27.3328 79.2143 28.2373 79.4995L29.8697 80.0259L30.9948 85.4663L32.0978 90.9286L36.3555 90.9944C38.6718 91.0163 40.5911 90.9725 40.5911 90.8847C40.5911 90.2924 42.7971 80.2014 42.9515 80.0698C43.0398 79.9821 43.8339 79.675 44.6722 79.4117C45.5326 79.1265 46.9886 78.5342 47.9372 78.0516L49.6358 77.218L54.2905 80.3111L58.9673 83.4042L61.9014 80.4866C63.5338 78.8633 64.8133 77.4374 64.7692 77.3058C64.7251 77.1741 63.3353 75.0463 61.7028 72.5674L58.7467 68.0922L59.585 66.447C60.0483 65.5476 60.688 64.0559 60.9969 63.1345C61.6808 61.1382 60.9528 61.4673 67.9018 60.0853L72.5786 59.1639V54.952V50.7401L67.3503 49.6872C64.4604 49.1168 61.9896 48.5903 61.8352 48.5464C61.6808 48.4806 61.3057 47.669 60.9969 46.7476C59.8277 43.2596 57.7981 39.9472 55.1068 37.1612L53.5846 35.6036L52.9449 26.9605C52.5919 22.2002 52.2389 17.7031 52.1727 16.9353L52.0183 15.5752H48.9519H45.8855V16.1675C45.8635 17.4618 44.8266 30.2949 44.7384 30.3827C44.6722 30.4485 44.1648 30.3388 43.6133 30.1413C42.8853 29.9 42.5765 29.6807 42.5765 29.3955C42.5765 28.7374 40.6131 2.39112 40.4808 1.14072L40.3484 -3.1369e-06H36.2672H32.2081V0.482609ZM42.2015 35.1868C48.2901 36.9857 52.9228 41.0879 55.4156 46.8792L56.0112 48.2613H36.3775H16.7438L16.8762 47.7567C17.2733 46.4186 18.9057 43.5668 20.1632 41.9873C23.0751 38.3677 27.1122 35.8888 31.7669 34.8578C34.5686 34.2436 39.5322 34.3971 42.2015 35.1868ZM64.5486 51.5299C67.4826 52.8461 67.5488 56.8386 64.6368 58.2864L63.6662 58.791H36.2672H8.89032L7.91967 58.2864C6.52987 57.5406 5.91218 56.4218 6.00042 54.7327C6.08866 53.1093 6.64017 52.2318 7.98585 51.5737L8.93444 51.1131H36.2893C62.4308 51.1131 63.6882 51.135 64.5486 51.5299ZM55.6583 62.4545C52.989 68.86 48.1578 73.1377 41.7382 74.8269C39.5322 75.4192 35.2304 75.6166 32.914 75.2437C27.9063 74.454 23.2957 71.7996 20.1852 67.9387C18.9498 66.4031 17.2512 63.4416 16.8762 62.1254L16.7438 61.6428H36.3775H56.0112L55.6583 62.4545Z" fill="#022B94"/>
<path d="M12.4862 51.9906C10.0595 52.7364 9.61834 56.1805 11.7803 57.5845C12.5082 58.0671 14.0525 58.0671 14.9349 57.6064C15.7511 57.2115 16.5453 55.8515 16.5453 54.9082C16.5453 52.9996 14.3613 51.4421 12.4862 51.9906ZM14.0083 54.952C14.0083 55.5005 13.9201 55.6101 13.4789 55.6101C12.773 55.6101 12.3979 54.9959 12.795 54.5133C12.9495 54.3159 13.3024 54.1842 13.5451 54.2281C13.898 54.272 14.0083 54.4475 14.0083 54.952Z" fill="#022B94"/>
<path d="M20.1632 52.0125C18.6189 52.4512 17.5821 54.3159 18.0674 55.7856C18.8395 58.0671 21.6192 58.7471 23.2516 57.058C24.84 55.4127 24.0679 52.6048 21.8618 51.9905C20.9573 51.7492 21.0676 51.7492 20.1632 52.0125ZM21.7295 54.623C21.9059 55.2153 21.4647 55.7637 20.8691 55.6759C20.4058 55.6101 20.1632 55.0617 20.3838 54.4913C20.5603 54.0087 21.575 54.0965 21.7295 54.623Z" fill="#022B94"/>
<path d="M27.7299 52.1002C26.6048 52.495 26.0753 52.9996 25.7885 53.9868C25.4356 55.0836 25.7224 56.3121 26.4504 57.0579C28.3917 58.9884 31.7669 57.6722 31.7669 54.9959C31.7669 52.846 29.7594 51.3982 27.7299 52.1002ZM29.3623 54.5352C29.7374 54.9959 29.3623 55.6101 28.6785 55.6101C27.9946 55.6101 27.6196 54.9959 27.9946 54.5352C28.1711 54.3377 28.4579 54.1842 28.6785 54.1842C28.8991 54.1842 29.1858 54.3377 29.3623 54.5352Z" fill="#022B94"/>
<path d="M35.3848 52.0124C34.9877 52.1221 34.37 52.5608 33.9729 53.0215C33.3111 53.7674 33.267 53.899 33.3552 55.1055C33.4214 56.1366 33.5758 56.5095 34.0832 57.036C35.7598 58.7909 38.5835 58.067 39.2895 55.6978C39.9734 53.5041 37.6791 51.3324 35.3848 52.0124ZM36.9511 54.952C36.9511 55.5004 36.8628 55.6101 36.4216 55.6101C35.7157 55.6101 35.3407 54.9958 35.7378 54.5132C35.8922 54.3158 36.2451 54.1842 36.4878 54.228C36.8408 54.2719 36.9511 54.4474 36.9511 54.952Z" fill="#022B94"/>
<path d="M43.2163 51.9905C42.1574 52.2976 41.4956 52.8899 41.1205 53.8771C39.9072 57.0579 44.0325 59.4929 46.3047 56.9044C46.9004 56.2463 46.9886 55.9611 46.9886 54.952C46.9886 53.9429 46.9004 53.6577 46.3047 52.9996C45.9297 52.5608 45.2679 52.1221 44.8267 51.9905C43.9222 51.7492 43.9884 51.7492 43.2163 51.9905ZM44.584 54.5352C44.959 54.9958 44.584 55.6101 43.8781 55.6101C43.3486 55.6101 43.0839 55.1055 43.3266 54.4913C43.481 54.0745 44.209 54.0964 44.584 54.5352Z" fill="#022B94"/>
<path d="M50.9594 51.9467C49.6137 52.1661 48.5328 53.5262 48.5328 54.996C48.5328 57.2335 51.0477 58.6814 53.1213 57.6064C54.0258 57.1458 54.5111 56.378 54.6435 55.2153C54.842 53.2191 53.011 51.5738 50.9594 51.9467ZM52.3051 54.5353C52.6801 54.996 52.3051 55.6102 51.6212 55.6102C50.9374 55.6102 50.5623 54.996 50.9374 54.5353C51.1138 54.3378 51.4006 54.1843 51.6212 54.1843C51.8418 54.1843 52.1286 54.3378 52.3051 54.5353Z" fill="#022B94"/>
<path d="M58.3276 52.0125C57.9305 52.1221 57.3128 52.5609 56.9378 52.9777C56.3421 53.6577 56.2539 53.9429 56.2539 54.952C56.2539 55.9611 56.3421 56.2463 56.9378 56.9263C58.5041 58.7032 61.1954 58.2426 62.122 56.0269C62.5411 55.0617 62.519 54.7107 61.9896 53.6358C61.3278 52.2757 59.7836 51.5737 58.3276 52.0125ZM59.8939 54.952C59.8939 55.4566 59.7836 55.6321 59.4306 55.6759C58.835 55.7637 58.3938 55.2153 58.5702 54.623C58.6805 54.272 58.8791 54.1842 59.2982 54.2281C59.8056 54.272 59.8939 54.4036 59.8939 54.952Z" fill="#022B94"/>
<path d="M75.4464 50.2353V59.2295H77.3215H79.1966V51.9903V44.7511H81.0717H82.9469V51.9903V59.2295H84.822H86.6971V50.2353V41.2412H81.0717H75.4464V50.2353Z" fill="#022B94"/>
<path d="M127.95 50.2353V59.2295H129.825H131.7V56.1583V53.0872H132.539C135.053 53.0872 137.282 51.5735 137.899 49.4456C138.627 46.9667 138.054 44.2904 136.487 42.7329C135.318 41.5483 134.105 41.2412 130.774 41.2412H127.95V50.2353ZM133.884 45.3215C134.237 45.7822 134.347 46.2209 134.347 47.2519C134.347 48.963 133.884 49.5772 132.583 49.5772H131.7V47.1642V44.7511H132.561C133.244 44.7511 133.531 44.8827 133.884 45.3215Z" fill="#022B94"/>
<path d="M93.6905 45.6289C93.3375 45.7386 92.9184 45.936 92.7198 46.0896C92.4551 46.3309 92.3448 46.3089 92.1904 46.0018C92.0139 45.7166 91.6609 45.6289 90.4476 45.6289H88.9034V54.8424V64.0559H90.6682H92.433V61.3138V58.5717L93.161 59.0104C94.0876 59.5808 94.97 59.5588 96.1833 58.9446C96.9995 58.5497 97.3084 58.2207 97.8378 57.1458C98.4776 55.8515 98.4996 55.7637 98.4996 52.4293C98.4996 49.0949 98.4776 49.0072 97.8378 47.7129C97.1319 46.3089 96.426 45.7605 95.0803 45.5631C94.6611 45.4973 94.0214 45.5411 93.6905 45.6289ZM94.5067 49.2485C95.1465 49.9066 95.2568 54.3378 94.6391 55.4786C94.3523 56.0489 93.4919 56.2683 92.8963 55.9392C92.4551 55.7199 92.433 55.5224 92.433 52.5829C92.433 50.4331 92.5213 49.3582 92.6978 49.1827C93.0728 48.8097 94.1096 48.8536 94.5067 49.2485Z" fill="#022B94"/>
<path d="M104.345 45.607C102.514 45.9799 101.058 47.5155 100.573 49.6653C100.441 50.3234 100.352 51.8152 100.419 53.2191C100.485 55.2812 100.595 55.7638 101.103 56.751C102.095 58.6595 103.992 59.6466 106.066 59.3615C109.155 58.9447 110.699 56.2903 110.478 51.7713C110.302 48.2394 108.956 46.1554 106.507 45.6509C105.912 45.5193 105.36 45.4315 105.272 45.4315C105.184 45.4534 104.765 45.5193 104.345 45.607ZM106.419 49.5557C107.191 51.0474 107.015 54.9302 106.132 55.8077C105.581 56.3561 104.72 56.1367 104.345 55.347C103.992 54.5573 103.794 52.1223 104.014 50.7841C104.279 48.8975 105.713 48.1736 106.419 49.5557Z" fill="#022B94"/>
<path d="M142.686 46.0675C141.672 46.243 140.922 46.7256 140.216 47.6689C139.201 48.9851 138.914 50.1259 138.892 52.8899C138.87 55.281 138.914 55.4785 139.532 56.7069C140.061 57.738 140.414 58.089 141.385 58.6374C142.775 59.4271 145.025 59.6465 146.812 59.1858L147.915 58.9006L147.871 58.0232C147.76 56.1805 147.826 56.2243 145.62 56.334C143.657 56.4218 143.635 56.4218 142.951 55.7637C142.554 55.3688 142.289 54.8642 142.289 54.5352V53.9648H145.378H148.466V52.3634C148.466 49.5336 147.54 47.4496 145.929 46.594C144.892 46.0456 143.812 45.8701 142.686 46.0675ZM144.473 49.5116C144.738 49.731 145.003 50.2794 145.091 50.7182C145.201 51.5298 145.201 51.5518 144.584 51.5518C144.231 51.5518 143.569 51.486 143.106 51.3982C142.289 51.2666 142.245 51.2446 142.378 50.5865C142.51 49.8846 143.216 49.1387 143.723 49.1387C143.878 49.1387 144.209 49.3142 144.473 49.5116Z" fill="#022B94"/>
<path d="M170.99 46.1112C169.622 46.4184 168.232 47.8443 167.725 49.5115C167.261 51.069 167.217 54.2937 167.636 55.7416C168.012 57.0358 168.982 58.2204 170.151 58.8347C171.299 59.427 173.747 59.5805 175.269 59.1857C176.35 58.9005 176.372 58.8785 176.35 58.1107C176.306 56.2461 176.284 56.2242 174.078 56.3339C172.115 56.4216 172.093 56.4216 171.409 55.7635C171.012 55.3686 170.747 54.8641 170.747 54.535V53.9647H173.858H176.99L176.858 51.8148C176.814 50.6522 176.593 49.336 176.417 48.9192C175.424 46.6597 173.394 45.6067 170.99 46.1112ZM173.063 49.687C173.416 50.016 173.615 50.4548 173.615 50.9154V51.6174L172.247 51.4639C171.497 51.398 170.857 51.2884 170.791 51.2225C170.593 51.0471 170.99 49.9941 171.409 49.5773C171.982 49.0069 172.424 49.0289 173.063 49.687Z" fill="#022B94"/>
<path d="M206.595 46.0016C205.404 46.199 205.095 46.3526 204.301 47.0546C203.838 47.4714 203.22 48.3489 202.933 48.985C202.47 49.9941 202.404 50.4548 202.404 52.8679C202.404 55.4345 202.448 55.6758 202.999 56.7507C204.213 59.0322 206.727 59.9096 210.059 59.2076C210.698 59.076 211.294 58.9005 211.382 58.8128C211.448 58.747 211.426 58.1327 211.294 57.4527L211.095 56.2242L209.463 56.3339C208.58 56.3778 207.588 56.3778 207.279 56.29C206.485 56.0926 205.823 55.3029 205.823 54.579V53.9647H208.911H212V52.5827C212 49.9064 211.029 47.4933 209.595 46.6597C208.867 46.2429 207.279 45.8919 206.595 46.0016ZM207.808 49.358C208.338 49.6431 208.823 51.069 208.514 51.3762C208.36 51.5297 207.808 51.5517 207.058 51.4639C205.933 51.3103 205.823 51.2445 205.823 50.7619C205.823 50.2135 206.705 49.1386 207.147 49.1386C207.279 49.1386 207.588 49.2263 207.808 49.358Z" fill="#022B94"/>
<path d="M112.331 52.0342C112.177 55.3248 112.067 58.2862 112.067 58.6153V59.2295H113.809H115.552L115.685 58.5495C115.751 58.1766 115.817 56.992 115.817 55.939C115.817 54.908 115.883 53.9647 115.971 53.8769C116.06 53.7892 116.457 54.9299 116.81 56.4216L117.494 59.1198L118.839 59.1857L120.163 59.2515L120.891 56.5093C121.288 54.9957 121.707 53.8111 121.795 53.8769C121.906 53.9427 121.994 54.8641 121.994 55.9171C121.994 56.992 122.06 58.1766 122.126 58.5495L122.281 59.2295H124.045H125.81L125.678 55.939C125.59 54.1182 125.457 51.1567 125.369 49.3579L125.237 46.0674H122.987H120.758L119.898 49.6212C119.435 51.5955 118.994 53.2846 118.927 53.4162C118.861 53.5259 118.398 51.9465 117.913 49.9063L117.008 46.1771L114.802 46.1112L112.596 46.0454L112.331 52.0342Z" fill="#022B94"/>
<path d="M150.672 52.6484V59.2295H157.952H165.232V52.6484V46.0673H163.467H161.702V51.0031V55.939H160.71H159.717V51.0031V46.0673H157.952H156.187V51.0031V55.939H155.305H154.422V51.0031V46.0673H152.547H150.672V52.6484Z" fill="#022B94"/>
<path d="M179.02 46.3525C178.954 46.5061 178.932 49.4237 178.954 52.8678L179.02 59.1198L180.851 59.1857L182.66 59.2515V56.8165V54.4034H183.763H184.866V56.8165V59.2295H186.741H188.616V52.6484V46.0674H186.741H184.866V48.5901V51.1129H183.763H182.66V48.5901V46.0674H180.895C179.66 46.0674 179.086 46.1551 179.02 46.3525Z" fill="#022B94"/>
<path d="M190.822 52.6484V59.2295H192.565H194.308L195.345 56.4216C195.918 54.886 196.47 53.482 196.58 53.3065C196.69 53.1091 196.778 54.2059 196.778 56.0925V59.2295H198.543H200.308V52.6484V46.0673H198.565H196.823L195.896 48.634C194.374 52.802 194.374 52.802 194.352 49.1824V46.0673H192.587H190.822V52.6484Z" fill="#022B94"/>
</svg>
