<svg width="315" height="88" viewBox="0 0 315 88" fill="none" xmlns="http://www.w3.org/2000/svg">
<g clip-path="url(#clip0_3_95)">
<path fill-rule="evenodd" clip-rule="evenodd" d="M37.7135 9.85353C38.6664 8.16975 38.1009 6.01668 36.4505 5.04457L33.3791 3.23546C31.7287 2.26333 29.6183 2.84024 28.6654 4.52402L26.8921 7.6575C25.9392 9.34128 26.5047 11.4943 28.1552 12.4664L34.2149 16.0358L30.7163 22.218C29.7634 23.9018 27.6531 24.4787 26.0026 23.5066L22.9312 21.6975C21.2808 20.7253 19.1704 21.3022 18.2175 22.986L11.2203 35.3505C10.2674 37.0343 10.8329 39.1873 12.4833 40.1595L18.5431 43.7288L13.3192 52.9598L7.25942 49.3906C5.609 48.4185 3.49859 48.9953 2.54571 50.679L0.772451 53.8127C-0.180429 55.4964 0.385051 57.6495 2.03548 58.6215L5.10685 60.4307C6.75732 61.4028 8.86769 60.8256 9.82058 59.1419L13.3192 52.9598L19.3789 56.529C21.0293 57.501 21.5948 59.6541 20.642 61.3383L18.8687 64.4715C17.9158 66.1553 18.4813 68.3083 20.1317 69.2804L23.2031 71.0896C24.8536 72.0616 26.9639 71.4849 27.9168 69.8012L29.6901 66.6675C30.643 64.9837 32.7533 64.407 34.4038 65.379L40.4635 68.9482L36.9649 75.1303C36.0121 76.8145 36.5776 78.9676 38.228 79.9397L50.3474 87.078C51.9978 88.0501 54.1082 87.4734 55.061 85.7896L67.2825 64.194C68.2353 62.5102 67.67 60.3572 66.0191 59.3851L53.8999 52.2467C52.2495 51.2742 51.6837 49.1212 52.637 47.4374L56.1354 41.2553L71.2432 50.1541C72.8936 51.1262 75.004 50.5495 75.9568 48.8657L82.9542 36.5011C83.907 34.8174 83.3417 32.6643 81.6913 31.6921L78.6197 29.883C76.9693 28.9109 74.8589 29.4878 73.9061 31.1716L72.1327 34.3051C71.1799 35.9888 69.0695 36.5658 67.4191 35.5937L61.3595 32.0243L64.858 25.8421C65.8108 24.1583 65.2455 22.0052 63.5947 21.0331L51.4754 13.8945C49.825 12.9224 47.7146 13.4993 46.7618 15.1831L44.9884 18.3165C44.0355 20.0003 41.9251 20.5772 40.2747 19.6051L34.2149 16.0358L37.7135 9.85353ZM47.0873 35.9258L56.1354 41.2553L61.3595 32.0243L55.2994 28.455C53.649 27.4829 51.5386 28.0598 50.5858 29.7436L47.0873 35.9258ZM32.8152 39.8273L38.8749 43.3966C40.5254 44.3688 42.6357 43.7918 43.5886 42.1081L47.0873 35.9258L41.0275 32.3565C39.3771 31.3844 37.2667 31.9612 36.3138 33.6451L32.8152 39.8273ZM32.8152 39.8273L26.7554 36.258C25.105 35.2858 22.9946 35.8628 22.0417 37.5465L18.5431 43.7288L24.6028 47.298C26.2533 48.27 28.3637 47.6933 29.3166 46.0096L32.8152 39.8273ZM40.4635 68.9482L46.5234 72.5174C48.1737 73.4899 50.2841 72.9128 51.237 71.229L53.0103 68.0958C53.9631 66.412 53.3978 64.259 51.7474 63.2864L48.6758 61.4777C47.0254 60.5052 44.915 61.0824 43.9622 62.7661L40.4635 68.9482Z" fill="#DDF0FC"/>
<path fill-rule="evenodd" clip-rule="evenodd" d="M56.9479 8.56818C58.2957 7.19339 58.2957 4.96437 56.9479 3.58956L54.4403 1.03111C53.0929 -0.343702 50.9077 -0.343703 49.5604 1.03111L47.0527 3.58956C45.7049 4.96437 45.7049 7.19339 47.0527 8.56818L52.0003 13.6159L47.0527 18.6637C45.7049 20.0385 43.5201 20.0385 42.1725 18.6637L39.6648 16.1053C38.3172 14.7304 36.1324 14.7304 34.7848 16.1053L24.8892 26.2008C23.5417 27.5756 23.5417 29.8046 24.8892 31.1794L29.837 36.2272L22.4493 43.7642L17.5015 38.7165C16.1539 37.3417 13.969 37.3417 12.6215 38.7165L10.1137 41.2749C8.76613 42.6498 8.76613 44.8788 10.1137 46.2537L12.6215 48.812C13.969 50.1866 16.1539 50.1866 17.5015 48.812L22.4493 43.7642L27.397 48.812C28.7446 50.1866 28.7446 52.416 27.397 53.7906L24.8892 56.3493C23.5417 57.7239 23.5417 59.9528 24.8892 61.3279L27.397 63.8862C28.7446 65.2608 30.9294 65.2608 32.277 63.8862L34.7848 61.3279C36.1324 59.9528 38.3172 59.9528 39.6648 61.3279L44.6123 66.3755L39.6648 71.423C38.3172 72.7981 38.3172 75.027 39.6648 76.402L49.5604 86.4972C50.9077 87.8723 53.0929 87.8723 54.4403 86.4972L71.7234 68.8647C73.0713 67.4901 73.0713 65.2608 71.7234 63.8862L61.8283 53.7906C60.4804 52.416 60.4804 50.1866 61.8283 48.812L66.7759 43.7642L79.1114 56.3493C80.4588 57.7239 82.644 57.7239 83.9913 56.3493L93.887 46.2537C95.2344 44.8788 95.2344 42.6498 93.887 41.2749L91.3789 38.7165C90.0315 37.3417 87.8468 37.3417 86.499 38.7165L83.9913 41.2749C82.644 42.6498 80.4588 42.6498 79.1114 41.2749L74.1634 36.2272L79.1114 31.1794C80.4588 29.8046 80.4588 27.5756 79.1114 26.2008L69.2158 16.1053C67.8684 14.7304 65.6833 14.7304 64.3359 16.1053L61.8283 18.6637C60.4804 20.0385 58.2957 20.0385 56.9479 18.6637L52.0003 13.6159L56.9479 8.56818ZM59.3879 36.2272L66.7759 43.7642L74.1634 36.2272L69.2158 31.1794C67.8684 29.8046 65.6833 29.8046 64.3359 31.1794L59.3879 36.2272ZM44.6123 36.2272L49.5604 41.2749C50.9077 42.6498 53.0929 42.6498 54.4403 41.2749L59.3879 36.2272L54.4403 31.1794C53.0929 29.8046 50.9077 29.8046 49.5604 31.1794L44.6123 36.2272ZM44.6123 36.2272L39.6648 31.1794C38.3172 29.8046 36.1324 29.8046 34.7848 31.1794L29.837 36.2272L34.7848 41.2749C36.1324 42.6498 38.3172 42.6498 39.6648 41.2749L44.6123 36.2272ZM44.6123 66.3755L49.5604 71.423C50.9077 72.7981 53.0929 72.7981 54.4403 71.423L56.9479 68.8647C58.2957 67.4901 58.2957 65.2608 56.9479 63.8862L54.4403 61.3279C53.0929 59.9528 50.9077 59.9528 49.5604 61.3279L44.6123 66.3755Z" fill="#3498DB"/>
<path fill-rule="evenodd" clip-rule="evenodd" d="M56.9479 8.56818C58.2957 7.19339 58.2957 4.96437 56.9479 3.58956L54.4403 1.03111C53.0929 -0.343702 50.9077 -0.343703 49.5604 1.03111L47.0527 3.58956C45.7049 4.96437 45.7049 7.19339 47.0527 8.56818L52.0003 13.6159L47.0527 18.6637C45.7049 20.0385 43.5201 20.0385 42.1725 18.6637L39.6648 16.1053C38.3172 14.7304 36.1324 14.7304 34.7848 16.1053L24.8892 26.2008C23.5417 27.5756 23.5417 29.8046 24.8892 31.1794L29.837 36.2272L22.4493 43.7642L17.5015 38.7165C16.1539 37.3417 13.969 37.3417 12.6215 38.7165L10.1137 41.2749C8.76613 42.6498 8.76613 44.8788 10.1137 46.2537L12.6215 48.812C13.969 50.1866 16.1539 50.1866 17.5015 48.812L22.4493 43.7642L27.397 48.812C28.7446 50.1866 28.7446 52.416 27.397 53.7906L24.8892 56.3493C23.5417 57.7239 23.5417 59.9528 24.8892 61.3279L27.397 63.8862C28.7446 65.2608 30.9294 65.2608 32.277 63.8862L34.7848 61.3279C36.1324 59.9528 38.3172 59.9528 39.6648 61.3279L44.6123 66.3755L39.6648 71.423C38.3172 72.7981 38.3172 75.027 39.6648 76.402L49.5604 86.4972C50.9077 87.8723 53.0929 87.8723 54.4403 86.4972L71.7234 68.8647C73.0713 67.4901 73.0713 65.2608 71.7234 63.8862L61.8283 53.7906C60.4804 52.416 60.4804 50.1866 61.8283 48.812L66.7759 43.7642L79.1114 56.3493C80.4588 57.7239 82.644 57.7239 83.9913 56.3493L93.887 46.2537C95.2344 44.8788 95.2344 42.6498 93.887 41.2749L91.3789 38.7165C90.0315 37.3417 87.8468 37.3417 86.499 38.7165L83.9913 41.2749C82.644 42.6498 80.4588 42.6498 79.1114 41.2749L74.1634 36.2272L79.1114 31.1794C80.4588 29.8046 80.4588 27.5756 79.1114 26.2008L69.2158 16.1053C67.8684 14.7304 65.6833 14.7304 64.3359 16.1053L61.8283 18.6637C60.4804 20.0385 58.2957 20.0385 56.9479 18.6637L52.0003 13.6159L56.9479 8.56818ZM59.3879 36.2272L66.7759 43.7642L74.1634 36.2272L69.2158 31.1794C67.8684 29.8046 65.6833 29.8046 64.3359 31.1794L59.3879 36.2272ZM44.6123 36.2272L49.5604 41.2749C50.9077 42.6498 53.0929 42.6498 54.4403 41.2749L59.3879 36.2272L54.4403 31.1794C53.0929 29.8046 50.9077 29.8046 49.5604 31.1794L44.6123 36.2272ZM44.6123 36.2272L39.6648 31.1794C38.3172 29.8046 36.1324 29.8046 34.7848 31.1794L29.837 36.2272L34.7848 41.2749C36.1324 42.6498 38.3172 42.6498 39.6648 41.2749L44.6123 36.2272ZM44.6123 66.3755L49.5604 71.423C50.9077 72.7981 53.0929 72.7981 54.4403 71.423L56.9479 68.8647C58.2957 67.4901 58.2957 65.2608 56.9479 63.8862L54.4403 61.3279C53.0929 59.9528 50.9077 59.9528 49.5604 61.3279L44.6123 66.3755Z" fill="url(#paint0_linear_3_95)"/>
<path d="M205.069 52.1993C203.38 52.1993 201.755 51.9232 200.196 51.3708C198.658 50.8184 197.467 50.0892 196.622 49.183L197.564 47.2939C198.387 48.1333 199.481 48.8183 200.846 49.3486C202.21 49.8572 203.618 50.1113 205.069 50.1113C207.105 50.1113 208.632 49.7353 209.65 48.984C210.668 48.2109 211.177 47.2163 211.177 46.001C211.177 45.0731 210.896 44.3328 210.332 43.7804C209.791 43.228 209.12 42.8081 208.318 42.5209C207.516 42.2115 206.401 41.8801 204.972 41.5265C203.261 41.0846 201.896 40.6647 200.878 40.267C199.86 39.8472 198.983 39.2174 198.247 38.3777C197.532 37.5381 197.175 36.4001 197.175 34.9638C197.175 33.7926 197.478 32.732 198.084 31.7818C198.69 30.8096 199.622 30.0362 200.878 29.4617C202.135 28.8872 203.694 28.5999 205.556 28.5999C206.856 28.5999 208.123 28.7877 209.358 29.1634C210.614 29.5169 211.697 30.0141 212.607 30.6549L211.794 32.6105C210.841 31.9696 209.823 31.4946 208.74 31.1852C207.658 30.8538 206.596 30.688 205.556 30.688C203.564 30.688 202.058 31.0858 201.041 31.8813C200.044 32.6546 199.546 33.66 199.546 34.8975C199.546 35.8255 199.817 36.5768 200.359 37.1513C200.922 37.7038 201.614 38.1346 202.438 38.444C203.282 38.7313 204.409 39.0517 205.817 39.4052C207.484 39.8251 208.827 40.2449 209.845 40.6647C210.884 41.0625 211.762 41.6812 212.476 42.5209C213.191 43.3384 213.549 44.4544 213.549 45.8683C213.549 47.0398 213.235 48.1112 212.607 49.0837C212 50.0336 211.058 50.7963 209.78 51.3708C208.502 51.9232 206.932 52.1993 205.069 52.1993Z" fill="#DDF0FC"/>
<path d="M224.447 54.0884L232.992 34.566H230.718L224.285 49.382L217.852 34.566H215.448L223.083 51.9674L222.336 53.6574C221.859 54.7184 221.339 55.4698 220.776 55.9116C220.235 56.3534 219.574 56.5745 218.794 56.5745C217.581 56.5745 216.542 56.1323 215.675 55.2487L214.604 57.0055C215.123 57.5358 215.74 57.9333 216.455 58.1987C217.17 58.4636 217.939 58.5963 218.762 58.5963C220.04 58.5963 221.133 58.2537 222.043 57.5687C222.953 56.8837 223.754 55.7239 224.447 54.0884Z" fill="#DDF0FC"/>
<path d="M241.28 52.166C239.894 52.166 238.562 51.9674 237.284 51.5694C236.028 51.1497 235.043 50.6302 234.328 50.0115L235.368 48.1554C236.082 48.7299 236.981 49.2051 238.064 49.581C239.147 49.9344 240.273 50.1113 241.443 50.1113C243.002 50.1113 244.15 49.868 244.887 49.382C245.645 48.8739 246.024 48.1667 246.024 47.2605C246.024 46.6197 245.818 46.1228 245.407 45.769C244.995 45.3936 244.475 45.1172 243.847 44.9405C243.219 44.7416 242.385 44.5538 241.345 44.377C239.959 44.1118 238.844 43.8467 237.999 43.5815C237.154 43.2942 236.429 42.8192 235.822 42.1562C235.238 41.4934 234.945 40.5764 234.945 39.4052C234.945 37.9468 235.541 36.7536 236.732 35.8255C237.923 34.8975 239.58 34.4335 241.703 34.4335C242.807 34.4335 243.912 34.5881 245.016 34.8975C246.121 35.1847 247.031 35.5714 247.746 36.0576L246.738 37.9468C245.331 36.9525 243.652 36.4553 241.703 36.4553C240.23 36.4553 239.115 36.7205 238.357 37.2508C237.62 37.7811 237.252 38.4772 237.252 39.3389C237.252 40.0018 237.458 40.5322 237.869 40.9299C238.302 41.3276 238.833 41.6259 239.461 41.8248C240.089 42.0016 240.956 42.1894 242.06 42.3883C243.425 42.6534 244.518 42.9186 245.342 43.1838C246.165 43.4489 246.869 43.9019 247.453 44.5427C248.038 45.1837 248.33 46.0673 248.33 47.1942C248.33 48.7191 247.702 49.9344 246.446 50.8401C245.212 51.7241 243.489 52.166 241.28 52.166Z" fill="#DDF0FC"/>
<path d="M260.62 51.8677C261.27 51.647 261.811 51.3374 262.244 50.9398L261.432 49.2493C261.107 49.5368 260.717 49.7575 260.263 49.9122C259.83 50.067 259.374 50.1442 258.898 50.1442C257.945 50.1442 257.209 49.8793 256.689 49.3486C256.191 48.7962 255.941 48.0011 255.941 46.9622V36.5547H261.14V34.566H255.941V30.7543H253.635V34.566H250.581V36.5547H253.635V47.0949C253.635 48.7078 254.068 49.9565 254.935 50.8401C255.801 51.7241 257.035 52.166 258.638 52.166C259.331 52.166 259.992 52.0667 260.62 51.8677Z" fill="#DDF0FC"/>
<path fill-rule="evenodd" clip-rule="evenodd" d="M281.37 44.0124H267.075C267.205 45.8245 267.888 47.2939 269.122 48.4208C270.356 49.5255 271.916 50.0779 273.8 50.0779C274.861 50.0779 275.836 49.8901 276.724 49.5147C277.612 49.1166 278.381 48.5422 279.031 47.7908L280.331 49.3157C279.572 50.2435 278.619 50.9507 277.471 51.4371C276.345 51.9232 275.1 52.166 273.735 52.166C271.981 52.166 270.421 51.7905 269.057 51.0391C267.714 50.2656 266.664 49.2051 265.905 47.8571C265.147 46.5091 264.769 44.9847 264.769 43.2832C264.769 41.5818 265.126 40.0571 265.84 38.7092C266.577 37.3613 267.573 36.3117 268.829 35.5604C270.107 34.8091 271.537 34.4335 273.118 34.4335C274.699 34.4335 276.118 34.8091 277.374 35.5604C278.63 36.3117 279.616 37.3613 280.331 38.7092C281.045 40.035 281.402 41.5597 281.402 43.2832L281.37 44.0124ZM273.118 36.4553C271.472 36.4553 270.086 36.9966 268.959 38.0794C267.855 39.1401 267.227 40.5322 267.075 42.2557H279.193C279.042 40.5322 278.403 39.1401 277.277 38.0794C276.172 36.9966 274.786 36.4553 273.118 36.4553Z" fill="#DDF0FC"/>
<path d="M313.096 36.3227C311.883 35.0632 310.204 34.4335 308.06 34.4335C306.544 34.4335 305.19 34.7649 303.999 35.4278C302.829 36.0686 301.93 36.9635 301.302 38.1126C300.782 36.8972 299.992 35.9802 298.931 35.3615C297.891 34.7428 296.656 34.4335 295.227 34.4335C293.819 34.4335 292.574 34.7207 291.491 35.2952C290.407 35.8698 289.563 36.6873 288.957 37.7479V34.566H286.747V52.0003H289.054V42.8523C289.054 40.8857 289.563 39.35 290.581 38.2451C291.62 37.1182 293.018 36.5548 294.772 36.5548C296.353 36.5548 297.566 37.0298 298.411 37.98C299.277 38.9301 299.71 40.3112 299.71 42.1231V52.0003H302.017V42.8523C302.017 40.8857 302.526 39.35 303.544 38.2451C304.562 37.1182 305.959 36.5548 307.735 36.5548C309.294 36.5548 310.496 37.0298 311.341 37.98C312.207 38.9301 312.64 40.3112 312.64 42.1231V52.0003H314.947V41.8911C314.947 39.4384 314.33 37.5822 313.096 36.3227Z" fill="#DDF0FC"/>
<path d="M120.624 28.7987H127.057V52.0003H120.624V28.7987Z" fill="#44AEFB"/>
<path fill-rule="evenodd" clip-rule="evenodd" d="M142.679 28.7987C144.737 28.7987 146.524 29.1522 148.04 29.8593C149.556 30.5443 150.726 31.5387 151.548 32.8424C152.372 34.124 152.783 35.6376 152.783 37.3833C152.783 39.1289 152.372 40.6425 151.548 41.9242C150.726 43.2057 149.556 44.2001 148.04 44.9072C146.524 45.5921 144.737 45.9347 142.679 45.9347H138.716V52.0003H132.283V28.7987H142.679ZM142.289 40.764C143.611 40.764 144.607 40.4768 145.278 39.9023C145.95 39.3057 146.285 38.466 146.285 37.3833C146.285 36.3005 145.95 35.4608 145.278 34.8642C144.607 34.2676 143.611 33.9693 142.289 33.9693H138.716V40.764H142.289Z" fill="#ABB3FF"/>
<path d="M177.037 39.7034L177.102 52.0003H183.015L182.95 28.7987H177.654L169.857 42.1893L161.865 28.7987H156.569V52.0003H162.514V40.0349L168.33 49.7132H171.189L177.037 39.7034Z" fill="#C58BFF"/>
</g>
<defs>
<linearGradient id="paint0_linear_3_95" x1="53.395" y1="85.3785" x2="44.1259" y2="27.0549" gradientUnits="userSpaceOnUse">
<stop stop-color="#9B59B6"/>
<stop offset="1" stop-color="#9B59B6" stop-opacity="0"/>
</linearGradient>
<clipPath id="clip0_3_95">
<rect width="314.947" height="88" fill="white"/>
</clipPath>
</defs>
</svg>
