<svg width="212" height="91" viewBox="0 0 212 91" fill="none" xmlns="http://www.w3.org/2000/svg">
<path d="M24.72 32.3826C25.4863 31.9805 26.9822 31.3547 28.0195 31.0108L28.0253 31.0089L28.0253 31.0089C28.5672 30.8219 29.0677 30.645 29.4425 30.5059C29.6292 30.4366 29.789 30.3752 29.9086 30.3257C29.9677 30.3013 30.0227 30.2773 30.0685 30.2552C30.0911 30.2443 30.1172 30.2311 30.143 30.2161L30.1437 30.2157C30.1601 30.2061 30.2145 30.1745 30.2664 30.123L30.2644 30.1209C30.297 30.0861 30.3295 30.0461 30.3426 30.0259C30.3538 30.0064 30.3707 29.9725 30.377 29.9579C30.389 29.929 30.3959 29.9047 30.399 29.8934C30.4058 29.8689 30.41 29.8468 30.4123 29.8346C30.4173 29.8073 30.4218 29.7761 30.4257 29.746C30.434 29.6837 30.4438 29.5974 30.4548 29.4915C30.4771 29.2785 30.5063 28.971 30.5412 28.5837C30.6111 27.8085 30.7048 26.7055 30.8141 25.3817C31.0327 22.7338 31.314 19.1984 31.5926 15.625C32.146 8.52476 32.692 1.23156 32.7079 0.5H36.2672H39.9031L39.9835 1.19335C39.9836 1.19407 39.9837 1.19479 39.9838 1.19552C40.0498 1.82427 40.5722 8.70222 41.0796 15.5273C41.3333 18.9397 41.5828 22.3333 41.7689 24.9148C41.862 26.2057 41.9392 27.293 41.993 28.078C42.02 28.4706 42.0411 28.7868 42.0554 29.0148C42.0626 29.1289 42.068 29.2199 42.0716 29.2869C42.0734 29.3205 42.0747 29.347 42.0755 29.3669C42.0763 29.3849 42.0764 29.3933 42.0765 29.3952L42.0765 29.3955C42.0765 29.7575 42.2873 30.0167 42.5305 30.1912C42.7611 30.3566 43.0776 30.4902 43.4505 30.6141C43.7399 30.7175 44.024 30.8004 44.2528 30.8495C44.3658 30.8738 44.48 30.8932 44.5809 30.8995C44.63 30.9026 44.6941 30.9039 44.7615 30.8947C44.8054 30.8886 44.9613 30.8661 45.091 30.7372C45.1457 30.6827 45.1745 30.6286 45.1846 30.6087C45.1978 30.5829 45.2063 30.5609 45.211 30.5479C45.2204 30.5219 45.2261 30.4996 45.2289 30.4881C45.235 30.4632 45.2394 30.4389 45.2424 30.4212C45.2487 30.3837 45.2552 30.3367 45.2617 30.2851C45.2749 30.18 45.291 30.0323 45.3096 29.8504C45.3467 29.4853 45.3948 28.9693 45.4498 28.3508C45.5599 27.1133 45.6986 25.459 45.8352 23.7678C46.1072 20.3986 46.3741 16.8438 46.3855 16.176L46.3856 16.1675L46.3855 16.0752H48.9519H51.5719L51.6752 16.9851C51.7425 17.769 52.0943 22.2509 52.4462 26.9974L53.086 35.6406L53.0994 35.8226L53.227 35.9531L54.7472 37.5086C54.7474 37.5089 54.7477 37.5092 54.748 37.5094C57.3896 40.2441 59.3784 43.4926 60.5228 46.9065C60.6819 47.381 60.8595 47.8321 61.0205 48.1786C61.1004 48.3505 61.1809 48.5068 61.2573 48.6302C61.295 48.6913 61.3382 48.7547 61.3858 48.811C61.4218 48.8535 61.5072 48.9502 61.6391 49.0064L61.6682 49.0188L61.6985 49.0274C61.8783 49.0785 64.3768 49.61 67.2532 50.1776C67.2533 50.1777 67.2534 50.1777 67.2534 50.1777L72.0786 51.1495V54.952V58.7528L67.8051 59.5947L67.8042 59.5949C67.177 59.7196 66.6106 59.8307 66.0995 59.931C65.2007 60.1074 64.4725 60.2502 63.8839 60.3749C62.9695 60.5684 62.3386 60.7281 61.8984 60.922C61.4212 61.1321 61.136 61.3964 60.9404 61.7856C60.8532 61.959 60.7886 62.1475 60.7287 62.3346C60.7092 62.3957 60.6901 62.4567 60.6706 62.5191C60.6271 62.6583 60.5815 62.8043 60.5239 62.9725L60.5228 62.9756C60.2229 63.8704 59.5934 65.3387 59.1405 66.218L59.1395 66.22L58.3012 67.8653L58.169 68.1248L58.3295 68.3678L61.2852 72.8424L24.72 32.3826ZM24.72 32.3826C24.7198 32.3827 24.7196 32.3828 24.7194 32.3829L23.3087 33.1281L23.0469 33.2664L22.7998 33.1034L18.0802 29.9892L18.0788 29.9883L13.6984 27.1183L11.009 29.7926L11.0077 29.7939L8.34137 32.4651L11.1382 36.6876L11.1394 36.6895C11.9679 37.9527 12.7252 39.1291 13.2761 40.0044C13.5512 40.4417 13.7764 40.8062 13.9335 41.0697C14.0117 41.2008 14.0756 41.3112 14.121 41.3948C14.1432 41.4358 14.1646 41.4769 14.1817 41.5138C14.19 41.5318 14.2008 41.5564 14.2106 41.5838L14.2112 41.5853C14.2151 41.596 14.2317 41.6417 14.2395 41.704C14.2493 41.7785 14.242 41.8409 14.2381 41.8696C14.2327 41.909 14.2245 41.9461 14.2167 41.9771C14.2011 42.0392 14.179 42.108 14.1546 42.1772C14.1054 42.3172 14.0345 42.4943 13.9501 42.6929C13.7805 43.0919 13.5453 43.6041 13.2896 44.1348C12.7874 45.177 12.2066 46.6154 12.0198 47.2967L12.0199 47.2967L12.0159 47.3102C11.8981 47.6966 11.7493 48.0656 11.6008 48.3517C11.5273 48.4934 11.4471 48.6279 11.3632 48.737C11.3213 48.7914 11.2707 48.85 11.2112 48.9019C11.1614 48.9453 11.0757 49.0107 10.9577 49.0461C10.8988 49.0652 10.8184 49.0842 10.7508 49.0999C10.6555 49.1221 10.5283 49.1501 10.3746 49.1831C10.0667 49.2491 9.64414 49.3365 9.13906 49.4395C8.1287 49.6453 6.78227 49.9142 5.34868 50.1993L24.72 32.3826ZM5.3479 50.1995L0.5 51.1717V54.952V58.7103L5.45897 59.7047L5.45961 59.7048C6.92748 60.0012 8.29089 60.2811 9.30155 60.4925C9.80672 60.5982 10.2247 60.687 10.5238 60.7522C10.6732 60.7848 10.7945 60.8118 10.8828 60.8323C10.9267 60.8425 10.9647 60.8516 10.9948 60.8593L10.9975 60.86C11.0129 60.8639 11.049 60.873 11.0844 60.8855C11.221 60.9328 11.3083 61.0228 11.3456 61.0639C11.3935 61.1166 11.4333 61.1742 11.4653 61.2254C11.53 61.329 11.5933 61.4566 11.6529 61.5915C11.7736 61.8644 11.9016 62.2188 12.0159 62.5939L12.016 62.5938L12.0198 62.6074C12.2066 63.2886 12.7874 64.7271 13.2896 65.7693C13.5453 66.3001 13.7803 66.8117 13.9496 67.2073C14.0338 67.4041 14.1044 67.5782 14.1533 67.7139C14.1774 67.7808 14.1994 67.847 14.2151 67.9061C14.2229 67.9353 14.2315 67.9716 14.2372 68.0104C14.2405 68.0323 14.2496 68.0943 14.2405 68.1709C14.234 68.2299 14.2195 68.2738 14.2149 68.2878L14.2145 68.2889C14.2048 68.3183 14.1938 68.3446 14.1852 68.3641C14.1676 68.404 14.1456 68.4474 14.1229 68.4899C14.0768 68.5765 14.0123 68.689 13.934 68.8209C13.7764 69.0863 13.5508 69.4507 13.2757 69.8865C12.7248 70.7592 11.9675 71.93 11.1394 73.1926L11.1388 73.1936L8.34072 77.4383L11.0077 80.1101L11.009 80.1115L13.6984 82.7858L18.0793 79.9154L18.0802 79.9148L22.7782 76.8223L23.0183 76.6643L23.2757 76.7922L25.0364 77.6677C25.9943 78.122 27.5132 78.7469 28.3876 79.0226L28.3907 79.0236L30.0232 79.5501L30.3004 79.6395L30.3594 79.9247L31.4844 85.365L31.4849 85.3673L32.5082 90.4349L36.3602 90.4944C36.3607 90.4944 36.3612 90.4944 36.3617 90.4944C37.5157 90.5054 38.5679 90.4999 39.3294 90.4809C39.6682 90.4724 39.9443 90.4614 40.1446 90.4484C40.1586 90.3645 40.1753 90.2698 40.1942 90.1658C40.2557 89.8281 40.3433 89.3811 40.4481 88.8641C40.658 87.8295 40.9392 86.5059 41.2249 85.1978C41.5106 83.8898 41.8014 82.5948 42.0308 81.6176C42.1453 81.1296 42.2452 80.7179 42.3218 80.4225C42.3598 80.2757 42.3934 80.1525 42.4211 80.0614C42.4346 80.0169 42.4489 79.9722 42.4636 79.9336C42.4706 79.915 42.4811 79.8887 42.4949 79.8609L42.4954 79.8599C42.4998 79.8506 42.5326 79.7814 42.599 79.7153L42.5989 79.7153C42.666 79.6486 42.7462 79.605 42.7771 79.5881L42.7773 79.588C42.8241 79.5625 42.8779 79.5367 42.9335 79.5115C43.0459 79.4606 43.1896 79.4019 43.3514 79.3398C43.6755 79.2154 44.0919 79.0699 44.5186 78.9359C45.3578 78.6574 46.7874 78.0756 47.7104 77.606L47.7104 77.6059L47.7169 77.6028L49.4155 76.7692L49.6733 76.6426L49.9125 76.8016L54.5664 79.8941L54.5673 79.8947L58.9035 82.7626L61.5488 80.1321C62.3603 79.3251 63.0816 78.5696 63.5924 78.0023C63.8487 77.7175 64.0469 77.4859 64.1758 77.3214C64.1806 77.3153 64.1853 77.3094 64.1898 77.3036C64.1578 77.2519 64.1205 77.1924 64.0782 77.1253C63.9179 76.8713 63.6904 76.5176 63.4122 76.089C62.8562 75.2323 62.1016 74.082 61.2856 72.843L5.3479 50.1995ZM56.4704 48.0634L56.7712 48.7613H56.0112H36.3775H16.7438H16.0957L16.2602 48.1344L16.3925 47.6298L16.3946 47.6221L16.3968 47.6145C16.6127 46.887 17.1447 45.7978 17.7628 44.7147C18.3857 43.623 19.1223 42.492 19.772 41.6759L19.7736 41.6739C22.7589 37.9631 26.8964 35.4245 31.6588 34.3696L31.6598 34.3694C33.1163 34.0501 35.1029 33.9351 37.0495 33.9961C38.9951 34.0571 40.9509 34.2954 42.3433 34.7074C48.5734 36.5481 53.323 40.7529 55.8749 46.6815L56.4704 48.0634ZM63.8968 59.2346L63.7884 59.291H63.6662H36.2672H8.89032H8.76813L8.65972 59.2346L7.68906 58.7301L7.68904 58.7301L7.68323 58.727C6.9217 58.3183 6.33944 57.789 5.96636 57.1019C5.59441 56.4168 5.45351 55.6175 5.5011 54.7066L5.50115 54.7055C5.54791 53.8454 5.71991 53.1272 6.09826 52.5252C6.4792 51.9191 7.03768 51.4808 7.76618 51.1246L7.76742 51.124L8.71602 50.6633L8.81946 50.6131H8.93444H36.2893C49.3578 50.6131 56.2125 50.6185 59.9068 50.6734C61.7509 50.7009 62.8226 50.7407 63.4906 50.8001C64.1677 50.8604 64.4699 50.9438 64.7554 51.0746C68.079 52.5676 68.1411 57.0987 64.8635 58.7321C64.8622 58.7328 64.8608 58.7335 64.8594 58.7341L63.8968 59.2346ZM19.7959 68.2524L19.7956 68.2521C19.1555 67.4564 18.4073 66.3077 17.7738 65.1976C17.1459 64.0974 16.6006 62.9831 16.3953 62.2624L16.394 62.2576L16.2616 61.775L16.0882 61.1428H16.7438H36.3775H56.0112H56.7739L56.4698 61.8422L56.1198 62.6468C56.1193 62.6479 56.1188 62.6491 56.1183 62.6503C53.3917 69.1908 48.4419 73.5796 41.8666 75.3101C40.7135 75.6195 39.0464 75.8192 37.3909 75.8967C35.7341 75.9742 34.0415 75.9316 32.8353 75.7375C27.7076 74.9286 22.9855 72.2114 19.7959 68.2524Z" fill="#022B94" stroke="#001037"/>
<path d="M12.0525 57.1651L12.0526 57.1651L12.0565 57.1677C12.305 57.3324 12.7606 57.4466 13.302 57.4492C13.8351 57.4517 14.3551 57.345 14.7035 57.1632L14.7102 57.1596L14.7171 57.1563C15.0008 57.019 15.3403 56.6734 15.616 56.2081C15.8896 55.7462 16.0453 55.2593 16.0453 54.9082C16.0453 54.1498 15.608 53.4221 14.9276 52.9344C14.2487 52.4477 13.3924 52.2477 12.6298 52.4695C10.6306 53.087 10.2308 55.9821 12.0525 57.1651ZM14.5083 54.952C14.5083 55.0969 14.5029 55.2411 14.4803 55.3717C14.4576 55.5026 14.411 55.6605 14.2986 55.8002C14.0579 56.0994 13.6889 56.1101 13.4789 56.1101C12.983 56.1101 12.5365 55.891 12.2981 55.5058C12.0499 55.1048 12.0792 54.5999 12.4052 54.2001C12.5552 54.011 12.7677 53.8852 12.9602 53.8125C13.1503 53.7406 13.3877 53.6953 13.6193 53.7335C13.8662 53.7662 14.1488 53.8634 14.3306 54.1485C14.4858 54.3918 14.5083 54.6911 14.5083 54.952Z" fill="#022B94" stroke="#001037"/>
<path d="M20.3029 52.4927L20.3029 52.4927C20.3409 52.4816 20.3766 52.4712 20.4102 52.4614C20.8168 52.3429 20.9167 52.3138 21.0194 52.3124C21.1231 52.3109 21.2242 52.3379 21.6537 52.4526C21.6781 52.4591 21.7036 52.4659 21.7302 52.473C23.5721 52.9878 24.2145 55.3407 22.8919 56.7108L20.3029 52.4927ZM20.3029 52.4927L20.2998 52.4936M20.3029 52.4927L20.2998 52.4936M20.2998 52.4936C19.6767 52.6706 19.1299 53.1459 18.7913 53.7554M20.2998 52.4936L18.7913 53.7554M18.7913 53.7554C18.4524 54.3652 18.3526 55.0528 18.5417 55.6273M18.7913 53.7554L18.5417 55.6273M18.5417 55.6273C19.2026 57.5762 21.5372 58.1123 22.8919 56.7108L18.5417 55.6273ZM22.2089 54.4813C22.4777 55.3858 21.7918 56.3165 20.7975 56.1709C20.3687 56.1095 20.0582 55.8218 19.909 55.4666C19.7624 55.1176 19.7663 54.7044 19.916 54.3149C20.02 54.0353 20.238 53.8638 20.4531 53.7734C20.6655 53.6842 20.8988 53.6613 21.1112 53.681C21.4954 53.7167 22.047 53.9312 22.2089 54.4813Z" fill="#022B94" stroke="#001037"/>
<path d="M26.2687 54.1261L26.2667 54.133L26.2645 54.1398C25.9654 55.0692 26.2164 56.1 26.8056 56.7059C28.4609 58.3476 31.2669 57.1857 31.2669 54.9957C31.2669 53.1851 29.5942 51.985 27.8944 52.5722C27.3685 52.7569 27.0295 52.9512 26.7926 53.1805C26.5613 53.4044 26.3944 53.6934 26.2687 54.1261ZM29.7351 54.2018L29.7428 54.2104L29.7501 54.2194C30.0756 54.6192 30.0849 55.122 29.8411 55.5108C29.606 55.8859 29.1701 56.11 28.6785 56.11C28.1869 56.11 27.751 55.8859 27.5158 55.5108C27.2721 55.122 27.2814 54.6192 27.6069 54.2194L27.6141 54.2104L27.6218 54.2018C27.7538 54.0542 27.9191 53.9304 28.0894 53.8419C28.255 53.7558 28.4622 53.6841 28.6785 53.6841C28.8948 53.6841 29.102 53.7558 29.2676 53.8419C29.4379 53.9304 29.6032 54.0542 29.7351 54.2018Z" fill="#022B94" stroke="#001037"/>
<path d="M35.5269 52.492L35.5269 52.4921L35.518 52.4946C35.4009 52.5269 35.2026 52.6262 34.9693 52.7926C34.7435 52.9537 34.5206 53.1522 34.3517 53.3482L34.3517 53.3482L34.347 53.3536C34.0053 53.7387 33.9081 53.8794 33.8619 54.0341C33.8105 54.2063 33.8081 54.4428 33.854 55.0693L33.8542 55.0737C33.8865 55.5764 33.9382 55.8659 34.0207 56.0813C34.0982 56.2835 34.2151 56.4525 34.4433 56.6893L34.4433 56.6893L34.4448 56.6908C35.8427 58.1541 38.2083 57.5757 38.8103 55.5553L38.8103 55.5553L38.8122 55.5493C39.0874 54.6663 38.7724 53.7665 38.1106 53.1411C37.4486 52.5156 36.4822 52.2089 35.5269 52.492ZM37.4511 54.9522C37.4511 55.0971 37.4457 55.2413 37.4231 55.3719C37.4004 55.5028 37.3538 55.6607 37.2414 55.8003C37.0007 56.0996 36.6317 56.1103 36.4217 56.1103C35.9258 56.1103 35.4793 55.8912 35.2409 55.506C34.9927 55.1049 35.022 54.6 35.348 54.2003C35.498 54.0112 35.7105 53.8854 35.903 53.8127C36.0931 53.7408 36.3305 53.6955 36.5621 53.7337C36.809 53.7664 37.0916 53.8635 37.2734 54.1487C37.4286 54.392 37.4511 54.6913 37.4511 54.9522Z" fill="#022B94" stroke="#001037"/>
<path d="M43.3654 52.4678L43.3655 52.4679L43.3556 52.4708C42.4382 52.7369 41.9039 53.2232 41.5879 54.0548L41.5877 54.0554C40.5889 56.674 43.9952 58.7777 45.929 56.5746L45.9289 56.5746L45.934 56.569C46.2205 56.2524 46.3349 56.0779 46.3974 55.8968C46.4638 55.7043 46.4886 55.4566 46.4886 54.9521C46.4886 54.4476 46.4638 54.1999 46.3974 54.0074C46.3349 53.8263 46.2205 53.6518 45.934 53.3352L45.9293 53.33L45.9247 53.3246C45.7735 53.1478 45.5512 52.9571 45.3103 52.7941C45.0695 52.6312 44.8439 52.5187 44.69 52.4716C44.205 52.3422 44.0806 52.3096 43.9718 52.3096C43.8751 52.3096 43.7905 52.335 43.3654 52.4678ZM44.9641 54.2104L44.9642 54.2103L44.9718 54.2196C45.2974 54.6196 45.3075 55.1245 45.0576 55.515C44.817 55.8909 44.3749 56.1102 43.8781 56.1102C43.4363 56.1102 43.0582 55.8879 42.8661 55.5058C42.6845 55.1446 42.7027 54.7128 42.8598 54.3122C43.043 53.8263 43.5271 53.6808 43.8891 53.6928C44.2673 53.7053 44.6788 53.8767 44.9641 54.2104Z" fill="#022B94" stroke="#001037"/>
<path d="M51.0488 52.4385L51.0489 52.4386L51.0399 52.4401C49.9637 52.6155 49.0328 53.7421 49.0328 54.9958C49.0328 56.8239 51.1191 58.081 52.8912 57.1624L52.8944 57.1608C53.6223 56.7901 54.0288 56.1875 54.1463 55.1623C54.3076 53.5171 52.7912 52.1218 51.0488 52.4385ZM52.6779 54.2019L52.6856 54.2105L52.6929 54.2195C53.0183 54.6193 53.0276 55.1221 52.7839 55.5109C52.5487 55.886 52.1128 56.1101 51.6212 56.1101C51.1296 56.1101 50.6937 55.886 50.4586 55.5109C50.2148 55.1221 50.2241 54.6193 50.5496 54.2195L50.5569 54.2105L50.5646 54.2019C50.6965 54.0543 50.8618 53.9305 51.0321 53.842C51.1977 53.7559 51.4049 53.6842 51.6212 53.6842C51.8375 53.6842 52.0447 53.7559 52.2103 53.842C52.3806 53.9305 52.5459 54.0543 52.6779 54.2019Z" fill="#022B94" stroke="#001037"/>
<path d="M58.4718 52.4913L58.4719 52.4914L58.4607 52.4945C58.3427 52.5271 58.1437 52.627 57.911 52.7898C57.6869 52.9464 57.4696 53.1348 57.3116 53.3098C57.0255 53.6368 56.9092 53.8172 56.8456 54.0033C56.7786 54.1995 56.7539 54.4483 56.7539 54.9521C56.7539 55.4559 56.7786 55.7048 56.8456 55.901C56.9093 56.0874 57.026 56.2682 57.3134 56.5964C58.6291 58.0883 60.8729 57.718 61.6607 55.8341L61.6606 55.8341L61.6633 55.8279C61.8672 55.3585 61.9247 55.1203 61.9123 54.9007C61.8992 54.669 61.8053 54.3932 61.5411 53.8568L61.54 53.8547C60.9827 52.7093 59.6867 52.1252 58.4718 52.4913ZM58.0911 54.4803L58.091 54.4803L58.0932 54.4732C58.17 54.2289 58.3093 53.979 58.5874 53.8341C58.8372 53.704 59.1139 53.7065 59.3457 53.7305C59.5954 53.7523 59.9476 53.802 60.1769 54.0888C60.2895 54.2297 60.3394 54.3873 60.3643 54.5254C60.3885 54.6604 60.3939 54.8074 60.3939 54.9521C60.3939 55.2131 60.3713 55.5124 60.2162 55.7557C60.0326 56.0435 59.7464 56.1398 59.4978 56.1715C58.5055 56.3138 57.8219 55.3838 58.0911 54.4803Z" fill="#022B94" stroke="#001037"/>
<path d="M83.1969 51.9908V58.98H84.8221H86.4472V50.2358V41.4917H81.0718H75.6964V50.2358V58.98H77.3215H78.9467V51.9908V44.7516V44.5016H79.1967H81.0718H82.9469H83.1969V44.7516V51.9908Z" fill="#022B94" stroke="#001037" stroke-width="0.5"/>
<path d="M130.774 41.4917H128.2V50.2358V58.98H129.825H131.45V56.1588V53.0876V52.8376H131.7H132.539C134.963 52.8376 137.078 51.3791 137.659 49.3764L137.659 49.3757C138.366 46.9682 137.801 44.3922 136.311 42.9107L136.309 42.909C135.754 42.346 135.197 41.9979 134.378 41.7853C133.546 41.5691 132.438 41.4917 130.774 41.4917ZM134.079 45.1653L134.079 45.1652L134.083 45.1699C134.278 45.4248 134.411 45.6809 134.491 46.0145C134.57 46.3401 134.598 46.7314 134.598 47.2524C134.598 48.1159 134.484 48.7704 134.152 49.2077C133.806 49.6653 133.269 49.8277 132.583 49.8277H131.7H131.45V49.5777V47.1647V44.7516V44.5016H131.7H132.561C132.915 44.5016 133.198 44.5349 133.446 44.6431C133.699 44.7533 133.89 44.9297 134.079 45.1653Z" fill="#022B94" stroke="#001037" stroke-width="0.5"/>
<path d="M90.4474 45.8786H89.1532V54.8422V63.8057H90.668H92.1829V61.3135V58.5714V58.1289L92.5619 58.3573L93.2899 58.796L93.2899 58.796L93.2919 58.7973C93.7211 59.0615 94.1265 59.1813 94.5588 59.1716C94.9963 59.1617 95.4825 59.0188 96.0702 58.7213L96.0702 58.7213L96.0742 58.7193C96.4683 58.5287 96.7186 58.3641 96.9342 58.1304C97.1541 57.8921 97.3509 57.568 97.6134 57.0351L97.6135 57.0348C97.9329 56.3887 98.0816 56.0745 98.161 55.5171C98.2433 54.9386 98.2495 54.1051 98.2495 52.4291C98.2495 50.7531 98.2433 49.9196 98.161 49.3411C98.0816 48.7839 97.933 48.4697 97.6139 47.8243C97.2692 47.1388 96.9367 46.6875 96.5451 46.3825C96.1566 46.0798 95.6889 45.9048 95.0438 45.8102L95.0413 45.8098C94.6593 45.7498 94.0592 45.7908 93.7594 45.869C93.4275 45.9728 93.0487 46.1541 92.8798 46.2816C92.811 46.3437 92.7396 46.4005 92.666 46.4404C92.5882 46.4826 92.4865 46.5173 92.3713 46.4975C92.255 46.4776 92.1709 46.4102 92.1125 46.3432C92.0582 46.2809 92.0128 46.2042 91.9725 46.1251C91.9296 46.059 91.8623 45.9981 91.6539 45.9523C91.4216 45.9013 91.0551 45.8786 90.4474 45.8786ZM94.6828 49.071L94.6828 49.0709L94.6858 49.074C94.8057 49.1973 94.8918 49.3822 94.9581 49.578C95.0267 49.7809 95.0837 50.0261 95.1303 50.2964C95.2237 50.8377 95.2788 51.5018 95.2942 52.1766C95.3096 52.8518 95.2852 53.5448 95.2172 54.1444C95.1505 54.7315 95.0386 55.2629 94.8605 55.594C94.677 55.9561 94.3227 56.1895 93.9465 56.2878C93.5699 56.3862 93.1408 56.3579 92.7801 56.1605C92.6592 56.1001 92.5297 56.0229 92.4302 55.875C92.3341 55.7322 92.2834 55.5498 92.2513 55.3147C92.1877 54.8491 92.1829 54.0425 92.1829 52.5826C92.1829 51.5059 92.2049 50.6919 92.2498 50.1225C92.2722 49.8385 92.3008 49.6086 92.337 49.4345C92.3551 49.3476 92.3763 49.2687 92.4021 49.2013C92.4262 49.1383 92.4623 49.0638 92.5213 49.0052C92.7824 48.7455 93.2225 48.6629 93.6034 48.6776C93.9886 48.6924 94.4208 48.8104 94.6828 49.071Z" fill="#022B94" stroke="#001037" stroke-width="0.5"/>
<path d="M104.397 45.8515L104.395 45.8517C102.678 46.2015 101.286 47.6472 100.818 49.7172C100.691 50.3488 100.603 51.8154 100.668 53.2071L100.669 53.2109C100.702 54.2426 100.746 54.86 100.84 55.3394C100.933 55.8092 101.077 56.1533 101.325 56.6359C102.27 58.4524 104.066 59.384 106.032 59.1136L106.033 59.1135C107.503 58.915 108.593 58.1901 109.297 56.9788C110.008 55.7559 110.338 54.017 110.229 51.7832C110.142 50.0432 109.767 48.6874 109.135 47.7116C108.507 46.743 107.617 46.1345 106.457 45.8955L106.457 45.8955L106.453 45.8947C106.16 45.8299 105.877 45.7758 105.657 45.738C105.547 45.7191 105.454 45.7044 105.384 45.6946C105.349 45.6897 105.32 45.6861 105.299 45.6839C105.296 45.6835 105.293 45.6833 105.291 45.683C105.237 45.694 105.154 45.7088 105.06 45.7256C105.033 45.7304 105.005 45.7353 104.977 45.7404C104.809 45.7705 104.603 45.8084 104.397 45.8515ZM104.12 55.454L104.12 55.454L104.117 55.4488C103.921 55.0104 103.782 54.165 103.716 53.2898C103.649 52.4069 103.653 51.4428 103.767 50.7462C103.907 49.7596 104.359 49.0158 104.938 48.7211C105.235 48.5702 105.564 48.5399 105.877 48.6675C106.186 48.7933 106.446 49.0592 106.641 49.441C106.853 49.8507 106.992 50.4054 107.072 51.0052C107.152 51.6093 107.175 52.2769 107.146 52.9232C107.116 53.5689 107.034 54.2004 106.9 54.7312C106.77 55.2506 106.58 55.7148 106.309 55.9847C105.97 56.3217 105.526 56.4278 105.111 56.321C104.699 56.2154 104.335 55.9075 104.12 55.454Z" fill="#022B94" stroke="#001037" stroke-width="0.5"/>
<path d="M142.73 46.3138L142.729 46.3139C141.786 46.477 141.089 46.9193 140.416 47.8187L140.416 47.8187L140.414 47.8216C139.923 48.4573 139.615 49.0411 139.424 49.7978C139.23 50.5629 139.153 51.5145 139.142 52.8919L139.142 52.8922C139.131 54.095 139.137 54.7173 139.218 55.1924C139.297 55.6536 139.446 55.9805 139.755 56.5937C140.015 57.1002 140.222 57.4203 140.473 57.6794C140.723 57.9387 141.03 58.1495 141.508 58.4197L141.508 58.42C142.832 59.1721 145.013 59.3912 146.749 58.9438C146.749 58.9438 146.749 58.9437 146.749 58.9437L147.655 58.7096L147.621 58.0381C147.621 58.0377 147.621 58.0373 147.621 58.037C147.618 57.9865 147.615 57.9377 147.612 57.8905C147.589 57.499 147.573 57.2191 147.536 57.009C147.496 56.7752 147.44 56.6907 147.381 56.6461C147.311 56.5936 147.179 56.5515 146.88 56.5424C146.615 56.5344 146.267 56.5519 145.791 56.5758C145.739 56.5784 145.687 56.581 145.633 56.5837L145.632 56.5838C145.143 56.6056 144.768 56.6224 144.473 56.6245C144.179 56.6265 143.949 56.6145 143.754 56.5731C143.341 56.4855 143.117 56.2701 142.783 55.9491L142.778 55.9438L142.778 55.9438L142.775 55.9409C142.559 55.7265 142.379 55.4817 142.251 55.2426C142.126 55.0086 142.039 54.7579 142.039 54.5352V53.9648V53.7148H142.289H145.378H148.216V52.3634C148.216 49.5722 147.302 47.6066 145.812 46.8149C144.823 46.2918 143.798 46.1262 142.73 46.3138ZM144.623 49.3112L144.623 49.311L144.633 49.3191C144.804 49.461 144.955 49.6886 145.072 49.9203C145.191 50.1569 145.287 50.4248 145.336 50.6689L145.338 50.6766L145.339 50.6845L145.339 50.6859C145.366 50.8839 145.388 51.0493 145.395 51.1782C145.401 51.2986 145.398 51.4443 145.325 51.5669C145.24 51.7113 145.099 51.7617 144.982 51.782C144.871 51.8012 144.731 51.8018 144.584 51.8018C144.213 51.8018 143.538 51.7343 143.062 51.6445C142.863 51.6124 142.695 51.5846 142.565 51.5501C142.438 51.5167 142.301 51.4664 142.202 51.3597C142.093 51.2414 142.068 51.0978 142.071 50.968C142.073 50.8453 142.1 50.6989 142.132 50.5387C142.209 50.1308 142.447 49.7281 142.727 49.4286C142.998 49.1386 143.364 48.8887 143.723 48.8887C143.802 48.8887 143.883 48.9098 143.95 48.9328C144.02 48.9571 144.095 48.9904 144.17 49.0282C144.319 49.1038 144.48 49.2048 144.623 49.3112Z" fill="#022B94" stroke="#001037" stroke-width="0.5"/>
<path d="M176.724 53.7147H173.858H170.747H170.497V53.9647V54.535C170.497 54.7578 170.584 55.0084 170.709 55.2425C170.836 55.4816 171.017 55.7263 171.233 55.9408L171.236 55.9437L171.236 55.9436L171.241 55.9489C171.575 56.2699 171.798 56.4853 172.212 56.5729C172.407 56.6143 172.637 56.6264 172.931 56.6243C173.225 56.6222 173.6 56.6055 174.089 56.5836L174.091 56.5835C174.647 56.5559 175.047 56.5377 175.345 56.5527C175.648 56.5679 175.792 56.6165 175.871 56.6787C175.941 56.7337 176.001 56.8323 176.04 57.0712C176.08 57.3129 176.089 57.644 176.101 58.1167L176.101 58.1179C176.106 58.3158 176.108 58.4386 176.095 58.5282C176.084 58.607 176.066 58.6333 176.047 58.6519C176.019 58.6801 175.959 58.7186 175.814 58.7696C175.672 58.8196 175.479 58.8718 175.206 58.9438C174.479 59.1325 173.514 59.1928 172.586 59.1309C171.654 59.0687 170.796 58.8857 170.267 58.6129C169.159 58.0304 168.233 56.901 167.877 55.672L176.724 53.7147ZM176.724 53.7147L176.608 51.8302L176.608 51.8302L176.608 51.8243C176.586 51.254 176.521 50.6442 176.44 50.1261C176.357 49.6007 176.262 49.1959 176.187 49.0181M176.724 53.7147L176.187 49.0181M176.187 49.0181C175.711 47.9345 174.992 47.1535 174.118 46.7007C173.243 46.248 172.195 46.1141 171.043 46.3556C169.783 46.6393 168.452 47.982 167.964 49.5835C167.742 50.33 167.616 51.4986 167.6 52.6711C167.583 53.8455 167.678 54.984 167.877 55.672L176.187 49.0181ZM173.587 51.8659L172.222 51.7126C171.843 51.6793 171.49 51.6348 171.221 51.5898C171.087 51.5673 170.97 51.544 170.88 51.5211C170.835 51.5097 170.792 51.4972 170.755 51.4834C170.731 51.4747 170.671 51.4523 170.622 51.4066C170.538 51.3304 170.508 51.2305 170.497 51.1575C170.484 51.0799 170.487 50.9975 170.497 50.9198C170.516 50.7632 170.567 50.5817 170.634 50.4024C170.768 50.0483 170.987 49.6438 171.233 49.4C171.537 49.0977 171.857 48.8987 172.227 48.9219C172.585 48.9444 172.91 49.1717 173.238 49.5084C173.636 49.8811 173.865 50.383 173.865 50.9154V51.6174V51.8971L173.587 51.8659Z" fill="#022B94" stroke="#001037" stroke-width="0.5"/>
<path d="M203.221 56.6352C204.364 58.7822 206.741 59.6515 210.007 58.9633L210.008 58.963C210.322 58.8984 210.624 58.8233 210.856 58.7544C210.972 58.7198 211.068 58.6878 211.137 58.6607C211.147 58.6564 211.157 58.6525 211.166 58.6487C211.17 58.5854 211.17 58.4934 211.163 58.3773C211.15 58.1427 211.113 57.8305 211.049 57.5007L211.049 57.5007L211.047 57.4928L210.885 56.4892L209.48 56.5836L209.48 56.5836L209.475 56.5838C209.03 56.606 208.556 56.6171 208.153 56.6116C207.765 56.6062 207.408 56.5856 207.215 56.532C206.762 56.4182 206.355 56.1395 206.062 55.7937C205.77 55.4483 205.573 55.0147 205.573 54.5792V53.965V53.715H205.823H208.912H211.75V52.5829C211.75 51.2734 211.512 50.0333 211.104 49.0243C210.693 48.0109 210.121 47.2552 209.471 46.8765C209.138 46.6864 208.588 46.5013 208.025 46.3776C207.457 46.2528 206.928 46.2018 206.635 46.2486C206.043 46.3469 205.697 46.4304 205.404 46.566C205.114 46.7005 204.861 46.8934 204.467 47.2414C204.034 47.632 203.436 48.4789 203.161 49.088L203.16 49.0896C202.935 49.5807 202.812 49.9236 202.742 50.4342C202.671 50.9573 202.654 51.6586 202.654 52.8681C202.654 54.1581 202.665 54.8383 202.742 55.3306C202.815 55.8049 202.949 56.1049 203.221 56.6352ZM207.029 51.7125L207.029 51.7125L207.025 51.7119C206.743 51.6735 206.518 51.6396 206.34 51.6022C206.165 51.5656 206.014 51.5216 205.895 51.4537C205.764 51.3792 205.673 51.2766 205.623 51.1396C205.579 51.0184 205.573 50.8849 205.573 50.7622C205.573 50.5673 205.648 50.3557 205.745 50.1647C205.844 49.9679 205.978 49.7669 206.126 49.5866C206.273 49.4067 206.439 49.24 206.603 49.1159C206.757 49 206.951 48.8888 207.147 48.8888C207.252 48.8888 207.391 48.92 207.52 48.9608C207.653 49.0029 207.802 49.0639 207.932 49.1409C208.117 49.2422 208.273 49.4246 208.396 49.6152C208.523 49.8131 208.632 50.0463 208.712 50.2774C208.792 50.5074 208.846 50.7467 208.859 50.9574C208.865 51.0627 208.86 51.1691 208.839 51.2672C208.817 51.3639 208.775 51.4701 208.691 51.5537C208.606 51.6379 208.492 51.6825 208.391 51.7091C208.283 51.7371 208.159 51.753 208.023 51.7604C207.753 51.7752 207.412 51.7572 207.029 51.7125Z" fill="#022B94" stroke="#001037" stroke-width="0.5"/>
<path d="M112.581 52.0453L112.581 52.0459C112.426 55.3396 112.317 58.2936 112.317 58.6153V58.9795H113.809H115.346L115.439 58.5038C115.501 58.1523 115.567 56.9896 115.567 55.939C115.567 55.4189 115.584 54.919 115.612 54.5359C115.626 54.345 115.643 54.1787 115.663 54.0518C115.673 53.9889 115.685 53.93 115.699 53.8803C115.706 53.8555 115.715 53.8282 115.727 53.8016C115.737 53.7789 115.757 53.7372 115.795 53.6996C115.832 53.6629 115.886 53.6312 115.953 53.6238C116.017 53.6167 116.069 53.6341 116.103 53.6508C116.162 53.6804 116.2 53.7258 116.215 53.7464C116.254 53.7953 116.287 53.8597 116.316 53.9218C116.378 54.0527 116.45 54.2443 116.528 54.4775C116.685 54.9465 116.875 55.6114 117.052 56.3621L117.69 58.8792L118.851 58.936L118.852 58.936L119.973 58.9917L120.649 56.4459C120.649 56.4458 120.649 56.4457 120.649 56.4456C120.849 55.6843 121.055 55.0035 121.223 54.5189C121.306 54.2778 121.382 54.0795 121.446 53.9428C121.476 53.877 121.509 53.8128 121.544 53.7641C121.559 53.7427 121.589 53.703 121.635 53.672C121.659 53.6557 121.702 53.6319 121.76 53.6258C121.82 53.6194 121.881 53.6341 121.932 53.6678C121.982 53.6999 122.011 53.7411 122.027 53.7656C122.045 53.7947 122.059 53.8245 122.069 53.8501C122.088 53.9015 122.104 53.9616 122.117 54.0235C122.144 54.1488 122.166 54.3136 122.185 54.5027C122.221 54.8827 122.244 55.3846 122.244 55.9171C122.244 56.986 122.31 58.1443 122.371 58.5002L122.48 58.9795H124.045H125.55L125.428 55.9511C125.428 55.9507 125.428 55.9504 125.428 55.95C125.386 55.088 125.335 53.9745 125.283 52.8495C125.225 51.5922 125.166 50.3207 125.119 49.3702L125.119 49.368L124.996 46.3174H122.986H120.955L120.141 49.6783C120.141 49.6786 120.141 49.6789 120.141 49.6792C119.909 50.6676 119.683 51.5848 119.506 52.272C119.417 52.6156 119.341 52.9026 119.283 53.1125C119.253 53.2173 119.228 53.3042 119.208 53.37C119.191 53.4262 119.17 53.4894 119.151 53.5285L119.146 53.5371L119.141 53.5454C119.115 53.5892 119.05 53.6644 118.935 53.6712C118.837 53.6769 118.771 53.6267 118.749 53.6082C118.703 53.5693 118.676 53.5197 118.665 53.5C118.636 53.4461 118.605 53.3707 118.574 53.287C118.511 53.1143 118.43 52.8568 118.337 52.5372C118.151 51.8961 117.913 50.9873 117.669 49.9647C117.669 49.9645 117.669 49.9644 117.669 49.9642L116.81 46.4213L114.795 46.3611L112.835 46.3027L112.581 52.0453ZM121.951 54.054C121.951 54.0542 121.951 54.0544 121.951 54.0545L121.951 54.054ZM119.108 53.2667C119.108 53.2666 119.107 53.2652 119.105 53.2628C119.107 53.2656 119.108 53.2668 119.108 53.2667Z" fill="#022B94" stroke="#001037" stroke-width="0.5"/>
<path d="M154.172 51.0036V46.3178H152.547H150.922V52.6489V58.98H157.952H164.982V52.6489V46.3178H163.467H161.952V51.0036V55.9394V56.1894H161.702H160.71H159.717H159.467V55.9394V51.0036V46.3178H157.952H156.437V51.0036V55.9394V56.1894H156.187H155.305H154.422H154.172V55.9394V51.0036Z" fill="#022B94" stroke="#001037" stroke-width="0.5"/>
<path d="M179.267 46.4538C179.262 46.4559 179.258 46.4579 179.254 46.4597C179.252 46.4827 179.249 46.5134 179.246 46.5523C179.24 46.649 179.234 46.7855 179.228 46.9589C179.217 47.3051 179.209 47.7897 179.204 48.3786C179.193 49.5558 179.193 51.1446 179.204 52.8657C179.204 52.8659 179.204 52.866 179.204 52.8662L179.267 58.8786L180.86 58.9358L180.86 58.9358L182.41 58.9922V56.8165V54.4034V54.1534H182.66H183.763H184.866H185.116V54.4034V56.8165V58.9795H186.741H188.366V52.6484V46.3174H186.741H185.116V48.5901V51.1129V51.3629H184.866H183.763H182.66H182.41V51.1129V48.5901V46.3174H180.895C180.28 46.3174 179.843 46.3394 179.557 46.3831C179.412 46.4051 179.32 46.4305 179.267 46.4538ZM179.232 46.4725C179.232 46.4725 179.233 46.4721 179.234 46.4713C179.233 46.4721 179.232 46.4725 179.232 46.4725Z" fill="#022B94" stroke="#001037" stroke-width="0.5"/>
<path d="M196.405 53.4157C196.404 53.413 196.404 53.4135 196.405 53.4164L196.405 53.4157ZM196.191 53.5545C196.261 53.3868 196.324 53.2474 196.364 53.1799C196.38 53.153 196.426 53.0814 196.518 53.0491C196.577 53.0282 196.642 53.0293 196.7 53.052C196.753 53.0724 196.788 53.1051 196.808 53.1278C196.845 53.1702 196.864 53.2171 196.874 53.2426C196.885 53.2733 196.894 53.3062 196.901 53.3383C196.929 53.4626 196.952 53.6565 196.97 53.9001C197.006 54.3943 197.028 55.1471 197.028 56.093V58.98H198.543H200.058V52.6489V46.3178H198.565H196.998L196.131 48.7193L196.131 48.7202L196.129 48.7261C195.75 49.7632 195.463 50.5478 195.247 51.0813C195.139 51.3479 195.046 51.5597 194.965 51.7118C194.924 51.7874 194.883 51.8557 194.84 51.9108C194.804 51.9578 194.74 52.0309 194.645 52.0646C194.59 52.0842 194.523 52.0908 194.453 52.0692C194.386 52.0485 194.339 52.0084 194.308 51.9721C194.251 51.9064 194.224 51.8245 194.207 51.7639C194.172 51.6337 194.152 51.4481 194.139 51.2254C194.111 50.7748 194.107 50.091 194.102 49.1949L194.102 49.1844V49.1829V46.3178H192.587H191.072V52.6489V58.98H192.565H194.133L195.11 56.3355L195.11 56.3346C195.397 55.5658 195.679 54.8293 195.903 54.2626C196.015 53.9793 196.113 53.7374 196.191 53.5545Z" fill="#022B94" stroke="#001037" stroke-width="0.5"/>
</svg>
