<svg width="244" height="105" viewBox="0 0 244 105" fill="none" xmlns="http://www.w3.org/2000/svg">
<path d="M37.0697 0.556863C37.0443 2.07557 34.5561 34.2469 34.4291 34.3482C34.353 34.4241 33.312 34.8038 32.0678 35.2341C30.8491 35.6391 29.0972 36.3731 28.1831 36.8541L26.5582 37.7147L21.1247 34.1204L15.6912 30.5514L12.2635 33.9685L8.86119 37.3856L12.3396 42.6505C14.2439 45.5613 15.8181 48.0672 15.8181 48.1938C15.8435 48.3456 15.3611 49.4594 14.7771 50.6743C14.1931 51.8893 13.5076 53.5852 13.2791 54.4205C13.0252 55.2558 12.6443 55.9898 12.4412 56.0404C12.2381 56.1164 9.3436 56.6985 6.04287 57.3567L0 58.5716V63.4062V68.2154L6.16982 69.4557C9.54672 70.1391 12.4412 70.7466 12.5682 70.7972C12.7205 70.8479 13.0252 71.5566 13.2791 72.3919C13.5076 73.2272 14.1931 74.9231 14.7771 76.138C15.3611 77.353 15.8435 78.4667 15.8181 78.5933C15.8181 78.7452 14.2439 81.2257 12.3396 84.1366L8.86119 89.4268L12.2635 92.8439L15.6912 96.261L21.1247 92.692L26.5328 89.123L28.564 90.1355C29.6812 90.667 31.4585 91.4011 32.4995 91.7301L34.3784 92.3376L35.6733 98.615L36.9428 104.918L41.8431 104.994C44.5091 105.019 46.718 104.968 46.718 104.867C46.718 104.184 49.257 92.5401 49.4348 92.3882C49.5363 92.287 50.4504 91.9326 51.4152 91.6289C52.4054 91.2998 54.0812 90.6164 55.1729 90.0596L57.128 89.0977L62.4853 92.6667L67.8681 96.2357L71.245 92.8692C73.1238 90.9961 74.5965 89.3508 74.5457 89.199C74.4949 89.0471 72.8953 86.5918 71.0164 83.7316L67.6142 78.568L68.579 76.6696C69.1122 75.6318 69.8485 73.9106 70.204 72.8475C70.9911 70.5441 70.1532 70.9238 78.1511 69.3292L83.5338 68.2661V63.4062V58.5463L77.5163 57.3313C74.1902 56.6732 71.3465 56.0657 71.1688 56.0151C70.9911 55.9392 70.5594 55.0026 70.204 53.9396C68.8583 49.915 66.5224 46.0929 63.4248 42.8783L61.6728 41.0811L60.9365 31.1083C60.5303 25.6156 60.124 20.4267 60.0479 19.5407L59.8701 17.9714H56.3409H52.8117V18.6548C52.7863 20.1482 51.5929 34.9557 51.4914 35.0569C51.4152 35.1328 50.8312 35.0063 50.1965 34.7785C49.3586 34.5001 49.0031 34.2469 49.0031 33.9179C49.0031 33.1585 46.7434 2.75899 46.5911 1.31622L46.4387 2.32413e-06H41.7415H37.0697V0.556863ZM48.5715 40.6002C55.5792 42.6758 60.9111 47.4091 63.7802 54.0914L64.4658 55.6861H41.8685H19.2712L19.4235 55.1039C19.8805 53.5599 21.7594 50.2693 23.2067 48.4469C26.5582 44.2704 31.2046 41.4102 36.5619 40.2205C39.7865 39.5118 45.4993 39.689 48.5715 40.6002ZM74.2918 59.4575C77.6687 60.9762 77.7449 65.583 74.3933 67.2536L73.2762 67.8358H41.7415H10.2323L9.11509 67.2536C7.5155 66.393 6.80458 65.1021 6.90614 63.1531C7.0077 61.28 7.64246 60.2675 9.19126 59.5082L10.283 58.9766H41.7669C71.8543 58.9766 73.3016 59.0019 74.2918 59.4575ZM64.0595 72.0628C60.9873 79.4539 55.4268 84.3897 48.0383 86.3387C45.4993 87.0221 40.5482 87.2499 37.8822 86.8196C32.1186 85.9084 26.8121 82.8457 23.2321 78.3908C21.8102 76.619 19.8552 73.2019 19.4235 71.6832L19.2712 71.1263H41.8685H64.4658L64.0595 72.0628Z" fill="#022B94"/>
<path d="M14.3711 59.9889C11.5781 60.8495 11.0703 64.8234 13.5586 66.4434C14.3965 67.0003 16.1738 67.0003 17.1894 66.4687C18.1288 66.0131 19.0429 64.4438 19.0429 63.3553C19.0429 61.1532 16.5292 59.3561 14.3711 59.9889ZM16.123 63.406C16.123 64.0388 16.0214 64.1653 15.5136 64.1653C14.7011 64.1653 14.2695 63.4566 14.7265 62.8997C14.9043 62.6719 15.3105 62.5201 15.5898 62.5707C15.996 62.6213 16.123 62.8238 16.123 63.406Z" fill="#022B94"/>
<path d="M23.2066 60.0144C21.4292 60.5206 20.2359 62.6721 20.7945 64.368C21.6831 67.0005 24.8823 67.7851 26.7612 65.8361C28.5893 63.9377 27.7006 60.6978 25.1616 59.9891C24.1206 59.7106 24.2476 59.7106 23.2066 60.0144ZM25.0093 63.0265C25.2124 63.7099 24.7046 64.3427 24.019 64.2415C23.4859 64.1655 23.2066 63.5327 23.4605 62.8746C23.6636 62.3178 24.8315 62.419 25.0093 63.0265Z" fill="#022B94"/>
<path d="M31.9154 60.1155C30.6205 60.5711 30.0111 61.1533 29.681 62.2923C29.2748 63.5579 29.6049 64.9754 30.4428 65.836C32.6771 68.0634 36.5618 66.5447 36.5618 63.4567C36.5618 60.9761 34.2513 59.3055 31.9154 60.1155ZM33.7943 62.9251C34.2259 63.4567 33.7943 64.1654 33.0072 64.1654C32.2201 64.1654 31.7884 63.4567 32.2201 62.9251C32.4232 62.6973 32.7533 62.5201 33.0072 62.5201C33.2611 62.5201 33.5911 62.6973 33.7943 62.9251Z" fill="#022B94"/>
<path d="M40.7261 60.0145C40.2691 60.1411 39.5581 60.6473 39.1011 61.1788C38.3394 62.0394 38.2886 62.1913 38.3902 63.5835C38.4664 64.7731 38.6441 65.2034 39.2281 65.8109C41.1577 67.8359 44.4077 67.0006 45.2202 64.2669C46.0073 61.7357 43.3667 59.2298 40.7261 60.0145ZM42.5288 63.4063C42.5288 64.0391 42.4272 64.1656 41.9194 64.1656C41.1069 64.1656 40.6753 63.4569 41.1323 62.9C41.3101 62.6722 41.7163 62.5204 41.9956 62.571C42.4018 62.6216 42.5288 62.8241 42.5288 63.4063Z" fill="#022B94"/>
<path d="M49.7396 59.9889C48.5209 60.3433 47.7592 61.0267 47.3275 62.1658C45.9311 65.836 50.679 68.6456 53.2942 65.6588C53.9798 64.8994 54.0813 64.5704 54.0813 63.406C54.0813 62.2417 53.9798 61.9126 53.2942 61.1533C52.8626 60.647 52.1009 60.1408 51.5931 59.9889C50.5521 59.7105 50.6282 59.7105 49.7396 59.9889ZM51.3138 62.9251C51.7454 63.4567 51.3138 64.1654 50.5013 64.1654C49.8919 64.1654 49.5872 63.5832 49.8665 62.8745C50.0443 62.3936 50.8821 62.4189 51.3138 62.9251Z" fill="#022B94"/>
<path d="M58.6513 59.9386C57.1025 60.1917 55.8584 61.761 55.8584 63.4569C55.8584 66.0387 58.7529 67.7093 61.1396 66.469C62.1806 65.9375 62.7391 65.0516 62.8915 63.71C63.12 61.4067 61.0126 59.5083 58.6513 59.9386ZM60.2001 62.9254C60.6318 63.4569 60.2001 64.1656 59.413 64.1656C58.6259 64.1656 58.1943 63.4569 58.6259 62.9254C58.8291 62.6976 59.1591 62.5204 59.413 62.5204C59.6669 62.5204 59.997 62.6976 60.2001 62.9254Z" fill="#022B94"/>
<path d="M67.1318 60.0146C66.6748 60.1412 65.9638 60.6474 65.5322 61.1283C64.8467 61.913 64.7451 62.242 64.7451 63.4064C64.7451 64.5707 64.8467 64.8998 65.5322 65.6844C67.3349 67.7347 70.4325 67.2032 71.4989 64.6467C71.9813 63.5329 71.9559 63.128 71.3466 61.8877C70.5849 60.3183 68.8076 59.5084 67.1318 60.0146ZM68.9345 63.4064C68.9345 63.9886 68.8076 64.1911 68.4013 64.2417C67.7158 64.3429 67.208 63.7101 67.4111 63.0267C67.538 62.6217 67.7666 62.5205 68.249 62.5711C68.8329 62.6217 68.9345 62.7736 68.9345 63.4064Z" fill="#022B94"/>
<path d="M86.8345 57.9639V68.3418H88.9926H91.1508V59.9889V51.636H93.309H95.4671V59.9889V68.3418H97.6253H99.7835V57.9639V47.5861H93.309H86.8345V57.9639Z" fill="#022B94"/>
<path d="M147.263 57.9639V68.3418H149.421H151.58V64.7981V61.2545H152.544C155.439 61.2545 158.003 59.508 158.714 57.0527C159.552 54.1925 158.892 51.1044 157.089 49.3073C155.744 47.9405 154.347 47.5861 150.513 47.5861H147.263V57.9639ZM154.093 52.2941C154.499 52.8256 154.626 53.3319 154.626 54.5215C154.626 56.4959 154.093 57.2046 152.595 57.2046H151.58V54.4203V51.636H152.57C153.357 51.636 153.687 51.7879 154.093 52.2941Z" fill="#022B94"/>
<path d="M107.832 52.6487C107.426 52.7753 106.944 53.0031 106.715 53.1802C106.411 53.4587 106.284 53.4334 106.106 53.079C105.903 52.7499 105.497 52.6487 104.1 52.6487H102.323V63.2797V73.9106H104.354H106.385V70.7467V67.5827L107.223 68.0889C108.289 68.747 109.305 68.7217 110.702 68.013C111.641 67.5574 111.996 67.1777 112.606 65.9374C113.342 64.444 113.367 64.3428 113.367 60.4954C113.367 56.648 113.342 56.5467 112.606 55.0533C111.793 53.4334 110.981 52.8006 109.432 52.5728C108.95 52.4968 108.213 52.5474 107.832 52.6487ZM108.772 56.8251C109.508 57.5845 109.635 62.6975 108.924 64.0137C108.594 64.6718 107.604 64.9249 106.918 64.5453C106.411 64.2921 106.385 64.0643 106.385 60.6725C106.385 58.192 106.487 56.9517 106.69 56.7492C107.122 56.3189 108.315 56.3695 108.772 56.8251Z" fill="#022B94"/>
<path d="M120.096 52.6234C117.988 53.0537 116.313 54.8255 115.754 57.3061C115.602 58.0654 115.5 59.7866 115.576 61.4066C115.652 63.7859 115.779 64.3428 116.363 65.4818C117.506 67.6839 119.689 68.823 122.076 68.4939C125.631 68.013 127.408 64.9502 127.154 59.736C126.951 55.6608 125.402 53.2562 122.584 52.674C121.898 52.5221 121.264 52.4209 121.162 52.4209C121.06 52.4462 120.578 52.5221 120.096 52.6234ZM122.482 57.1795C123.371 58.9007 123.168 63.3809 122.152 64.3934C121.518 65.0262 120.527 64.7731 120.096 63.8618C119.689 62.9506 119.461 60.141 119.715 58.597C120.019 56.4202 121.67 55.5849 122.482 57.1795Z" fill="#022B94"/>
<path d="M164.224 53.1547C163.056 53.3572 162.193 53.9141 161.38 55.0025C160.212 56.5212 159.882 57.8374 159.857 61.0267C159.832 63.7857 159.882 64.0135 160.593 65.431C161.203 66.6206 161.609 67.0256 162.726 67.6584C164.326 68.5696 166.915 68.8228 168.972 68.2912L170.241 67.9622L170.191 66.9497C170.064 64.8235 170.14 64.8741 167.601 65.0007C165.341 65.1019 165.316 65.1019 164.529 64.3426C164.072 63.887 163.767 63.3048 163.767 62.9251V62.267H167.322H170.876V60.4192C170.876 57.154 169.81 54.7494 167.956 53.7622C166.763 53.1294 165.519 52.9269 164.224 53.1547ZM166.281 57.1287C166.585 57.3818 166.89 58.0146 166.992 58.5208C167.119 59.4574 167.119 59.4827 166.408 59.4827C166.001 59.4827 165.24 59.4068 164.706 59.3055C163.767 59.1536 163.716 59.1283 163.869 58.369C164.021 57.559 164.833 56.6984 165.417 56.6984C165.595 56.6984 165.976 56.9009 166.281 57.1287Z" fill="#022B94"/>
<path d="M196.799 53.2053C195.225 53.5597 193.626 55.205 193.042 57.1287C192.508 58.9258 192.458 62.6466 192.94 64.3172C193.372 65.8106 194.489 67.1775 195.835 67.8862C197.155 68.5696 199.973 68.7468 201.725 68.2912C202.969 67.9621 202.995 67.9368 202.969 67.0509C202.918 64.8994 202.893 64.8741 200.354 65.0006C198.094 65.1019 198.069 65.1019 197.282 64.3425C196.825 63.8869 196.52 63.3047 196.52 62.9251V62.267H200.1H203.706L203.553 59.7864C203.502 58.4449 203.249 56.9262 203.045 56.4452C201.903 53.8381 199.567 52.6231 196.799 53.2053ZM199.186 57.3311C199.592 57.7108 199.821 58.2171 199.821 58.7486V59.5586L198.247 59.3814C197.383 59.3055 196.647 59.1789 196.571 59.103C196.342 58.9005 196.799 57.6855 197.282 57.2046C197.942 56.5465 198.45 56.5718 199.186 57.3311Z" fill="#022B94"/>
<path d="M237.779 53.0789C236.408 53.3067 236.053 53.4839 235.139 54.2938C234.605 54.7748 233.895 55.7872 233.564 56.5213C233.031 57.6856 232.955 58.2172 232.955 61.0015C232.955 63.963 233.006 64.2414 233.641 65.4817C235.037 68.1141 237.932 69.1266 241.765 68.3166C242.502 68.1647 243.187 67.9622 243.289 67.861C243.365 67.7851 243.34 67.0763 243.187 66.2917L242.959 64.8742L241.08 65.0008C240.064 65.0514 238.922 65.0514 238.566 64.9501C237.652 64.7223 236.891 63.8111 236.891 62.9758V62.2671H240.445H244V60.6724C244 57.5844 242.883 54.8001 241.232 53.8382C240.394 53.3573 238.566 52.9523 237.779 53.0789ZM239.176 56.9516C239.785 57.2806 240.344 58.9259 239.988 59.2803C239.81 59.4575 239.176 59.4828 238.312 59.3815C237.018 59.2043 236.891 59.1284 236.891 58.5715C236.891 57.9388 237.906 56.6985 238.414 56.6985C238.566 56.6985 238.922 56.7997 239.176 56.9516Z" fill="#022B94"/>
<path d="M129.287 60.0396C129.109 63.8364 128.982 67.2535 128.982 67.6331V68.3419H130.988H132.994L133.146 67.5572C133.223 67.1269 133.299 65.7601 133.299 64.5451C133.299 63.3554 133.375 62.267 133.476 62.1658C133.578 62.0645 134.035 63.3808 134.441 65.102L135.228 68.2153L136.777 68.2913L138.301 68.3672L139.139 65.2032C139.596 63.4567 140.078 62.0898 140.18 62.1658C140.306 62.2417 140.408 63.3048 140.408 64.5198C140.408 65.7601 140.484 67.1269 140.56 67.5572L140.738 68.3419H142.769H144.801L144.648 64.5451C144.547 62.4442 144.394 59.0271 144.293 56.9515L144.14 53.1548H141.551H138.986L137.996 57.2553C137.463 59.5334 136.955 61.4824 136.879 61.6342C136.803 61.7608 136.269 59.9383 135.711 57.5843L134.67 53.2813L132.131 53.2054L129.592 53.1295L129.287 60.0396Z" fill="#022B94"/>
<path d="M173.415 60.7482V68.3418H181.794H190.173V60.7482V53.1547H188.141H186.11V58.8499V64.545H184.968H183.825V58.8499V53.1547H181.794H179.763V58.8499V64.545H178.747H177.731V58.8499V53.1547H175.573H173.415V60.7482Z" fill="#022B94"/>
<path d="M206.042 53.4838C205.966 53.661 205.94 57.0275 205.966 61.0014L206.042 68.2153L208.149 68.2913L210.231 68.3672V65.5576V62.7733H211.501H212.77V65.5576V68.3419H214.928H217.086V60.7483V53.1548H214.928H212.77V56.0656V58.9765H211.501H210.231V56.0656V53.1548H208.2C206.778 53.1548 206.118 53.256 206.042 53.4838Z" fill="#022B94"/>
<path d="M219.625 60.7482V68.3418H221.631H223.637L224.83 65.1019C225.491 63.3301 226.125 61.7101 226.252 61.5076C226.379 61.2798 226.481 62.5454 226.481 64.7222V68.3418H228.512H230.543V60.7482V53.1547H228.537H226.532L225.465 56.1162C223.713 60.9254 223.713 60.9254 223.688 56.749V53.1547H221.657H219.625V60.7482Z" fill="#022B94"/>
</svg>
