<svg width="244" height="105" viewBox="0 0 244 105" fill="none" xmlns="http://www.w3.org/2000/svg">
<path d="M37.5697 0.565224L37.5698 0.556862L37.5697 0.5H41.7415H45.9932L46.0938 1.36872C46.0939 1.36958 46.094 1.37044 46.0941 1.37131C46.1703 2.0989 46.7717 10.0368 47.3556 17.9103C47.6476 21.8477 47.9348 25.7635 48.1489 28.7423C48.2561 30.2317 48.3449 31.4865 48.4069 32.3923C48.4379 32.8454 48.4622 33.2104 48.4787 33.4737C48.4869 33.6055 48.4932 33.7108 48.4974 33.7884C48.4984 33.8083 48.4993 33.8262 48.5001 33.842C48.5008 33.857 48.5014 33.8702 48.5019 33.8816L48.5029 33.909C48.5031 33.9154 48.5031 33.918 48.5031 33.918V33.9179C48.5031 34.3013 48.7249 34.5798 48.9937 34.7731C49.2498 34.9573 49.6053 35.1086 50.0331 35.2511C50.3642 35.3697 50.6883 35.4644 50.948 35.5204C51.0765 35.5481 51.2038 35.5695 51.3147 35.5765C51.3688 35.5799 51.4372 35.5812 51.5079 35.5715C51.5552 35.565 51.7135 35.5415 51.8444 35.411C51.8991 35.3565 51.9278 35.3022 51.938 35.2823C51.9512 35.2564 51.9597 35.2343 51.9644 35.2211C51.9739 35.1948 51.9797 35.1721 51.9827 35.16C51.989 35.134 51.9937 35.1081 51.997 35.0884C52.0041 35.0467 52.0114 34.9938 52.0188 34.9346C52.0338 34.8143 52.0523 34.6446 52.0737 34.4348C52.1164 34.0141 52.1716 33.4191 52.235 32.7056C52.3617 31.278 52.5213 29.3694 52.6785 27.4181C52.9917 23.5287 53.2985 19.4306 53.3116 18.6633L53.3117 18.6548L53.3117 18.4714H56.3409H59.4236L59.5503 19.5902C59.6276 20.492 60.0326 25.666 60.4379 31.1451L61.1742 41.1179L61.1876 41.2997L61.3148 41.4302L63.0647 43.2252C63.0652 43.2257 63.0657 43.2262 63.0661 43.2267C66.1137 46.3898 68.4089 50.1477 69.7298 54.0981C69.9121 54.6435 70.1155 55.1612 70.2994 55.5578C70.3907 55.7549 70.4819 55.9321 70.5675 56.0708C70.6099 56.1396 70.6573 56.2093 70.7088 56.2703C70.7486 56.3173 70.8374 56.4173 70.9723 56.4749L71.0014 56.4873L71.0318 56.496C71.2349 56.5539 74.1061 57.1663 77.4184 57.8216C77.4187 57.8217 77.419 57.8218 77.4193 57.8218L83.0338 58.9554V63.4062V67.8551L78.0542 68.8386L78.0533 68.8388C77.3306 68.9829 76.6784 69.1112 76.0899 69.2269C75.0561 69.4303 74.219 69.5949 73.5421 69.7386C72.4889 69.9621 71.7701 70.145 71.2715 70.3651C70.7359 70.6016 70.4222 70.8953 70.2061 71.3261C70.1087 71.5203 70.0358 71.7328 69.967 71.9484C69.9449 72.0179 69.9231 72.0878 69.9007 72.1596C69.8505 72.3206 69.7975 72.4907 69.7308 72.6858L69.7298 72.6889C69.3832 73.7255 68.6571 75.4234 68.1342 76.4411L68.1332 76.443L67.1684 78.3414L67.0368 78.6005L67.1966 78.8431L70.5985 84.0061L37.5697 0.565224ZM37.5697 0.565224C37.5566 1.34471 36.9259 9.79282 36.286 18.0228C35.9654 22.1459 35.6416 26.2251 35.39 29.2802C35.2642 30.8075 35.1564 32.08 35.076 32.9742C35.0358 33.421 35.0023 33.7754 34.9767 34.0206C34.964 34.1425 34.9529 34.2413 34.9435 34.3121C34.939 34.3464 34.934 34.3809 34.9286 34.4104C34.9261 34.4238 34.9217 34.4466 34.9149 34.4718C34.9117 34.4833 34.9047 34.5078 34.8927 34.5369C34.8863 34.5515 34.8695 34.5855 34.8583 34.605C34.8452 34.6253 34.8127 34.6654 34.7801 34.7002L34.7821 34.7023C34.7294 34.7549 34.6735 34.7874 34.6559 34.7977L34.6554 34.7979C34.628 34.8139 34.5998 34.8283 34.5747 34.8404C34.524 34.865 34.4621 34.892 34.3946 34.92C34.2583 34.9765 34.0754 35.047 33.8608 35.1269C33.4302 35.287 32.8548 35.491 32.2313 35.7067L32.2255 35.7086C31.0283 36.1064 29.3027 36.8301 28.4166 37.2962M37.5697 0.565224L28.4166 37.2962M28.4166 37.2962C28.4164 37.2963 28.4162 37.2964 28.416 37.2965L26.7922 38.1565L26.5299 38.2954L26.2823 38.1317L20.8502 34.5383L20.8488 34.5374L15.7563 31.1924L12.6178 34.3213L12.6165 34.3226L9.50286 37.4498L12.7568 42.3748L12.7581 42.3767C13.7114 43.834 14.5828 45.1909 15.2165 46.2004C15.533 46.7047 15.7918 47.1247 15.9721 47.428C16.0619 47.579 16.1348 47.7053 16.1864 47.8005C16.2117 47.8472 16.2354 47.8929 16.254 47.9333C16.2631 47.9529 16.2745 47.979 16.2846 48.0075L16.2852 48.0091C16.2894 48.0207 16.3066 48.0681 16.3143 48.1321C16.3239 48.2069 16.3166 48.2701 16.3125 48.3006C16.3068 48.3422 16.2981 48.3819 16.2895 48.416C16.2723 48.4844 16.2478 48.5612 16.2201 48.6401C16.1642 48.7994 16.0833 49.002 15.9865 49.2305C15.7919 49.6895 15.5218 50.2792 15.2278 50.8909C14.649 52.0951 13.9782 53.7597 13.7614 54.5524L13.7616 54.5525L13.7575 54.5659C13.6231 55.008 13.4536 55.4293 13.2851 55.7546C13.2016 55.9159 13.1117 56.0666 13.0189 56.1877C12.9726 56.248 12.9177 56.3114 12.8543 56.3669C12.8008 56.4137 12.7114 56.4815 12.5899 56.518C12.5267 56.5387 12.437 56.5601 12.3568 56.5788C12.2476 56.6042 12.1018 56.6364 11.925 56.6744C11.571 56.7505 11.085 56.8514 10.5037 56.9701C9.34083 57.2077 7.79096 57.518 6.14064 57.847L0.5 58.9811V63.4062V67.8059L6.26836 68.9655L6.269 68.9656C7.95832 69.3075 9.52735 69.6305 10.6904 69.8744C11.2717 69.9963 11.7525 70.0987 12.0965 70.1739C12.2683 70.2114 12.4075 70.2426 12.5087 70.2661C12.559 70.2778 12.6021 70.2882 12.6361 70.2969L12.6388 70.2976C12.6572 70.3022 12.6969 70.3123 12.7344 70.3257C12.873 70.3742 12.9626 70.4662 13.0027 70.5105C13.0536 70.5667 13.0967 70.6289 13.1322 70.6859C13.2039 70.8011 13.2751 70.9446 13.343 71.0986C13.4803 71.4099 13.6265 71.8157 13.7575 72.2465L13.7577 72.2464L13.7614 72.2599C13.9782 73.0527 14.649 74.7173 15.2278 75.9214C15.5218 76.5332 15.7918 77.1225 15.986 77.5775C16.0827 77.8041 16.1632 78.0034 16.2188 78.1579C16.2462 78.2342 16.2707 78.3082 16.288 78.3733C16.2965 78.4054 16.3056 78.4442 16.3116 78.485C16.3151 78.5086 16.3242 78.5719 16.3151 78.6494C16.3086 78.7095 16.2937 78.7547 16.2889 78.7695L16.2885 78.7705C16.2785 78.8011 16.2669 78.8288 16.2575 78.8502C16.2383 78.8937 16.214 78.9419 16.1883 78.9902C16.1361 79.0885 16.0625 79.2171 15.9726 79.369C15.7918 79.6743 15.5326 80.094 15.2161 80.5967C14.5823 81.6032 13.711 82.9537 12.7581 84.4103L12.7574 84.4113L9.50222 89.3619L12.6165 92.4898L12.6178 92.4911L15.7563 95.6199L20.8493 92.2747L20.8502 92.2741L26.2574 88.7057L26.4979 88.547L26.7558 88.6755L28.7829 89.686C29.8874 90.2112 31.6393 90.9339 32.6502 91.2534L32.6533 91.2544L34.5322 91.8619L34.8092 91.9514L34.868 92.2366L36.163 98.5139L36.1634 98.5162L37.3534 104.424L41.8478 104.494C41.8483 104.494 41.8488 104.494 41.8493 104.494C43.1782 104.506 44.3902 104.5 45.2678 104.478C45.6926 104.467 46.033 104.453 46.2687 104.436C46.2866 104.326 46.3091 104.197 46.3355 104.051C46.4061 103.663 46.5068 103.147 46.6274 102.551C46.8689 101.358 47.1924 99.831 47.5212 98.3218C47.85 96.8128 48.1846 95.319 48.4484 94.1921C48.5802 93.6291 48.695 93.1547 48.7829 92.8148C48.8266 92.6457 48.865 92.5048 48.8964 92.4012C48.9117 92.3504 48.9277 92.3009 48.9436 92.2587C48.9513 92.2384 48.9624 92.2107 48.9766 92.1818L48.9772 92.1807C48.9821 92.1703 49.0152 92.1006 49.0818 92.0342L49.0817 92.0342C49.1506 91.9655 49.2343 91.9196 49.2699 91.9001C49.3215 91.872 49.3815 91.843 49.4448 91.8143C49.5722 91.7565 49.7361 91.6893 49.9217 91.6179C50.2932 91.4749 50.7713 91.3075 51.2612 91.1532C52.2302 90.8309 53.8796 90.1579 54.9458 89.6142L54.9457 89.6141L54.9522 89.6109L56.9073 88.6491L57.1656 88.522L57.4052 88.6816L62.7616 92.25L62.7625 92.2506L67.8041 95.5934L70.892 92.5151C71.8266 91.5833 72.6579 90.7105 73.2469 90.0545C73.5424 89.7255 73.7718 89.4568 73.9218 89.265C73.9397 89.2421 73.956 89.2209 73.9709 89.2013C73.9281 89.1315 73.8756 89.0473 73.8139 88.9492C73.6292 88.6557 73.3671 88.2473 73.0469 87.7526C72.4068 86.7639 71.5381 85.4364 70.5989 84.0067L28.4166 37.2962ZM64.9251 55.4886L65.225 56.1861H64.4658H41.8685H19.2712H18.6235L18.7875 55.5595L18.9398 54.9773L18.9418 54.9696L18.9441 54.962C19.1898 54.1317 19.7983 52.8814 20.5092 51.6325C21.2249 50.375 22.0705 49.0735 22.8151 48.1359L22.8167 48.1339C26.2414 43.8663 30.9883 40.946 36.4535 39.7324L36.4546 39.7322C38.1226 39.3656 40.4024 39.2328 42.6395 39.3031C44.8758 39.3734 47.1197 39.6481 48.7137 40.1208C55.8631 42.2384 61.3116 47.0746 64.2396 53.8939C64.2396 53.894 64.2396 53.8941 64.2397 53.8942L64.9251 55.4886ZM73.5072 68.2792L73.3986 68.3358H73.2762H41.7415H10.2323H10.1098L10.0012 68.2792L8.88402 67.697L8.884 67.697L8.87819 67.6939C8.01166 67.2277 7.3538 66.6265 6.93302 65.8496C6.51341 65.0748 6.35259 64.1677 6.40682 63.127L6.40687 63.126C6.46027 62.1411 6.65634 61.3269 7.08235 60.6474C7.511 59.9637 8.14097 59.4662 8.97115 59.0592L8.97239 59.0586L10.0642 58.5271L10.1678 58.4766H10.283H41.7669C56.8083 58.4766 64.697 58.4829 68.9482 58.5463C71.0708 58.5779 72.3018 58.6239 73.0675 58.6922C73.8421 58.7612 74.1807 58.8563 74.4987 59.0023C78.265 60.6978 78.337 65.8428 74.6204 67.6991C74.6191 67.6997 74.6177 67.7004 74.6164 67.7011L73.5072 68.2792ZM22.8423 78.704L22.8421 78.7037C22.1088 77.7899 21.2499 76.4682 20.5219 75.1894C19.7995 73.9204 19.1761 72.6416 18.9425 71.8199L18.9412 71.8151L18.7889 71.2582L18.616 70.6263H19.2712H41.8685H64.4658H65.2277L64.9245 71.3253L64.5212 72.2547C64.5207 72.2559 64.5203 72.2571 64.5198 72.2582C61.3905 79.784 55.7117 84.8313 48.167 86.8219C46.8473 87.1769 44.9345 87.407 43.0313 87.4963C41.1268 87.5856 39.1843 87.5362 37.8032 87.3134C31.9193 86.3829 26.5012 83.2571 22.8423 78.704Z" fill="#022B94" stroke="#001037"/>
<path d="M13.8314 66.0244L13.8314 66.0244L13.8353 66.027C14.1386 66.2286 14.6798 66.3613 15.3097 66.3642C15.9313 66.3671 16.5427 66.2428 16.9575 66.0257L16.9643 66.0222L16.9712 66.0188C17.3165 65.8514 17.7168 65.4384 18.038 64.8949C18.3571 64.355 18.5429 63.7793 18.5429 63.3553C18.5429 62.4496 18.0226 61.5886 17.2245 61.015C16.4278 60.4425 15.4186 60.2041 14.515 60.4677C12.1498 61.1996 11.682 64.625 13.8314 66.0244ZM16.623 63.406C16.623 63.5719 16.6168 63.7329 16.5919 63.8769C16.5669 64.0211 16.5167 64.1888 16.3987 64.3359C16.1464 64.6503 15.7571 64.6653 15.5136 64.6653C14.9639 64.6653 14.4766 64.4221 14.2185 64.004C13.9509 63.5704 13.9808 63.0238 14.3364 62.587C14.4979 62.3826 14.7295 62.2441 14.9429 62.1632C15.1539 62.0833 15.4139 62.0344 15.6643 62.0761C15.9378 62.1122 16.2381 62.2179 16.4306 62.5206C16.5963 62.7811 16.623 63.1063 16.623 63.406Z" fill="#022B94" stroke="#001037"/>
<path d="M23.3466 60.4944L23.3466 60.4944C23.3956 60.4801 23.4413 60.4667 23.4841 60.4542C23.9363 60.322 24.0622 60.2851 24.191 60.2834C24.321 60.2816 24.4485 60.3157 24.9223 60.4426C24.9562 60.4517 24.992 60.4613 25.0297 60.4714C27.2038 61.0802 27.9648 63.8651 26.4012 65.4891L23.3466 60.4944ZM23.3466 60.4944L23.3435 60.4953M23.3466 60.4944L23.3435 60.4953M23.3435 60.4953C22.6042 60.7058 21.9598 61.2695 21.5619 61.9875M23.3435 60.4953L21.5619 61.9875M21.5619 61.9875C21.1637 62.7058 21.0429 63.522 21.2688 64.2099M21.5619 61.9875L21.2688 64.2099M21.2688 64.2099C22.0468 66.5104 24.8008 67.1492 26.4012 65.4891L21.2688 64.2099ZM25.4889 62.8851C25.7834 63.8785 25.0335 64.8958 23.9473 64.7363C23.483 64.6697 23.1461 64.3578 22.9834 63.9696C22.8233 63.5875 22.8264 63.1316 22.9925 62.6985C23.1029 62.4005 23.3353 62.2157 23.5691 62.1172C23.8001 62.0199 24.056 61.9942 24.2908 62.0161C24.7202 62.0561 25.3155 62.2947 25.4889 62.8851Z" fill="#022B94" stroke="#001037"/>
<path d="M30.1613 62.4315L30.1593 62.4383L30.1571 62.4451C29.8045 63.5438 30.099 64.7639 30.7984 65.4845C32.745 67.4209 36.0618 66.0605 36.0618 63.4567C36.0618 61.3136 34.0847 59.8932 32.0803 60.5875C31.4696 60.8025 31.0682 61.0313 30.7846 61.3065C30.5065 61.5762 30.3087 61.9226 30.1613 62.4315ZM34.1675 62.5923L34.1751 62.601L34.1824 62.6099C34.5358 63.0451 34.5449 63.5887 34.2817 64.0097C34.0268 64.4173 33.5509 64.6654 33.0072 64.6654C32.4634 64.6654 31.9875 64.4173 31.7327 64.0097C31.4694 63.5887 31.4786 63.0451 31.8319 62.6099L31.8392 62.601L31.8469 62.5923C31.9921 62.4295 32.1748 62.2921 32.3635 62.1938C32.5474 62.0979 32.774 62.0201 33.0072 62.0201C33.2404 62.0201 33.4669 62.0979 33.6508 62.1938C33.8395 62.2921 34.0222 62.4295 34.1675 62.5923Z" fill="#022B94" stroke="#001037"/>
<path d="M40.8685 60.4938L40.8685 60.4939L40.8595 60.4964C40.7127 60.537 40.4761 60.6572 40.2045 60.8515C39.9404 61.0404 39.6792 61.2734 39.4802 61.5048L39.4803 61.5049L39.4755 61.5102C39.084 61.9526 38.9599 62.1272 38.9011 62.3246C38.837 62.5397 38.8364 62.8279 38.8889 63.5471L38.8892 63.5515C38.9264 64.1335 38.9865 64.4772 39.0858 64.737C39.18 64.9836 39.3221 65.1872 39.5885 65.4644L39.5885 65.4644L39.59 65.466C41.2402 67.1977 44.0319 66.51 44.7409 64.1244L44.7408 64.1244L44.7427 64.1184C45.0699 63.0661 44.6935 61.998 43.9147 61.2602C43.1356 60.5223 41.9964 60.1586 40.8685 60.4938ZM43.0288 63.4063C43.0288 63.5723 43.0226 63.7332 42.9977 63.8772C42.9727 64.0214 42.9225 64.1891 42.8045 64.3362C42.5522 64.6507 42.1629 64.6656 41.9194 64.6656C41.3697 64.6656 40.8824 64.4224 40.6243 64.0043C40.3567 63.5707 40.3866 63.0241 40.7421 62.5874C40.9037 62.3829 41.1353 62.2444 41.3488 62.1635C41.5597 62.0836 41.8197 62.0347 42.0701 62.0765C42.3436 62.1126 42.6439 62.2183 42.8364 62.5209C43.0021 62.7814 43.0288 63.1066 43.0288 63.4063Z" fill="#022B94" stroke="#001037"/>
<path d="M49.8891 60.4661L49.8891 60.4662L49.8792 60.4691C48.8024 60.7822 48.1678 61.3592 47.7951 62.3429L47.7948 62.3436C46.6096 65.4587 50.6462 67.9241 52.918 65.3294L52.918 65.3294L52.9231 65.3237C53.2545 64.9566 53.3949 64.7458 53.4721 64.5216C53.5532 64.2858 53.5813 63.9882 53.5813 63.406C53.5813 62.8239 53.5532 62.5263 53.4721 62.2905C53.3949 62.0662 53.2545 61.8554 52.9231 61.4883L52.9183 61.4831L52.9137 61.4777C52.7343 61.2672 52.4728 61.0428 52.1915 60.852C51.9103 60.6612 51.6431 60.527 51.4562 60.4699L51.4538 60.4693C50.9022 60.3217 50.7466 60.2801 50.6092 60.2801C50.4835 60.2801 50.3726 60.3146 49.8891 60.4661ZM51.6943 62.6007L51.6944 62.6006L51.7019 62.6099C52.0554 63.0452 52.0654 63.5909 51.7955 64.0136C51.5349 64.422 51.0519 64.6654 50.5013 64.6654C50.0189 64.6654 49.611 64.4231 49.4037 64.0099C49.2071 63.6178 49.2243 63.1433 49.3996 62.6957C49.5942 62.1779 50.1113 62.0166 50.5116 62.0299C50.9276 62.0437 51.3808 62.2331 51.6943 62.6007Z" fill="#022B94" stroke="#001037"/>
<path d="M58.741 60.4305L58.741 60.4305L58.732 60.432C57.4534 60.641 56.3584 61.976 56.3584 63.4569C56.3584 65.631 58.8258 67.108 60.909 66.0254L60.9122 66.0237C61.7765 65.5824 62.2567 64.8619 62.3943 63.6572C62.5858 61.7032 60.7912 60.0568 58.741 60.4305ZM60.5733 62.5926L60.581 62.6012L60.5883 62.6102C60.9416 63.0453 60.9508 63.5889 60.6875 64.0099C60.4327 64.4175 59.9568 64.6656 59.413 64.6656C58.8693 64.6656 58.3934 64.4175 58.1385 64.0099C57.8753 63.5889 57.8844 63.0453 58.2378 62.6102L58.2451 62.6012L58.2527 62.5926C58.3979 62.4298 58.5807 62.2924 58.7694 62.194C58.9533 62.0982 59.1798 62.0204 59.413 62.0204C59.6462 62.0204 59.8727 62.0982 60.0567 62.194C60.2453 62.2924 60.4281 62.4298 60.5733 62.5926Z" fill="#022B94" stroke="#001037"/>
<path d="M67.2764 60.4932L67.2764 60.4934L67.2652 60.4965C67.1174 60.5374 66.8801 60.6582 66.6095 60.848C66.3476 61.0316 66.0928 61.2528 65.9065 61.4599C65.5754 61.8391 65.4331 62.0567 65.3549 62.2863C65.2731 62.5262 65.2451 62.8249 65.2451 63.4064C65.2451 63.9878 65.2731 64.2866 65.3549 64.5265C65.4332 64.7565 65.5759 64.9744 65.9082 65.3549C67.4599 67.1189 70.1094 66.679 71.0375 64.4542L71.0374 64.4542L71.0401 64.4479C71.2756 63.9043 71.3483 63.6153 71.3329 63.3427C71.317 63.0579 71.202 62.7272 70.8978 62.1082L70.8968 62.106C70.2392 60.7512 68.7101 60.0601 67.2764 60.4932ZM66.9318 62.8843L66.9318 62.8842L66.934 62.8771C67.0189 62.6061 67.1696 62.3392 67.4653 62.1848C67.7328 62.0451 68.0332 62.046 68.2966 62.0733C68.5845 62.0985 68.9595 62.155 69.2017 62.4587C69.3206 62.6078 69.3744 62.776 69.4017 62.9278C69.4283 63.0766 69.4345 63.2406 69.4345 63.4064C69.4345 63.706 69.4078 64.0312 69.2421 64.2917C69.0479 64.597 68.7441 64.7019 68.4687 64.7371C67.3845 64.8933 66.6368 63.8767 66.9318 62.8843Z" fill="#022B94" stroke="#001037"/>
<path d="M95.7171 59.9889V68.0918H97.6253H99.5335V57.9639V47.8361H93.309H87.0845V57.9639V68.0918H88.9926H90.9008V59.9889V51.636V51.386H91.1508H93.309H95.4671H95.7171V51.636V59.9889Z" fill="#022B94" stroke="#001037" stroke-width="0.5"/>
<path d="M150.513 47.8361H147.513V57.9639V68.0918H149.421H151.33V64.7981V61.2545V61.0045H151.58H152.544C155.348 61.0045 157.799 59.3135 158.474 56.9832L158.474 56.9824C159.291 54.1934 158.639 51.2055 156.913 49.4843L156.911 49.4827C156.267 48.8286 155.62 48.4232 154.671 48.1761C153.708 47.9253 152.428 47.8361 150.513 47.8361ZM154.288 52.1376L154.288 52.1376L154.292 52.1423C154.514 52.4326 154.664 52.7233 154.755 53.1023C154.845 53.4734 154.876 53.9212 154.876 54.5215C154.876 55.5165 154.745 56.2604 154.372 56.7542C153.983 57.2684 153.38 57.4546 152.595 57.4546H151.58H151.33V57.2046V54.4203V51.636V51.386H151.58H152.57C152.976 51.386 153.296 51.4243 153.574 51.5461C153.858 51.6699 154.072 51.8683 154.288 52.1376Z" fill="#022B94" stroke="#001037" stroke-width="0.5"/>
<path d="M104.1 52.8987H102.573V63.2797V73.6606H104.354H106.135V70.7467V67.5827V67.1395L106.514 67.3687L107.352 67.8749L107.352 67.8749L107.354 67.8762C107.853 68.1842 108.327 68.325 108.833 68.3136C109.344 68.3021 109.909 68.1348 110.588 67.7901L110.588 67.79L110.592 67.788C111.048 67.5671 111.341 67.3747 111.593 67.1001C111.851 66.8209 112.079 66.4429 112.381 65.8272L112.382 65.8269C112.749 65.0813 112.923 64.7139 113.015 64.064C113.111 63.393 113.117 62.4279 113.117 60.4954C113.117 58.5629 113.111 57.5977 113.015 56.9267C112.923 56.2771 112.749 55.9097 112.382 55.1646C111.984 54.3711 111.598 53.8449 111.141 53.488C110.687 53.1335 110.142 52.9299 109.396 52.8201L109.393 52.8197C108.948 52.7496 108.251 52.7973 107.902 52.889C107.517 53.0096 107.075 53.2213 106.876 53.3722C106.797 53.4435 106.717 53.5072 106.636 53.5514C106.55 53.5978 106.442 53.6342 106.321 53.6133C106.198 53.5923 106.109 53.521 106.045 53.4476C105.985 53.3788 105.934 53.2929 105.888 53.2021C105.832 53.1145 105.745 53.0393 105.497 52.9846C105.225 52.9247 104.799 52.8987 104.1 52.8987ZM108.948 56.6481L108.948 56.6481L108.951 56.6511C109.083 56.7872 109.18 56.9938 109.256 57.2182C109.334 57.4497 109.399 57.7305 109.453 58.0413C109.56 58.6634 109.623 59.4277 109.641 60.2049C109.658 60.9826 109.63 61.7804 109.552 62.4701C109.476 63.1474 109.347 63.7542 109.146 64.1292C108.941 64.5351 108.543 64.7991 108.118 64.9105C107.692 65.022 107.208 64.9895 106.802 64.7666C106.665 64.6978 106.522 64.6124 106.413 64.4497C106.308 64.2923 106.25 64.0889 106.214 63.8197C106.141 63.2857 106.135 62.3585 106.135 60.6726C106.135 59.4304 106.161 58.4924 106.212 57.837C106.238 57.51 106.271 57.2465 106.312 57.048C106.332 56.9489 106.356 56.8601 106.385 56.785C106.412 56.7142 106.451 56.6342 106.513 56.5722C106.803 56.2836 107.296 56.1884 107.731 56.2052C108.17 56.2221 108.656 56.357 108.948 56.6481Z" fill="#022B94" stroke="#001037" stroke-width="0.5"/>
<path d="M120.147 52.8681L120.146 52.8683C118.152 53.2753 116.54 54.957 115.998 57.3581C115.852 58.0909 115.75 59.7871 115.826 61.3948L115.826 61.3986C115.864 62.5889 115.915 63.3043 116.025 63.8609C116.133 64.408 116.299 64.8087 116.585 65.3672C117.681 67.4774 119.763 68.5605 122.042 68.2462L122.043 68.2462C123.746 68.0157 125.01 67.1729 125.827 65.7645C126.651 64.3446 127.03 62.3297 126.904 59.7482C126.804 57.7364 126.373 56.1645 125.64 55.0308C124.912 53.9045 123.878 53.1965 122.533 52.9188L122.533 52.9189L122.53 52.9181C122.191 52.8431 121.865 52.7805 121.612 52.7369C121.485 52.715 121.377 52.6981 121.296 52.6866C121.255 52.6809 121.222 52.6768 121.197 52.6741C121.191 52.6734 121.186 52.6729 121.182 52.6725C121.121 52.6851 121.024 52.7024 120.912 52.7225C120.881 52.7281 120.849 52.7338 120.816 52.7397C120.623 52.7744 120.385 52.8182 120.147 52.8681ZM119.87 63.9689L119.87 63.9689L119.867 63.9636C119.645 63.4645 119.485 62.4952 119.408 61.4855C119.332 60.468 119.337 59.3589 119.468 58.5593C119.627 57.4279 120.143 56.5836 120.795 56.2512C121.127 56.0815 121.496 56.048 121.845 56.1907C122.189 56.3315 122.483 56.6305 122.705 57.0654C122.946 57.5324 123.105 58.1674 123.196 58.8575C123.289 59.552 123.315 60.32 123.281 61.0636C123.247 61.8067 123.153 62.5327 123 63.142C122.85 63.7399 122.633 64.2668 122.329 64.5704C121.948 64.9497 121.451 65.0686 120.985 64.9487C120.524 64.8299 120.113 64.483 119.87 63.9689Z" fill="#022B94" stroke="#001037" stroke-width="0.5"/>
<path d="M164.267 53.4009L164.267 53.4011C163.17 53.5912 162.36 54.1075 161.581 55.152L161.581 55.1521L161.578 55.1549C161.012 55.8919 160.655 56.5702 160.433 57.4493C160.208 58.3368 160.12 59.4387 160.107 61.0287L160.107 61.029C160.094 62.4157 160.102 63.1376 160.195 63.69C160.287 64.2285 160.461 64.6102 160.816 65.3179C161.116 65.9038 161.357 66.277 161.649 66.58C161.942 66.8831 162.298 67.1285 162.849 67.4409L162.85 67.4412C164.383 68.3146 166.904 68.5675 168.909 68.0492C168.909 68.0492 168.909 68.0492 168.909 68.0492L169.982 67.7713L169.941 66.9646C169.941 66.9642 169.941 66.9638 169.941 66.9634C169.938 66.905 169.934 66.8485 169.931 66.7938C169.905 66.343 169.885 66.0176 169.843 65.7728C169.796 65.4999 169.729 65.3902 169.65 65.3299C169.559 65.2617 169.397 65.2132 169.051 65.2027C168.745 65.1934 168.343 65.2137 167.795 65.2412C167.736 65.2442 167.676 65.2473 167.613 65.2504L167.612 65.2504C167.049 65.2756 166.618 65.2949 166.28 65.2973C165.943 65.2997 165.681 65.2858 165.461 65.2389C164.995 65.14 164.745 64.8982 164.358 64.5255L164.355 64.5225L164.355 64.5225L164.352 64.5196C164.107 64.2748 163.901 63.9954 163.756 63.723C163.613 63.4557 163.517 63.173 163.517 62.9251V62.267V62.017H163.767H167.322H170.626V60.4192C170.626 57.1923 169.572 54.9061 167.839 53.9829C166.693 53.3756 165.506 53.1831 164.267 53.4009ZM166.43 56.9285L166.431 56.9282L166.44 56.9364C166.632 57.0952 166.803 57.3523 166.936 57.6178C167.071 57.8881 167.181 58.1939 167.237 58.4717L167.238 58.4794L167.239 58.4873C167.27 58.7171 167.296 58.9066 167.304 59.0537C167.31 59.1919 167.306 59.3496 167.229 59.4803C167.139 59.633 166.99 59.6878 166.859 59.7104C166.736 59.7319 166.579 59.7327 166.408 59.7327C165.984 59.7327 165.209 59.655 164.663 59.5518C164.433 59.5146 164.242 59.4828 164.094 59.4436C163.949 59.4054 163.801 59.3496 163.694 59.2347C163.578 59.1083 163.551 58.9544 163.553 58.8099C163.556 58.6723 163.586 58.5067 163.623 58.3212C163.71 57.8595 163.98 57.4011 164.298 57.0594C164.459 56.8869 164.639 56.7373 164.825 56.6293C165.008 56.5227 165.212 56.4484 165.417 56.4484C165.503 56.4484 165.59 56.4712 165.666 56.4972C165.745 56.5246 165.83 56.5622 165.915 56.6053C166.084 56.6915 166.268 56.8068 166.43 56.9285Z" fill="#022B94" stroke="#001037" stroke-width="0.5"/>
<path d="M200.1 62.017H203.44L203.304 59.8017L203.304 59.8017L203.303 59.7959C203.278 59.1361 203.203 58.4309 203.109 57.8318C203.014 57.2253 202.904 56.7539 202.816 56.544C202.264 55.2865 201.432 54.3781 200.417 53.8512C199.402 53.3243 198.186 53.1694 196.853 53.4496C196.126 53.6136 195.375 54.0812 194.729 54.7518C194.085 55.4211 193.561 56.2791 193.281 57.2005C193.024 58.0669 192.879 59.4195 192.86 60.7739C192.841 62.1301 192.949 63.4484 193.18 64.2479C193.593 65.6761 194.666 66.9876 195.95 67.6646C196.566 67.9829 197.56 68.1945 198.635 68.2664C199.705 68.3379 200.819 68.2684 201.662 68.0494C201.975 67.9664 202.199 67.9058 202.365 67.8474C202.532 67.7882 202.608 67.7415 202.647 67.7028C202.676 67.6737 202.7 67.6344 202.713 67.5379C202.728 67.4306 202.726 67.2855 202.719 67.0581L202.719 67.0568C202.706 66.5124 202.695 66.1273 202.649 65.8451C202.604 65.5657 202.532 65.4403 202.44 65.368C202.339 65.2887 202.164 65.2324 201.814 65.2147C201.469 65.1973 201.006 65.2185 200.367 65.2503L200.365 65.2504C199.802 65.2756 199.371 65.2949 199.033 65.2973C198.696 65.2997 198.435 65.2857 198.214 65.2389C197.748 65.14 197.498 64.8982 197.111 64.5255L197.108 64.5224L197.108 64.5225L197.105 64.5196C196.86 64.2747 196.654 63.9954 196.509 63.723C196.366 63.4556 196.27 63.173 196.27 62.9251V62.267V62.017H196.52H200.1ZM199.793 59.807L198.222 59.6302C197.786 59.5918 197.381 59.5405 197.072 59.4887C196.918 59.4629 196.785 59.4362 196.682 59.4101C196.631 59.3972 196.583 59.3831 196.542 59.3678C196.515 59.3577 196.452 59.3339 196.401 59.2867C196.314 59.2071 196.282 59.1018 196.269 59.0219C196.256 58.9372 196.259 58.8461 196.27 58.7583C196.291 58.5819 196.349 58.3756 196.426 58.1704C196.578 57.7645 196.829 57.3034 197.105 57.0275C197.453 56.6814 197.812 56.461 198.221 56.4868C198.619 56.5118 198.985 56.7656 199.361 57.1528C199.812 57.5762 200.071 58.1455 200.071 58.7486V59.5586V59.8383L199.793 59.807Z" fill="#022B94" stroke="#001037" stroke-width="0.5"/>
<path d="M240.445 62.0171H243.75V60.6724C243.75 59.1569 243.475 57.7211 243.003 56.5516C242.529 55.3778 241.866 54.4973 241.107 54.0546C240.72 53.8325 240.082 53.618 239.433 53.4749C238.779 53.3307 238.164 53.2704 237.819 53.3256C237.137 53.439 236.734 53.5361 236.393 53.6948C236.054 53.8525 235.759 54.0782 235.305 54.4802C234.802 54.9349 234.11 55.9168 233.792 56.6238L233.792 56.6254C233.531 57.1941 233.389 57.5936 233.308 58.1878C233.225 58.7945 233.205 59.6063 233.205 61.0015C233.205 62.4889 233.218 63.2771 233.307 63.8488C233.393 64.4025 233.549 64.7531 233.862 65.3661C235.188 67.864 237.946 68.8681 241.714 68.072L241.715 68.0718C242.077 67.997 242.426 67.9101 242.694 67.8302C242.828 67.7902 242.939 67.753 243.02 67.721C243.041 67.7124 243.06 67.7046 243.076 67.6976C243.076 67.6915 243.077 67.6848 243.077 67.6775C243.082 67.6021 243.082 67.493 243.074 67.356C243.059 67.0835 243.016 66.7214 242.942 66.3393L242.942 66.3393L242.941 66.3315L242.748 65.1389L241.097 65.2502L241.097 65.2502L241.092 65.2504C240.581 65.276 240.036 65.2888 239.572 65.2824C239.125 65.2762 238.718 65.2522 238.502 65.1918C237.989 65.0628 237.527 64.746 237.195 64.3521C236.862 63.9586 236.641 63.4668 236.641 62.9758V62.2671V62.0171H236.891H240.445ZM238.283 59.6298L238.283 59.6299L238.279 59.6292C237.955 59.5849 237.696 59.5459 237.493 59.5032C237.292 59.4611 237.124 59.4113 236.992 59.3359C236.848 59.2539 236.75 59.1423 236.696 58.9937C236.647 58.8607 236.641 58.7128 236.641 58.5715C236.641 58.3557 236.724 58.118 236.834 57.8997C236.946 57.6755 237.1 57.446 237.268 57.2397C237.436 57.0338 237.625 56.8439 237.811 56.7028C237.986 56.5702 238.201 56.4485 238.414 56.4485C238.529 56.4485 238.685 56.4831 238.832 56.5298C238.984 56.5778 239.153 56.6473 239.3 56.7344C239.504 56.8468 239.68 57.0512 239.82 57.2692C239.965 57.4946 240.089 57.7608 240.18 58.0249C240.271 58.288 240.333 58.5605 240.346 58.799C240.353 58.9182 240.348 59.0371 240.324 59.1459C240.301 59.2531 240.255 59.3678 240.165 59.4573C240.074 59.5476 239.951 59.5968 239.836 59.6269C239.716 59.6584 239.575 59.6765 239.421 59.6849C239.112 59.7018 238.722 59.6813 238.283 59.6298Z" fill="#022B94" stroke="#001037" stroke-width="0.5"/>
<path d="M129.537 60.0506L129.537 60.0513C129.359 63.8512 129.232 67.2609 129.232 67.6331V68.0919H130.988H132.788L132.901 67.5117C132.972 67.1027 133.049 65.7578 133.049 64.5451C133.049 63.9457 133.068 63.3699 133.1 62.929C133.116 62.7092 133.136 62.5186 133.159 62.3738C133.17 62.3019 133.184 62.2356 133.199 62.1803C133.207 62.1528 133.217 62.1231 133.229 62.0947C133.24 62.0702 133.261 62.0272 133.3 61.9887C133.337 61.9515 133.392 61.9195 133.46 61.9119C133.524 61.9048 133.577 61.9224 133.611 61.9394C133.672 61.9698 133.711 62.0165 133.728 62.0391C133.769 62.0919 133.806 62.1629 133.84 62.2341C133.909 62.3831 133.992 62.6025 134.082 62.8712C134.262 63.411 134.48 64.1771 134.684 65.0426L135.425 67.9747L136.789 68.0416L136.79 68.0416L138.111 68.1074L138.897 65.1399C138.897 65.1398 138.897 65.1397 138.897 65.1396C139.126 64.2618 139.363 63.4773 139.556 62.9194C139.652 62.6416 139.739 62.4141 139.811 62.2582C139.846 62.1827 139.883 62.1113 139.921 62.0581C139.937 62.0346 139.969 61.9933 140.016 61.9614C140.04 61.9446 140.084 61.9205 140.143 61.9142C140.204 61.9078 140.265 61.9227 140.317 61.9568C140.367 61.9897 140.398 62.0321 140.415 62.0582C140.434 62.0888 140.448 62.1208 140.459 62.149C140.481 62.2054 140.498 62.2725 140.513 62.343C140.544 62.4856 140.569 62.6741 140.59 62.8916C140.632 63.3286 140.658 63.9063 140.658 64.5198C140.658 65.7542 140.734 67.0947 140.806 67.508L140.938 68.0919H142.769H144.54L144.398 64.5572C144.398 64.5568 144.398 64.5565 144.398 64.5561C144.35 63.562 144.291 62.277 144.231 60.9788C144.164 59.5279 144.097 58.0604 144.043 56.9638L144.043 56.9616L143.9 53.4048H141.551H139.183L138.239 57.3123C138.239 57.3125 138.239 57.3128 138.239 57.313C137.972 58.4534 137.712 59.5116 137.508 60.3043C137.406 60.7006 137.319 61.0314 137.251 61.2733C137.218 61.3941 137.189 61.494 137.166 61.5694C137.145 61.6353 137.123 61.7047 137.102 61.7463L137.098 61.7549L137.093 61.7632C137.066 61.8074 137.001 61.8832 136.885 61.89C136.786 61.8958 136.72 61.8451 136.698 61.8262C136.651 61.7863 136.622 61.7347 136.61 61.7123C136.578 61.6528 136.543 61.5681 136.508 61.4717C136.435 61.2737 136.342 60.9776 136.236 60.6091C136.022 59.8702 135.748 58.8221 135.468 57.6426C135.468 57.6424 135.468 57.6422 135.468 57.6421L134.472 53.5255L132.123 53.4553L129.831 53.3867L129.537 60.0506ZM140.33 62.3448C140.33 62.3447 140.33 62.3454 140.329 62.3471C140.33 62.3457 140.33 62.3448 140.33 62.3448ZM137.054 61.4814C137.054 61.4813 137.053 61.48 137.052 61.4778C137.053 61.4803 137.054 61.4814 137.054 61.4814Z" fill="#022B94" stroke="#001037" stroke-width="0.5"/>
<path d="M177.481 58.8499V53.4047H175.573H173.665V60.7482V68.0918H181.794H189.923V60.7482V53.4047H188.141H186.36V58.8499V64.545V64.795H186.11H184.968H183.825H183.575V64.545V58.8499V53.4047H181.794H180.013V58.8499V64.545V64.795H179.763H178.747H177.731H177.481V64.545V58.8499Z" fill="#022B94" stroke="#001037" stroke-width="0.5"/>
<path d="M206.311 53.5653C206.295 53.5724 206.284 53.5784 206.276 53.5829C206.276 53.5834 206.276 53.5839 206.276 53.5844C206.273 53.6132 206.269 53.6552 206.265 53.7117C206.257 53.8239 206.25 53.982 206.244 54.1822C206.231 54.5821 206.222 55.1416 206.216 55.8212C206.203 57.1798 206.203 59.0133 206.216 60.9993C206.216 60.9995 206.216 60.9997 206.216 60.9998L206.289 67.9741L208.158 68.0414L208.158 68.0414L209.981 68.1079V65.5576V62.7733V62.5233H210.231H211.501H212.77H213.02V62.7733V65.5576V68.0919H214.928H216.836V60.7483V53.4048H214.928H213.02V56.0656V58.9765V59.2265H212.77H211.501H210.231H209.981V58.9765V56.0656V53.4048H208.2C207.491 53.4048 206.987 53.4302 206.654 53.481C206.486 53.5066 206.377 53.5365 206.311 53.5653ZM206.262 53.5926C206.262 53.5926 206.263 53.5924 206.263 53.592C206.263 53.5924 206.262 53.5926 206.262 53.5926Z" fill="#022B94" stroke="#001037" stroke-width="0.5"/>
<path d="M226.085 61.6165C226.085 61.6165 226.085 61.6175 226.086 61.6191C226.085 61.6173 226.085 61.6165 226.085 61.6165ZM225.839 61.8084C225.921 61.6131 225.992 61.455 226.037 61.3806C226.053 61.3522 226.1 61.2792 226.193 61.2464C226.253 61.2252 226.318 61.2264 226.378 61.2493C226.431 61.27 226.466 61.3032 226.487 61.3264C226.525 61.3699 226.545 61.4187 226.555 61.4468C226.567 61.48 226.577 61.5163 226.585 61.5523C226.617 61.6927 226.643 61.9139 226.664 62.1948C226.705 62.7637 226.731 63.6312 226.731 64.7222V68.0918H228.512H230.293V60.7482V53.4047H228.537H226.707L225.7 56.2009L225.7 56.2017L225.698 56.2077C225.262 57.405 224.932 58.3098 224.684 58.9249C224.56 59.2322 224.453 59.4751 224.36 59.6486C224.314 59.7349 224.268 59.8117 224.221 59.8728C224.18 59.9258 224.112 60.0026 224.013 60.0377C223.956 60.0581 223.887 60.0648 223.816 60.0426C223.747 60.0213 223.698 59.98 223.666 59.942C223.607 59.873 223.576 59.7855 223.558 59.717C223.519 59.5709 223.496 59.3602 223.48 59.1034C223.449 58.5845 223.444 57.7964 223.438 56.761L223.438 56.7505V56.749V53.4047H221.657H219.875V60.7482V68.0918H221.631H223.463L224.596 65.0155L224.596 65.0146C224.927 64.1277 225.251 63.2782 225.509 62.6245C225.638 62.2978 225.75 62.019 225.839 61.8084Z" fill="#022B94" stroke="#001037" stroke-width="0.5"/>
</svg>
