<svg width="62" height="62" viewBox="0 0 62 62" fill="none" xmlns="http://www.w3.org/2000/svg">
<path d="M38.1558 51.0209H23.9216C22.785 51.0209 21.3383 50.8918 20.3825 49.9101C19.4525 48.9543 19.4783 47.7659 19.5041 46.9651V44.6659C12.9941 40.3259 8.70581 32.7826 8.70581 25.6009C8.70581 18.8068 11.7541 12.4518 17.05 8.18927C22.3458 3.92677 29.295 2.3251 36.0891 3.82343C42.5475 5.24427 48.1275 9.55843 51.0208 15.3709C56.6266 26.6601 51.2275 38.8793 42.5991 44.6918V46.6293C42.625 47.3784 42.6508 48.7476 41.5916 49.8326C40.7908 50.6076 39.6541 51.0209 38.1558 51.0209ZM23.3533 47.1201C23.4825 47.1201 23.6633 47.1459 23.8958 47.1459H38.1558C38.4141 47.1459 38.595 47.1201 38.6983 47.0943C38.6983 47.0168 38.6983 46.9134 38.6983 46.8359V43.5809C38.6983 42.9093 39.06 42.2634 39.6283 41.9276C47.275 37.3034 52.3383 26.7376 47.5075 17.0501C45.1308 12.2709 40.5325 8.73177 35.2108 7.56927C29.5791 6.32927 23.8183 7.64677 19.4266 11.1859C15.035 14.7251 12.5291 19.9693 12.5291 25.6009C12.5291 32.7826 17.4891 38.9826 22.3975 41.9534C22.9916 42.3151 23.3275 42.9351 23.3275 43.6068V47.0943C23.3533 47.0943 23.3533 47.0943 23.3533 47.1201Z" fill="white"/>
<path d="M40.0417 58.7708C39.8608 58.7708 39.68 58.745 39.4992 58.6933C33.9192 57.0916 28.055 57.0916 22.475 58.6933C21.4417 58.9775 20.3825 58.3833 20.0725 57.35C19.7625 56.3166 20.3825 55.2575 21.4158 54.9475C27.6675 53.165 34.3067 53.165 40.5583 54.9475C41.5917 55.2316 42.1858 56.3166 41.9017 57.35C41.6692 58.2283 40.8942 58.7708 40.0417 58.7708Z" fill="white"/>
</svg>
