<svg width="49" height="49" viewBox="0 0 49 49" fill="none" xmlns="http://www.w3.org/2000/svg">
<path d="M32.6666 34.1978H16.3333C15.4962 34.1978 14.802 33.5037 14.802 32.6666V16.3333C14.802 15.4962 15.4962 14.802 16.3333 14.802H32.6666C33.5037 14.802 34.1978 15.4962 34.1978 16.3333V32.6666C34.1978 33.5037 33.5037 34.1978 32.6666 34.1978ZM17.8645 31.1353H31.1353V17.8645H17.8645V31.1353Z" fill="white"/>
<path d="M10.2083 46.448C5.982 46.448 2.552 43.018 2.552 38.7917C2.552 34.5655 5.982 31.1355 10.2083 31.1355H16.3333C17.1703 31.1355 17.8645 31.8297 17.8645 32.6667V38.7917C17.8645 43.018 14.4345 46.448 10.2083 46.448ZM10.2083 34.198C7.67659 34.198 5.6145 36.2601 5.6145 38.7917C5.6145 41.3234 7.67659 43.3855 10.2083 43.3855C12.7399 43.3855 14.802 41.3234 14.802 38.7917V34.198H10.2083Z" fill="white"/>
<path d="M16.3333 17.8645H10.2083C5.982 17.8645 2.552 14.4345 2.552 10.2083C2.552 5.982 5.982 2.552 10.2083 2.552C14.4345 2.552 17.8645 5.982 17.8645 10.2083V16.3333C17.8645 17.1703 17.1703 17.8645 16.3333 17.8645ZM10.2083 5.6145C7.67659 5.6145 5.6145 7.67659 5.6145 10.2083C5.6145 12.7399 7.67659 14.802 10.2083 14.802H14.802V10.2083C14.802 7.67659 12.7399 5.6145 10.2083 5.6145Z" fill="white"/>
<path d="M38.7917 17.8645H32.6667C31.8297 17.8645 31.1355 17.1703 31.1355 16.3333V10.2083C31.1355 5.982 34.5655 2.552 38.7917 2.552C43.018 2.552 46.448 5.982 46.448 10.2083C46.448 14.4345 43.018 17.8645 38.7917 17.8645ZM34.198 14.802H38.7917C41.3234 14.802 43.3855 12.7399 43.3855 10.2083C43.3855 7.67659 41.3234 5.6145 38.7917 5.6145C36.2601 5.6145 34.198 7.67659 34.198 10.2083V14.802Z" fill="white"/>
<path d="M38.7917 46.448C34.5655 46.448 31.1355 43.018 31.1355 38.7917V32.6667C31.1355 31.8297 31.8297 31.1355 32.6667 31.1355H38.7917C43.018 31.1355 46.448 34.5655 46.448 38.7917C46.448 43.018 43.018 46.448 38.7917 46.448ZM34.198 34.198V38.7917C34.198 41.3234 36.2601 43.3855 38.7917 43.3855C41.3234 43.3855 43.3855 41.3234 43.3855 38.7917C43.3855 36.2601 41.3234 34.198 38.7917 34.198H34.198Z" fill="white"/>
</svg>
