<svg width="41" height="41" viewBox="0 0 41 41" fill="none" xmlns="http://www.w3.org/2000/svg">
<circle cx="20.5" cy="20.5" r="20.5" fill="#323232"/>
<path d="M14.5671 28C14.1688 28 13.7704 27.8533 13.456 27.5389C12.848 26.9312 12.848 25.9253 13.456 25.3175L25.3218 13.4558C25.9298 12.8481 26.9361 12.8481 27.544 13.4558C28.152 14.0636 28.152 15.0695 27.544 15.6773L15.6782 27.5389C15.3847 27.8533 14.9654 28 14.5671 28Z" fill="#FAFAFA"/>
<path d="M26.4329 28C26.0346 28 25.6363 27.8533 25.3218 27.5389L13.456 15.6773C12.848 15.0695 12.848 14.0636 13.456 13.4558C14.0639 12.8481 15.0702 12.8481 15.6782 13.4558L27.544 25.3175C28.152 25.9253 28.152 26.9312 27.544 27.5389C27.2296 27.8533 26.8312 28 26.4329 28Z" fill="#FAFAFA"/>
</svg>
