<svg width="48" height="48" viewBox="0 0 48 48" fill="none" xmlns="http://www.w3.org/2000/svg">
<path d="M16 11.5C15.18 11.5 14.5 10.82 14.5 10V4C14.5 3.18 15.18 2.5 16 2.5C16.82 2.5 17.5 3.18 17.5 4V10C17.5 10.82 16.82 11.5 16 11.5Z" fill="white"/>
<path d="M32 11.5C31.18 11.5 30.5 10.82 30.5 10V4C30.5 3.18 31.18 2.5 32 2.5C32.82 2.5 33.5 3.18 33.5 4V10C33.5 10.82 32.82 11.5 32 11.5Z" fill="white"/>
<path d="M29.36 45.5H16C8.7 45.5 4.5 41.3 4.5 34V17C4.5 9.7 8.7 5.5 16 5.5H32C39.3 5.5 43.5 9.7 43.5 17V27.26C43.5 27.84 43.16 28.36 42.66 28.62C42.14 28.86 41.52 28.7999 41.08 28.4399C37.92 25.9199 33.06 25.92 29.9 28.5C27.74 30.2 26.52 32.74 26.52 35.52C26.52 37.16 26.96 38.76 27.82 40.14C28.48 41.22 29.3 42.12 30.26 42.8C30.78 43.18 31.02 43.86 30.82 44.48C30.58 45.08 30.02 45.5 29.36 45.5ZM16 8.5C10.28 8.5 7.5 11.28 7.5 17V34C7.5 39.72 10.28 42.5 16 42.5H25.78C25.58 42.24 25.4 41.9601 25.24 41.6801C24.1 39.8401 23.5 37.7 23.5 35.5C23.5 31.8 25.14 28.4 28.02 26.14C31.44 23.36 36.5 22.76 40.5 24.6V17C40.5 11.28 37.72 8.5 32 8.5H16Z" fill="white"/>
<path d="M26 23.5H14C13.18 23.5 12.5 22.82 12.5 22C12.5 21.18 13.18 20.5 14 20.5H26C26.82 20.5 27.5 21.18 27.5 22C27.5 22.82 26.82 23.5 26 23.5Z" fill="white"/>
<path d="M19.24 33.5H14C13.18 33.5 12.5 32.82 12.5 32C12.5 31.18 13.18 30.5 14 30.5H19.24C20.06 30.5 20.74 31.18 20.74 32C20.74 32.82 20.08 33.5 19.24 33.5Z" fill="white"/>
<path d="M35.5 47.4999C32.94 47.4999 30.52 46.6999 28.48 45.2199C27.2 44.2999 26.1 43.1 25.24 41.68C24.1 39.84 23.5 37.6999 23.5 35.4999C23.5 31.7999 25.14 28.4 28.02 26.14C32.18 22.76 38.74 22.7399 42.94 26.0799C45.84 28.3599 47.5 31.7999 47.5 35.4999C47.5 37.6999 46.9 39.84 45.76 41.68C45.12 42.78 44.3 43.74 43.36 44.52C41.22 46.44 38.42 47.4999 35.5 47.4999ZM35.5 26.4999C33.46 26.4999 31.46 27.1999 29.88 28.4799C27.72 30.1799 26.5 32.7199 26.5 35.4999C26.5 37.1399 26.94 38.7399 27.8 40.1199C28.46 41.1999 29.28 42.1 30.24 42.78C31.78 43.9 33.6 44.4999 35.5 44.4999C37.72 44.4999 39.76 43.72 41.4 42.26C42.12 41.66 42.7 40.96 43.18 40.14C44.04 38.74 44.5 37.1399 44.5 35.4999C44.5 32.7199 43.26 30.1599 41.08 28.4399C39.48 27.1599 37.56 26.4999 35.5 26.4999Z" fill="white"/>
<path d="M35.5 42C34.68 42 34 41.32 34 40.5C34 38.58 32.42 37 30.5 37C29.68 37 29 36.32 29 35.5C29 34.68 29.68 34 30.5 34C32.42 34 34 32.42 34 30.5C34 29.68 34.68 29 35.5 29C36.32 29 37 29.68 37 30.5C37 32.42 38.58 34 40.5 34C41.32 34 42 34.68 42 35.5C42 36.32 41.32 37 40.5 37C38.58 37 37 38.58 37 40.5C37 41.32 36.32 42 35.5 42ZM34.64 35.5C34.94 35.76 35.24 36.04 35.5 36.36C35.76 36.06 36.04 35.76 36.36 35.5C36.06 35.24 35.76 34.96 35.5 34.64C35.24 34.96 34.96 35.24 34.64 35.5Z" fill="white"/>
</svg>
