<svg width="42" height="43" viewBox="0 0 42 43" fill="none" xmlns="http://www.w3.org/2000/svg">
<path fill-rule="evenodd" clip-rule="evenodd" d="M37.095 42.5C37.11 42.5 37.11 42.5 37.125 42.5H37.155C39.855 42.485 42 40.2499 42 37.5649V14C42 11.3 39.84 9.06494 37.125 9.06494H33.57C32.55 9.06494 31.695 8.2249 31.695 7.1449C31.695 3.4999 28.77 0.5 25.125 0.5C21.48 0.5 18.57 3.4999 18.57 7.1449C18.57 8.2249 17.7 9.06494 16.695 9.06494H13.32C10.605 9.06494 8.44501 11.3 8.44501 14V17.2098C8.44501 18.3048 7.57501 19.1449 6.57001 19.1449C2.91001 19.1449 0 22.1452 0 25.7902C0 29.4352 2.91001 32.4351 6.57001 32.4351C7.57501 32.4351 8.44501 33.2751 8.44501 34.3551V37.5649C8.44501 40.2799 10.605 42.5 13.32 42.5H20.07C20.895 42.5 21.57 41.825 21.57 41V37.5649C21.57 35.5399 23.175 33.9351 25.125 33.9351C27.075 33.9351 28.695 35.5399 28.695 37.5649V41C28.695 41.825 29.355 42.5 30.195 42.5H37.095ZM37.14 39.5H31.695V37.5649C31.695 33.9199 28.77 30.9351 25.125 30.9351C21.48 30.9351 18.57 33.9199 18.57 37.5649V39.5H13.32C12.3 39.5 11.445 38.6599 11.445 37.5649V34.3551C11.445 31.6551 9.27001 29.4351 6.57001 29.4351C4.62001 29.4351 3 27.8152 3 25.7902C3 23.7502 4.62001 22.1449 6.57001 22.1449C9.27001 22.1449 11.445 19.9098 11.445 17.2098V14C11.445 12.92 12.3 12.0649 13.32 12.0649H16.695C19.395 12.0649 21.57 9.8449 21.57 7.1449C21.57 5.1049 23.175 3.5 25.125 3.5C27.075 3.5 28.695 5.1049 28.695 7.1449C28.695 9.8449 30.855 12.0649 33.57 12.0649H37.125C38.13 12.0649 39 12.92 39 14V37.5649C39 38.6449 38.145 39.485 37.14 39.5Z" fill="#022B94"/>
</svg>
