<svg width="22" height="22" viewBox="0 0 22 22" fill="none" xmlns="http://www.w3.org/2000/svg">
<g clip-path="url(#clip0_316_897)">
<path fill-rule="evenodd" clip-rule="evenodd" d="M6.10059 11C6.10059 13.7028 8.29558 15.8984 10.9978 15.8984C13.7001 15.8984 15.8951 13.7028 15.8951 11C15.8951 8.29707 13.7001 6.10156 10.9978 6.10156C8.29558 6.10156 6.10059 8.29707 6.10059 11ZM7.93213 11C7.93213 9.30726 9.31012 7.9334 10.9978 7.9334C12.6855 7.9334 14.0641 9.31178 14.0641 11C14.0641 12.6926 12.6855 14.0665 10.9978 14.0665C9.30594 14.0665 7.93213 12.6881 7.93213 11Z" fill="black"/>
<path fill-rule="evenodd" clip-rule="evenodd" d="M8.7895 22H13.2016C13.7088 22 14.1176 21.5914 14.1176 21.0886V19.0771C14.2477 19.0277 14.3736 18.9739 14.499 18.92L15.9175 20.3388C16.2631 20.6845 16.8694 20.6845 17.215 20.3388L20.3344 17.2229C20.6936 16.8637 20.6936 16.2845 20.3344 15.9253L18.9164 14.5065C18.9701 14.3808 19.0238 14.2551 19.0734 14.1249H21.0845C21.5918 14.1249 22 13.7163 22 13.209V8.7955C22 8.28816 21.5918 7.87958 21.0845 7.87958H19.0734C19.0238 7.74938 18.9701 7.62365 18.9164 7.49797L20.3344 6.07919C20.6936 5.72 20.6936 5.14081 20.3344 4.78162L17.215 1.66124C16.8557 1.30205 16.2768 1.30205 15.9175 1.66124L14.5037 3.08449C14.416 3.04696 14.3283 3.00943 14.2394 2.97343L14.1218 2.92736V0.91592C14.1218 0.408585 13.7136 0 13.2063 0H8.79367C8.2864 0 7.8782 0.408585 7.8782 0.91592V2.92284C7.7481 2.97224 7.62218 3.02611 7.49626 3.08002L6.07769 1.66124C5.71902 1.30205 5.13954 1.30205 4.78087 1.66124L1.66086 4.78162C1.3016 5.14081 1.3016 5.72 1.66086 6.07919L3.0836 7.49345C3.02989 7.61918 2.97618 7.7449 2.92665 7.8751H0.915473C0.408203 7.8751 0 8.28365 0 8.79102V13.2045C0 13.7118 0.408203 14.1204 0.915473 14.1204H2.92247C2.97141 14.2506 3.02572 14.3763 3.07943 14.502L1.66086 15.9253C1.49018 16.0959 1.39171 16.3294 1.39171 16.5718C1.39171 16.8143 1.49018 17.0477 1.66086 17.2183L4.78087 20.3388C5.12641 20.6845 5.73215 20.68 6.07769 20.3388L7.49208 18.9155C7.6174 18.9694 7.74333 19.0232 7.87343 19.0726V21.0841C7.87343 21.5914 8.28223 22 8.7895 22ZM12.2861 20.1682H9.70974V18.4216C9.70974 18.0131 9.44477 17.6583 9.05387 17.5416C8.59196 17.4025 8.15153 17.2229 7.7481 17.0029C7.38883 16.8098 6.949 16.8727 6.66135 17.16L5.42719 18.3947L3.6046 16.5718L4.83876 15.3371C5.12641 15.0498 5.18907 14.6098 4.99631 14.2506C4.7761 13.8465 4.59646 13.4065 4.45741 12.9441C4.34104 12.5535 3.98177 12.2886 3.57775 12.2886H1.82677V9.71142H3.57775C3.98595 9.71142 4.34104 9.44654 4.45741 9.0559C4.59646 8.58897 4.7761 8.15345 4.99631 7.74938C5.18907 7.39019 5.12641 6.95019 4.83876 6.66285L3.6046 5.42815L5.42719 3.6053L6.66135 4.84C6.949 5.12734 7.39301 5.1902 7.7481 4.99714C8.0077 4.85545 8.28282 4.73051 8.56988 4.62232C8.72803 4.56255 8.88976 4.5079 9.05387 4.45835C9.44477 4.34162 9.70974 3.98243 9.70974 3.57836V1.82736H12.2861V3.57836C12.2861 3.98695 12.5511 4.34162 12.9414 4.45835C13.408 4.59755 13.8437 4.77714 14.2477 4.99714C14.607 5.1902 15.0468 5.12734 15.3339 4.84L16.5686 3.6053L18.3912 5.42815L17.1565 6.66285C16.8694 6.95019 16.8062 7.39019 16.9995 7.74938C17.2191 8.15345 17.3988 8.59345 17.5378 9.0559C17.6548 9.44654 18.0141 9.71142 18.4181 9.71142H20.1685V12.2886H18.4181C18.0093 12.2886 17.6548 12.5535 17.5378 12.9441C17.3988 13.411 17.2191 13.8465 16.9995 14.2506C16.8062 14.6098 16.8694 15.0498 17.1565 15.3371L18.3912 16.5718L16.5686 18.3947L15.3339 17.16C15.0468 16.8727 14.607 16.8098 14.2477 17.0029C13.8437 17.2229 13.4039 17.4025 12.9414 17.5416C12.5511 17.6583 12.2861 18.0175 12.2861 18.4216V20.1682Z" fill="black"/>
</g>
<defs>
<clipPath id="clip0_316_897">
<rect width="22" height="22" fill="white"/>
</clipPath>
</defs>
</svg>
