<svg width="36" height="36" viewBox="0 0 36 36" fill="none" xmlns="http://www.w3.org/2000/svg">
<circle cx="18" cy="18" r="18" fill="#355E8B"/>
<path d="M18 34.125C9.105 34.125 1.875 26.895 1.875 18C1.875 9.105 9.105 1.875 18 1.875C26.895 1.875 34.125 9.105 34.125 18C34.125 26.895 26.895 34.125 18 34.125ZM18 4.125C10.35 4.125 4.125 10.35 4.125 18C4.125 25.65 10.35 31.875 18 31.875C25.65 31.875 31.875 25.65 31.875 18C31.875 10.35 25.65 4.125 18 4.125Z" fill="white"/>
<path d="M18 24.375C17.385 24.375 16.875 23.865 16.875 23.25V14.25C16.875 13.635 17.385 13.125 18 13.125C18.615 13.125 19.125 13.635 19.125 14.25V23.25C19.125 23.865 18.615 24.375 18 24.375Z" fill="white"/>
<path d="M22.5002 18.3749C22.2152 18.3749 21.9302 18.2699 21.7052 18.0449L18.0002 14.3399L14.2952 18.0449C13.8602 18.4799 13.1402 18.4799 12.7052 18.0449C12.2702 17.6099 12.2702 16.8899 12.7052 16.4549L17.2052 11.9549C17.6402 11.5199 18.3602 11.5199 18.7952 11.9549L23.2952 16.4549C23.7302 16.8899 23.7302 17.6099 23.2952 18.0449C23.0702 18.2699 22.7852 18.3749 22.5002 18.3749Z" fill="white"/>
</svg>
