<svg width="27" height="27" viewBox="0 0 27 27" fill="none" xmlns="http://www.w3.org/2000/svg">
<path d="M16.75 25.1471H10.25C4.36746 25.1471 1.85413 22.6338 1.85413 16.7513V10.2513C1.85413 4.3688 4.36746 1.85547 10.25 1.85547H16.75C22.6325 1.85547 25.1458 4.3688 25.1458 10.2513V16.7513C25.1458 22.6338 22.6325 25.1471 16.75 25.1471ZM10.25 3.48047C5.25579 3.48047 3.47913 5.25714 3.47913 10.2513V16.7513C3.47913 21.7455 5.25579 23.5221 10.25 23.5221H16.75C21.7441 23.5221 23.5208 21.7455 23.5208 16.7513V10.2513C23.5208 5.25714 21.7441 3.48047 16.75 3.48047H10.25Z" fill="#FAFAFA"/>
<path d="M11.9617 17.3781C11.745 17.3781 11.5392 17.2914 11.3875 17.1397L8.32168 14.0739C8.00752 13.7597 8.00752 13.2397 8.32168 12.9256C8.63585 12.6114 9.15585 12.6114 9.47002 12.9256L11.9617 15.4172L17.53 9.84891C17.8442 9.53474 18.3642 9.53474 18.6784 9.84891C18.9925 10.1631 18.9925 10.6831 18.6784 10.9972L12.5359 17.1397C12.3842 17.2914 12.1784 17.3781 11.9617 17.3781Z" fill="#FAFAFA"/>
</svg>
