<svg width="27" height="27" viewBox="0 0 27 27" fill="none" xmlns="http://www.w3.org/2000/svg">
<path d="M16.7501 25.1471H10.2501C4.36758 25.1471 1.85425 22.6338 1.85425 16.7513V10.2513C1.85425 4.3688 4.36758 1.85547 10.2501 1.85547H16.7501C22.6326 1.85547 25.1459 4.3688 25.1459 10.2513V16.7513C25.1459 22.6338 22.6326 25.1471 16.7501 25.1471ZM10.2501 3.48047C5.25591 3.48047 3.47925 5.25714 3.47925 10.2513V16.7513C3.47925 21.7455 5.25591 23.5221 10.2501 23.5221H16.7501C21.7442 23.5221 23.5209 21.7455 23.5209 16.7513V10.2513C23.5209 5.25714 21.7442 3.48047 16.7501 3.48047H10.2501Z" fill="#FAFAFA"/>
<path d="M11.9616 17.3781C11.7449 17.3781 11.5391 17.2914 11.3874 17.1397L8.32156 14.0739C8.0074 13.7597 8.0074 13.2397 8.32156 12.9256C8.63573 12.6114 9.15573 12.6114 9.4699 12.9256L11.9616 15.4172L17.5299 9.84891C17.8441 9.53474 18.3641 9.53474 18.6782 9.84891C18.9924 10.1631 18.9924 10.6831 18.6782 10.9972L12.5357 17.1397C12.3841 17.2914 12.1782 17.3781 11.9616 17.3781Z" fill="#FAFAFA"/>
</svg>
