<svg width="18" height="19" viewBox="0 0 18 19" fill="none" xmlns="http://www.w3.org/2000/svg">
<path d="M15.75 5.54687C15.735 5.54687 15.7125 5.54687 15.69 5.54687C11.7225 5.14937 7.7625 4.99937 3.84 5.39687L2.31 5.54687C1.995 5.57687 1.7175 5.35187 1.6875 5.03687C1.6575 4.72187 1.8825 4.45187 2.19 4.42187L3.72 4.27187C7.71 3.86687 11.7525 4.02437 15.8025 4.42187C16.11 4.45187 16.335 4.72937 16.305 5.03687C16.2825 5.32937 16.035 5.54687 15.75 5.54687Z" fill="#DD3025"/>
<path d="M6.37501 4.79C6.34501 4.79 6.31501 4.79 6.27751 4.7825C5.97751 4.73 5.76751 4.4375 5.82001 4.1375L5.98501 3.155C6.10501 2.435 6.27001 1.4375 8.01751 1.4375H9.98251C11.7375 1.4375 11.9025 2.4725 12.015 3.1625L12.18 4.1375C12.2325 4.445 12.0225 4.7375 11.7225 4.7825C11.415 4.835 11.1225 4.625 11.0775 4.325L10.9125 3.35C10.8075 2.6975 10.785 2.57 9.99001 2.57H8.02501C7.23001 2.57 7.21501 2.675 7.10251 3.3425L6.93001 4.3175C6.88501 4.595 6.64501 4.79 6.37501 4.79Z" fill="#DD3025"/>
<path d="M11.4075 17.5617H6.59248C3.97498 17.5617 3.86999 16.1142 3.78749 14.9442L3.29999 7.3917C3.27749 7.0842 3.51748 6.8142 3.82498 6.7917C4.13998 6.7767 4.40249 7.0092 4.42499 7.3167L4.91249 14.8692C4.99499 16.0092 5.02498 16.4367 6.59248 16.4367H11.4075C12.9825 16.4367 13.0125 16.0092 13.0875 14.8692L13.575 7.3167C13.5975 7.0092 13.8675 6.7767 14.175 6.7917C14.4825 6.8142 14.7225 7.0767 14.7 7.3917L14.2125 14.9442C14.13 16.1142 14.025 17.5617 11.4075 17.5617Z" fill="#DD3025"/>
<path d="M10.245 13.4375H7.7475C7.44 13.4375 7.185 13.1825 7.185 12.875C7.185 12.5675 7.44 12.3125 7.7475 12.3125H10.245C10.5525 12.3125 10.8075 12.5675 10.8075 12.875C10.8075 13.1825 10.5525 13.4375 10.245 13.4375Z" fill="#DD3025"/>
<path d="M10.875 10.4375H7.125C6.8175 10.4375 6.5625 10.1825 6.5625 9.875C6.5625 9.5675 6.8175 9.3125 7.125 9.3125H10.875C11.1825 9.3125 11.4375 9.5675 11.4375 9.875C11.4375 10.1825 11.1825 10.4375 10.875 10.4375Z" fill="#DD3025"/>
</svg>
