<svg width="35" height="36" viewBox="0 0 35 36" fill="none" xmlns="http://www.w3.org/2000/svg">
<path d="M26.9396 13.6746C30.3616 15.5811 30.3616 20.5037 26.9396 22.4102L11.2589 31.1466C7.92612 33.0034 3.82536 30.5939 3.82536 26.7788L3.82537 9.30599C3.82537 5.49089 7.92613 3.08134 11.2589 4.93816L26.9396 13.6746Z" fill="#FAFAFA"/>
<path d="M2.93195 26.7515L2.93195 9.33329C2.93195 6.53085 3.95232 4.38951 5.79187 3.29727C7.63142 2.21941 10.0027 2.36313 12.4459 3.72842L28.1251 12.4375C30.712 13.8747 32.1348 15.8579 32.1348 18.0424C32.1348 20.2269 30.712 22.2101 28.1251 23.6473L12.4459 32.3564C9.98834 33.7217 7.63142 33.8798 5.79187 32.7875C3.95232 31.6953 2.93195 29.5539 2.93195 26.7515ZM29.979 18.0424C29.979 16.6915 28.9443 15.3693 27.076 14.3202L11.3967 5.62545C9.64342 4.64819 8.03382 4.49011 6.86973 5.16557C5.72001 5.84102 5.07329 7.33566 5.07329 9.34766L5.07329 26.7659C5.07329 28.7779 5.70564 30.2581 6.86973 30.948C8.03382 31.6234 9.62905 31.4654 11.3967 30.4881L27.076 21.7646C28.9443 20.7155 29.979 19.3933 29.979 18.0424Z" fill="#FAFAFA"/>
<path d="M4.95837 31.609C4.95837 31.3934 5.01586 31.1778 5.15957 30.991L14.228 18.0423L5.15957 5.0936C4.81465 4.60497 4.92963 3.92951 5.41826 3.59897C5.90689 3.25405 6.58235 3.36902 6.91289 3.85765L16.4124 17.4243C16.6711 17.798 16.6711 18.2866 16.4124 18.6603L6.91289 32.2269C6.56798 32.7156 5.89252 32.8305 5.41826 32.4856C5.11646 32.2844 4.95837 31.9539 4.95837 31.609Z" fill="#FAFAFA"/>
<path d="M14.4582 18.0425C14.4582 17.4532 14.9469 16.9646 15.5361 16.9646L30.468 16.9646C31.0573 16.9646 31.5459 17.4532 31.5459 18.0425C31.5459 18.6317 31.0573 19.1203 30.468 19.1203L15.5361 19.1203C14.9469 19.1203 14.4582 18.6317 14.4582 18.0425Z" fill="#FAFAFA"/>
</svg>
