<svg width="16" height="16" viewBox="0 0 16 16" fill="none" xmlns="http://www.w3.org/2000/svg">
<path fill-rule="evenodd" clip-rule="evenodd" d="M0.571419 9.71484C0.886843 9.71484 1.14284 9.97084 1.14284 10.2863V13.1434C1.14284 14.0902 1.91025 14.8576 2.8571 14.8576H13.1426C14.0895 14.8576 14.8569 14.0902 14.8569 13.1434V10.2863C14.8569 9.97084 15.1129 9.71484 15.4283 9.71484C15.7437 9.71484 15.9997 9.97084 15.9997 10.2863V13.1434C15.9997 14.721 14.7203 16.0005 13.1426 16.0005H2.8571C1.27941 16.0005 0 14.721 0 13.1434V10.2863C0 9.97084 0.255996 9.71484 0.571419 9.71484Z" fill="#022B94"/>
<path fill-rule="evenodd" clip-rule="evenodd" d="M8.40398 12.4038C8.18112 12.6272 7.81888 12.6272 7.59602 12.4038L4.16751 8.97526C3.94408 8.75241 3.94408 8.39016 4.16751 8.16731C4.39036 7.94389 4.75261 7.94389 4.97546 8.16731L7.42858 10.6204V0.571419C7.42858 0.255996 7.68458 0 8 0C8.31542 0 8.57142 0.255996 8.57142 0.571419V10.6204L11.0245 8.16731C11.2474 7.94389 11.6096 7.94389 11.8325 8.16731C12.0559 8.39016 12.0559 8.75241 11.8325 8.97526L8.40398 12.4038Z" fill="#022B94"/>
</svg>
