<svg width="36" height="36" viewBox="0 0 36 36" fill="none" xmlns="http://www.w3.org/2000/svg">
<circle cx="18" cy="18" r="18" fill="#1B409F"/>
<path d="M17.9993 18.6874C15.0935 18.6874 12.7285 16.3224 12.7285 13.4166C12.7285 10.5108 15.0935 8.14575 17.9993 8.14575C20.9052 8.14575 23.2702 10.5108 23.2702 13.4166C23.2702 16.3224 20.9052 18.6874 17.9993 18.6874ZM17.9993 9.52075C15.8543 9.52075 14.1035 11.2716 14.1035 13.4166C14.1035 15.5616 15.8543 17.3124 17.9993 17.3124C20.1443 17.3124 21.8952 15.5616 21.8952 13.4166C21.8952 11.2716 20.1443 9.52075 17.9993 9.52075Z" fill="#F3F3F3"/>
<path d="M25.8743 27.8542C25.4985 27.8542 25.1868 27.5425 25.1868 27.1667C25.1868 24.0042 21.9601 21.4375 18.0001 21.4375C14.0401 21.4375 10.8135 24.0042 10.8135 27.1667C10.8135 27.5425 10.5018 27.8542 10.126 27.8542C9.75014 27.8542 9.43848 27.5425 9.43848 27.1667C9.43848 23.2525 13.2793 20.0625 18.0001 20.0625C22.721 20.0625 26.5618 23.2525 26.5618 27.1667C26.5618 27.5425 26.2501 27.8542 25.8743 27.8542Z" fill="#F3F3F3"/>
</svg>
