<svg width="36" height="36" viewBox="0 0 36 36" fill="none" xmlns="http://www.w3.org/2000/svg">
<circle cx="18" cy="18" r="18" fill="#FAFAFA"/>
<path d="M17.9998 18.6874C15.094 18.6874 12.729 16.3224 12.729 13.4166C12.729 10.5108 15.094 8.14575 17.9998 8.14575C20.9057 8.14575 23.2707 10.5108 23.2707 13.4166C23.2707 16.3224 20.9057 18.6874 17.9998 18.6874ZM17.9998 9.52075C15.8548 9.52075 14.104 11.2716 14.104 13.4166C14.104 15.5616 15.8548 17.3124 17.9998 17.3124C20.1448 17.3124 21.8957 15.5616 21.8957 13.4166C21.8957 11.2716 20.1448 9.52075 17.9998 9.52075Z" fill="#022B94"/>
<path d="M25.8745 27.8542C25.4987 27.8542 25.187 27.5425 25.187 27.1667C25.187 24.0042 21.9604 21.4375 18.0004 21.4375C14.0404 21.4375 10.8137 24.0042 10.8137 27.1667C10.8137 27.5425 10.5021 27.8542 10.1262 27.8542C9.75039 27.8542 9.43872 27.5425 9.43872 27.1667C9.43872 23.2525 13.2796 20.0625 18.0004 20.0625C22.7212 20.0625 26.562 23.2525 26.562 27.1667C26.562 27.5425 26.2504 27.8542 25.8745 27.8542Z" fill="#022B94"/>
</svg>
