<svg width="28" height="28" viewBox="0 0 28 28" fill="none" xmlns="http://www.w3.org/2000/svg">
<path d="M14.0001 14.8757C10.3017 14.8757 7.29175 11.8657 7.29175 8.16732C7.29175 4.46898 10.3017 1.45898 14.0001 1.45898C17.6984 1.45898 20.7084 4.46898 20.7084 8.16732C20.7084 11.8657 17.6984 14.8757 14.0001 14.8757ZM14.0001 3.20898C11.2701 3.20898 9.04175 5.43732 9.04175 8.16732C9.04175 10.8973 11.2701 13.1257 14.0001 13.1257C16.7301 13.1257 18.9584 10.8973 18.9584 8.16732C18.9584 5.43732 16.7301 3.20898 14.0001 3.20898Z" fill="#FAFAFA"/>
<path d="M18.4568 26.5419C18.0135 26.5419 17.5935 26.3786 17.2901 26.0752C16.9285 25.7136 16.7651 25.1886 16.8468 24.6403L17.0685 23.0653C17.1268 22.657 17.3718 22.1786 17.6635 21.8753L21.7935 17.7453C23.4501 16.0886 24.9085 17.0336 25.6202 17.7453C26.2268 18.352 26.5418 19.0052 26.5418 19.6586C26.5418 20.3236 26.2385 20.9419 25.6202 21.5602L21.4901 25.6903C21.1985 25.982 20.7085 26.227 20.3002 26.2853L18.7251 26.5069C18.6318 26.5302 18.5501 26.5419 18.4568 26.5419ZM23.6951 18.5736C23.4851 18.5736 23.2985 18.7136 23.0301 18.982L18.9002 23.1119C18.8652 23.1469 18.8068 23.2636 18.8068 23.3102L18.5968 24.7686L20.0551 24.5586C20.1018 24.5469 20.2185 24.4886 20.2535 24.4536L24.3835 20.3236C24.5702 20.1369 24.7918 19.8686 24.7918 19.6586C24.7918 19.4836 24.6518 19.2386 24.3835 18.982C24.1035 18.702 23.8935 18.5736 23.6951 18.5736Z" fill="#FAFAFA"/>
<path d="M24.4069 22.4229C24.3252 22.4229 24.2435 22.4113 24.1735 22.3879C22.6335 21.9563 21.4085 20.7313 20.9769 19.1913C20.8485 18.7246 21.1169 18.2463 21.5835 18.118C22.0502 17.9896 22.5285 18.2579 22.6569 18.7246C22.9252 19.6813 23.6835 20.4396 24.6402 20.7079C25.1069 20.8363 25.3752 21.3263 25.2469 21.7813C25.1419 22.1663 24.7919 22.4229 24.4069 22.4229Z" fill="#FAFAFA"/>
<path d="M3.97852 26.5417C3.50018 26.5417 3.10352 26.145 3.10352 25.6667C3.10352 20.685 7.99188 16.625 14.0002 16.625C15.2719 16.625 16.5319 16.8117 17.7102 17.1617C18.1769 17.3017 18.4335 17.7917 18.2935 18.2467C18.1535 18.7134 17.6635 18.97 17.2085 18.83C16.1819 18.5267 15.1085 18.3633 14.0002 18.3633C8.96021 18.3633 4.85352 21.63 4.85352 25.655C4.85352 26.145 4.45685 26.5417 3.97852 26.5417Z" fill="#FAFAFA"/>
</svg>
