<svg width="48" height="48" viewBox="0 0 48 48" fill="none" xmlns="http://www.w3.org/2000/svg">
<path fill-rule="evenodd" clip-rule="evenodd" d="M42.3943 48C42.4114 48 42.4114 48 42.4286 48H42.4629C45.5486 47.9829 48 45.4285 48 42.3599V15.4286C48 12.3429 45.5314 9.7885 42.4286 9.7885H38.3657C37.2 9.7885 36.2229 8.82845 36.2229 7.59417C36.2229 3.42845 32.88 0 28.7143 0C24.5486 0 21.2229 3.42845 21.2229 7.59417C21.2229 8.82845 20.2286 9.7885 19.08 9.7885H15.2229C12.12 9.7885 9.65144 12.3429 9.65144 15.4286V19.097C9.65144 20.3484 8.65715 21.3085 7.50858 21.3085C3.32572 21.3085 0 24.7373 0 28.903C0 33.0688 3.32572 36.4972 7.50858 36.4972C8.65715 36.4972 9.65144 37.4573 9.65144 38.6915V42.3599C9.65144 45.4628 12.12 48 15.2229 48H22.9372C23.88 48 24.6514 47.2286 24.6514 46.2857V42.3599C24.6514 40.0456 26.4857 38.2115 28.7143 38.2115C30.9429 38.2115 32.7943 40.0456 32.7943 42.3599V46.2857C32.7943 47.2286 33.5486 48 34.5086 48H42.3943ZM42.4457 44.5714H36.2229V42.3599C36.2229 38.1942 32.88 34.7829 28.7143 34.7829C24.5486 34.7829 21.2229 38.1942 21.2229 42.3599V44.5714H15.2229C14.0572 44.5714 13.08 43.6114 13.08 42.3599V38.6915C13.08 35.6058 10.5943 33.0686 7.50858 33.0686C5.28001 33.0686 3.42857 31.2173 3.42857 28.903C3.42857 26.5716 5.28001 24.737 7.50858 24.737C10.5943 24.737 13.08 22.1827 13.08 19.097V15.4286C13.08 14.1943 14.0572 13.2171 15.2229 13.2171H19.08C22.1657 13.2171 24.6514 10.6799 24.6514 7.59417C24.6514 5.26274 26.4857 3.42857 28.7143 3.42857C30.9429 3.42857 32.7943 5.26274 32.7943 7.59417C32.7943 10.6799 35.2629 13.2171 38.3657 13.2171H42.4286C43.5771 13.2171 44.5714 14.1943 44.5714 15.4286V42.3599C44.5714 43.5942 43.5943 44.5543 42.4457 44.5714Z" fill="white"/>
</svg>
