<svg width="22" height="22" viewBox="0 0 22 22" fill="none" xmlns="http://www.w3.org/2000/svg">
<g clip-path="url(#clip0_1927_4161)">
<path fill-rule="evenodd" clip-rule="evenodd" d="M0.935764 0H9.40717C9.92459 0 10.3429 0.422899 10.3429 0.935801V9.40736C10.2982 9.92474 9.92041 10.2982 9.40717 10.2982H0.935764C0.423123 10.2982 0 9.87524 0 9.36238V0.935801C0 0.422899 0.423123 0 0.935764 0ZM1.82677 8.47156H8.47141V1.82658H1.82677V8.47156Z" fill="#022B94"/>
<path fill-rule="evenodd" clip-rule="evenodd" d="M0.935764 11.6562H9.40717C9.92459 11.6562 10.3429 12.0746 10.3429 12.592V21.0636C10.2982 21.5765 9.92041 21.9994 9.40717 21.9994H0.935764C0.423123 21.9994 0 21.5765 0 21.0636V12.592C0 12.0791 0.423123 11.6562 0.935764 11.6562ZM1.82677 20.1729H8.47141V13.5279H1.82677V20.1729Z" fill="#022B94"/>
<path fill-rule="evenodd" clip-rule="evenodd" d="M21.0633 11.6562H12.592C12.0794 11.6562 11.6562 12.0791 11.6562 12.592V21.0636C11.6562 21.5765 12.0794 21.9994 12.592 21.9994H21.0633C21.5766 21.9994 21.9992 21.5765 21.9992 21.0636V12.592C21.9992 12.0746 21.5766 11.6562 21.0633 11.6562ZM20.1729 20.1729H13.5278V13.5279H20.1729V20.1729Z" fill="#022B94"/>
<path d="M16.8282 0C17.3319 0 17.7395 0.408017 17.7395 0.911296V6.80909L19.2751 5.27371C19.6313 4.91783 20.2078 4.91783 20.5641 5.27371C20.9198 5.62958 20.9198 6.2066 20.5641 6.56247L17.4889 9.6375L17.4728 9.6538C17.206 9.92078 16.8145 9.98747 16.4857 9.85387L16.4648 9.84525C16.3627 9.80094 16.2673 9.73708 16.1843 9.65368L16.1736 9.6432L13.0929 6.56258C12.7373 6.20671 12.7373 5.62969 13.0929 5.27382C13.4492 4.91794 14.0257 4.91794 14.382 5.27382L15.9169 6.8092V0.911296C15.9169 0.408017 16.3251 0 16.8282 0Z" fill="#022B94"/>
</g>
<defs>
<clipPath id="clip0_1927_4161">
<rect width="22" height="22" fill="white"/>
</clipPath>
</defs>
</svg>
