<svg width="42" height="42" viewBox="0 0 42 42" fill="none" xmlns="http://www.w3.org/2000/svg">
<path fill-rule="evenodd" clip-rule="evenodd" d="M37.095 42C37.11 42 37.11 42 37.125 42H37.155C39.855 41.985 42 39.7499 42 37.0649V13.5C42 10.8 39.84 8.56494 37.125 8.56494H33.57C32.55 8.56494 31.695 7.7249 31.695 6.6449C31.695 2.9999 28.77 0 25.125 0C21.48 0 18.57 2.9999 18.57 6.6449C18.57 7.7249 17.7 8.56494 16.695 8.56494H13.32C10.605 8.56494 8.44501 10.8 8.44501 13.5V16.7098C8.44501 17.8048 7.57501 18.6449 6.57001 18.6449C2.91001 18.6449 0 21.6452 0 25.2902C0 28.9352 2.91001 31.9351 6.57001 31.9351C7.57501 31.9351 8.44501 32.7751 8.44501 33.8551V37.0649C8.44501 39.7799 10.605 42 13.32 42H20.07C20.895 42 21.57 41.325 21.57 40.5V37.0649C21.57 35.0399 23.175 33.4351 25.125 33.4351C27.075 33.4351 28.695 35.0399 28.695 37.0649V40.5C28.695 41.325 29.355 42 30.195 42H37.095ZM37.14 39H31.695V37.0649C31.695 33.4199 28.77 30.4351 25.125 30.4351C21.48 30.4351 18.57 33.4199 18.57 37.0649V39H13.32C12.3 39 11.445 38.1599 11.445 37.0649V33.8551C11.445 31.1551 9.27001 28.9351 6.57001 28.9351C4.62001 28.9351 3 27.3152 3 25.2902C3 23.2502 4.62001 21.6449 6.57001 21.6449C9.27001 21.6449 11.445 19.4098 11.445 16.7098V13.5C11.445 12.42 12.3 11.5649 13.32 11.5649H16.695C19.395 11.5649 21.57 9.3449 21.57 6.6449C21.57 4.6049 23.175 3 25.125 3C27.075 3 28.695 4.6049 28.695 6.6449C28.695 9.3449 30.855 11.5649 33.57 11.5649H37.125C38.13 11.5649 39 12.42 39 13.5V37.0649C39 38.1449 38.145 38.985 37.14 39Z" fill="#022B94"/>
</svg>
