<svg width="22" height="22" viewBox="0 0 22 22" fill="none" xmlns="http://www.w3.org/2000/svg">
<g clip-path="url(#clip0_316_900)">
<path fill-rule="evenodd" clip-rule="evenodd" d="M0.935764 0H9.40717C9.92459 0 10.3429 0.422899 10.3429 0.935801V9.40736C10.2982 9.92474 9.92041 10.2982 9.40717 10.2982H0.935764C0.423123 10.2982 0 9.87524 0 9.36238V0.935801C0 0.422899 0.423123 0 0.935764 0ZM1.82677 8.47156H8.47141V1.82658H1.82677V8.47156Z" fill="black"/>
<path fill-rule="evenodd" clip-rule="evenodd" d="M0.935764 11.6567H9.40717C9.92459 11.6567 10.3429 12.0751 10.3429 12.5925V21.0641C10.2982 21.577 9.92041 21.9999 9.40717 21.9999H0.935764C0.423123 21.9999 0 21.577 0 21.0641V12.5925C0 12.0796 0.423123 11.6567 0.935764 11.6567ZM1.82677 20.1733H8.47141V13.5283H1.82677V20.1733Z" fill="black"/>
<path fill-rule="evenodd" clip-rule="evenodd" d="M21.0643 11.6567H12.5929C12.0803 11.6567 11.6572 12.0796 11.6572 12.5925V21.0641C11.6572 21.577 12.0803 21.9999 12.5929 21.9999H21.0643C21.5776 21.9999 22.0001 21.577 22.0001 21.0641V12.5925C22.0001 12.0751 21.5776 11.6567 21.0643 11.6567ZM20.1739 20.1733H13.5287V13.5283H20.1739V20.1733Z" fill="black"/>
<path d="M16.8282 0C17.3319 0 17.7395 0.408017 17.7395 0.911296V6.80909L19.2751 5.27371C19.6313 4.91783 20.2078 4.91783 20.5641 5.27371C20.9198 5.62958 20.9198 6.2066 20.5641 6.56247L17.4889 9.6375L17.4728 9.6538C17.206 9.92078 16.8145 9.98747 16.4857 9.85387L16.4648 9.84525C16.3627 9.80094 16.2673 9.73708 16.1843 9.65368L16.1736 9.6432L13.0929 6.56258C12.7373 6.20671 12.7373 5.62969 13.0929 5.27382C13.4492 4.91794 14.0257 4.91794 14.382 5.27382L15.9169 6.8092V0.911296C15.9169 0.408017 16.3251 0 16.8282 0Z" fill="black"/>
</g>
<defs>
<clipPath id="clip0_316_900">
<rect width="22" height="22" fill="white"/>
</clipPath>
</defs>
</svg>
